<?xml version="1.0" encoding="iso-8859-1"?>
<!-- Generator: Adobe Illustrator 18.0.0, SVG Export Plug-In . SVG Version: 6.00 Build 0)  -->
<!DOCTYPE svg PUBLIC "-//W3C//DTD SVG 1.1//EN" "http://www.w3.org/Graphics/SVG/1.1/DTD/svg11.dtd">
<svg version="1.1" id="Layer_1" xmlns="http://www.w3.org/2000/svg" xmlns:xlink="http://www.w3.org/1999/xlink" x="0px" y="0px"
	 viewBox="0 0 258.4 446.3" style="enable-background:new 0 0 258.4 446.3;" xml:space="preserve">
<pattern  x="79.2" y="193.7" width="28" height="28" patternUnits="userSpaceOnUse" id="Unnamed_Pattern" viewBox="81.4 -88.4 28 28" style="overflow:visible;">
	<g>
		<polygon style="fill:none;" points="81.4,-88.4 109.4,-88.4 109.4,-60.4 81.4,-60.4 		"/>
		<g>
			<line style="fill:none;stroke:#FFFFFF;stroke-width:2;stroke-miterlimit:10;" x1="180" y1="-166" x2="98.7" y2="-84.7"/>
			<line style="fill:none;stroke:#FFFFFF;stroke-width:2;stroke-miterlimit:10;" x1="187" y1="-166" x2="105.7" y2="-84.7"/>
		</g>
		<g>
			<line style="fill:none;stroke:#FFFFFF;stroke-width:2;stroke-miterlimit:10;" x1="152" y1="-166" x2="70.7" y2="-84.7"/>
			<line style="fill:none;stroke:#FFFFFF;stroke-width:2;stroke-miterlimit:10;" x1="159" y1="-166" x2="77.7" y2="-84.7"/>
			<line style="fill:none;stroke:#FFFFFF;stroke-width:2;stroke-miterlimit:10;" x1="166" y1="-166" x2="84.7" y2="-84.7"/>
			<line style="fill:none;stroke:#FFFFFF;stroke-width:2;stroke-miterlimit:10;" x1="173" y1="-166" x2="91.7" y2="-84.7"/>
		</g>
		<g>
			<line style="fill:none;stroke:#FFFFFF;stroke-width:2;stroke-miterlimit:10;" x1="124" y1="-166" x2="42.7" y2="-84.7"/>
			<line style="fill:none;stroke:#FFFFFF;stroke-width:2;stroke-miterlimit:10;" x1="131" y1="-166" x2="49.7" y2="-84.7"/>
			<line style="fill:none;stroke:#FFFFFF;stroke-width:2;stroke-miterlimit:10;" x1="138" y1="-166" x2="56.7" y2="-84.7"/>
			<line style="fill:none;stroke:#FFFFFF;stroke-width:2;stroke-miterlimit:10;" x1="145" y1="-166" x2="63.7" y2="-84.7"/>
		</g>
		<g>
			<line style="fill:none;stroke:#FFFFFF;stroke-width:2;stroke-miterlimit:10;" x1="96" y1="-166" x2="14.7" y2="-84.7"/>
			<line style="fill:none;stroke:#FFFFFF;stroke-width:2;stroke-miterlimit:10;" x1="103" y1="-166" x2="21.7" y2="-84.7"/>
			<line style="fill:none;stroke:#FFFFFF;stroke-width:2;stroke-miterlimit:10;" x1="110" y1="-166" x2="28.7" y2="-84.7"/>
			<line style="fill:none;stroke:#FFFFFF;stroke-width:2;stroke-miterlimit:10;" x1="117" y1="-166" x2="35.7" y2="-84.7"/>
		</g>
		<g>
			<line style="fill:none;stroke:#FFFFFF;stroke-width:2;stroke-miterlimit:10;" x1="82" y1="-166" x2="0.7" y2="-84.7"/>
			<line style="fill:none;stroke:#FFFFFF;stroke-width:2;stroke-miterlimit:10;" x1="89" y1="-166" x2="7.7" y2="-84.7"/>
		</g>
		<g>
			<line style="fill:none;stroke:#FFFFFF;stroke-width:2;stroke-miterlimit:10;" x1="180" y1="-138" x2="98.7" y2="-56.7"/>
			<line style="fill:none;stroke:#FFFFFF;stroke-width:2;stroke-miterlimit:10;" x1="187" y1="-138" x2="105.7" y2="-56.7"/>
		</g>
		<g>
			<line style="fill:none;stroke:#FFFFFF;stroke-width:2;stroke-miterlimit:10;" x1="152" y1="-138" x2="70.7" y2="-56.7"/>
			<line style="fill:none;stroke:#FFFFFF;stroke-width:2;stroke-miterlimit:10;" x1="159" y1="-138" x2="77.7" y2="-56.7"/>
			<line style="fill:none;stroke:#FFFFFF;stroke-width:2;stroke-miterlimit:10;" x1="166" y1="-138" x2="84.7" y2="-56.7"/>
			<line style="fill:none;stroke:#FFFFFF;stroke-width:2;stroke-miterlimit:10;" x1="173" y1="-138" x2="91.7" y2="-56.7"/>
		</g>
		<g>
			<line style="fill:none;stroke:#FFFFFF;stroke-width:2;stroke-miterlimit:10;" x1="124" y1="-138" x2="42.7" y2="-56.7"/>
			<line style="fill:none;stroke:#FFFFFF;stroke-width:2;stroke-miterlimit:10;" x1="131" y1="-138" x2="49.7" y2="-56.7"/>
			<line style="fill:none;stroke:#FFFFFF;stroke-width:2;stroke-miterlimit:10;" x1="138" y1="-138" x2="56.7" y2="-56.7"/>
			<line style="fill:none;stroke:#FFFFFF;stroke-width:2;stroke-miterlimit:10;" x1="145" y1="-138" x2="63.7" y2="-56.7"/>
		</g>
		<g>
			<line style="fill:none;stroke:#FFFFFF;stroke-width:2;stroke-miterlimit:10;" x1="96" y1="-138" x2="14.7" y2="-56.7"/>
			<line style="fill:none;stroke:#FFFFFF;stroke-width:2;stroke-miterlimit:10;" x1="103" y1="-138" x2="21.7" y2="-56.7"/>
			<line style="fill:none;stroke:#FFFFFF;stroke-width:2;stroke-miterlimit:10;" x1="110" y1="-138" x2="28.7" y2="-56.7"/>
			<line style="fill:none;stroke:#FFFFFF;stroke-width:2;stroke-miterlimit:10;" x1="117" y1="-138" x2="35.7" y2="-56.7"/>
		</g>
		<g>
			<line style="fill:none;stroke:#FFFFFF;stroke-width:2;stroke-miterlimit:10;" x1="82" y1="-138" x2="0.7" y2="-56.7"/>
			<line style="fill:none;stroke:#FFFFFF;stroke-width:2;stroke-miterlimit:10;" x1="89" y1="-138" x2="7.7" y2="-56.7"/>
		</g>
		<g>
			<line style="fill:none;stroke:#FFFFFF;stroke-width:2;stroke-miterlimit:10;" x1="180" y1="-110" x2="98.7" y2="-28.7"/>
			<line style="fill:none;stroke:#FFFFFF;stroke-width:2;stroke-miterlimit:10;" x1="187" y1="-110" x2="105.7" y2="-28.7"/>
		</g>
		<g>
			<line style="fill:none;stroke:#FFFFFF;stroke-width:2;stroke-miterlimit:10;" x1="152" y1="-110" x2="70.7" y2="-28.7"/>
			<line style="fill:none;stroke:#FFFFFF;stroke-width:2;stroke-miterlimit:10;" x1="159" y1="-110" x2="77.7" y2="-28.7"/>
			<line style="fill:none;stroke:#FFFFFF;stroke-width:2;stroke-miterlimit:10;" x1="166" y1="-110" x2="84.7" y2="-28.7"/>
			<line style="fill:none;stroke:#FFFFFF;stroke-width:2;stroke-miterlimit:10;" x1="173" y1="-110" x2="91.7" y2="-28.7"/>
		</g>
		<g>
			<line style="fill:none;stroke:#FFFFFF;stroke-width:2;stroke-miterlimit:10;" x1="124" y1="-110" x2="42.7" y2="-28.7"/>
			<line style="fill:none;stroke:#FFFFFF;stroke-width:2;stroke-miterlimit:10;" x1="131" y1="-110" x2="49.7" y2="-28.7"/>
			<line style="fill:none;stroke:#FFFFFF;stroke-width:2;stroke-miterlimit:10;" x1="138" y1="-110" x2="56.7" y2="-28.7"/>
			<line style="fill:none;stroke:#FFFFFF;stroke-width:2;stroke-miterlimit:10;" x1="145" y1="-110" x2="63.7" y2="-28.7"/>
		</g>
		<g>
			<line style="fill:none;stroke:#FFFFFF;stroke-width:2;stroke-miterlimit:10;" x1="96" y1="-110" x2="14.7" y2="-28.7"/>
			<line style="fill:none;stroke:#FFFFFF;stroke-width:2;stroke-miterlimit:10;" x1="103" y1="-110" x2="21.7" y2="-28.7"/>
			<line style="fill:none;stroke:#FFFFFF;stroke-width:2;stroke-miterlimit:10;" x1="110" y1="-110" x2="28.7" y2="-28.7"/>
			<line style="fill:none;stroke:#FFFFFF;stroke-width:2;stroke-miterlimit:10;" x1="117" y1="-110" x2="35.7" y2="-28.7"/>
		</g>
		<g>
			<line style="fill:none;stroke:#FFFFFF;stroke-width:2;stroke-miterlimit:10;" x1="82" y1="-110" x2="0.7" y2="-28.7"/>
			<line style="fill:none;stroke:#FFFFFF;stroke-width:2;stroke-miterlimit:10;" x1="89" y1="-110" x2="7.7" y2="-28.7"/>
		</g>
		<g>
			<line style="fill:none;stroke:#FFFFFF;stroke-width:2;stroke-miterlimit:10;" x1="180" y1="-82" x2="98.7" y2="-0.7"/>
			<line style="fill:none;stroke:#FFFFFF;stroke-width:2;stroke-miterlimit:10;" x1="187" y1="-82" x2="105.7" y2="-0.7"/>
		</g>
		<g>
			<line style="fill:none;stroke:#FFFFFF;stroke-width:2;stroke-miterlimit:10;" x1="152" y1="-82" x2="70.7" y2="-0.7"/>
			<line style="fill:none;stroke:#FFFFFF;stroke-width:2;stroke-miterlimit:10;" x1="159" y1="-82" x2="77.7" y2="-0.7"/>
			<line style="fill:none;stroke:#FFFFFF;stroke-width:2;stroke-miterlimit:10;" x1="166" y1="-82" x2="84.7" y2="-0.7"/>
			<line style="fill:none;stroke:#FFFFFF;stroke-width:2;stroke-miterlimit:10;" x1="173" y1="-82" x2="91.7" y2="-0.7"/>
		</g>
		<g>
			<line style="fill:none;stroke:#FFFFFF;stroke-width:2;stroke-miterlimit:10;" x1="124" y1="-82" x2="42.7" y2="-0.7"/>
			<line style="fill:none;stroke:#FFFFFF;stroke-width:2;stroke-miterlimit:10;" x1="131" y1="-82" x2="49.7" y2="-0.7"/>
			<line style="fill:none;stroke:#FFFFFF;stroke-width:2;stroke-miterlimit:10;" x1="138" y1="-82" x2="56.7" y2="-0.7"/>
			<line style="fill:none;stroke:#FFFFFF;stroke-width:2;stroke-miterlimit:10;" x1="145" y1="-82" x2="63.7" y2="-0.7"/>
		</g>
		<g>
			<line style="fill:none;stroke:#FFFFFF;stroke-width:2;stroke-miterlimit:10;" x1="96" y1="-82" x2="14.7" y2="-0.7"/>
			<line style="fill:none;stroke:#FFFFFF;stroke-width:2;stroke-miterlimit:10;" x1="103" y1="-82" x2="21.7" y2="-0.7"/>
			<line style="fill:none;stroke:#FFFFFF;stroke-width:2;stroke-miterlimit:10;" x1="110" y1="-82" x2="28.7" y2="-0.7"/>
			<line style="fill:none;stroke:#FFFFFF;stroke-width:2;stroke-miterlimit:10;" x1="117" y1="-82" x2="35.7" y2="-0.7"/>
		</g>
		<g>
			<line style="fill:none;stroke:#FFFFFF;stroke-width:2;stroke-miterlimit:10;" x1="82" y1="-82" x2="0.7" y2="-0.7"/>
			<line style="fill:none;stroke:#FFFFFF;stroke-width:2;stroke-miterlimit:10;" x1="89" y1="-82" x2="7.7" y2="-0.7"/>
		</g>
	</g>
</pattern>
<rect x="0.4" y="0" style="fill:#FFFFFF;" width="258.4" height="446.3"/>
<g>
	<g>
		<path style="fill:none;stroke:#CECECE;stroke-width:0.3585;stroke-miterlimit:10;" d="M7,385.5"/>
		<path style="fill:none;stroke:#CECECE;stroke-width:0.3585;stroke-miterlimit:10;" d="M7,385.5"/>
		<path style="fill:none;stroke:#CECECE;stroke-width:0.3585;stroke-miterlimit:10;" d="M37.9,374.6"/>
		<path style="fill:none;stroke:#CECECE;stroke-width:0.3585;stroke-miterlimit:10;" d="M37.9,374.6"/>
		<path style="fill:none;stroke:#CECECE;stroke-width:0.3585;stroke-miterlimit:10;" d="M30,374.6"/>
		<path style="fill:none;stroke:#CECECE;stroke-width:0.3585;stroke-miterlimit:10;" d="M30,374.6"/>
		<path style="fill:none;stroke:#CECECE;stroke-width:0.3585;stroke-miterlimit:10;" d="M1.5,372.7"/>
		<path style="fill:none;stroke:#CECECE;stroke-width:0.3585;stroke-miterlimit:10;" d="M1.5,372.7"/>
		<rect x="29.3" y="225.2" style="fill:#0078D7;" width="228.7" height="57.3"/>
		<line style="fill:none;stroke:#BCBDBF;stroke-width:0.3901;stroke-miterlimit:1;" x1="29.2" y1="96" x2="29.2" y2="399.3"/>
		<rect x="29.3" y="139.2" style="fill:#CCCCCC;" width="229.4" height="28.7"/>
		<line style="fill:none;stroke:#BCBDBF;stroke-width:0.3802;stroke-miterlimit:1;" x1="257.7" y1="96.3" x2="0.4" y2="96.3"/>
		<line style="fill:none;stroke:#BCBDBF;stroke-width:0.1901;stroke-miterlimit:1;" x1="257.7" y1="110.5" x2="0.4" y2="110.5"/>
		<line style="fill:none;stroke:#BCBDBF;stroke-width:0.1905;stroke-miterlimit:1;" x1="258.7" y1="167.8" x2="0.4" y2="167.8"/>
		<rect x="29.3" y="370.6" style="fill:#CCCCCC;" width="229.4" height="28.7"/>
		<line style="fill:none;stroke:#BCBDBF;stroke-width:0.1905;stroke-miterlimit:1;" x1="258.7" y1="399.3" x2="0.4" y2="399.3"/>
		<line style="fill:none;stroke:#BCBDBF;stroke-width:0.1793;stroke-miterlimit:1;" x1="229.2" y1="225.2" x2="0.4" y2="225.2"/>
		<line style="fill:none;stroke:#BCBDBF;stroke-width:0.1793;stroke-miterlimit:1;" x1="229.4" y1="282.6" x2="0.4" y2="282.6"/>
		<line style="fill:none;stroke:#BCBDBF;stroke-width:0.1894;stroke-miterlimit:1;" x1="255.8" y1="339.9" x2="0.4" y2="339.9"/>
		<rect x="144.6" y="289.6" style="fill:#CCCCCC;" width="113.6" height="28.7"/>
		<g>
			<g>
				<polyline style="fill:#FFFFFF;" points="249.3,270.7 247.6,270.8 248.4,271.6 250.8,271.6 250.8,271.6 250.8,271.6 250.8,271.6 
					250.8,271.6 250.8,269.2 250,268.4 249.9,270.2 				"/>
				<path style="fill:#FFFFFF;" d="M245.6,271.9l-1.3,0c0.4-2.1,2.2-3.1,4-2.8c1,0.2,1.8,0.8,2.3,1.7l-1,0.5c-0.3-0.6-0.8-1-1.5-1.1
					C247,270,245.9,270.7,245.6,271.9"/>
				<polyline style="fill:#FFFFFF;" points="245.9,273.8 247.6,273.7 246.8,272.9 244.4,272.9 244.4,272.9 244.4,272.9 244.4,272.9 
					244.4,272.9 244.4,275.3 245.2,276.1 245.3,274.4 				"/>
				<path style="fill:#FFFFFF;" d="M246.8,275.5c-1-0.2-1.8-0.8-2.3-1.7l1-0.5c0.3,0.6,0.8,1,1.5,1.1c1.1,0.2,2.3-0.5,2.5-1.7l1.3,0
					C250.4,274.7,248.6,275.8,246.8,275.5"/>
			</g>
		</g>
		<rect x="29.3" y="139.2" style="fill:#999999;" width="2.9" height="28.7"/>
		<rect x="29.6" y="311.1" style="fill:#CCCCCC;" width="112.6" height="28.5"/>
		<rect x="29.3" y="311.1" style="fill:#999999;" width="2.9" height="28.7"/>
		<rect x="144.6" y="289.6" style="fill:#999999;" width="2.9" height="28.7"/>
		<rect x="29" y="412.3" style="fill:#CCCCCC;" width="229.7" height="28.7"/>
		<rect x="29" y="412.3" style="fill:#999999;" width="2.9" height="28.7"/>
		<line style="fill:none;stroke:#333333;stroke-width:0.717;stroke-miterlimit:10;" x1="258.5" y1="263.4" x2="28.5" y2="263.4"/>
		<g style="opacity:0.7;">
			
				<pattern  id="SVGID_1_" xlink:href="#Unnamed_Pattern" patternTransform="matrix(0.717 0 0 0.9605 -1994.2764 -419.3347)"  style="opacity:0.7;">
			</pattern>
			<rect x="29.3" y="225.3" style="fill:url(#SVGID_1_);" width="2.9" height="56.6"/>
		</g>
	</g>
	<rect x="28.5" y="48" style="fill:#0078D7;" width="61.6" height="7.2"/>
	<rect x="28.5" y="66.6" style="fill:#999999;" width="85" height="12.2"/>
</g>
</svg>
