<?xml version="1.0" encoding="iso-8859-1"?>
<!-- Generator: Adobe Illustrator 18.1.0, SVG Export Plug-In . SVG Version: 6.00 Build 0)  -->
<!DOCTYPE svg PUBLIC "-//W3C//DTD SVG 1.1//EN" "http://www.w3.org/Graphics/SVG/1.1/DTD/svg11.dtd">
<svg version="1.1" id="Layer_1" xmlns="http://www.w3.org/2000/svg" xmlns:xlink="http://www.w3.org/1999/xlink" x="0px" y="0px"
	 viewBox="74.9 0 458.5 792" style="enable-background:new 74.9 0 458.5 792;" xml:space="preserve">
<style type="text/css">
	.st0{fill:#FFFFFF;}
	.st1{fill:#0078D7;}
	.st2{fill:#CCCCCC;}
	.st3{fill:#999999;}
	.st4{fill:#666666;}
</style>
<g>
	<rect x="74.9" class="st0" width="458.5" height="792"/>
	<g>
		<g>
			<rect x="74.9" y="265.6" class="st1" width="9.8" height="118.3"/>
			<rect x="74.9" y="405.9" class="st1" width="9.8" height="118.3"/>
			<rect x="112" y="318.9" class="st2" width="321.2" height="19.8"/>
			<rect x="112" y="453.1" class="st2" width="321.2" height="19.8"/>
			<rect x="112" y="283.2" class="st1" width="210.1" height="19.8"/>
			<rect x="112" y="417.4" class="st1" width="210.1" height="19.8"/>
			<rect x="112" y="354.7" class="st2" width="322.9" height="19.8"/>
			<rect x="112" y="488.9" class="st2" width="322.9" height="19.8"/>
			<rect x="74.9" y="549" class="st1" width="9.8" height="118.3"/>
			<rect x="112" y="596.3" class="st2" width="321.2" height="19.8"/>
			<rect x="112" y="560.5" class="st1" width="210.1" height="19.8"/>
			<rect x="112" y="632.1" class="st2" width="322.9" height="19.8"/>
		</g>
	</g>
	<g>
		<circle class="st1" cx="153.2" cy="113" r="45.9"/>
	</g>
	<rect x="112.3" y="179.3" class="st3" width="98.1" height="20.1"/>
	<rect x="112.3" y="210.8" class="st2" width="209.8" height="14.3"/>
	<polygon class="st4" points="481,172.5 479.5,174 493.7,188.2 450.1,188.2 450.1,190.4 493.7,190.4 479.5,204.6 481,206.1 
		497.9,189.3 	"/>
</g>
</svg>
