<?xml version="1.0" encoding="iso-8859-1"?>
<!-- Generator: Adobe Illustrator 18.1.1, SVG Export Plug-In . SVG Version: 6.00 Build 0)  -->
<!DOCTYPE svg PUBLIC "-//W3C//DTD SVG 1.1//EN" "http://www.w3.org/Graphics/SVG/1.1/DTD/svg11.dtd">
<svg version="1.1" xmlns="http://www.w3.org/2000/svg" xmlns:xlink="http://www.w3.org/1999/xlink" x="0px" y="0px"
	 viewBox="0 0 2000 1250" style="enable-background:new 0 0 2000 1250;" xml:space="preserve">
<style type="text/css">
	.st0{display:none;}
	.st1{display:inline;}
	.st2{clip-path:url(#SVGID_10_);}
	.st3{clip-path:url(#SVGID_18_);}
	.st4{clip-path:url(#SVGID_20_);}
	.st5{fill:#0CA4C5;}
	.st6{fill:#87C1D9;}
	.st7{fill:#09B1CB;}
	.st8{fill:#7DBED2;}
	.st9{fill:#1DBACB;}
	.st10{fill:#63BAD6;}
	.st11{fill:#5BBDD3;}
	.st12{fill:#FFFFFF;}
	.st13{display:inline;fill:#231F20;}
	.st14{display:inline;fill:#FDC130;}
	.st15{display:inline;fill:#414042;}
	.st16{display:inline;fill:#FFFFFF;}
	.st17{display:inline;fill:#D83B01;}
	.st18{display:inline;fill:#1DAFEC;}
	.st19{fill:#0078D7;}
	.st20{fill:url(#SVGID_23_);}
	.st21{display:inline;fill:#8EC449;}
	.st22{clip-path:url(#SVGID_25_);}
	.st23{fill:#5C2D91;}
	.st24{fill:#8EC449;}
	.st25{display:inline;opacity:0.8;fill:#FFFFFF;}
	.st26{display:inline;opacity:0.2;fill:#FFFFFF;}
	.st27{clip-path:url(#SVGID_27_);fill:#0078D7;}
	.st28{clip-path:url(#SVGID_27_);}
	.st29{clip-path:url(#SVGID_29_);}
	.st30{fill:#1DAFEC;}
	.st31{clip-path:url(#SVGID_31_);fill:#8EC449;}
	.st32{clip-path:url(#SVGID_33_);}
	.st33{fill:#D83B01;}
	.st34{display:inline;fill:#5C2D91;}
	.st35{display:inline;fill:#5D5D5D;}
	.st36{fill:#DC5454;}
	.st37{fill:#E99589;}
	.st38{fill:#E45B5A;}
	.st39{fill:#EC8880;}
	.st40{fill:#F16B6B;}
	.st41{fill:#DD7D73;}
	.st42{fill:#DF7F7C;}
	.st43{fill:#00B5B5;}
	.st44{fill:#89CECF;}
	.st45{fill:#40BEB8;}
	.st46{fill:#79C5C5;}
	.st47{fill:#5FC4C1;}
	.st48{fill:#68C6C2;}
	.st49{fill:#74BFBC;}
	.st50{fill:url(#SVGID_34_);}
	.st51{fill:#FAAF41;}
	.st52{fill:#FDCD8A;}
	.st53{fill:#F3B56C;}
	.st54{fill:#F1C084;}
	.st55{fill:#FCBE69;}
	.st56{fill:#F2BD87;}
	.st57{fill:#ECB77D;}
	.st58{fill:#414042;}
	.st59{clip-path:url(#SVGID_36_);}
	.st60{opacity:0.75;fill:url(#SVGID_39_);}
	.st61{fill:none;}
	.st62{fill:none;stroke:#D5D5D5;stroke-miterlimit:10;}
	.st63{opacity:0.1;fill:none;stroke:#AFB0CA;stroke-width:2;stroke-miterlimit:10;}
	.st64{opacity:0.35;fill:none;stroke:#D5D5D5;stroke-miterlimit:10;}
	.st65{fill:none;stroke:#EAEAEA;stroke-miterlimit:10;}
	.st66{fill:none;stroke:#D5D5D5;stroke-miterlimit:10;stroke-dasharray:0.9994,1.9987;}
	.st67{opacity:0.9;fill:#E7E7E7;}
	.st68{fill:#9B9B9B;}
	.st69{opacity:0.65;}
	.st70{fill:#00DFB5;}
	.st71{opacity:0.4;fill:url(#);}
	.st72{fill:none;stroke:#0078D7;stroke-miterlimit:10;stroke-dasharray:2,3;}
	.st73{fill:none;stroke:#005A9E;stroke-width:3;stroke-miterlimit:10;}
	.st74{opacity:0.5;}
	.st75{opacity:0.4;}
	.st76{opacity:0.9;}
	.st77{fill:none;stroke:#E5E5E5;stroke-miterlimit:10;}
	.st78{fill:none;stroke:#E2E2E2;stroke-miterlimit:10;}
	.st79{opacity:0.5;fill:#B1DAFF;}
	.st80{clip-path:url(#SVGID_45_);}
	.st81{opacity:0.3;}
	.st82{fill:#0072BB;}
	.st83{display:inline;fill:#E6E6E6;}
	.st84{display:inline;fill:#A3C938;}
	.st85{display:inline;opacity:0.75;}
	.st86{display:inline;fill:#E6E7E8;}
	.st87{display:inline;opacity:0.9;}
	.st88{fill-rule:evenodd;clip-rule:evenodd;fill:#FFFFFF;}
	.st89{fill:#231F20;}
	.st90{display:inline;opacity:0.65;}
	.st91{display:inline;opacity:0.4;fill:url(#);}
	.st92{fill:url(#SVGID_50_);}
</style>
<g id="Layer_1" class="st0">
	<g class="st1">
		<rect x="-1595" y="-141" class="st12" width="1609" height="1203"/>
		<g>
			<line class="st72" x1="-1533.9" y1="621.4" x2="14.9" y2="621.4"/>
		</g>
		<g>
			<line class="st65" x1="-1595.4" y1="141" x2="13.8" y2="141"/>
			<line class="st65" x1="-1595.4" y1="252.3" x2="13.8" y2="252.3"/>
			<line class="st65" x1="-1595.4" y1="366.1" x2="13.8" y2="366.1"/>
			<line class="st65" x1="-1595.4" y1="590.9" x2="13.8" y2="590.9"/>
			<line class="st65" x1="-1595.4" y1="478" x2="13.8" y2="478"/>
			<line class="st65" x1="-1595.4" y1="704.6" x2="13.8" y2="704.6"/>
			<line class="st65" x1="-1595.4" y1="816.6" x2="13.8" y2="816.6"/>
			<g>
				<g>
					<line class="st66" x1="-1529.9" y1="195.8" x2="13.2" y2="195.8"/>
					<line class="st62" x1="14.2" y1="195.8" x2="14.7" y2="195.8"/>
				</g>
			</g>
			<g>
				<g>
					<line class="st66" x1="-1529.9" y1="309" x2="13.2" y2="309"/>
					<line class="st62" x1="14.2" y1="309" x2="14.7" y2="309"/>
				</g>
			</g>
			<g>
				<g>
					<line class="st66" x1="-1529.9" y1="422" x2="13.2" y2="422"/>
					<line class="st62" x1="14.2" y1="422" x2="14.7" y2="422"/>
				</g>
			</g>
			<g>
				<g>
					<line class="st66" x1="-1529.9" y1="534.4" x2="13.2" y2="534.4"/>
					<line class="st62" x1="14.2" y1="534.4" x2="14.7" y2="534.4"/>
				</g>
			</g>
			<g>
				<g>
					<line class="st66" x1="-1529.9" y1="647.3" x2="13.2" y2="647.3"/>
					<line class="st62" x1="14.2" y1="647.3" x2="14.7" y2="647.3"/>
				</g>
			</g>
			<g>
				<g>
					<line class="st66" x1="-1529.9" y1="760.2" x2="13.2" y2="760.2"/>
					<line class="st62" x1="14.2" y1="760.2" x2="14.7" y2="760.2"/>
				</g>
			</g>
			<line class="st65" x1="-1595.4" y1="929.5" x2="13.8" y2="929.5"/>
			<g>
				<g>
					<line class="st66" x1="-1529.9" y1="985.9" x2="13.2" y2="985.9"/>
					<line class="st62" x1="14.2" y1="985.9" x2="14.7" y2="985.9"/>
				</g>
			</g>
			<line class="st65" x1="-1595.4" y1="1042.4" x2="13.8" y2="1042.4"/>
			<g>
				<g>
					<line class="st66" x1="-1529.9" y1="873.1" x2="13.2" y2="873.1"/>
					<line class="st62" x1="14.2" y1="873.1" x2="14.7" y2="873.1"/>
				</g>
			</g>
			<line class="st65" x1="-1595.4" y1="28" x2="14.7" y2="28"/>
		</g>
	</g>
</g>
<g id="Layer_2">
	<g>
		<g>
			<polygon class="st5" points="1624.5,872.8 1814.5,682.8 1635.2,498.3 1613.8,498.3 1434.6,682.8 			"/>
			<polygon class="st6" points="1624.5,872.8 1814.5,1062.7 1999,883.5 1999,872.8 1814.5,682.8 			"/>
			<polygon class="st7" points="1624.5,872.8 1434.6,682.8 1250.1,872.8 1250.1,883.5 1434.6,1062.7 			"/>
			<polygon class="st8" points="1624.5,872.8 1434.6,1062.7 1624.5,1247.2 1814.5,1062.7 			"/>
			<polygon class="st7" points="1613.8,498.3 1250.1,498.3 1434.6,682.8 			"/>
			<polygon class="st9" points="1250.1,498.3 1250.1,872.8 1434.6,682.8 			"/>
			<polygon class="st7" points="1999,498.3 1635.2,498.3 1814.5,682.8 			"/>
			<polygon class="st10" points="1814.5,682.8 1999,872.8 1999,498.3 			"/>
			<polygon class="st10" points="1999,1247.2 1999,883.5 1814.5,1062.7 			"/>
			<polygon class="st11" points="1624.5,1247.2 1999,1247.2 1814.5,1062.7 			"/>
			<polygon class="st9" points="1250.1,883.5 1250.1,1247.2 1434.6,1062.7 			"/>
			<polygon class="st11" points="1250.1,1247.2 1624.5,1247.2 1434.6,1062.7 			"/>
		</g>
		<g>
			<g>
				<path class="st12" d="M1387.2,765.9v182.4h59.3v57.7l79.5-57.7h150.6V765.9H1387.2z M1667.9,939.5h-144.7l-67.9,49.3v-49.3H1396
					V774.7h271.9V939.5z"/>
			</g>
			<g>
				<path class="st12" d="M1562,833.6V1016h150.6l79.5,57.7V1016h59.3V833.6H1562z M1570.8,842.4h271.9v164.8h-59.3v49.3l-67.9-49.3
					h-144.7V842.4z"/>
			</g>
		</g>
	</g>
</g>
<g id="Layer_3" class="st0">
	<g class="st1">
		<g>
			<polygon class="st51" points="967.5,724.5 1035.9,656.1 971.3,589.7 963.6,589.7 899.1,656.1 			"/>
			<polygon class="st52" points="967.5,724.5 1035.9,792.9 1102.3,728.4 1102.3,724.5 1035.9,656.1 			"/>
			<polygon class="st53" points="967.5,724.5 899.1,656.1 832.6,724.5 832.6,728.4 899.1,792.9 			"/>
			<polygon class="st54" points="967.5,724.5 899.1,792.9 967.5,859.4 1035.9,792.9 			"/>
			<polygon class="st53" points="963.6,589.7 832.6,589.7 899.1,656.1 			"/>
			<polygon class="st55" points="832.6,589.7 832.6,724.5 899.1,656.1 			"/>
			<polygon class="st53" points="1102.3,589.7 971.3,589.7 1035.9,656.1 			"/>
			<polygon class="st56" points="1035.9,656.1 1102.3,724.5 1102.3,589.7 			"/>
			<polygon class="st56" points="1102.3,859.4 1102.3,728.4 1035.9,792.9 			"/>
			<polygon class="st57" points="967.5,859.4 1102.3,859.4 1035.9,792.9 			"/>
			<polygon class="st55" points="832.6,728.4 832.6,859.4 899.1,792.9 			"/>
			<polygon class="st57" points="832.6,859.4 967.5,859.4 899.1,792.9 			"/>
		</g>
		<path class="st12" d="M1015.4,676H936v42.6V758h21v43.6l58.4-79.6h-31.6L1015.4,676z M1003.5,727L963,782.3V752h-21v-71h62.8
			l-33,46H1003.5z"/>
	</g>
</g>
<g id="Layer_6" class="st0">
	<g class="st1">
		<g>
			<polygon class="st43" points="449.8,957.7 508.6,898.9 453.2,841.8 446.5,841.8 391.1,898.9 			"/>
			<polygon class="st44" points="449.8,957.7 508.6,1016.5 565.8,961.1 565.8,957.7 508.6,898.9 			"/>
			<polygon class="st45" points="449.8,957.7 391.1,898.9 333.9,957.7 333.9,961.1 391.1,1016.5 			"/>
			<polygon class="st46" points="449.8,957.7 391.1,1016.5 449.8,1073.7 508.6,1016.5 			"/>
			<polygon class="st45" points="446.5,841.8 333.9,841.8 391.1,898.9 			"/>
			<polygon class="st47" points="333.9,841.8 333.9,957.7 391.1,898.9 			"/>
			<polygon class="st45" points="565.8,841.8 453.2,841.8 508.6,898.9 			"/>
			<polygon class="st48" points="508.6,898.9 565.8,957.7 565.8,841.8 			"/>
			<polygon class="st48" points="565.8,1073.7 565.8,961.1 508.6,1016.5 			"/>
			<polygon class="st49" points="449.8,1073.7 565.8,1073.7 508.6,1016.5 			"/>
			<polygon class="st47" points="333.9,961.1 333.9,1073.7 391.1,1016.5 			"/>
			<polygon class="st49" points="333.9,1073.7 449.8,1073.7 391.1,1016.5 			"/>
		</g>
		<linearGradient id="SVGID_2_" gradientUnits="userSpaceOnUse" x1="446.5349" y1="1009.5346" x2="446.5349" y2="1012.0099">
			<stop  offset="0" style="stop-color:#FFFFFF"/>
			<stop  offset="1" style="stop-color:#FFFFFF;stop-opacity:0"/>
		</linearGradient>
		<path style="fill:url(#SVGID_2_);" d="M433.3,1026.6h-15.6l0-5.3l0-0.5c0.1-10.9,6.3-20.7,16.1-25.6l3.4-1.7l-3.1-2.3
			c-5.4-4-8.7-10.3-8.7-17c0-9.9-8-17.9-17.9-17.9c-9,0-16.6,6.8-17.8,15.6h-3.2c0.7-6.5,4.3-12.2,10-15.7l2.8-1.7l-2.6-2.1
			c-4.1-3.3-6.5-8.2-6.5-13.3c0-9.5,7.7-17.2,17.2-17.2c9.5,0,17.2,7.7,17.2,17.2c0,5.2-2.4,10-6.5,13.3l-2.6,2.1l2.8,1.7
			c2.7,1.6,4.9,3.8,6.6,6.4l1.9,2.9l1.9-2.9c3.9-5.9,10.5-9.5,17.6-9.5c7.1,0,13.6,3.5,17.6,9.5l1.9,2.9l1.9-2.9
			c1.7-2.5,4-4.7,6.6-6.4l2.8-1.7l-2.6-2.1c-4.1-3.3-6.5-8.2-6.5-13.3c0-9.5,7.7-17.2,17.2-17.2c9.5,0,17.2,7.7,17.2,17.2
			c0,5.2-2.4,10-6.5,13.3l-2.6,2.1l2.8,1.7c5.7,3.5,9.3,9.2,10,15.7h-3.2c-1.1-8.8-8.8-15.6-17.8-15.6c-9.9,0-17.9,8-17.9,17.9
			c0,6.7-3.2,13-8.7,17l-3.1,2.3l3.4,1.7c9.6,4.7,15.9,14.9,16.1,25.9l0,0.7l0,4.7h-14.2l-27.9,27.9V1026.6z M436.5,1046.9
			l23.5-23.5h12.4l-0.1-2.4c-0.4-14.2-11.9-25.7-25.7-25.7c-14.2,0-25.7,11.5-25.7,25.7v2.3l15.7,0V1046.9z M446.5,956.3
			c-9.9,0-17.9,8-17.9,17.9c0,9.9,8,17.9,17.9,17.9c9.9,0,17.9-8,17.9-17.9C464.5,964.4,456.4,956.3,446.5,956.3z M485.5,925.1
			c-7.7,0-14,6.3-14,14c0,7.7,6.3,14,14,14s14-6.3,14-14C499.6,931.4,493.3,925.1,485.5,925.1z M407.5,925.1c-7.7,0-14,6.3-14,14
			c0,7.7,6.3,14,14,14c7.7,0,14-6.3,14-14C421.5,931.4,415.3,925.1,407.5,925.1z"/>
	</g>
</g>
<g id="Layer_4" class="st0">
	<g class="st1">
		<g>
			<polygon class="st36" points="154.6,608.5 197.2,565.9 157,524.5 152.2,524.5 111.9,565.9 			"/>
			<polygon class="st37" points="154.6,608.5 197.2,651.2 238.7,610.9 238.7,608.5 197.2,565.9 			"/>
			<polygon class="st38" points="154.6,608.5 111.9,565.9 70.5,608.5 70.5,610.9 111.9,651.2 			"/>
			<polygon class="st39" points="154.6,608.5 111.9,651.2 154.6,692.6 197.2,651.2 			"/>
			<polygon class="st38" points="152.2,524.5 70.5,524.5 111.9,565.9 			"/>
			<polygon class="st40" points="70.5,524.5 70.5,608.5 111.9,565.9 			"/>
			<polygon class="st38" points="238.7,524.5 157,524.5 197.2,565.9 			"/>
			<polygon class="st41" points="197.2,565.9 238.7,608.5 238.7,524.5 			"/>
			<polygon class="st41" points="238.7,692.6 238.7,610.9 197.2,651.2 			"/>
			<polygon class="st42" points="154.6,692.6 238.7,692.6 197.2,651.2 			"/>
			<polygon class="st40" points="70.5,610.9 70.5,692.6 111.9,651.2 			"/>
			<polygon class="st42" points="70.5,692.6 154.6,692.6 111.9,651.2 			"/>
		</g>
		<g>
			<path class="st12" d="M122.7,589v46.7h14.1v13.7l18.9-13.7h35.7V589H122.7z M189.2,633.7h-34.3l-16.1,11.7v-11.7h-14.1v-42.6
				h64.5V633.7z"/>
			<polygon class="st12" points="122.7,589 176.1,573.8 176.1,589.7 			"/>
		</g>
	</g>
</g>
<g id="Layer_5" class="st0">
</g>
</svg>
