<?xml version="1.0" encoding="utf-8"?>
<!-- Generator: Adobe Illustrator 18.1.1, SVG Export Plug-In . SVG Version: 6.00 Build 0)  -->
<!DOCTYPE svg PUBLIC "-//W3C//DTD SVG 1.1//EN" "http://www.w3.org/Graphics/SVG/1.1/DTD/svg11.dtd">
<svg version="1.1" xmlns="http://www.w3.org/2000/svg" xmlns:xlink="http://www.w3.org/1999/xlink" x="0px" y="0px"
	 viewBox="-694 -24.3 2000 1250" preserveAspectRatio="xMidYMid slice" enable-background="new -694 -24.3 2000 1250" xml:space="preserve">
<g id="Layer_1" display="none">
	<g id="Layer_1_1_">
		<g id="Layer_2" display="inline">
			<rect x="14.8" y="614.3" fill="#1DAFEC" width="126" height="70.9"/>
			<rect x="56.1" y="692.3" fill="#E6E6E6" width="43.4" height="1.5"/>
			<rect x="76.3" y="685.3" fill="#E6E6E6" width="1.5" height="7.3"/>
			<rect x="108.2" y="641.5" fill="#FDC130" width="69.8" height="52.4"/>
			<rect x="184.9" y="654.6" fill="#D83B01" width="21.9" height="39.2"/>
			<g>
				<polygon fill="#FFFFFF" points="49.6,649.3 71.3,649.3 71.3,630.3 49.6,633.3 				"/>
				<polygon fill="#FFFFFF" points="48.7,649.3 48.7,633.5 32.1,635.6 32.1,649.3 				"/>
				<polygon fill="#FFFFFF" points="48.7,650.3 32.1,650.3 32.1,664 48.7,666.3 				"/>
				<polygon fill="#FFFFFF" points="49.6,650.3 49.6,666.3 71.3,669.3 71.3,650.3 				"/>
			</g>
		</g>
		<g id="Layer_3" display="inline">
			<rect x="281.5" y="641.5" fill="#A3C938" width="69.8" height="52.4"/>
			<rect x="358.3" y="654.6" fill="#A3C938" width="21.9" height="39.2"/>
			<g opacity="0.75">
				<g>
					<path fill="#FFFFFF" d="M310.5,679.3c0,0.4-0.3,0.7-0.7,0.7h-10.9c-0.4,0-0.7-0.3-0.7-0.7v-9.7c0-0.4,0.3-0.7,0.7-0.7h10.9
						c0.4,0,0.7,0.3,0.7,0.7V679.3z"/>
					<rect x="298.1" y="668.8" fill="#FFFFFF" width="12.4" height="5.1"/>
				</g>
				<g>
					<path fill="#FFFFFF" d="M313.8,675.8c0,0.7-0.6,1.3-1.3,1.3l0,0c-0.7,0-1.3-0.6-1.3-1.3v-6c0-0.7,0.6-1.3,1.3-1.3l0,0
						c0.7,0,1.3,0.6,1.3,1.3V675.8z"/>
					<path fill="#FFFFFF" d="M297.4,675.8c0,0.7-0.6,1.3-1.3,1.3l0,0c-0.7,0-1.3-0.6-1.3-1.3v-6c0-0.7,0.6-1.3,1.3-1.3l0,0
						c0.7,0,1.3,0.6,1.3,1.3V675.8z"/>
				</g>
				<path fill="#FFFFFF" d="M298.1,668.1c0,0,0.1-5.3,6.2-5.2c6,0,6.2,5.2,6.2,5.2H298.1z"/>
				<g>
					<circle fill="#FFFFFF" cx="301.6" cy="665.5" r="0.7"/>
					<circle fill="#FFFFFF" cx="307" cy="665.5" r="0.7"/>
				</g>
				<g>
					<path fill="#FFFFFF" d="M301.4,663.6c0,0,0.1,0,0.2,0l0,0c0.1,0,0.1-0.1,0.1-0.1l-1.2-1.6c0,0-0.1,0-0.2,0l0,0
						c-0.1,0-0.1,0.1-0.1,0.1L301.4,663.6z"/>
					<path fill="#FFFFFF" d="M307.2,663.6c0,0-0.1,0-0.2,0l0,0c-0.1,0-0.1-0.1-0.1-0.1l1.2-1.6c0,0,0.1,0,0.2,0l0,0
						c0.1,0,0.1,0.1,0.1,0.1L307.2,663.6z"/>
				</g>
				<g>
					<path fill="#FFFFFF" d="M308.2,683.5c0,0.7-0.6,1.3-1.3,1.3l0,0c-0.7,0-1.3-0.6-1.3-1.3v-5.9c0-0.7,0.6-1.3,1.3-1.3l0,0
						c0.7,0,1.3,0.6,1.3,1.3V683.5z"/>
					<path fill="#FFFFFF" d="M303.1,683.5c0,0.7-0.6,1.3-1.3,1.3l0,0c-0.7,0-1.3-0.6-1.3-1.3v-5.9c0-0.7,0.6-1.3,1.3-1.3l0,0
						c0.7,0,1.3,0.6,1.3,1.3V683.5z"/>
				</g>
			</g>
		</g>
		<g display="inline">
			<rect x="482.5" y="619.6" fill="#D1D3D4" width="70" height="52.5"/>
			<rect x="559.6" y="632.8" fill="#D1D3D4" width="22" height="39.4"/>
			<g opacity="0.9">
				<path fill="#FFFFFF" d="M506.2,642.3c1.5-2,3.6-2,3.6-2s0.3,1.9-1.2,3.7c-1.6,1.9-3.4,1.6-3.4,1.6S504.9,644.1,506.2,642.3z"/>
				<path fill="#FFFFFF" d="M505.4,647c0.8,0,2.2-1.1,4.1-1.1c3.2,0,4.5,2.3,4.5,2.3s-2.5,1.3-2.5,4.3c0,3.5,3.1,4.7,3.1,4.7
					s-2.2,6.1-5.1,6.1c-1.3,0-2.4-0.9-3.8-0.9s-2.9,0.9-3.8,0.9c-2.7,0-6-5.8-6-10.4c0-4.6,2.8-6.9,5.5-6.9
					C503.2,646,504.5,647,505.4,647z"/>
			</g>
		</g>
	</g>
	<g id="Layer_2_1_">
		<g id="Layer_3_1_" display="inline">
			<rect x="301.5" y="619.8" fill="#A3C938" width="69.8" height="52.4"/>
			<rect x="378.3" y="633" fill="#A3C938" width="21.9" height="39.2"/>
			<g opacity="0.75">
				<g>
					<path fill="#FFFFFF" d="M330.5,657.6c0,0.4-0.3,0.7-0.7,0.7h-10.9c-0.4,0-0.7-0.3-0.7-0.7v-9.7c0-0.4,0.3-0.7,0.7-0.7h10.9
						c0.4,0,0.7,0.3,0.7,0.7V657.6z"/>
					<rect x="318.1" y="647.1" fill="#FFFFFF" width="12.4" height="5.1"/>
				</g>
				<g>
					<path fill="#FFFFFF" d="M333.8,654c0,0.7-0.6,1.3-1.3,1.3l0,0c-0.7,0-1.3-0.6-1.3-1.3v-5.9c0-0.7,0.6-1.3,1.3-1.3l0,0
						c0.7,0,1.3,0.6,1.3,1.3V654z"/>
					<path fill="#FFFFFF" d="M317.4,654c0,0.7-0.6,1.3-1.3,1.3l0,0c-0.7,0-1.3-0.6-1.3-1.3v-5.9c0-0.7,0.6-1.3,1.3-1.3l0,0
						c0.7,0,1.3,0.6,1.3,1.3V654z"/>
				</g>
				<path fill="#FFFFFF" d="M318.1,646.5c0,0,0.1-5.3,6.2-5.2c6,0,6.2,5.2,6.2,5.2H318.1z"/>
				<g>
					<circle fill="#FFFFFF" cx="321.6" cy="643.8" r="0.7"/>
					<circle fill="#FFFFFF" cx="327" cy="643.8" r="0.7"/>
				</g>
				<g>
					<path fill="#FFFFFF" d="M321.4,642c0,0,0.1,0,0.2,0l0,0c0.1,0,0.1-0.1,0.1-0.1l-1.2-1.6c0,0-0.1,0-0.2,0l0,0
						c-0.1,0-0.1,0.1-0.1,0.1L321.4,642z"/>
					<path fill="#FFFFFF" d="M327.2,642c0,0-0.1,0-0.2,0l0,0c-0.1,0-0.1-0.1-0.1-0.1l1.2-1.6c0,0,0.1,0,0.2,0l0,0
						c0.1,0,0.1,0.1,0.1,0.1L327.2,642z"/>
				</g>
				<g>
					<path fill="#FFFFFF" d="M328.2,661.8c0,0.7-0.6,1.3-1.3,1.3l0,0c-0.7,0-1.3-0.6-1.3-1.3v-6c0-0.7,0.6-1.3,1.3-1.3l0,0
						c0.7,0,1.3,0.6,1.3,1.3V661.8z"/>
					<path fill="#FFFFFF" d="M323.1,661.8c0,0.7-0.6,1.3-1.3,1.3l0,0c-0.7,0-1.3-0.6-1.3-1.3v-6c0-0.7,0.6-1.3,1.3-1.3l0,0
						c0.7,0,1.3,0.6,1.3,1.3V661.8z"/>
				</g>
			</g>
		</g>
	</g>
	<g id="Layer_3_2_" display="inline">
		<rect x="-615.3" y="531" fill="#1DAFEC" width="413.7" height="232.8"/>
		<rect x="-479.6" y="787" fill="#E6E6E6" width="142.6" height="4.9"/>
		<rect x="-413.5" y="763.8" fill="#E6E6E6" width="4.9" height="24.2"/>
		<rect x="-308.5" y="619.9" fill="#FDC130" width="229.2" height="172"/>
		<rect x="-56.4" y="663.1" fill="#D83B01" width="71.9" height="128.8"/>
		<g>
			<polygon fill="#FFFFFF" points="-501.1,645.8 -429.9,645.8 -429.9,583 -501.1,592.8 			"/>
			<polygon fill="#FFFFFF" points="-504.1,645.8 -504.1,593.5 -558.4,601 -558.4,645.8 			"/>
			<polygon fill="#FFFFFF" points="-504.1,648.7 -558.4,648.7 -558.4,693.5 -504.1,701 			"/>
			<polygon fill="#FFFFFF" points="-501.1,648.7 -501.1,701.4 -429.9,711.5 -429.9,648.7 			"/>
		</g>
	</g>
</g>
<g id="Layer_2_2_">
	<g id="Layer_2_3_">
		<g id="Layer_3_3_">
			<rect x="299.8" y="619" fill="#A3C938" width="228.2" height="171.3"/>
			<rect x="551" y="662.1" fill="#A3C938" width="71.6" height="128.2"/>
			<g opacity="0.75">
				<g>
					<path fill="#FFFFFF" d="M394.7,742.9c0,1.3-1,2.3-2.3,2.3h-35.6c-1.3,0-2.3-1-2.3-2.3v-31.7c0-1.3,1-2.3,2.3-2.3h35.6
						c1.3,0,2.3,1,2.3,2.3V742.9z"/>
					<rect x="354.1" y="708.6" fill="#FFFFFF" width="40.5" height="16.7"/>
				</g>
				<g>
					<path fill="#FFFFFF" d="M405.5,731.1c0,2.3-2,4.3-4.3,4.3l0,0c-2.3,0-4.3-2-4.3-4.3v-19.3c0-2.3,2-4.3,4.3-4.3l0,0
						c2.3,0,4.3,2,4.3,4.3V731.1z"/>
					<path fill="#FFFFFF" d="M351.8,731.1c0,2.3-2,4.3-4.3,4.3l0,0c-2.3,0-4.3-2-4.3-4.3v-19.3c0-2.3,2-4.3,4.3-4.3l0,0
						c2.3,0,4.3,2,4.3,4.3V731.1z"/>
				</g>
				<path fill="#FFFFFF" d="M354.1,706.3c0,0,0.3-17.3,20.3-17c19.6,0,20.3,17,20.3,17H354.1z"/>
				<g>
					<circle fill="#FFFFFF" cx="365.6" cy="697.8" r="2.3"/>
					<circle fill="#FFFFFF" cx="383.2" cy="697.8" r="2.3"/>
				</g>
				<g>
					<path fill="#FFFFFF" d="M364.9,691.6c0,0,0.3,0,0.7,0l0,0c0.3,0,0.3-0.3,0.3-0.3L362,686c0,0-0.3,0-0.7,0l0,0
						c-0.3,0-0.3,0.3-0.3,0.3L364.9,691.6z"/>
					<path fill="#FFFFFF" d="M383.9,691.6c0,0-0.3,0-0.7,0l0,0c-0.3,0-0.3-0.3-0.3-0.3l3.9-5.2c0,0,0.3,0,0.7,0l0,0
						c0.3,0,0.3,0.3,0.3,0.3L383.9,691.6z"/>
				</g>
				<g>
					<path fill="#FFFFFF" d="M387.1,756.3c0,2.3-2,4.3-4.3,4.3l0,0c-2.3,0-4.3-2-4.3-4.3v-19.6c0-2.3,2-4.3,4.3-4.3l0,0
						c2.3,0,4.3,2,4.3,4.3V756.3z"/>
					<path fill="#FFFFFF" d="M370.5,756.3c0,2.3-2,4.3-4.3,4.3l0,0c-2.3,0-4.3-2-4.3-4.3v-19.6c0-2.3,2-4.3,4.3-4.3l0,0
						c2.3,0,4.3,2,4.3,4.3V756.3z"/>
				</g>
			</g>
		</g>
	</g>
</g>
<g id="Layer_3_4_" display="none">
	<g display="inline">
		<rect x="906.9" y="618.6" fill="#D1D3D4" width="228.9" height="171.7"/>
		<rect x="1159" y="661.5" fill="#D1D3D4" width="71.9" height="128.8"/>
		<g opacity="0.9">
			<path fill="#FFFFFF" d="M984.4,692.9c4.9-6.5,11.8-6.5,11.8-6.5s1,6.2-3.9,12.1c-5.2,6.2-11.1,5.2-11.1,5.2
				S980.2,698.8,984.4,692.9z"/>
			<path fill="#FFFFFF" d="M981.8,707.9c2.6,0,7.2-3.6,13.4-3.6c10.5,0,14.7,7.5,14.7,7.5s-8.2,4.3-8.2,14.1
				c0,11.4,10.1,15.4,10.1,15.4s-7.2,19.9-16.7,19.9c-4.3,0-7.8-2.9-12.4-2.9c-4.6,0-9.5,2.9-12.4,2.9c-8.8,0-19.6-19-19.6-34
				c0-15,9.2-22.6,18-22.6C974.6,704.6,978.8,707.9,981.8,707.9z"/>
		</g>
	</g>
</g>
</svg>
