<?xml version="1.0" encoding="utf-8"?>
<!-- Generator: Adobe Illustrator 22.0.0, SVG Export Plug-In . SVG Version: 6.00 Build 0)  -->
<svg version="1.1" id="Layer_1" xmlns="http://www.w3.org/2000/svg" xmlns:xlink="http://www.w3.org/1999/xlink" x="0px" y="0px"
	 width="265px" height="286px" viewBox="0 0 265 286" style="enable-background:new 0 0 265 286;" xml:space="preserve">
<style type="text/css">
	.st0{fill:#F5A623;}
	.st1{fill:#9013FE;}
	.st2{fill:#B8E986;}
	.st3{fill:#13F0FF;}
	.st4{fill:#50E3C2;}
	.st5{fill:#7ED321;}
	.st6{fill:#F8E71C;}
	.st7{fill:#BD10E0;}
	.st8{fill:#4A90E2;}
</style>
<polygon id="Path-2a" class="st0" points="250.6,72 241,80.5 244.9,88.4 "/>
<rect id="Rectangle-4a" x="108.1" y="237.4" transform="matrix(0.8192 -0.5736 0.5736 0.8192 -122.7271 108.4676)" class="st1" width="5" height="23"/>
<rect id="Rectangle-4b" x="27.6" y="153.2" transform="matrix(0.3256 -0.9455 0.9455 0.3256 -120.8297 141.9777)" class="st2" width="23" height="5"/>
<rect id="Rectangle-4c" x="221.6" y="204.2" transform="matrix(0.9511 -0.309 0.309 0.9511 -55.6824 79.8096)" class="st3" width="5" height="23"/>
<rect id="Rectangle-4d" x="173.6" y="264" transform="matrix(0.4226 -0.9063 0.9063 0.4226 -134.6238 321.6412)" class="st4" width="23" height="5"/>
<rect id="Rectangle-4e" x="154" y="8.1" transform="matrix(0.9336 -0.3584 0.3584 0.9336 3.3562 57.3725)" class="st5" width="5" height="23"/>
<rect id="Rectangle-4f" x="129.4" y="75.2" transform="matrix(0.6018 -0.7986 0.7986 0.6018 -5.9339 143.4762)" class="st6" width="23" height="5"/>
<circle id="Oval-1a" class="st7" cx="4" cy="102" r="4"/>
<circle id="Oval-1b" class="st8" cx="261" cy="282" r="4"/>
<circle id="Oval-1c" class="st7" cx="253" cy="4" r="4"/>
</svg>
