<?xml version="1.0" encoding="utf-8"?>
<!-- Generator: Adobe Illustrator 22.0.0, SVG Export Plug-In . SVG Version: 6.00 Build 0)  -->
<svg version="1.1" id="Layer_1" xmlns="http://www.w3.org/2000/svg" xmlns:xlink="http://www.w3.org/1999/xlink" x="0px" y="0px"
	 width="320px" height="148px" viewBox="0 0 320 148" style="enable-background:new 0 0 320 148;" xml:space="preserve">
<style type="text/css">
	.st0{enable-background:new    ;}
	.st1{fill:#90908F;}
	.st2{fill:#898989;}
	.st3{fill:#121212;}
	.st4{fill:#FFFFFF;}
	.st5{fill:#E8E630;}
	.st6{fill:#565656;}
	.st7{filter:url(#Adobe_OpacityMaskFilter);}
	.st8{mask:url(#mask-3_1_);enable-background:new    ;}
	.st9{fill:#151515;}
</style>
<g class="st0">
	<path class="st1" d="M23.5,27.5l1.1-0.1c0.1,0.4,0.2,0.8,0.4,1.1s0.5,0.5,0.9,0.7s0.8,0.3,1.3,0.3c0.4,0,0.8-0.1,1.1-0.2
		s0.6-0.3,0.7-0.5s0.2-0.5,0.2-0.7c0-0.3-0.1-0.5-0.2-0.7s-0.4-0.4-0.8-0.5c-0.2-0.1-0.7-0.2-1.5-0.4s-1.3-0.4-1.7-0.5
		c-0.4-0.2-0.7-0.5-0.9-0.8s-0.3-0.7-0.3-1.1c0-0.4,0.1-0.8,0.4-1.2s0.6-0.7,1.1-0.9s1-0.3,1.6-0.3c0.6,0,1.2,0.1,1.7,0.3
		s0.9,0.5,1.1,0.9s0.4,0.8,0.4,1.4L29,24.1c-0.1-0.5-0.3-1-0.6-1.2s-0.8-0.4-1.5-0.4c-0.7,0-1.2,0.1-1.5,0.4S25,23.4,25,23.8
		c0,0.3,0.1,0.6,0.3,0.8c0.2,0.2,0.8,0.4,1.7,0.6s1.6,0.4,1.9,0.5c0.5,0.2,0.9,0.5,1.1,0.9s0.4,0.8,0.4,1.2c0,0.5-0.1,0.9-0.4,1.3
		s-0.6,0.7-1.1,0.9s-1,0.3-1.7,0.3c-0.8,0-1.4-0.1-2-0.3s-0.9-0.6-1.2-1S23.6,28,23.5,27.5z"/>
	<path class="st1" d="M36.1,28.2l1.1,0.1c-0.2,0.6-0.5,1.1-1,1.5s-1.1,0.5-1.8,0.5c-0.9,0-1.6-0.3-2.2-0.8s-0.8-1.3-0.8-2.4
		c0-1,0.3-1.9,0.8-2.4s1.2-0.9,2.1-0.9c0.8,0,1.5,0.3,2,0.8s0.8,1.4,0.8,2.4c0,0.1,0,0.2,0,0.3h-4.6c0,0.7,0.2,1.2,0.6,1.6
		s0.8,0.5,1.3,0.5c0.4,0,0.7-0.1,1-0.3S35.9,28.7,36.1,28.2z M32.6,26.5h3.5c0-0.5-0.2-0.9-0.4-1.2c-0.3-0.4-0.8-0.6-1.3-0.6
		c-0.5,0-0.9,0.2-1.2,0.5S32.6,26,32.6,26.5z"/>
	<path class="st1" d="M42.5,29.5c-0.4,0.3-0.8,0.6-1.1,0.7s-0.7,0.2-1.2,0.2c-0.7,0-1.2-0.2-1.6-0.5s-0.6-0.8-0.6-1.3
		c0-0.3,0.1-0.6,0.2-0.8s0.3-0.5,0.5-0.6s0.5-0.3,0.8-0.3c0.2-0.1,0.5-0.1,0.9-0.2c0.9-0.1,1.5-0.2,1.9-0.4c0-0.1,0-0.2,0-0.3
		c0-0.4-0.1-0.7-0.3-0.9c-0.3-0.2-0.7-0.4-1.2-0.4c-0.5,0-0.9,0.1-1.1,0.3s-0.4,0.5-0.5,0.9l-1-0.1c0.1-0.4,0.2-0.8,0.5-1.1
		s0.5-0.5,0.9-0.6s0.9-0.2,1.4-0.2c0.5,0,1,0.1,1.3,0.2s0.6,0.3,0.7,0.5s0.3,0.4,0.3,0.7c0,0.2,0.1,0.5,0.1,1v1.4c0,1,0,1.6,0.1,1.9
		s0.1,0.5,0.3,0.7h-1.1C42.6,30,42.6,29.8,42.5,29.5z M42.4,27.1c-0.4,0.2-1,0.3-1.7,0.4c-0.4,0.1-0.7,0.1-0.9,0.2s-0.3,0.2-0.4,0.3
		s-0.1,0.3-0.1,0.5c0,0.3,0.1,0.5,0.3,0.7s0.5,0.3,0.9,0.3c0.4,0,0.8-0.1,1.1-0.3s0.5-0.4,0.7-0.7c0.1-0.2,0.2-0.6,0.2-1.1V27.1z"/>
	<path class="st1" d="M47.4,29.3l0.2,0.9c-0.3,0.1-0.6,0.1-0.8,0.1c-0.4,0-0.7-0.1-0.9-0.2s-0.4-0.3-0.4-0.5s-0.1-0.6-0.1-1.2v-3.6
		h-0.8V24h0.8v-1.5l1-0.6V24h1.1v0.8h-1.1v3.6c0,0.3,0,0.5,0.1,0.6s0.1,0.2,0.2,0.2s0.2,0.1,0.4,0.1C47.1,29.3,47.3,29.3,47.4,29.3z
		"/>
	<path class="st1" d="M50.8,29.3l0.2,0.9c-0.3,0.1-0.6,0.1-0.8,0.1c-0.4,0-0.7-0.1-0.9-0.2s-0.4-0.3-0.4-0.5s-0.1-0.6-0.1-1.2v-3.6
		h-0.8V24h0.8v-1.5l1-0.6V24h1.1v0.8h-1.1v3.6c0,0.3,0,0.5,0.1,0.6s0.1,0.2,0.2,0.2s0.2,0.1,0.4,0.1C50.4,29.3,50.6,29.3,50.8,29.3z
		"/>
	<path class="st1" d="M51.8,30.2v-8.6h1.1v8.6H51.8z"/>
	<path class="st1" d="M58.7,28.2l1.1,0.1c-0.2,0.6-0.5,1.1-1,1.5s-1.1,0.5-1.8,0.5c-0.9,0-1.6-0.3-2.2-0.8s-0.8-1.3-0.8-2.4
		c0-1,0.3-1.9,0.8-2.4s1.2-0.9,2.1-0.9c0.8,0,1.5,0.3,2,0.8s0.8,1.4,0.8,2.4c0,0.1,0,0.2,0,0.3h-4.6c0,0.7,0.2,1.2,0.6,1.6
		s0.8,0.5,1.3,0.5c0.4,0,0.7-0.1,1-0.3S58.6,28.7,58.7,28.2z M55.3,26.5h3.5c0-0.5-0.2-0.9-0.4-1.2c-0.3-0.4-0.8-0.6-1.3-0.6
		c-0.5,0-0.9,0.2-1.2,0.5S55.3,26,55.3,26.5z"/>
	<path class="st1" d="M61.4,30.2V29h1.2v1.2c0,0.4-0.1,0.8-0.2,1.1s-0.4,0.5-0.7,0.6l-0.3-0.5c0.2-0.1,0.4-0.2,0.5-0.4
		s0.2-0.5,0.2-0.8H61.4z"/>
</g>
<g class="st0">
	<path class="st1" d="M69.5,30.2l-2.3-8.6h1.2l1.3,5.6c0.1,0.6,0.3,1.2,0.4,1.8c0.2-0.9,0.3-1.4,0.4-1.6l1.6-5.8h1.4l1.2,4.3
		c0.3,1.1,0.5,2.1,0.7,3c0.1-0.5,0.3-1.2,0.4-1.9l1.3-5.5h1.1l-2.4,8.6h-1.1L73,23.7c-0.2-0.5-0.2-0.9-0.3-1c-0.1,0.4-0.2,0.7-0.3,1
		l-1.8,6.5H69.5z"/>
</g>
<g class="st0">
	<path class="st1" d="M77.4,30.2l3.3-8.6H82l3.5,8.6h-1.3l-1-2.6h-3.6l-0.9,2.6H77.4z M79.9,26.7h2.9l-0.9-2.4
		c-0.3-0.7-0.5-1.3-0.6-1.8c-0.1,0.6-0.3,1.1-0.5,1.6L79.9,26.7z"/>
</g>
<g class="st0">
	<path class="st1" d="M85.2,26.6v-1.2h1.2v1.2H85.2z"/>
</g>
<g class="st0">
	<path class="st1" d="M96.8,30.2v-7.6H94v-1h6.8v1H98v7.6H96.8z"/>
</g>
<g class="st0">
	<path class="st1" d="M98.8,27.1c0-1.2,0.3-2,1-2.6c0.5-0.5,1.2-0.7,2-0.7c0.9,0,1.6,0.3,2.1,0.8s0.8,1.3,0.8,2.3
		c0,0.8-0.1,1.4-0.4,1.9s-0.6,0.8-1,1.1s-1,0.4-1.5,0.4c-0.9,0-1.6-0.3-2.1-0.8S98.8,28.2,98.8,27.1z M99.9,27.1
		c0,0.8,0.2,1.4,0.5,1.8s0.8,0.6,1.3,0.6c0.5,0,1-0.2,1.3-0.6s0.5-1,0.5-1.8c0-0.8-0.2-1.4-0.5-1.7s-0.8-0.6-1.3-0.6
		c-0.5,0-1,0.2-1.3,0.6S99.9,26.3,99.9,27.1z"/>
	<path class="st1" d="M109.9,30.2v-0.8c-0.4,0.6-1,0.9-1.7,0.9c-0.5,0-1-0.1-1.4-0.4s-0.7-0.7-1-1.1s-0.3-1.1-0.3-1.7
		c0-0.6,0.1-1.2,0.3-1.7s0.5-0.9,0.9-1.2s0.9-0.4,1.4-0.4c0.4,0,0.7,0.1,1,0.2s0.5,0.4,0.7,0.6v-3.1h1v8.6H109.9z M106.5,27.1
		c0,0.8,0.2,1.4,0.5,1.8s0.7,0.6,1.2,0.6c0.5,0,0.9-0.2,1.2-0.6s0.5-1,0.5-1.7c0-0.9-0.2-1.5-0.5-1.9s-0.7-0.6-1.2-0.6
		c-0.5,0-0.9,0.2-1.2,0.6S106.5,26.3,106.5,27.1z"/>
	<path class="st1" d="M116.6,29.5c-0.4,0.3-0.8,0.6-1.1,0.7s-0.7,0.2-1.2,0.2c-0.7,0-1.2-0.2-1.6-0.5s-0.6-0.8-0.6-1.3
		c0-0.3,0.1-0.6,0.2-0.8s0.3-0.5,0.5-0.6s0.5-0.3,0.8-0.3c0.2-0.1,0.5-0.1,0.9-0.2c0.9-0.1,1.5-0.2,1.9-0.4c0-0.1,0-0.2,0-0.3
		c0-0.4-0.1-0.7-0.3-0.9c-0.3-0.2-0.7-0.4-1.2-0.4c-0.5,0-0.9,0.1-1.1,0.3s-0.4,0.5-0.5,0.9l-1-0.1c0.1-0.4,0.2-0.8,0.5-1.1
		s0.5-0.5,0.9-0.6s0.9-0.2,1.4-0.2c0.5,0,1,0.1,1.3,0.2s0.6,0.3,0.7,0.5s0.3,0.4,0.3,0.7c0,0.2,0.1,0.5,0.1,1v1.4c0,1,0,1.6,0.1,1.9
		s0.1,0.5,0.3,0.7h-1.1C116.7,30,116.6,29.8,116.6,29.5z M116.5,27.1c-0.4,0.2-1,0.3-1.7,0.4c-0.4,0.1-0.7,0.1-0.9,0.2
		s-0.3,0.2-0.4,0.3s-0.1,0.3-0.1,0.5c0,0.3,0.1,0.5,0.3,0.7s0.5,0.3,0.9,0.3c0.4,0,0.8-0.1,1.1-0.3s0.5-0.4,0.7-0.7
		c0.1-0.2,0.2-0.6,0.2-1.1V27.1z"/>
</g>
<g class="st0">
	<path class="st1" d="M119.1,32.6l-0.1-1c0.2,0.1,0.4,0.1,0.6,0.1c0.2,0,0.4,0,0.6-0.1s0.3-0.2,0.3-0.3c0.1-0.1,0.2-0.4,0.3-0.8
		c0-0.1,0.1-0.1,0.1-0.3l-2.4-6.2h1.1l1.3,3.6c0.2,0.5,0.3,0.9,0.5,1.4c0.1-0.5,0.3-1,0.4-1.4l1.3-3.6h1.1l-2.4,6.3
		c-0.3,0.7-0.5,1.2-0.6,1.4c-0.2,0.3-0.4,0.6-0.6,0.8s-0.5,0.2-0.9,0.2C119.6,32.8,119.4,32.7,119.1,32.6z"/>
</g>
<g class="st0">
	<path class="st1" d="M123.7,30.2V29h1.2v1.2c0,0.4-0.1,0.8-0.2,1.1s-0.4,0.5-0.7,0.6l-0.3-0.5c0.2-0.1,0.4-0.2,0.5-0.4
		s0.2-0.5,0.2-0.8H123.7z"/>
	<path class="st1" d="M133.8,30.2h-1.1v-6.7c-0.3,0.2-0.6,0.5-1,0.7s-0.8,0.4-1.1,0.5v-1c0.6-0.3,1.1-0.6,1.5-1s0.8-0.8,0.9-1.1h0.7
		V30.2z"/>
	<path class="st1" d="M137,25.2V24h1.2v1.2H137z M137,30.2V29h1.2v1.2H137z"/>
	<path class="st1" d="M139.8,26c0-1,0.1-1.8,0.3-2.5s0.5-1.1,0.9-1.4s0.9-0.5,1.6-0.5c0.5,0,0.9,0.1,1.2,0.3s0.6,0.5,0.9,0.8
		s0.4,0.8,0.5,1.3s0.2,1.2,0.2,2c0,1-0.1,1.8-0.3,2.4s-0.5,1.1-0.9,1.4s-0.9,0.5-1.6,0.5c-0.8,0-1.5-0.3-2-0.9
		C140.1,28.8,139.8,27.6,139.8,26z M140.9,26c0,1.4,0.2,2.3,0.5,2.8s0.7,0.7,1.2,0.7s0.9-0.2,1.2-0.7s0.5-1.4,0.5-2.8
		c0-1.4-0.2-2.4-0.5-2.8s-0.7-0.7-1.2-0.7c-0.5,0-0.9,0.2-1.2,0.6C141.1,23.6,140.9,24.6,140.9,26z"/>
	<path class="st1" d="M146.5,26c0-1,0.1-1.8,0.3-2.5s0.5-1.1,0.9-1.4s0.9-0.5,1.6-0.5c0.5,0,0.9,0.1,1.2,0.3s0.6,0.5,0.9,0.8
		s0.4,0.8,0.5,1.3s0.2,1.2,0.2,2c0,1-0.1,1.8-0.3,2.4s-0.5,1.1-0.9,1.4s-0.9,0.5-1.6,0.5c-0.8,0-1.5-0.3-2-0.9
		C146.7,28.8,146.5,27.6,146.5,26z M147.5,26c0,1.4,0.2,2.3,0.5,2.8s0.7,0.7,1.2,0.7s0.9-0.2,1.2-0.7s0.5-1.4,0.5-2.8
		c0-1.4-0.2-2.4-0.5-2.8s-0.7-0.7-1.2-0.7c-0.5,0-0.9,0.2-1.2,0.6C147.7,23.6,147.5,24.6,147.5,26z"/>
	<path class="st1" d="M156.9,30.2v-8.6h3.2c0.6,0,1,0,1.3,0.1c0.4,0.1,0.8,0.2,1.1,0.4s0.5,0.5,0.7,0.8s0.3,0.7,0.3,1.2
		c0,0.7-0.2,1.3-0.7,1.9s-1.3,0.8-2.5,0.8H158v3.5H156.9z M158,25.7h2.2c0.7,0,1.3-0.1,1.6-0.4s0.5-0.7,0.5-1.2
		c0-0.4-0.1-0.7-0.3-0.9s-0.4-0.4-0.7-0.5c-0.2-0.1-0.5-0.1-1.1-0.1H158V25.7z"/>
	<path class="st1" d="M164.9,30.2v-8.6h1.7l2,6.1c0.2,0.6,0.3,1,0.4,1.3c0.1-0.3,0.2-0.8,0.5-1.4l2.1-6h1.5v8.6H172V23l-2.5,7.2h-1
		l-2.5-7.3v7.3H164.9z"/>
</g>
<g class="st0">
	<path class="st2" d="M97.6,117.1v-10h3.8c0.7,0,1.2,0,1.5,0.1c0.5,0.1,0.9,0.2,1.2,0.5c0.3,0.2,0.6,0.6,0.8,1
		c0.2,0.4,0.3,0.9,0.3,1.4c0,0.9-0.3,1.6-0.8,2.2c-0.5,0.6-1.5,0.9-2.9,0.9h-2.6v4.1H97.6z M98.9,111.8h2.6c0.9,0,1.5-0.2,1.8-0.5
		s0.5-0.8,0.5-1.3c0-0.4-0.1-0.8-0.3-1.1c-0.2-0.3-0.5-0.5-0.8-0.6c-0.2-0.1-0.6-0.1-1.2-0.1h-2.6V111.8z"/>
	<path class="st2" d="M111.5,116.2c-0.5,0.4-0.9,0.7-1.3,0.8c-0.4,0.2-0.9,0.2-1.4,0.2c-0.8,0-1.4-0.2-1.8-0.6
		c-0.4-0.4-0.6-0.9-0.6-1.5c0-0.4,0.1-0.7,0.2-1c0.2-0.3,0.4-0.5,0.6-0.7c0.3-0.2,0.6-0.3,0.9-0.4c0.2-0.1,0.6-0.1,1.1-0.2
		c1-0.1,1.7-0.3,2.2-0.4c0-0.2,0-0.3,0-0.3c0-0.5-0.1-0.9-0.3-1.1c-0.3-0.3-0.8-0.4-1.4-0.4c-0.6,0-1,0.1-1.3,0.3
		c-0.3,0.2-0.5,0.6-0.6,1.1l-1.2-0.2c0.1-0.5,0.3-0.9,0.5-1.2c0.3-0.3,0.6-0.6,1.1-0.7c0.5-0.2,1-0.3,1.6-0.3c0.6,0,1.1,0.1,1.5,0.2
		s0.7,0.3,0.9,0.6c0.2,0.2,0.3,0.5,0.4,0.8c0,0.2,0.1,0.6,0.1,1.1v1.6c0,1.1,0,1.9,0.1,2.2c0.1,0.3,0.2,0.6,0.3,0.9h-1.3
		C111.6,116.8,111.6,116.5,111.5,116.2z M111.4,113.4c-0.4,0.2-1.1,0.3-2,0.5c-0.5,0.1-0.9,0.2-1.1,0.2s-0.4,0.2-0.5,0.4
		c-0.1,0.2-0.2,0.4-0.2,0.6c0,0.3,0.1,0.6,0.4,0.8c0.2,0.2,0.6,0.3,1.1,0.3c0.5,0,0.9-0.1,1.3-0.3c0.4-0.2,0.6-0.5,0.8-0.9
		c0.1-0.3,0.2-0.7,0.2-1.2V113.4z"/>
	<path class="st2" d="M114.6,117.1v-7.3h1.1v1.1c0.3-0.5,0.5-0.9,0.8-1c0.2-0.2,0.5-0.2,0.8-0.2c0.4,0,0.8,0.1,1.3,0.4l-0.4,1.1
		c-0.3-0.2-0.6-0.3-0.9-0.3c-0.3,0-0.5,0.1-0.7,0.2c-0.2,0.2-0.4,0.4-0.5,0.7c-0.1,0.4-0.2,0.9-0.2,1.4v3.8H114.6z"/>
	<path class="st2" d="M121.9,116l0.2,1.1c-0.3,0.1-0.7,0.1-0.9,0.1c-0.4,0-0.8-0.1-1-0.2s-0.4-0.3-0.5-0.6c-0.1-0.2-0.2-0.7-0.2-1.5
		v-4.2h-0.9v-1h0.9V108l1.2-0.7v2.5h1.2v1h-1.2v4.2c0,0.4,0,0.6,0.1,0.7c0,0.1,0.1,0.2,0.2,0.2c0.1,0.1,0.2,0.1,0.4,0.1
		C121.5,116,121.7,116,121.9,116z"/>
	<path class="st2" d="M123.1,117.1v-10h1.2v10H123.1z"/>
	<path class="st2" d="M126.2,119.8l-0.1-1.2c0.3,0.1,0.5,0.1,0.7,0.1c0.3,0,0.5,0,0.7-0.1s0.3-0.2,0.4-0.4c0.1-0.1,0.2-0.4,0.4-0.9
		c0-0.1,0.1-0.2,0.1-0.3l-2.8-7.3h1.3l1.5,4.2c0.2,0.5,0.4,1.1,0.5,1.7c0.1-0.6,0.3-1.1,0.5-1.7l1.6-4.2h1.2l-2.8,7.4
		c-0.3,0.8-0.5,1.3-0.7,1.6c-0.2,0.4-0.5,0.7-0.8,0.9c-0.3,0.2-0.6,0.3-1,0.3C126.7,120,126.5,119.9,126.2,119.8z"/>
	<path class="st2" d="M136.6,114.9l1.2-0.2c0.1,0.5,0.3,0.9,0.6,1.1c0.3,0.3,0.7,0.4,1.3,0.4c0.6,0,1-0.1,1.3-0.3
		c0.3-0.2,0.4-0.5,0.4-0.8c0-0.3-0.1-0.5-0.4-0.7c-0.2-0.1-0.6-0.2-1.3-0.4c-0.9-0.2-1.5-0.4-1.9-0.6c-0.3-0.2-0.6-0.4-0.8-0.7
		c-0.2-0.3-0.3-0.6-0.3-1c0-0.3,0.1-0.6,0.2-0.9c0.1-0.3,0.4-0.5,0.6-0.7c0.2-0.1,0.5-0.3,0.8-0.4c0.3-0.1,0.7-0.1,1.1-0.1
		c0.6,0,1.1,0.1,1.5,0.2c0.4,0.2,0.7,0.4,1,0.7c0.2,0.3,0.3,0.7,0.4,1.1l-1.2,0.2c-0.1-0.4-0.2-0.7-0.5-0.9
		c-0.3-0.2-0.6-0.3-1.1-0.3c-0.6,0-1,0.1-1.2,0.3s-0.4,0.4-0.4,0.7c0,0.2,0,0.3,0.2,0.4c0.1,0.1,0.3,0.2,0.5,0.3
		c0.1,0,0.5,0.2,1.1,0.3c0.9,0.2,1.5,0.4,1.8,0.6c0.3,0.1,0.6,0.4,0.8,0.6s0.3,0.6,0.3,1.1c0,0.4-0.1,0.8-0.4,1.2
		c-0.2,0.4-0.6,0.6-1,0.8c-0.5,0.2-1,0.3-1.5,0.3c-0.9,0-1.7-0.2-2.2-0.6C137.1,116.2,136.8,115.7,136.6,114.9z"/>
	<path class="st2" d="M148.9,117.1V116c-0.6,0.8-1.3,1.2-2.3,1.2c-0.4,0-0.8-0.1-1.2-0.2c-0.4-0.2-0.6-0.4-0.8-0.6
		c-0.2-0.2-0.3-0.6-0.4-0.9c0-0.2-0.1-0.6-0.1-1.1v-4.5h1.2v4c0,0.6,0,1.1,0.1,1.3c0.1,0.3,0.2,0.6,0.5,0.8c0.3,0.2,0.6,0.3,0.9,0.3
		s0.7-0.1,1-0.3c0.3-0.2,0.6-0.4,0.7-0.8c0.1-0.3,0.2-0.8,0.2-1.4v-3.9h1.2v7.3H148.9z"/>
	<path class="st2" d="M151.9,117.1v-7.3h1.1v1c0.5-0.8,1.3-1.2,2.3-1.2c0.4,0,0.8,0.1,1.2,0.2c0.4,0.2,0.6,0.4,0.8,0.6
		s0.3,0.6,0.4,0.9c0,0.2,0.1,0.6,0.1,1.2v4.5h-1.2v-4.4c0-0.5,0-0.9-0.1-1.1c-0.1-0.2-0.3-0.4-0.5-0.6c-0.2-0.1-0.5-0.2-0.9-0.2
		c-0.5,0-1,0.2-1.4,0.5c-0.4,0.3-0.6,1-0.6,1.9v4H151.9z"/>
	<path class="st2" d="M159.7,117.1v-7.3h1.1v1c0.5-0.8,1.3-1.2,2.3-1.2c0.4,0,0.8,0.1,1.2,0.2c0.4,0.2,0.6,0.4,0.8,0.6
		s0.3,0.6,0.4,0.9c0,0.2,0.1,0.6,0.1,1.2v4.5h-1.2v-4.4c0-0.5,0-0.9-0.1-1.1c-0.1-0.2-0.3-0.4-0.5-0.6c-0.2-0.1-0.5-0.2-0.9-0.2
		c-0.5,0-1,0.2-1.4,0.5c-0.4,0.3-0.6,1-0.6,1.9v4H159.7z"/>
	<path class="st2" d="M167.4,119.8l-0.1-1.2c0.3,0.1,0.5,0.1,0.7,0.1c0.3,0,0.5,0,0.7-0.1s0.3-0.2,0.4-0.4c0.1-0.1,0.2-0.4,0.4-0.9
		c0-0.1,0.1-0.2,0.1-0.3l-2.8-7.3h1.3l1.5,4.2c0.2,0.5,0.4,1.1,0.5,1.7c0.1-0.6,0.3-1.1,0.5-1.7l1.6-4.2h1.2l-2.8,7.4
		c-0.3,0.8-0.5,1.3-0.7,1.6c-0.2,0.4-0.5,0.7-0.8,0.9c-0.3,0.2-0.6,0.3-1,0.3C168,120,167.7,119.9,167.4,119.8z"/>
</g>
<g class="st0">
	<path class="st3" d="M100.8,70.6c1.9-2.5,4.4-3.8,7.3-3.8c2.7,0,4.8,0.9,6.5,2.6s2.5,4,2.5,6.8c0,3.2-0.9,5.8-2.8,7.8
		c-1.9,2-4.3,3.1-7.2,3.1c-3.3,0-6-1.3-7.9-4s-2.8-6.4-2.8-11.2c0-5.3,1.1-9.4,3.3-12.3c2.2-2.9,5.2-4.4,9.2-4.4
		c1.8,0,4.1,0.4,6.8,1.1v3.5c-2.9-1.1-5.2-1.6-7-1.6C103.3,58.2,100.8,62.3,100.8,70.6z M113,77.1c0-2.3-0.5-4.1-1.5-5.4
		s-2.5-2-4.3-2c-1.7,0-3.2,0.6-4.4,1.7s-1.8,2.5-1.8,4.1c0,2.5,0.6,4.6,1.8,6.1c1.2,1.5,2.7,2.3,4.6,2.3c1.7,0,3.1-0.6,4.2-1.9
		C112.5,80.9,113,79.2,113,77.1z"/>
	<path class="st3" d="M135.9,86.3v-8.6h-13.7v-3.1L135.9,56h3.8v18.5h4.1v3.3h-4.1v8.6H135.9z M126.2,74.4h10V60.9L126.2,74.4z"/>
</g>
<g id="Fill-3">
	<path class="st3" d="M74.8,97.7c1.2,0.5,2.4,1.2,3.4,2c1,0.8,1.9,1.8,2.6,2.8c0.7,1.1,1.3,2.2,1.7,3.5c0.4,1.3,0.6,2.5,0.6,3.9
		c0,1.8-0.3,3.5-1,5.1c-0.7,1.6-1.6,3-2.8,4.2c-1.2,1.2-2.6,2.1-4.2,2.8c-1.6,0.7-3.3,1-5.1,1H38c-2.1,0-4-0.4-5.8-1.2
		c-1.8-0.8-3.4-1.8-4.8-3.2c-1.4-1.4-2.4-2.9-3.2-4.8c-0.8-1.8-1.2-3.8-1.2-5.8c0-1.8,0.3-3.6,1-5.2s1.5-3.2,2.6-4.5
		c1.1-1.3,2.5-2.4,4-3.3c1.5-0.9,3.2-1.5,5-1.7c-0.9-1.9-1.3-3.8-1.3-5.8c0-1.8,0.3-3.5,1-5.1c0.7-1.6,1.6-3,2.8-4.2
		c1.2-1.2,2.6-2.1,4.2-2.8c1.6-0.7,3.3-1,5.1-1c1.6,0,3.2,0.3,4.7,0.9c1.5,0.6,2.8,1.4,4,2.4c1.2,1,2.1,2.2,2.9,3.6
		c0.8,1.4,1.3,2.9,1.5,4.5c1.7,0.2,3.3,0.6,4.9,1.3c1.5,0.7,2.9,1.5,4.2,2.6c1.3,1.1,2.3,2.3,3.3,3.7C73.6,94.5,74.3,96,74.8,97.7z"
		/>
</g>
<g id="Fill-5">
	<polygon class="st3" points="23,89.2 30.5,89.2 30.5,85.4 23,85.4 	"/>
</g>
<g id="Fill-7">
	<path class="st4" d="M69.9,119.2c1.3,0,2.5-0.2,3.6-0.7c1.1-0.5,2.1-1.2,3-2c0.8-0.8,1.5-1.8,2-3c0.5-1.1,0.7-2.4,0.7-3.6
		c0-1.1-0.2-2.2-0.6-3.2c-0.4-1-0.9-1.9-1.6-2.8c-0.7-0.8-1.5-1.5-2.4-2.1c-0.9-0.6-2-0.9-3.1-1.2c-0.2-1.6-0.7-3.1-1.5-4.5
		c-0.8-1.4-1.7-2.6-2.9-3.6c-1.2-1-2.5-1.8-4-2.4c-1.5-0.6-3-0.9-4.7-0.9c-1.6,0-3.1,0.3-4.5,0.8c-1.4,0.5-2.7,1.3-3.9,2.2
		c-1.1,0.9-2.1,2.1-2.9,3.4c-0.8,1.3-1.3,2.7-1.6,4.3c-1.1-1-2.2-1.8-3.6-2.3c-1.3-0.5-2.7-0.8-4.2-0.8c-1.6,0-3,0.3-4.4,0.9
		c-1.4,0.6-2.5,1.4-3.6,2.4c-1,1-1.8,2.2-2.4,3.6c-0.6,1.4-0.9,2.8-0.9,4.4c0,1.6,0.3,3,0.9,4.4c0.6,1.4,1.4,2.5,2.4,3.6
		s2.2,1.8,3.6,2.4c1.4,0.6,2.8,0.9,4.4,0.9H69.9z"/>
</g>
<g id="Fill-8">
	<polygon class="st3" points="34.1,76.7 28.8,71.4 31.5,68.8 36.8,74.1 	"/>
</g>
<g id="Fill-9">
	<path class="st5" d="M47.4,77.9c-1.3,0-2.5,0.2-3.6,0.7c-1.1,0.5-2.1,1.2-3,2c-0.8,0.8-1.5,1.8-2,3C38.2,84.8,38,86,38,87.3
		c0,1.1,0.2,2.1,0.5,3c0.3,1,0.8,1.9,1.4,2.7c1.4,0.2,2.7,0.5,3.9,1.1c1.4-2.4,3.1-4.4,5.3-5.8c2.2-1.5,4.6-2.4,7.4-2.8
		c-0.2-1.1-0.6-2.1-1.2-3c-0.6-0.9-1.2-1.7-2.1-2.4c-0.8-0.7-1.7-1.2-2.8-1.6C49.6,78.1,48.5,77.9,47.4,77.9"/>
</g>
<g id="Fill-10">
	<polygon class="st3" points="45.5,70.4 49.2,70.4 49.2,63 45.5,63 	"/>
</g>
<g id="Fill-11">
	<polygon class="st3" points="60.6,76.7 58,74.1 63.3,68.8 65.9,71.4 	"/>
</g>
<g class="st0">
	<path class="st6" d="M170.1,67.1v-10h1.3v4.1h5.2v-4.1h1.3v10h-1.3v-4.7h-5.2v4.7H170.1z"/>
	<path class="st6" d="M180,58.5v-1.4h1.2v1.4H180z M180,67.1v-7.3h1.2v7.3H180z"/>
	<path class="st6" d="M193.1,59.5l-1.2,0.1c-0.1-0.5-0.3-0.8-0.5-1.1c-0.3-0.4-0.7-0.5-1.2-0.5c-0.4,0-0.7,0.1-1,0.3
		c-0.4,0.3-0.7,0.7-0.9,1.2c-0.2,0.5-0.3,1.3-0.3,2.3c0.3-0.5,0.7-0.8,1.1-1s0.9-0.3,1.3-0.3c0.8,0,1.5,0.3,2.1,0.9
		c0.6,0.6,0.9,1.4,0.9,2.3c0,0.6-0.1,1.2-0.4,1.8c-0.3,0.5-0.6,1-1.1,1.2s-1,0.4-1.6,0.4c-1,0-1.9-0.4-2.5-1.1c-0.6-0.8-1-2-1-3.7
		c0-1.9,0.4-3.3,1.1-4.2c0.6-0.8,1.5-1.1,2.5-1.1c0.8,0,1.4,0.2,1.9,0.7C192.7,58.1,193,58.7,193.1,59.5z M188.1,63.8
		c0,0.4,0.1,0.8,0.3,1.2c0.2,0.4,0.4,0.7,0.8,0.9c0.3,0.2,0.7,0.3,1,0.3c0.5,0,1-0.2,1.3-0.6s0.6-1,0.6-1.7c0-0.7-0.2-1.2-0.6-1.6
		c-0.4-0.4-0.8-0.6-1.4-0.6c-0.6,0-1,0.2-1.4,0.6C188.2,62.7,188.1,63.2,188.1,63.8z"/>
	<path class="st6" d="M198.4,67.1v-2.4h-4.3v-1.1l4.6-6.5h1v6.5h1.4v1.1h-1.4v2.4H198.4z M198.4,63.6V59l-3.1,4.5H198.4z"/>
</g>
<g transform="translate(123.000000, 37.000000)">
	<defs>
		<filter id="Adobe_OpacityMaskFilter" filterUnits="userSpaceOnUse" x="23.6" y="18.2" width="12.9" height="10.2">
			<feColorMatrix  type="matrix" values="1 0 0 0 0  0 1 0 0 0  0 0 1 0 0  0 0 0 1 0"/>
		</filter>
	</defs>
	<mask maskUnits="userSpaceOnUse" x="23.6" y="18.2" width="12.9" height="10.2" id="mask-3_1_">
		<g class="st7">
			<polygon id="path-2_1_" class="st4" points="37.2,31.4 37.2,19 23,19 23,25.2 23,31.4 			"/>
		</g>
	</mask>
	<g class="st8">
		<path class="st9" d="M23.6,20.4c0-0.6,0.2-1.1,0.6-1.5s0.9-0.6,1.5-0.6s1.1,0.2,1.5,0.6s0.6,0.9,0.6,1.5s-0.2,1.1-0.6,1.5
			c-0.4,0.4-0.9,0.6-1.5,0.6s-1.1-0.2-1.5-0.6C23.8,21.5,23.6,21,23.6,20.4z M24.7,20.4c0,0.3,0.1,0.5,0.3,0.7s0.5,0.3,0.7,0.3
			s0.5-0.1,0.7-0.3s0.3-0.5,0.3-0.7s-0.1-0.5-0.3-0.7s-0.5-0.3-0.7-0.3s-0.5,0.1-0.7,0.3S24.7,20.1,24.7,20.4z"/>
		<path class="st9" d="M29.6,28.4v-10h6.9V20h-4.8v2.4h4.2v1.7h-4.2v4.3H29.6z"/>
	</g>
</g>
<g class="st0">
	<path class="st6" d="M170,86.1v-10h1.3v8.8h4.9v1.2H170z"/>
	<path class="st6" d="M177.3,82.4c0-1.3,0.4-2.3,1.1-3c0.6-0.5,1.4-0.8,2.3-0.8c1,0,1.8,0.3,2.4,1c0.6,0.7,1,1.6,1,2.7
		c0,0.9-0.1,1.7-0.4,2.2c-0.3,0.5-0.7,1-1.2,1.2c-0.5,0.3-1.1,0.4-1.8,0.4c-1,0-1.8-0.3-2.5-1C177.6,84.6,177.3,83.7,177.3,82.4z
		 M178.5,82.4c0,0.9,0.2,1.6,0.6,2.1c0.4,0.5,0.9,0.7,1.5,0.7c0.6,0,1.1-0.2,1.5-0.7s0.6-1.2,0.6-2.1c0-0.9-0.2-1.6-0.6-2
		c-0.4-0.5-0.9-0.7-1.5-0.7c-0.6,0-1.1,0.2-1.5,0.7S178.5,81.5,178.5,82.4z"/>
	<path class="st6" d="M189,83.4l1.2-0.2c0.1,0.7,0.4,1.2,0.7,1.5c0.3,0.3,0.8,0.5,1.2,0.5c0.6,0,1.1-0.2,1.5-0.6
		c0.4-0.4,0.6-0.9,0.6-1.5c0-0.6-0.2-1-0.6-1.4c-0.4-0.4-0.8-0.6-1.4-0.6c-0.2,0-0.5,0-0.9,0.1l0.1-1.1c0.1,0,0.1,0,0.2,0
		c0.5,0,1-0.1,1.4-0.4s0.6-0.7,0.6-1.3c0-0.5-0.2-0.8-0.5-1.1c-0.3-0.3-0.7-0.4-1.2-0.4c-0.5,0-0.9,0.2-1.2,0.5s-0.5,0.8-0.6,1.4
		l-1.2-0.2c0.2-0.8,0.5-1.5,1-1.9c0.5-0.5,1.2-0.7,2-0.7c0.5,0,1.1,0.1,1.5,0.4c0.5,0.2,0.8,0.6,1.1,1c0.2,0.4,0.4,0.8,0.4,1.3
		c0,0.4-0.1,0.8-0.3,1.2s-0.6,0.6-1,0.8c0.6,0.1,1.1,0.4,1.4,0.9c0.3,0.4,0.5,1,0.5,1.6c0,0.9-0.3,1.6-1,2.2
		c-0.6,0.6-1.4,0.9-2.4,0.9c-0.9,0-1.6-0.3-2.2-0.8C189.5,84.9,189.1,84.3,189,83.4z"/>
	<path class="st6" d="M203.2,78.5l-1.2,0.1c-0.1-0.5-0.3-0.8-0.5-1.1c-0.3-0.4-0.7-0.5-1.2-0.5c-0.4,0-0.7,0.1-1,0.3
		c-0.4,0.3-0.7,0.7-0.9,1.2c-0.2,0.5-0.3,1.3-0.3,2.3c0.3-0.5,0.7-0.8,1.1-1s0.9-0.3,1.3-0.3c0.8,0,1.5,0.3,2.1,0.9
		c0.6,0.6,0.9,1.4,0.9,2.3c0,0.6-0.1,1.2-0.4,1.8c-0.3,0.5-0.6,1-1.1,1.2s-1,0.4-1.6,0.4c-1,0-1.9-0.4-2.5-1.1c-0.6-0.8-1-2-1-3.7
		c0-1.9,0.4-3.3,1.1-4.2c0.6-0.8,1.5-1.1,2.5-1.1c0.8,0,1.4,0.2,1.9,0.7C202.8,77.1,203.1,77.7,203.2,78.5z M198.2,82.8
		c0,0.4,0.1,0.8,0.3,1.2c0.2,0.4,0.4,0.7,0.8,0.9c0.3,0.2,0.7,0.3,1,0.3c0.5,0,1-0.2,1.3-0.6s0.6-1,0.6-1.7c0-0.7-0.2-1.2-0.6-1.6
		c-0.4-0.4-0.8-0.6-1.4-0.6c-0.6,0-1,0.2-1.4,0.6C198.4,81.7,198.2,82.2,198.2,82.8z"/>
</g>
</svg>
