<svg width="22" height="22" viewBox="0 0 22 22" fill="none" xmlns="http://www.w3.org/2000/svg">
<path d="M18.75 0C20.5449 0 22 1.45507 22 3.25V18.75C22 20.5449 20.5449 22 18.75 22H3.25C1.45507 22 0 20.5449 0 18.75V3.25C0 1.45507 1.45507 0 3.25 0H18.75ZM20.5 6.503H1.5V18.75C1.5 19.7165 2.2835 20.5 3.25 20.5H18.75C19.7165 20.5 20.5 19.7165 20.5 18.75V6.503ZM13.9941 9.23438C14.7949 9.23438 15.4297 9.44726 15.8984 9.87305C16.3672 10.2988 16.6016 10.875 16.6016 11.6016C16.6016 12.0195 16.4941 12.3916 16.2793 12.7178C16.0645 13.0439 15.7715 13.3008 15.4004 13.4883C15.8457 13.6953 16.1885 13.9785 16.4287 14.3379C16.6689 14.6973 16.7891 15.1035 16.7891 15.5566C16.7891 16.3066 16.5352 16.9014 16.0273 17.3408C15.5195 17.7803 14.8438 18 14 18C13.1523 18 12.4736 17.7793 11.9639 17.3379C11.4541 16.8965 11.1992 16.3027 11.1992 15.5566C11.1992 15.0996 11.3203 14.6895 11.5625 14.3262C11.8047 13.9629 12.1445 13.6836 12.582 13.4883C12.2148 13.3008 11.9248 13.0439 11.7119 12.7178C11.499 12.3916 11.3926 12.0195 11.3926 11.6016C11.3926 10.875 11.627 10.2988 12.0957 9.87305C12.5645 9.44726 13.1973 9.23438 13.9941 9.23438ZM8.96367 9.32227V17.8828H7.5457V11.0332L5.45391 11.748V10.5469L8.78203 9.32227H8.96367ZM13.9883 14.0742C13.5742 14.0742 13.2432 14.2031 12.9951 14.4609C12.7471 14.7188 12.623 15.0605 12.623 15.4863C12.623 15.9043 12.7451 16.2383 12.9893 16.4883C13.2334 16.7383 13.5703 16.8633 14 16.8633C14.4297 16.8633 14.7646 16.7422 15.0049 16.5C15.2451 16.2578 15.3652 15.9199 15.3652 15.4863C15.3652 15.0645 15.2393 14.7236 14.9873 14.4639C14.7354 14.2041 14.4023 14.0742 13.9883 14.0742ZM13.9941 10.377C13.6309 10.377 13.3438 10.4912 13.1328 10.7197C12.9219 10.9482 12.8164 11.2598 12.8164 11.6543C12.8164 12.0449 12.9229 12.3555 13.1357 12.5859C13.3486 12.8164 13.6367 12.9316 14 12.9316C14.3633 12.9316 14.6514 12.8164 14.8643 12.5859C15.0771 12.3555 15.1836 12.0449 15.1836 11.6543C15.1836 11.2832 15.0762 10.9775 14.8613 10.7373C14.6465 10.4971 14.3574 10.377 13.9941 10.377ZM18.75 1.5H3.25C2.2835 1.5 1.5 2.2835 1.5 3.25V5.003H20.5V3.25C20.5 2.2835 19.7165 1.5 18.75 1.5Z" fill="#919191"/>
</svg>
