<svg width="22" height="18" viewBox="0 0 22 18" fill="none" xmlns="http://www.w3.org/2000/svg">
<path d="M3.25 0H18.75C20.483 0 21.8992 1.35646 21.9949 3.06558L22 3.25V14.75C22 16.483 20.6435 17.8992 18.9344 17.9949L18.75 18H3.25C1.51697 18 0.100754 16.6435 0.00514483 14.9344L0 14.75V3.25C0 1.51697 1.35645 0.100754 3.06558 0.0051446L3.25 0H18.75H3.25ZM20.5 5.905L11.346 10.6654C11.1653 10.7594 10.9558 10.7751 10.7655 10.7124L10.654 10.6654L1.5 5.905V14.75C1.5 15.6682 2.20711 16.4212 3.10647 16.4942L3.25 16.5H18.75C19.6682 16.5 20.4212 15.7929 20.4942 14.8935L20.5 14.75V5.905ZM18.75 1.5H3.25C2.33183 1.5 1.57881 2.20711 1.5058 3.10647L1.5 3.25V4.214L11 9.15466L20.5 4.214V3.25C20.5 2.33183 19.7929 1.57881 18.8935 1.5058L18.75 1.5Z" fill="#919191"/>
</svg>
