<?xml version="1.0" encoding="utf-8"?>
<!-- Generator: Adobe Illustrator 22.0.1, SVG Export Plug-In . SVG Version: 6.00 Build 0)  -->
<svg version="1.1" id="Layer_1" xmlns="http://www.w3.org/2000/svg" xmlns:xlink="http://www.w3.org/1999/xlink" x="0px" y="0px"
	 width="115px" height="76px" viewBox="0 0 115 76" style="enable-background:new 0 0 115 76;" xml:space="preserve">
<style type="text/css">
	.st0{fill:#FFFFFF;stroke:url(#SVGID_1_);stroke-width:4;stroke-miterlimit:10;}
	.st1{fill:#FFFFFF;stroke:url(#SVGID_2_);stroke-width:4;stroke-miterlimit:10;}
	.st2{fill:url(#SVGID_3_);}
</style>
<g>
	<linearGradient id="SVGID_1_" gradientUnits="userSpaceOnUse" x1="2.6001" y1="38" x2="113.8001" y2="38">
		<stop  offset="0" style="stop-color:#00EFD0"/>
		<stop  offset="1" style="stop-color:#663DF0"/>
	</linearGradient>
	<path class="st0" d="M91.5,31.3c2.8,0,5.4,0.5,7.9,1.6c2.5,1,4.6,2.5,6.4,4.3c1.8,1.8,3.3,3.9,4.3,6.4c1.1,2.4,1.6,5.1,1.6,7.9
		c0,2.8-0.5,5.4-1.6,7.8c-1,2.4-2.5,4.6-4.3,6.4s-4,3.3-6.4,4.3c-2.4,1-5,1.6-7.8,1.6H31.4c-3.7,0-7.2-0.7-10.4-2.1
		c-3.3-1.4-6.1-3.3-8.5-5.7c-2.4-2.4-4.3-5.3-5.7-8.5c-1.4-3.3-2.1-6.7-2.1-10.4c0-3.7,0.7-7.2,2.1-10.4c1.4-3.3,3.3-6.1,5.7-8.5
		c2.4-2.4,5.3-4.3,8.5-5.7c3.3-1.4,6.7-2.1,10.4-2.1c1.6,0,3.2,0.2,4.9,0.5c1.4-2.2,3-4.1,4.8-5.8s3.8-3.2,6-4.4
		C49.3,7,51.6,6.1,54,5.4c2.4-0.6,5-0.9,7.5-0.9c3.9,0,7.5,0.7,11,2c3.4,1.4,6.5,3.2,9.1,5.6c2.7,2.4,4.8,5.2,6.6,8.5
		C89.9,24,91.1,27.5,91.5,31.3z"/>
</g>
</svg>
