<?xml version="1.0" encoding="utf-8"?>
<!-- Generator: Adobe Illustrator 22.0.1, SVG Export Plug-In . SVG Version: 6.00 Build 0)  -->
<svg version="1.1" id="Layer_1" xmlns="http://www.w3.org/2000/svg" xmlns:xlink="http://www.w3.org/1999/xlink" x="0px" y="0px"
	 width="131px" height="84px" viewBox="0 0 131 84" style="enable-background:new 0 0 131 84;" xml:space="preserve">
<style type="text/css">
	.st0{fill:#FFFFFF;stroke:url(#SVGID_1_);stroke-width:4;stroke-miterlimit:10;}
	.st1{fill:#FFFFFF;stroke:url(#SVGID_2_);stroke-width:4;stroke-miterlimit:10;}
	.st2{fill:url(#SVGID_3_);}
</style>
<g>
	<linearGradient id="SVGID_1_" gradientUnits="userSpaceOnUse" x1="10.8519" y1="30.7354" x2="130.1059" y2="62.4319">
		<stop  offset="0" style="stop-color:#00EFD0"/>
		<stop  offset="1" style="stop-color:#663DF0"/>
	</linearGradient>
	<path style="fill:url(#SVGID_1_);" d="M104.2,34c3.2,0,6.3,0.6,9.1,1.8s5.3,2.9,7.4,4.9c2.1,2.1,3.8,4.5,5,7.4
		c1.2,2.8,1.8,5.9,1.8,9.1c0,3.2-0.6,6.2-1.8,9.1c-1.2,2.8-2.9,5.3-5,7.4s-4.6,3.8-7.4,5c-2.8,1.2-5.8,1.8-9,1.8H34.6
		c-4.3,0-8.3-0.8-12.1-2.4c-3.8-1.6-7.1-3.8-9.9-6.6c-2.8-2.8-5-6.1-6.6-9.9c-1.6-3.8-2.4-7.8-2.4-12.1c0-4.3,0.8-8.3,2.4-12.1
		c1.6-3.8,3.8-7.1,6.6-9.9c2.8-2.8,6.1-5,9.9-6.6c3.8-1.6,7.8-2.4,12.1-2.4c1.9,0,3.7,0.2,5.6,0.5c1.6-2.5,3.5-4.8,5.6-6.8
		s4.4-3.7,6.9-5.1c2.5-1.4,5.2-2.4,8-3.1C63.6,3.4,66.5,3,69.5,3c4.5,0,8.7,0.8,12.7,2.4c4,1.6,7.5,3.7,10.6,6.5
		c3.1,2.8,5.6,6,7.6,9.8C102.3,25.5,103.6,29.6,104.2,34z"/>
</g>
</svg>
