<?xml version="1.0" encoding="utf-8"?>
<!-- Generator: Adobe Illustrator 22.0.1, SVG Export Plug-In . SVG Version: 6.00 Build 0)  -->
<svg version="1.1" id="Layer_1" xmlns="http://www.w3.org/2000/svg" xmlns:xlink="http://www.w3.org/1999/xlink" x="0px" y="0px"
	 width="101.8px" height="72px" viewBox="0 0 101.8 72" style="enable-background:new 0 0 101.8 72;" xml:space="preserve">
<style type="text/css">
	.st0{fill:#FFFFFF;stroke:url(#SVGID_1_);stroke-width:4;stroke-miterlimit:10;}
	.st1{fill:#FFFFFF;stroke:url(#SVGID_2_);stroke-width:4;stroke-miterlimit:10;}
	.st2{fill:url(#SVGID_3_);}
</style>
<g>
	<linearGradient id="SVGID_1_" gradientUnits="userSpaceOnUse" x1="4.8001" y1="36.1" x2="96.8001" y2="36.1">
		<stop  offset="0" style="stop-color:#00EFD0"/>
		<stop  offset="1" style="stop-color:#663DF0"/>
	</linearGradient>
	<path class="st0" d="M78.2,30.6c2.3,0,4.4,0.4,6.5,1.3c2,0.9,3.8,2,5.3,3.5c1.5,1.5,2.7,3.2,3.6,5.2c0.9,2,1.3,4.2,1.3,6.5
		c0,2.3-0.4,4.4-1.3,6.4c-0.9,2-2,3.7-3.5,5.2s-3.3,2.7-5.3,3.5c-2,0.9-4.1,1.3-6.4,1.3H28.8c-3,0-5.9-0.6-8.6-1.7
		c-2.7-1.1-5-2.7-7-4.7c-2-2-3.6-4.3-4.7-7c-1.1-2.7-1.7-5.5-1.7-8.6c0-3,0.6-5.9,1.7-8.6c1.1-2.7,2.7-5,4.7-7c2-2,4.3-3.6,7-4.7
		c2.7-1.1,5.5-1.7,8.6-1.7c1.3,0,2.6,0.1,4,0.4c1.1-1.8,2.5-3.4,4-4.8s3.1-2.6,4.9-3.6c1.8-1,3.7-1.7,5.7-2.2c2-0.5,4.1-0.8,6.2-0.8
		c3.2,0,6.2,0.6,9,1.7c2.8,1.1,5.3,2.7,7.5,4.6c2.2,2,4,4.3,5.4,7C76.9,24.6,77.8,27.5,78.2,30.6z"/>
</g>
</svg>
