<svg id="Layer_1" data-name="Layer 1" xmlns="http://www.w3.org/2000/svg" viewBox="0 0 17.5 20"><title>activityIcon</title><path d="M8.74,0a5.85,5.85,0,0,1,3.18.91,6.35,6.35,0,0,1,1.27,1,7,7,0,0,1,1,1.33,7.2,7.2,0,0,1,.63,1.55A6.63,6.63,0,0,1,15,6.49v4.76a1.16,1.16,0,0,0,.17.67,1.08,1.08,0,0,0,.48.38,2.81,2.81,0,0,0,.6.2,1.68,1.68,0,0,1,1.06.56,1,1,0,0,1,.19.69,1.19,1.19,0,0,1-.37.87,1.3,1.3,0,0,1-.41.28,1.14,1.14,0,0,1-.47.1h-15a1.17,1.17,0,0,1-.87-.38,1.27,1.27,0,0,1-.21-1.54,1.08,1.08,0,0,1,.48-.38,2.81,2.81,0,0,1,.6-.2,1.68,1.68,0,0,0,1.06-.56,1,1,0,0,0,.19-.69v-5a6.16,6.16,0,0,1,.86-3.14A6.07,6.07,0,0,1,5.61.86,6.07,6.07,0,0,1,8.74,0Zm2.51,16.25a.58.58,0,0,1,.44.19.61.61,0,0,1,.19.44,3.07,3.07,0,0,1-.25,1.2,3.21,3.21,0,0,1-.67,1,3.3,3.3,0,0,1-1,.69,3.06,3.06,0,0,1-1.2.24,3,3,0,0,1-1.19-.24,3.3,3.3,0,0,1-1-.69,3.23,3.23,0,0,1-.68-1,3.06,3.06,0,0,1-.25-1.19.61.61,0,0,1,.19-.44.58.58,0,0,1,.44-.19Z" style="fill:#fff;opacity:0.8999999761581421"/></svg>