<svg id="Layer_1" data-name="Layer 1" xmlns="http://www.w3.org/2000/svg" viewBox="0 0 13.26 16.97"><title>callsIcon</title><path d="M2.22,0a3.87,3.87,0,0,1,1,.11,1.82,1.82,0,0,1,1.21,1l.43.84A5.75,5.75,0,0,1,5.29,3a4.3,4.3,0,0,1,.16,1.15,2.77,2.77,0,0,1-.74,2l-1,1,3,4.33L8,11a2.62,2.62,0,0,1,1.06-.22,3.22,3.22,0,0,1,1.21.26,5.3,5.3,0,0,1,1.81,1.27l.64.69a1.69,1.69,0,0,1,.5,1.22,2.5,2.5,0,0,1-.07.54c0,.18-.11.41-.2.69l-.11.35,0,.06-.15.38a.61.61,0,0,1-.07.1l-.06.09a1.63,1.63,0,0,1-.62.42,1.84,1.84,0,0,1-.74.14,1.54,1.54,0,0,1-.56-.08,14.48,14.48,0,0,1-4.47-2.16,15,15,0,0,1-3.49-3.56A14.34,14.34,0,0,1,0,2.73q0-.51,0-1a2,2,0,0,1,.33-1A1.74,1.74,0,0,1,1.14.09.61.61,0,0,1,1.36,0l.41,0Z" style="fill:#fff;opacity:0.8999999761581421"/></svg>