<svg id="Layer_1" data-name="Layer 1" xmlns="http://www.w3.org/2000/svg" viewBox="0 0 10.61 13.6"><title>callsIcon_small</title><path d="M1.64,0a5.67,5.67,0,0,1,.65,0,1.89,1.89,0,0,1,.44.1A1.37,1.37,0,0,1,3.15.4a3,3,0,0,1,.4.48,5.57,5.57,0,0,1,.57,1.2,4,4,0,0,1,.24,1.3,2.27,2.27,0,0,1-.11.72,2.31,2.31,0,0,1-.3.61,2.79,2.79,0,0,1-.34.43c-.12.14-.25.27-.37.39L3,5.77,5.42,9.23,5.86,9a5.16,5.16,0,0,1,.91-.34,1.88,1.88,0,0,1,.49-.06A2.69,2.69,0,0,1,8.59,9a5.39,5.39,0,0,1,1.11.86l.11.11a3.69,3.69,0,0,1,.5.55,1.49,1.49,0,0,1,.3.84,3,3,0,0,1-.21,1,5.44,5.44,0,0,1-.22.52,1.84,1.84,0,0,1-.27.38,1.14,1.14,0,0,1-.39.25A1.71,1.71,0,0,1,9,13.6a1.4,1.4,0,0,1-.45-.06,12.4,12.4,0,0,1-4.46-2.47A11.32,11.32,0,0,1,2.36,9.25,10.56,10.56,0,0,1,1.09,7.14,11.67,11.67,0,0,1,0,2.16a7.64,7.64,0,0,1,.05-.91A1.68,1.68,0,0,1,.27.62,1.06,1.06,0,0,1,.77.16,2,2,0,0,1,1.64,0Z" style="fill:#fff"/><rect x="-1466.38" y="-63.2" width="1600" height="900" style="fill:none"/></svg>