<svg id="Layer_1" data-name="Layer 1" xmlns="http://www.w3.org/2000/svg" viewBox="0 0 18.75 20"><title>chatIcon</title><path d="M16.78,0a1.85,1.85,0,0,1,.74.15,1.85,1.85,0,0,1,.64.43,1.81,1.81,0,0,1,.43.63,1.78,1.78,0,0,1,.16.75V18.65a1.35,1.35,0,0,1-.11.52,1.42,1.42,0,0,1-.29.43,1.42,1.42,0,0,1-1,.4,1.24,1.24,0,0,1-.56-.13,1.55,1.55,0,0,1-.48-.37l-3.07-3.39-.13-.06c-.63,0-1.26,0-1.88.09s-1.22.07-1.89.07c-1.59,0-2.9,0-3.93-.14a16.78,16.78,0,0,1-3.84-.74,2.6,2.6,0,0,1-1.18-.76A1.87,1.87,0,0,1,0,13.31V2a1.78,1.78,0,0,1,.16-.75A1.81,1.81,0,0,1,.59.58,1.85,1.85,0,0,1,1.23.15,1.85,1.85,0,0,1,2,0ZM5,5V6.25h8.75V5ZM5,8.75V10h5.83V8.75Z" style="fill:#fff;opacity:0.8999999761581421"/></svg>