<svg id="Layer_1" data-name="Layer 1" xmlns="http://www.w3.org/2000/svg" viewBox="0 0 15 20"><title>filesIcon</title><path d="M13.12,0a1.71,1.71,0,0,1,.71.15,1.77,1.77,0,0,1,.61.41,1.77,1.77,0,0,1,.41.61,1.71,1.71,0,0,1,.15.71V18.12a1.71,1.71,0,0,1-.15.71,1.65,1.65,0,0,1-.41.6,1.67,1.67,0,0,1-.61.42,1.71,1.71,0,0,1-.71.15H1.88a1.71,1.71,0,0,1-.71-.15,1.56,1.56,0,0,1-.6-.42,1.56,1.56,0,0,1-.42-.6A1.71,1.71,0,0,1,0,18.12V7.5H6.23V0h6.89ZM5,6.25H.11a2.59,2.59,0,0,1,.44-.71C1,4.93,1.51,4.35,2,3.82s1-1,1.51-1.68c.16-.19.39-.47.69-.85A4.38,4.38,0,0,1,5,.51Z" style="fill:#fff;opacity:0.8999999761581421"/></svg>