<?xml version="1.0" encoding="utf-8"?>
<!-- Generator: Adobe Illustrator 22.0.1, SVG Export Plug-In . SVG Version: 6.00 Build 0)  -->
<svg version="1.1" id="Layer_1" xmlns="http://www.w3.org/2000/svg" xmlns:xlink="http://www.w3.org/1999/xlink" x="0px" y="0px"
	 width="208.7px" height="21.3px" viewBox="0 0 208.7 21.3" style="enable-background:new 0 0 208.7 21.3;" xml:space="preserve">
<style type="text/css">
	.st0{opacity:0.75;}
	.st1{fill:none;}
	.st2{enable-background:new    ;}
	.st3{fill:#252424;}
</style>
<title>Group 2</title>
<desc>Created with Sketch.</desc>
<g id="Screens_x2F_TeamsChannel_x5F_CollapsedReplies" transform="translate(-553.000000, -868.000000)" class="st0">
	<g id="Group-2" transform="translate(545.000000, 860.000000)">
		<g id="Misc_x2F_Icons_x2F_Unfilled_x2F__x24_app-gray-02" transform="translate(192.000000, 0.000000)">
			<g id="Group">
				<g id="Rectangle">
					<rect class="st1" width="32" height="32"/>
				</g>
				<g class="st2">
					<g class="st2">
						<path class="st3" d="M11.1,18.1c0.2,0.1,0.3,0.2,0.5,0.3c0.1,0.1,0.2,0.3,0.3,0.5s0.1,0.4,0.1,0.6s0,0.4-0.1,0.6
							s-0.2,0.3-0.3,0.5c-0.1,0.1-0.3,0.3-0.5,0.3S10.7,21,10.5,21c-0.2,0-0.4,0-0.6-0.1s-0.3-0.2-0.5-0.3c-0.1-0.1-0.3-0.3-0.3-0.5
							S9,19.7,9,19.5s0-0.4,0.1-0.6s0.2-0.3,0.3-0.5c0.1-0.1,0.3-0.2,0.5-0.3s0.4-0.1,0.6-0.1C10.7,18,10.9,18,11.1,18.1z
							 M16.6,18.1c0.2,0.1,0.3,0.2,0.5,0.3c0.1,0.1,0.2,0.3,0.3,0.5s0.1,0.4,0.1,0.6s0,0.4-0.1,0.6s-0.2,0.3-0.3,0.5
							c-0.1,0.1-0.3,0.3-0.5,0.3S16.2,21,16,21c-0.2,0-0.4,0-0.6-0.1s-0.3-0.2-0.5-0.3c-0.1-0.1-0.3-0.3-0.3-0.5s-0.1-0.4-0.1-0.6
							s0-0.4,0.1-0.6s0.2-0.3,0.3-0.5c0.1-0.1,0.3-0.2,0.5-0.3S15.8,18,16,18C16.2,18,16.4,18,16.6,18.1z M22.1,18.1
							c0.2,0.1,0.3,0.2,0.5,0.3c0.1,0.1,0.2,0.3,0.3,0.5s0.1,0.4,0.1,0.6s0,0.4-0.1,0.6s-0.2,0.3-0.3,0.5c-0.1,0.1-0.3,0.3-0.5,0.3
							S21.7,21,21.5,21c-0.2,0-0.4,0-0.6-0.1s-0.3-0.2-0.5-0.3c-0.1-0.1-0.3-0.3-0.3-0.5S20,19.7,20,19.5s0-0.4,0.1-0.6
							s0.2-0.3,0.3-0.5c0.1-0.1,0.3-0.2,0.5-0.3s0.4-0.1,0.6-0.1C21.7,18,21.9,18,22.1,18.1z"/>
					</g>
				</g>
			</g>
		</g>
		<g id="Misc_x2F_Icons_x2F_Unfilled_x2F__x24_app-gray-02_1_" transform="translate(160.000000, 0.000000)">
			<g id="Group_1_">
				<g id="Rectangle_1_">
					<rect class="st1" width="32" height="32"/>
				</g>
				<g class="st2">
					<g class="st2">
						<path class="st3" d="M18.1,15.1c0.2,0.1,0.3,0.2,0.5,0.3s0.2,0.3,0.3,0.5c0.1,0.2,0.1,0.4,0.1,0.6v5c0,0.2,0,0.4-0.1,0.6
							c-0.1,0.2-0.2,0.3-0.3,0.5s-0.3,0.2-0.5,0.3C17.9,23,17.7,23,17.5,23H9.8c-0.6,0-1-0.3-1.3-0.8c-0.2-0.4-0.4-1-0.4-1.6
							C8,20.2,8,19.8,8,19.3V19v-0.3c0-0.5,0-1,0.1-1.3c0.1-0.7,0.2-1.3,0.4-1.7C8.8,15.2,9.2,15,9.8,15h7.7
							C17.7,15,17.9,15,18.1,15.1z M9.8,16c-0.1,0-0.2,0-0.3,0.1s-0.1,0.2-0.2,0.3c-0.1,0.4-0.2,0.8-0.2,1.3C9,18,9,18.4,9,19
							c0,0.6,0,1,0,1.3c0,0.5,0.1,0.9,0.2,1.3c0,0.1,0.1,0.2,0.2,0.3C9.5,22,9.6,22,9.8,22h7.7c0.1,0,0.3,0,0.4-0.1
							c0.1-0.1,0.1-0.2,0.1-0.4v-5c0-0.1,0-0.3-0.1-0.4C17.8,16,17.6,16,17.5,16H9.8z M16.6,11.1c0.3,0,0.5,0.1,0.8,0.1
							c0.8,0.1,1.4,0.3,1.9,0.5c0.6,0.3,0.9,0.5,0.9,0.8c0,0.1-0.1,0.3-0.2,0.4S19.9,13,19.7,13c-0.1,0-0.1,0-0.2-0.1
							c-0.7-0.3-1.3-0.5-1.7-0.7C17.2,12.1,16.6,12,16,12c-0.6,0-1.2,0.1-1.8,0.2c-0.4,0.1-1,0.4-1.7,0.7c-0.1,0-0.2,0.1-0.2,0.1
							c-0.1,0-0.3,0-0.4-0.1s-0.2-0.2-0.2-0.4c0-0.3,0.3-0.6,0.9-0.8c0.5-0.2,1.1-0.4,1.9-0.5c0.3-0.1,0.6-0.1,0.8-0.1
							c0.3,0,0.5,0,0.6,0C16.1,11,16.3,11,16.6,11.1z M20.1,25.1c0.1,0.1,0.2,0.2,0.2,0.4c0,0.3-0.3,0.6-0.9,0.8
							c-0.5,0.2-1.1,0.4-1.9,0.5C16.8,26.9,16.3,27,16,27c-0.3,0-0.8-0.1-1.4-0.2c-0.8-0.1-1.4-0.3-1.9-0.5
							c-0.6-0.2-0.9-0.5-0.9-0.8c0-0.1,0-0.3,0.1-0.4C12,25,12.1,25,12.3,25c0.1,0,0.1,0,0.2,0.1c0.3,0.2,0.6,0.3,0.9,0.4
							c0.3,0.1,0.5,0.2,0.8,0.3c0.6,0.2,1.2,0.3,1.8,0.3c0.6,0,1.2-0.1,1.8-0.3c0.3-0.1,0.5-0.2,0.8-0.3c0.3-0.1,0.6-0.2,0.9-0.4
							c0.1,0,0.2-0.1,0.2-0.1C19.9,25,20,25,20.1,25.1z M23.9,15.1c0.1,0.1,0.1,0.2,0.1,0.4v7c0,0.1,0,0.3-0.1,0.4
							C23.8,23,23.6,23,23.5,23c-0.1,0-0.2,0-0.3-0.1l-2.5-2.4c-0.2-0.2-0.4-0.4-0.5-0.7S20,19.3,20,19s0.1-0.5,0.2-0.8
							s0.3-0.5,0.5-0.7l2.5-2.4c0.1-0.1,0.2-0.1,0.3-0.1C23.6,15,23.8,15,23.9,15.1z M21.3,18.3c-0.1,0.1-0.2,0.2-0.2,0.3
							S21,18.9,21,19s0,0.3,0.1,0.4s0.1,0.2,0.2,0.3l1.7,1.6v-4.7L21.3,18.3z"/>
					</g>
				</g>
			</g>
		</g>
		<g id="Misc_x2F_Icons_x2F_Unfilled_x2F__x24_app-gray-02_2_" transform="translate(128.000000, 0.000000)">
			<g id="Group_2_">
				<g id="Rectangle_2_">
					<rect class="st1" width="32" height="32"/>
				</g>
				<g class="st2">
					<g class="st2">
						<path class="st3" d="M22.1,12.1c0.2,0.1,0.3,0.2,0.5,0.3s0.2,0.3,0.3,0.5c0.1,0.2,0.1,0.4,0.1,0.6v6.6c0,0.2,0,0.4-0.1,0.6
							c-0.1,0.2-0.2,0.3-0.3,0.5l-4.4,4.4c-0.1,0.1-0.3,0.2-0.5,0.3C17.5,26,17.3,26,17.1,26h-6.6c-0.2,0-0.4,0-0.6-0.1
							c-0.2-0.1-0.3-0.2-0.5-0.3s-0.2-0.3-0.3-0.5C9,24.9,9,24.7,9,24.5v-11c0-0.2,0-0.4,0.1-0.6c0.1-0.2,0.2-0.3,0.3-0.5
							s0.3-0.2,0.5-0.3c0.2-0.1,0.4-0.1,0.6-0.1h11C21.7,12,21.9,12,22.1,12.1z M10.5,13c-0.1,0-0.3,0-0.4,0.1
							C10,13.2,10,13.4,10,13.5v11c0,0.1,0,0.3,0.1,0.4c0.1,0.1,0.2,0.1,0.4,0.1H17v-2.4c-0.4,0.1-0.7,0.1-1,0.1
							c-0.4,0-0.8-0.1-1.2-0.2c-0.4-0.1-0.8-0.2-1.2-0.5c-0.4-0.2-0.8-0.4-1.1-0.7c-0.3-0.3-0.6-0.6-0.8-1l0-0.1
							c0-0.1-0.1-0.1-0.1-0.2c0,0,0-0.1,0-0.1c0-0.2,0.1-0.3,0.2-0.4c0.1-0.1,0.3-0.2,0.4-0.2c0.1,0,0.1,0,0.2,0.1s0.1,0.1,0.2,0.1
							c0.1,0,0.1,0.1,0.1,0.1l0.2,0.2c0.4,0.4,0.9,0.8,1.2,1c0.6,0.3,1.2,0.5,1.9,0.5c0.4,0,0.7,0,1-0.1V20h5v-6.5
							c0-0.1,0-0.3-0.1-0.4C21.7,13,21.6,13,21.5,13H10.5z M14.3,16.3C14.3,16.3,14.3,16.3,14.3,16.3c0.2,0.1,0.2,0.1,0.3,0.2
							c0.2,0.2,0.2,0.4,0.2,0.6c0,0.2-0.1,0.4-0.2,0.6c-0.2,0.2-0.3,0.2-0.6,0.2c-0.2,0-0.4-0.1-0.6-0.2c-0.1-0.1-0.1-0.2-0.2-0.2
							s-0.1-0.2-0.1-0.3c0-0.2,0.1-0.4,0.2-0.6c0.1-0.1,0.1-0.1,0.2-0.1s0.1,0,0.1-0.1c0.1,0,0.2-0.1,0.3-0.1
							C14.1,16.2,14.2,16.2,14.3,16.3z M18.3,16.3C18.3,16.3,18.3,16.3,18.3,16.3c0.2,0.1,0.2,0.1,0.3,0.2c0.2,0.2,0.2,0.4,0.2,0.6
							c0,0.2-0.1,0.4-0.2,0.6c-0.2,0.2-0.3,0.2-0.6,0.2c-0.1,0-0.2,0-0.3-0.1c0,0,0,0-0.1-0.1s-0.1-0.1-0.2-0.1
							c-0.1-0.1-0.1-0.2-0.2-0.2s-0.1-0.2-0.1-0.3c0-0.2,0.1-0.4,0.2-0.6c0.1-0.1,0.1-0.1,0.2-0.1s0.1,0,0.1-0.1
							c0.1,0,0.2-0.1,0.3-0.1C18.1,16.2,18.2,16.2,18.3,16.3z M18,21v1.3v2l3.3-3.3H18z"/>
					</g>
				</g>
			</g>
		</g>
		<g id="Misc_x2F_Icons_x2F_Unfilled_x2F__x24_app-gray-02_3_" transform="translate(96.000000, 0.000000)">
			<g id="Group_3_">
				<g id="Rectangle_3_">
					<rect class="st1" width="32" height="32"/>
				</g>
				<g class="st2">
					<g class="st2">
						<path class="st3" d="M22,11.6c0.3,0.1,0.5,0.2,0.8,0.3s0.5,0.3,0.6,0.6c0.2,0.2,0.3,0.5,0.4,0.7s0.1,0.5,0.1,0.8v9.9
							c0,0.3,0,0.6-0.1,0.8s-0.2,0.5-0.4,0.7c-0.2,0.2-0.4,0.4-0.6,0.6s-0.5,0.3-0.8,0.3c-1.9,0.4-4,0.6-6,0.6c-2.1,0-4.1-0.2-6-0.6
							c-0.3-0.1-0.5-0.2-0.8-0.3s-0.4-0.3-0.6-0.6c-0.2-0.2-0.3-0.5-0.4-0.7C8,24.5,8,24.2,8,23.9v-9.9c0-0.3,0-0.6,0.1-0.8
							c0.1-0.3,0.2-0.5,0.4-0.7c0.2-0.2,0.4-0.4,0.6-0.6s0.5-0.3,0.8-0.3c1.9-0.4,3.9-0.6,6-0.6C18.1,11,20.1,11.2,22,11.6z
							 M10.2,12.6c-0.3,0.1-0.6,0.2-0.8,0.5c-0.1,0.1-0.2,0.3-0.2,0.4C9,13.7,9,13.9,9,14.1v9.9c0,0.2,0,0.3,0.1,0.5
							c0.1,0.2,0.1,0.3,0.2,0.4c0.2,0.3,0.5,0.5,0.8,0.5C12,25.8,13.9,26,16,26c2.1,0,4-0.2,5.8-0.6c0.3-0.1,0.6-0.2,0.8-0.5
							c0.1-0.1,0.2-0.3,0.2-0.4c0.1-0.2,0.1-0.3,0.1-0.5v-9.9c0-0.2,0-0.3-0.1-0.5c-0.1-0.2-0.1-0.3-0.2-0.4
							c-0.2-0.3-0.5-0.5-0.8-0.5C19.9,12.2,18,12,16,12C14,12,12.1,12.2,10.2,12.6z M14.5,17H13c-0.2,0-0.3,0-0.4,0.1
							c-0.1,0.1-0.3,0.1-0.4,0.3s-0.2,0.2-0.3,0.4c-0.1,0.1-0.1,0.3-0.1,0.5V20c0,0.3,0.1,0.5,0.3,0.7c0.2,0.2,0.4,0.3,0.7,0.3h0.7
							v-1.5H13v-1h1.5V22h-1.7c-0.3,0-0.5-0.1-0.8-0.2c-0.2-0.1-0.5-0.2-0.6-0.4c-0.2-0.2-0.3-0.4-0.4-0.6s-0.2-0.5-0.2-0.8v-1.9
							c0-0.3,0.1-0.6,0.2-0.8c0.1-0.3,0.3-0.5,0.5-0.7c0.2-0.2,0.4-0.4,0.7-0.5c0.3-0.1,0.5-0.2,0.8-0.2h1.5V17z M17,22h-1v-6h1V22z
							 M21.3,17h-1.8v1.5H21v1h-1.5V22h-1v-6h2.8V17z"/>
					</g>
				</g>
			</g>
		</g>
		<g id="Misc_x2F_Icons_x2F_Unfilled_x2F__x24_app-gray-02_4_" transform="translate(64.000000, 0.000000)">
			<g id="Group_4_">
				<g id="Rectangle_4_">
					<rect class="st1" width="32" height="32"/>
				</g>
				<g class="st2">
					<g class="st2">
						<path class="st3" d="M18.1,11.3c0.7,0.2,1.3,0.5,1.9,0.8c0.6,0.3,1.1,0.8,1.6,1.3c0.5,0.5,0.9,1,1.3,1.6
							c0.4,0.6,0.6,1.2,0.8,1.9S24,18.3,24,19s-0.1,1.4-0.3,2.1s-0.5,1.3-0.8,1.9c-0.3,0.6-0.8,1.1-1.3,1.6c-0.5,0.5-1,0.9-1.6,1.3
							c-0.6,0.4-1.2,0.6-1.9,0.8S16.7,27,16,27c-0.7,0-1.4-0.1-2.1-0.3s-1.3-0.5-1.9-0.8c-0.6-0.3-1.1-0.8-1.6-1.3
							c-0.5-0.5-0.9-1-1.3-1.6c-0.4-0.6-0.6-1.2-0.8-1.9S8,19.7,8,19s0.1-1.4,0.3-2.1s0.5-1.3,0.8-1.9c0.3-0.6,0.8-1.1,1.3-1.6
							c0.5-0.5,1-0.9,1.6-1.3c0.6-0.4,1.2-0.6,1.9-0.8S15.3,11,16,11C16.7,11,17.4,11.1,18.1,11.3z M14.2,12.2
							c-0.6,0.2-1.2,0.4-1.7,0.7c-0.5,0.3-1,0.7-1.4,1.1c-0.4,0.4-0.8,0.9-1.1,1.4c-0.3,0.5-0.5,1.1-0.7,1.7C9.1,17.8,9,18.4,9,19
							s0.1,1.2,0.2,1.8c0.2,0.6,0.4,1.2,0.7,1.7c0.3,0.5,0.7,1,1.1,1.4c0.4,0.4,0.9,0.8,1.4,1.1c0.5,0.3,1.1,0.5,1.7,0.7
							c0.6,0.2,1.2,0.2,1.8,0.2c0.6,0,1.2-0.1,1.8-0.2c0.6-0.2,1.2-0.4,1.7-0.7c0.5-0.3,1-0.7,1.4-1.1s0.8-0.9,1.1-1.4
							c0.3-0.5,0.5-1.1,0.7-1.7S23,19.6,23,19s-0.1-1.3-0.2-1.8S22.4,16,22,15.5c-0.3-0.5-0.7-1-1.1-1.4c-0.4-0.4-0.9-0.8-1.4-1.1
							c-0.5-0.3-1.1-0.5-1.7-0.7C17.3,12.1,16.6,12,16,12C15.4,12,14.7,12.1,14.2,12.2z M19.9,21.8c-0.5,0.5-1.1,0.9-1.8,1.2
							s-1.4,0.4-2.1,0.4c-0.7,0-1.4-0.1-2.1-0.4s-1.3-0.7-1.8-1.2l0.7-0.7c0.4,0.4,0.9,0.7,1.4,1c0.5,0.2,1.1,0.3,1.7,0.3
							s1.2-0.1,1.7-0.3c0.5-0.2,1-0.5,1.4-1L19.9,21.8z M14.2,16.8c0.2,0.2,0.3,0.4,0.3,0.7c0,0.1,0,0.3-0.1,0.4
							c0,0.1-0.1,0.2-0.2,0.3c-0.2,0.2-0.4,0.3-0.7,0.3c-0.1,0-0.3,0-0.4-0.1c-0.1-0.1-0.2-0.1-0.3-0.2c-0.1-0.1-0.2-0.2-0.2-0.3
							c-0.1-0.1-0.1-0.3-0.1-0.4c0-0.3,0.1-0.5,0.3-0.7c0.1-0.1,0.2-0.2,0.3-0.2c0.1,0,0.2-0.1,0.4-0.1C13.8,16.5,14,16.6,14.2,16.8
							z M19.2,16.8c0.2,0.2,0.3,0.4,0.3,0.7c0,0.1,0,0.3-0.1,0.4c0,0.1-0.1,0.2-0.2,0.3c-0.2,0.2-0.4,0.3-0.7,0.3
							c-0.1,0-0.3,0-0.4-0.1c-0.1-0.1-0.2-0.1-0.3-0.2c-0.1-0.1-0.2-0.2-0.2-0.3c-0.1-0.1-0.1-0.3-0.1-0.4c0-0.3,0.1-0.5,0.3-0.7
							c0.1-0.1,0.2-0.2,0.3-0.2c0.1,0,0.2-0.1,0.4-0.1C18.8,16.5,19,16.6,19.2,16.8z"/>
					</g>
				</g>
			</g>
		</g>
		<g id="Misc_x2F_Icons_x2F_Unfilled_x2F__x24_app-gray-02_5_" transform="translate(32.000000, 0.000000)">
			<g id="Group_5_">
				<g id="Rectangle_5_">
					<rect class="st1" width="32" height="32"/>
				</g>
				<g class="st2">
					<g class="st2">
						<path class="st3" d="M20.4,11.7c0.3,0.1,0.6,0.3,0.9,0.6c0.3,0.3,0.5,0.5,0.6,0.9s0.2,0.7,0.2,1c0,0.4-0.1,0.7-0.2,1.1
							c-0.1,0.3-0.3,0.6-0.6,0.9l-5.8,6.1c-0.1,0.1-0.2,0.1-0.3,0.1c-0.1,0-0.3,0-0.4-0.1c-0.1-0.1-0.1-0.2-0.1-0.3
							c0-0.1,0-0.3,0.1-0.4l5.8-6c0.2-0.2,0.3-0.4,0.4-0.6c0.1-0.2,0.1-0.4,0.1-0.7s0-0.5-0.1-0.7c-0.1-0.2-0.2-0.4-0.4-0.6
							c-0.2-0.2-0.4-0.3-0.6-0.4c-0.2-0.1-0.4-0.1-0.7-0.1c-0.2,0-0.5,0-0.7,0.1c-0.2,0.1-0.4,0.2-0.6,0.4l-6.7,7
							c-0.3,0.3-0.5,0.7-0.7,1.1s-0.2,0.8-0.2,1.2s0.1,0.8,0.3,1.2c0.2,0.4,0.4,0.7,0.7,1s0.6,0.5,1,0.7c0.4,0.2,0.8,0.2,1.2,0.2
							c0.4,0,0.8-0.1,1.2-0.2c0.4-0.2,0.8-0.4,1.1-0.7l4.8-4.7c0.1-0.1,0.2-0.1,0.4-0.1c0.1,0,0.3,0,0.4,0.1
							c0.1,0.1,0.1,0.2,0.1,0.4s0,0.3-0.1,0.4l-4.8,4.7c-0.4,0.4-0.9,0.7-1.4,0.9c-0.5,0.2-1.1,0.3-1.6,0.3c-0.6,0-1.1-0.1-1.6-0.3
							c-0.5-0.2-1-0.5-1.4-0.9s-0.7-0.8-0.9-1.3c-0.2-0.5-0.3-1-0.3-1.6c0-0.6,0.1-1.1,0.3-1.6c0.2-0.5,0.5-1,0.9-1.4l6.7-7
							c0.2-0.3,0.5-0.5,0.9-0.6c0.3-0.1,0.7-0.2,1.1-0.2C19.7,11.5,20.1,11.6,20.4,11.7z"/>
					</g>
				</g>
			</g>
		</g>
		<g id="Misc_x2F_Icons_x2F_Unfilled_x2F__x24_app-gray-02_6_">
			<g id="Group_6_">
				<g id="Rectangle_6_">
					<rect class="st1" width="32" height="32"/>
				</g>
				<g class="st2">
					<g class="st2">
						<path class="st3" d="M12.8,11.6c0.1,0.1,0.1,0.1,0.2,0.2l3.5,10.1l-0.8,0.8l-1-2.7h-4.5L9,23.7c0,0.1-0.1,0.2-0.2,0.2
							C8.7,24,8.6,24,8.5,24c-0.1,0-0.3,0-0.4-0.1C8,23.8,8,23.6,8,23.5l0.1-0.3L8.8,21l0.5-1.5l0.6-1.7c0.1-0.4,0.2-0.6,0.2-0.7
							l0.9-2.6c0.4-1.1,0.7-1.9,0.8-2.2c0.1-0.2,0.1-0.4,0.2-0.4c0-0.1,0.1-0.1,0.2-0.2c0.1-0.1,0.2-0.1,0.3-0.1
							C12.6,11.5,12.7,11.5,12.8,11.6z M10.6,19h3.8l-1.9-5.5L10.6,19z M23,18.1c0.2,0.1,0.4,0.2,0.5,0.3c0.1,0.1,0.3,0.3,0.3,0.5
							c0.1,0.2,0.1,0.4,0.1,0.6c0,0.2,0,0.4-0.1,0.6c-0.1,0.2-0.2,0.4-0.3,0.5L19,25.3c0,0.2-0.1,0.5-0.2,0.7
							c-0.1,0.2-0.3,0.4-0.4,0.6c-0.2,0.2-0.4,0.3-0.6,0.4C17.5,27,17.2,27,17,27h-5.5c-0.1,0-0.3,0-0.4-0.1
							C11,26.8,11,26.6,11,26.5s0-0.3,0.1-0.4c0.1-0.1,0.2-0.1,0.4-0.1H14c0.3,0,0.5-0.1,0.7-0.3c0.1-0.1,0.2-0.2,0.2-0.3
							c0-0.1,0.1-0.2,0.1-0.4c0-0.2,0-0.5,0.1-0.7c0.1-0.2,0.2-0.4,0.4-0.6c0.2-0.2,0.3-0.3,0.6-0.4s0.4-0.2,0.7-0.2l4.6-4.6
							c0.1-0.1,0.3-0.3,0.5-0.3s0.4-0.1,0.6-0.1C22.6,18,22.8,18,23,18.1z M16.5,24.1c-0.1,0.1-0.2,0.2-0.3,0.3
							c-0.1,0.1-0.1,0.2-0.2,0.3c0,0.1-0.1,0.3-0.1,0.5c0,0.2-0.1,0.4-0.1,0.5c0,0.1-0.1,0.2-0.1,0.4H17c0.3,0,0.5-0.1,0.7-0.3
							c0.1-0.1,0.2-0.2,0.2-0.3c0-0.1,0.1-0.2,0.1-0.4c0-0.3-0.1-0.5-0.3-0.7C17.5,24.1,17.3,24,17,24C16.8,24,16.7,24,16.5,24.1z
							 M22,19.2l-4.1,4.1c0.3,0.2,0.6,0.5,0.8,0.8l4.1-4.1c0.1-0.1,0.2-0.3,0.2-0.4c0-0.2-0.1-0.3-0.2-0.4c-0.1-0.1-0.2-0.2-0.4-0.2
							C22.3,19,22.1,19.1,22,19.2z"/>
					</g>
				</g>
			</g>
		</g>
	</g>
</g>
</svg>
