<svg id="Layer_1" data-name="Layer 1" xmlns="http://www.w3.org/2000/svg" viewBox="0 0 17.5 18.13"><title>meetingsIcon</title><path d="M11.88,0a.55.55,0,0,1,.55.37,2,2,0,0,1,.11.72,6.41,6.41,0,0,1,0,.79h3.12a1.78,1.78,0,0,1,.72.14,1.94,1.94,0,0,1,.6.41,1.77,1.77,0,0,1,.41.61,1.74,1.74,0,0,1,.15.71V15.52a1.59,1.59,0,0,1-.37,1.08,2.31,2.31,0,0,1-1,.66,15.72,15.72,0,0,1-3.64.72c-1,.1-2.22.14-3.74.14S6,18.08,5,18a15.93,15.93,0,0,1-3.65-.72,2.31,2.31,0,0,1-1-.66A1.59,1.59,0,0,1,0,15.52V3.75A1.74,1.74,0,0,1,.15,3a1.77,1.77,0,0,1,.41-.61A1.94,1.94,0,0,1,1.16,2a1.78,1.78,0,0,1,.72-.14H5V1.61c0-.23,0-.41,0-.54a1.94,1.94,0,0,1,.11-.7A.54.54,0,0,1,5.62,0a.55.55,0,0,1,.56.37,2,2,0,0,1,.11.72,6.41,6.41,0,0,1,0,.79h5V1.61c0-.23,0-.41,0-.54a1.94,1.94,0,0,1,.11-.7A.54.54,0,0,1,11.88,0ZM3.75,6.88v2.5h2.5V6.88Zm0,3.74v2.5h2.5v-2.5ZM7.5,6.88v2.5H10V6.88Zm0,3.74v2.5H10v-2.5Zm3.75-3.74v2.5h2.5V6.88Z" style="fill:#fff;opacity:0.8999999761581421"/></svg>