<svg id="Layer_1" data-name="Layer 1" xmlns="http://www.w3.org/2000/svg" viewBox="0 0 17.5 3.75"><title>overflowIcon</title><path d="M1.88,0a1.69,1.69,0,0,1,.7.15,1.77,1.77,0,0,1,.61.41,1.77,1.77,0,0,1,.41.61,1.73,1.73,0,0,1,0,1.41,1.65,1.65,0,0,1-.41.6,1.67,1.67,0,0,1-.61.42,1.73,1.73,0,0,1-1.41,0,1.56,1.56,0,0,1-.6-.42,1.56,1.56,0,0,1-.42-.6,1.73,1.73,0,0,1,0-1.41A1.67,1.67,0,0,1,.57.56a1.65,1.65,0,0,1,.6-.41A1.71,1.71,0,0,1,1.88,0ZM8.75,0a1.74,1.74,0,0,1,.71.15,1.87,1.87,0,0,1,.61.41,2.11,2.11,0,0,1,.41.61,1.7,1.7,0,0,1,.14.71,1.68,1.68,0,0,1-.14.7,1.94,1.94,0,0,1-.41.6,1.76,1.76,0,0,1-.61.42,1.8,1.8,0,0,1-2-.42A1.81,1.81,0,0,1,7,2.58a1.68,1.68,0,0,1-.14-.7A1.7,1.7,0,0,1,7,1.17,2,2,0,0,1,7.44.56,1.83,1.83,0,0,1,8,.15,1.74,1.74,0,0,1,8.75,0Zm6.87,0a1.71,1.71,0,0,1,.71.15,1.77,1.77,0,0,1,.61.41,1.77,1.77,0,0,1,.41.61,1.73,1.73,0,0,1,0,1.41,1.65,1.65,0,0,1-.41.6,1.67,1.67,0,0,1-.61.42,1.73,1.73,0,0,1-1.41,0,1.56,1.56,0,0,1-.6-.42,1.56,1.56,0,0,1-.42-.6,1.73,1.73,0,0,1,0-1.41,1.67,1.67,0,0,1,.42-.61,1.65,1.65,0,0,1,.6-.41,1.69,1.69,0,0,1,.7-.15Z" style="fill:#fff"/></svg>