<?xml version="1.0" encoding="utf-8"?>
<!-- Generator: Adobe Illustrator 22.0.1, SVG Export Plug-In . SVG Version: 6.00 Build 0)  -->
<svg version="1.1" id="Layer_1" xmlns="http://www.w3.org/2000/svg" xmlns:xlink="http://www.w3.org/1999/xlink" x="0px" y="0px"
	 width="172px" height="161px" viewBox="0 0 172 161" style="enable-background:new 0 0 172 161;" xml:space="preserve">
<style type="text/css">
	.st0{enable-background:new    ;}
	.st1{fill:#252424;}
	.st2{opacity:0.75;enable-background:new    ;}
	.st3{fill:#D9D8D7;}
	.st4{fill:#6264A7;}
</style>
<title>Group 7</title>
<desc>Created with Sketch.</desc>
<g class="st0">
	<g class="st0">
		<path class="st1" d="M63.4,141v3H62v-8.4h2.5c1,0,1.7,0.2,2.2,0.7s0.8,1.1,0.8,1.9s-0.3,1.5-0.8,2s-1.3,0.8-2.2,0.8H63.4z
			 M63.4,136.7v3.1h0.9c0.6,0,1.1-0.1,1.4-0.4s0.5-0.7,0.5-1.2c0-1-0.6-1.5-1.7-1.5H63.4z"/>
		<path class="st1" d="M72.4,139.3c-0.2-0.1-0.4-0.2-0.7-0.2c-0.4,0-0.7,0.2-1,0.5s-0.4,0.9-0.4,1.5v2.9h-1.4v-6h1.4v1.2h0
			c0.1-0.4,0.3-0.8,0.6-1s0.6-0.4,0.9-0.4c0.2,0,0.4,0,0.6,0.1V139.3z"/>
		<path class="st1" d="M75.9,144.1c-0.9,0-1.7-0.3-2.2-0.8s-0.8-1.3-0.8-2.2c0-1,0.3-1.8,0.9-2.4s1.4-0.8,2.3-0.8
			c0.9,0,1.7,0.3,2.2,0.8S79,140,79,141c0,1-0.3,1.7-0.8,2.3S76.8,144.1,75.9,144.1z M76,138.9c-0.5,0-1,0.2-1.3,0.6
			s-0.5,0.9-0.5,1.5c0,0.6,0.2,1.1,0.5,1.5s0.7,0.5,1.3,0.5c0.5,0,0.9-0.2,1.2-0.5s0.4-0.9,0.4-1.5c0-0.7-0.1-1.2-0.4-1.5
			S76.5,138.9,76,138.9z"/>
		<path class="st1" d="M83.6,143.9c-0.3,0.1-0.6,0.2-1,0.2c-1.2,0-1.7-0.6-1.7-1.7v-3.4h-1V138h1v-1.4l1.4-0.4v1.8h1.4v1.1h-1.4v3
			c0,0.4,0.1,0.6,0.2,0.8s0.3,0.2,0.6,0.2c0.2,0,0.4-0.1,0.6-0.2V143.9z"/>
		<path class="st1" d="M87.3,144.1c-0.9,0-1.7-0.3-2.2-0.8s-0.8-1.3-0.8-2.2c0-1,0.3-1.8,0.9-2.4s1.4-0.8,2.3-0.8
			c0.9,0,1.7,0.3,2.2,0.8s0.8,1.3,0.8,2.3c0,1-0.3,1.7-0.8,2.3S88.3,144.1,87.3,144.1z M87.4,138.9c-0.5,0-1,0.2-1.3,0.6
			s-0.5,0.9-0.5,1.5c0,0.6,0.2,1.1,0.5,1.5s0.7,0.5,1.3,0.5c0.5,0,0.9-0.2,1.2-0.5s0.4-0.9,0.4-1.5c0-0.7-0.1-1.2-0.4-1.5
			S87.9,138.9,87.4,138.9z"/>
		<path class="st1" d="M95,143.9c-0.3,0.1-0.6,0.2-1,0.2c-1.2,0-1.7-0.6-1.7-1.7v-3.4h-1V138h1v-1.4l1.4-0.4v1.8H95v1.1h-1.4v3
			c0,0.4,0.1,0.6,0.2,0.8s0.3,0.2,0.6,0.2c0.2,0,0.4-0.1,0.6-0.2V143.9z"/>
		<path class="st1" d="M101.4,138l-2.7,7c-0.6,1.2-1.4,1.9-2.4,1.9c-0.3,0-0.5,0-0.7-0.1v-1.1c0.2,0.1,0.4,0.1,0.6,0.1
			c0.5,0,0.9-0.2,1.1-0.8l0.4-1l-2.4-6h1.5l1.4,4.4c0,0.1,0.1,0.2,0.1,0.4h0c0-0.1,0.1-0.2,0.1-0.4l1.5-4.4H101.4z"/>
		<path class="st1" d="M103.7,143.1L103.7,143.1l0,3.6h-1.4V138h1.4v1.1h0c0.5-0.8,1.1-1.2,2-1.2c0.8,0,1.4,0.3,1.8,0.8
			s0.6,1.3,0.6,2.2c0,1-0.2,1.8-0.7,2.4s-1.1,0.9-2,0.9C104.7,144.1,104.1,143.8,103.7,143.1z M103.6,140.7v0.7
			c0,0.4,0.1,0.8,0.4,1.1s0.6,0.5,1.1,0.5c0.5,0,0.9-0.2,1.2-0.6s0.4-0.9,0.4-1.6c0-0.6-0.1-1.1-0.4-1.4s-0.6-0.5-1.1-0.5
			c-0.5,0-0.9,0.2-1.2,0.5S103.6,140.2,103.6,140.7z"/>
		<path class="st1" d="M114.6,141.4h-4.1c0,0.6,0.2,1,0.5,1.3s0.8,0.5,1.3,0.5c0.6,0,1.2-0.2,1.8-0.6v1.1c-0.5,0.3-1.3,0.5-2.2,0.5
			c-0.9,0-1.6-0.3-2.1-0.8s-0.8-1.3-0.8-2.3c0-0.9,0.3-1.7,0.8-2.3s1.2-0.9,2.1-0.9s1.5,0.3,1.9,0.8s0.7,1.3,0.7,2.2V141.4z
			 M113.3,140.4c0-0.5-0.1-0.9-0.3-1.1s-0.5-0.4-0.9-0.4c-0.4,0-0.7,0.1-1,0.4s-0.4,0.7-0.5,1.1H113.3z"/>
		<path class="st1" d="M118.9,143.7v-1.4c0.1,0.1,0.3,0.2,0.5,0.3s0.4,0.2,0.6,0.2s0.4,0.1,0.6,0.1s0.4,0.1,0.6,0.1
			c0.6,0,1-0.1,1.3-0.3s0.4-0.5,0.4-0.8c0-0.2,0-0.4-0.1-0.5s-0.2-0.3-0.4-0.4s-0.4-0.2-0.6-0.3s-0.5-0.2-0.7-0.3
			c-0.3-0.2-0.6-0.3-0.8-0.5s-0.5-0.3-0.6-0.5s-0.3-0.4-0.4-0.6s-0.2-0.5-0.2-0.8c0-0.4,0.1-0.7,0.3-1s0.4-0.5,0.7-0.7
			s0.6-0.3,1-0.4s0.8-0.1,1.1-0.1c0.9,0,1.5,0.1,1.9,0.3v1.4c-0.5-0.3-1.1-0.5-1.8-0.5c-0.2,0-0.4,0-0.6,0.1s-0.4,0.1-0.6,0.2
			s-0.3,0.2-0.4,0.3s-0.2,0.3-0.2,0.5c0,0.2,0,0.3,0.1,0.5s0.2,0.3,0.3,0.4s0.3,0.2,0.6,0.3s0.5,0.2,0.8,0.3
			c0.3,0.2,0.6,0.3,0.8,0.5s0.5,0.4,0.7,0.6s0.4,0.4,0.5,0.7s0.2,0.5,0.2,0.8c0,0.4-0.1,0.8-0.3,1.1s-0.4,0.5-0.7,0.7
			s-0.6,0.3-1,0.4s-0.8,0.1-1.2,0.1c-0.1,0-0.3,0-0.5,0s-0.4-0.1-0.6-0.1s-0.4-0.1-0.6-0.1S119.1,143.7,118.9,143.7z"/>
		<path class="st1" d="M130.6,138l-2.7,7c-0.6,1.2-1.4,1.9-2.4,1.9c-0.3,0-0.5,0-0.7-0.1v-1.1c0.2,0.1,0.4,0.1,0.6,0.1
			c0.5,0,0.9-0.2,1.1-0.8l0.4-1l-2.4-6h1.5l1.4,4.4c0,0.1,0.1,0.2,0.1,0.4h0c0-0.1,0.1-0.2,0.1-0.4l1.5-4.4H130.6z"/>
		<path class="st1" d="M136.9,144h-1.4v-3.4c0-1.1-0.4-1.7-1.2-1.7c-0.4,0-0.8,0.2-1,0.5s-0.4,0.7-0.4,1.2v3.4h-1.4v-6h1.4v1h0
			c0.4-0.8,1.1-1.1,1.9-1.1c0.7,0,1.2,0.2,1.5,0.6s0.5,1,0.5,1.8V144z"/>
		<path class="st1" d="M142.8,143.7c-0.5,0.3-1,0.4-1.7,0.4c-0.9,0-1.6-0.3-2.2-0.8s-0.8-1.3-0.8-2.2c0-1,0.3-1.8,0.9-2.4
			s1.4-0.9,2.4-0.9c0.5,0,1,0.1,1.4,0.3v1.3c-0.4-0.3-0.9-0.5-1.3-0.5c-0.6,0-1,0.2-1.4,0.6s-0.6,0.9-0.6,1.5c0,0.6,0.2,1.1,0.5,1.5
			s0.8,0.5,1.4,0.5c0.5,0,0.9-0.2,1.4-0.5V143.7z"/>
	</g>
</g>
<g>
	<g class="st0">
	</g>
</g>
<g class="st0">
	<g class="st0">
		<path class="st1" d="M67.8,158.7c-0.6,0.3-1.4,0.5-2.3,0.5c-1.2,0-2.2-0.4-2.9-1.2s-1.1-1.8-1.1-3c0-1.3,0.4-2.4,1.2-3.3
			s1.8-1.2,3.1-1.2c0.8,0,1.5,0.1,2,0.3v1c-0.6-0.3-1.3-0.5-2-0.5c-1,0-1.7,0.3-2.3,1s-0.9,1.5-0.9,2.6c0,1,0.3,1.8,0.8,2.4
			s1.3,0.9,2.2,0.9c0.8,0,1.6-0.2,2.2-0.6V158.7z"/>
		<path class="st1" d="M69.9,151.5c-0.2,0-0.3-0.1-0.4-0.2s-0.2-0.3-0.2-0.4s0.1-0.3,0.2-0.4s0.3-0.2,0.4-0.2c0.2,0,0.3,0.1,0.4,0.2
			s0.2,0.3,0.2,0.4c0,0.2-0.1,0.3-0.2,0.4S70.1,151.5,69.9,151.5z M70.4,159h-1v-6h1V159z"/>
		<path class="st1" d="M75.1,159c-0.2,0.1-0.5,0.2-0.9,0.2c-1.1,0-1.6-0.6-1.6-1.8v-3.6h-1V153h1v-1.5l1-0.3v1.8h1.5v0.8h-1.5v3.4
			c0,0.4,0.1,0.7,0.2,0.9s0.4,0.3,0.7,0.3c0.2,0,0.5-0.1,0.6-0.2V159z"/>
		<path class="st1" d="M81.2,153l-2.8,7c-0.5,1.2-1.2,1.9-2.1,1.9c-0.2,0-0.5,0-0.6-0.1v-0.9c0.2,0.1,0.4,0.1,0.6,0.1
			c0.5,0,0.8-0.3,1.1-0.9l0.5-1.1l-2.3-6h1.1l1.6,4.6c0,0.1,0.1,0.2,0.1,0.5h0c0-0.1,0.1-0.2,0.1-0.4l1.7-4.6H81.2z"/>
		<path class="st1" d="M91.3,158.7c-0.6,0.3-1.4,0.5-2.3,0.5c-1.2,0-2.2-0.4-2.9-1.2s-1.1-1.8-1.1-3c0-1.3,0.4-2.4,1.2-3.3
			s1.8-1.2,3.1-1.2c0.8,0,1.5,0.1,2,0.3v1c-0.6-0.3-1.3-0.5-2-0.5c-1,0-1.7,0.3-2.3,1s-0.9,1.5-0.9,2.6c0,1,0.3,1.8,0.8,2.4
			s1.3,0.9,2.2,0.9c0.8,0,1.6-0.2,2.2-0.6V158.7z"/>
		<path class="st1" d="M97.7,156.3h-4.2c0,0.7,0.2,1.2,0.5,1.5s0.8,0.5,1.4,0.5c0.7,0,1.3-0.2,1.9-0.7v0.9c-0.5,0.4-1.2,0.6-2.1,0.6
			c-0.8,0-1.5-0.3-2-0.8s-0.7-1.3-0.7-2.3c0-0.9,0.3-1.7,0.8-2.3s1.2-0.9,2-0.9s1.4,0.3,1.8,0.8s0.6,1.2,0.6,2.1V156.3z M96.8,155.5
			c0-0.6-0.1-1-0.4-1.3s-0.6-0.5-1.1-0.5c-0.5,0-0.8,0.2-1.2,0.5s-0.5,0.7-0.6,1.3H96.8z"/>
		<path class="st1" d="M104.2,159h-1v-3.4c0-1.3-0.5-1.9-1.4-1.9c-0.5,0-0.9,0.2-1.2,0.5s-0.5,0.8-0.5,1.4v3.4h-1v-6h1v1h0
			c0.5-0.8,1.1-1.1,2-1.1c0.7,0,1.2,0.2,1.5,0.6s0.5,1,0.5,1.8V159z"/>
		<path class="st1" d="M108.8,159c-0.2,0.1-0.5,0.2-0.9,0.2c-1.1,0-1.6-0.6-1.6-1.8v-3.6h-1V153h1v-1.5l1-0.3v1.8h1.5v0.8h-1.5v3.4
			c0,0.4,0.1,0.7,0.2,0.9s0.4,0.3,0.7,0.3c0.2,0,0.5-0.1,0.6-0.2V159z"/>
		<path class="st1" d="M114.8,156.3h-4.2c0,0.7,0.2,1.2,0.5,1.5s0.8,0.5,1.4,0.5c0.7,0,1.3-0.2,1.9-0.7v0.9
			c-0.5,0.4-1.2,0.6-2.1,0.6c-0.8,0-1.5-0.3-2-0.8s-0.7-1.3-0.7-2.3c0-0.9,0.3-1.7,0.8-2.3s1.2-0.9,2-0.9s1.4,0.3,1.8,0.8
			s0.6,1.2,0.6,2.1V156.3z M113.8,155.5c0-0.6-0.1-1-0.4-1.3s-0.6-0.5-1.1-0.5c-0.5,0-0.8,0.2-1.2,0.5s-0.5,0.7-0.6,1.3H113.8z"/>
		<path class="st1" d="M119.4,154c-0.2-0.1-0.4-0.2-0.7-0.2c-0.4,0-0.8,0.2-1,0.6s-0.4,0.9-0.4,1.6v3.1h-1v-6h1v1.2h0
			c0.1-0.4,0.3-0.8,0.6-1s0.6-0.4,0.9-0.4c0.2,0,0.4,0,0.6,0.1V154z"/>
		<path class="st1" d="M127.5,150.6l-4,9.8h-0.9l4-9.8H127.5z"/>
		<path class="st1" d="M131.2,156.7c0-0.2,0-0.4,0.1-0.7s0.2-0.4,0.3-0.6s0.3-0.4,0.5-0.5s0.4-0.3,0.7-0.4c-0.4-0.2-0.7-0.5-0.9-0.8
			s-0.3-0.7-0.3-1.1c0-0.3,0.1-0.6,0.2-0.9s0.3-0.5,0.5-0.7s0.5-0.3,0.8-0.4s0.6-0.2,0.9-0.2c0.3,0,0.7,0.1,0.9,0.2s0.5,0.3,0.8,0.5
			s0.4,0.4,0.5,0.7s0.2,0.5,0.2,0.8c0,0.4-0.1,0.7-0.3,1.1s-0.5,0.6-0.9,0.8c0.2,0.1,0.5,0.2,0.7,0.4s0.4,0.3,0.5,0.5
			s0.2,0.4,0.3,0.6s0.1,0.4,0.1,0.7c0,0.4-0.1,0.7-0.2,1s-0.3,0.6-0.6,0.8s-0.5,0.4-0.9,0.5s-0.7,0.2-1.1,0.2
			c-0.4,0-0.8-0.1-1.1-0.2s-0.6-0.3-0.9-0.5s-0.4-0.5-0.6-0.8S131.2,157.1,131.2,156.7z M132.2,156.6c0,0.3,0,0.5,0.1,0.7
			s0.2,0.4,0.3,0.5s0.3,0.3,0.5,0.3s0.4,0.1,0.7,0.1c0.2,0,0.5,0,0.7-0.1s0.4-0.2,0.5-0.3s0.3-0.3,0.4-0.5s0.1-0.4,0.1-0.7
			c0-0.2,0-0.5-0.1-0.7s-0.2-0.4-0.3-0.5s-0.3-0.3-0.5-0.4s-0.4-0.1-0.7-0.1c-0.2,0-0.5,0-0.7,0.1s-0.4,0.2-0.5,0.4
			s-0.3,0.3-0.4,0.5S132.2,156.4,132.2,156.6z M132.5,152.7c0,0.2,0,0.4,0.1,0.6s0.2,0.3,0.3,0.4s0.3,0.2,0.4,0.3s0.3,0.1,0.5,0.1
			s0.4,0,0.5-0.1s0.3-0.2,0.4-0.3s0.2-0.3,0.3-0.4s0.1-0.4,0.1-0.5c0-0.2,0-0.4-0.1-0.6s-0.2-0.3-0.3-0.4s-0.3-0.2-0.4-0.3
			s-0.4-0.1-0.5-0.1c-0.2,0-0.4,0-0.6,0.1s-0.3,0.2-0.4,0.3s-0.2,0.3-0.3,0.4S132.5,152.5,132.5,152.7z"/>
		<path class="st1" d="M143.1,154.8c0,0.7-0.1,1.3-0.2,1.9s-0.3,1-0.6,1.4s-0.5,0.7-0.9,0.8s-0.7,0.3-1.2,0.3
			c-0.4,0-0.8-0.1-1.1-0.3s-0.6-0.5-0.8-0.8s-0.4-0.8-0.5-1.3s-0.2-1.1-0.2-1.8c0-0.7,0.1-1.4,0.2-1.9s0.3-1,0.5-1.4
			s0.5-0.7,0.9-0.9s0.8-0.3,1.2-0.3C142.2,150.5,143.1,151.9,143.1,154.8z M142.1,154.9c0-2.4-0.6-3.6-1.7-3.6
			c-1.2,0-1.8,1.2-1.8,3.7c0,2.3,0.6,3.4,1.8,3.4C141.6,158.4,142.1,157.2,142.1,154.9z"/>
		<path class="st1" d="M149.6,154.8c0,0.7-0.1,1.3-0.2,1.9s-0.3,1-0.6,1.4s-0.5,0.7-0.9,0.8s-0.7,0.3-1.2,0.3
			c-0.4,0-0.8-0.1-1.1-0.3s-0.6-0.5-0.8-0.8s-0.4-0.8-0.5-1.3s-0.2-1.1-0.2-1.8c0-0.7,0.1-1.4,0.2-1.9s0.3-1,0.5-1.4
			s0.5-0.7,0.9-0.9s0.8-0.3,1.2-0.3C148.7,150.5,149.6,151.9,149.6,154.8z M148.6,154.9c0-2.4-0.6-3.6-1.7-3.6
			c-1.2,0-1.8,1.2-1.8,3.7c0,2.3,0.6,3.4,1.8,3.4C148,158.4,148.6,157.2,148.6,154.9z"/>
		<path class="st1" d="M150.6,156.7c0-0.2,0-0.4,0.1-0.7s0.2-0.4,0.3-0.6s0.3-0.4,0.5-0.5s0.4-0.3,0.7-0.4c-0.4-0.2-0.7-0.5-0.9-0.8
			s-0.3-0.7-0.3-1.1c0-0.3,0.1-0.6,0.2-0.9s0.3-0.5,0.5-0.7s0.5-0.3,0.8-0.4s0.6-0.2,0.9-0.2c0.3,0,0.7,0.1,0.9,0.2s0.5,0.3,0.8,0.5
			s0.4,0.4,0.5,0.7s0.2,0.5,0.2,0.8c0,0.4-0.1,0.7-0.3,1.1s-0.5,0.6-0.9,0.8c0.2,0.1,0.5,0.2,0.7,0.4s0.4,0.3,0.5,0.5
			s0.2,0.4,0.3,0.6s0.1,0.4,0.1,0.7c0,0.4-0.1,0.7-0.2,1s-0.3,0.6-0.6,0.8s-0.5,0.4-0.9,0.5s-0.7,0.2-1.1,0.2
			c-0.4,0-0.8-0.1-1.1-0.2s-0.6-0.3-0.9-0.5s-0.4-0.5-0.6-0.8S150.6,157.1,150.6,156.7z M151.7,156.6c0,0.3,0,0.5,0.1,0.7
			s0.2,0.4,0.3,0.5s0.3,0.3,0.5,0.3s0.4,0.1,0.7,0.1c0.2,0,0.5,0,0.7-0.1s0.4-0.2,0.5-0.3s0.3-0.3,0.4-0.5s0.1-0.4,0.1-0.7
			c0-0.2,0-0.5-0.1-0.7s-0.2-0.4-0.3-0.5s-0.3-0.3-0.5-0.4s-0.4-0.1-0.7-0.1c-0.2,0-0.5,0-0.7,0.1s-0.4,0.2-0.5,0.4
			s-0.3,0.3-0.4,0.5S151.7,156.4,151.7,156.6z M152,152.7c0,0.2,0,0.4,0.1,0.6s0.2,0.3,0.3,0.4s0.3,0.2,0.4,0.3s0.3,0.1,0.5,0.1
			s0.4,0,0.5-0.1s0.3-0.2,0.4-0.3s0.2-0.3,0.3-0.4s0.1-0.4,0.1-0.5c0-0.2,0-0.4-0.1-0.6s-0.2-0.3-0.3-0.4s-0.3-0.2-0.4-0.3
			s-0.4-0.1-0.5-0.1c-0.2,0-0.4,0-0.6,0.1s-0.3,0.2-0.4,0.3s-0.2,0.3-0.3,0.4S152,152.5,152,152.7z"/>
	</g>
</g>
<g class="st0">
	<g class="st0">
		<path class="st1" d="M0.9,143.8v-1.3c0.6,0.4,1.1,0.6,1.7,0.6c0.6,0,1-0.1,1.4-0.4s0.5-0.7,0.5-1.2c0-0.5-0.2-0.8-0.5-1.1
			s-0.9-0.4-1.5-0.4c-0.2,0-0.7,0-1.4,0.1l0.3-4.4h4.1v1.2h-3l-0.1,2.1c0.3,0,0.5,0,0.7,0c0.9,0,1.6,0.2,2.1,0.7s0.7,1.1,0.7,1.9
			c0,0.8-0.3,1.5-0.8,2s-1.3,0.8-2.3,0.8C1.9,144.2,1.3,144,0.9,143.8z"/>
		<path class="st1" d="M8.1,139.5c-0.2,0-0.4-0.1-0.6-0.2s-0.2-0.3-0.2-0.6c0-0.2,0.1-0.4,0.2-0.6s0.4-0.2,0.6-0.2
			c0.2,0,0.4,0.1,0.6,0.2s0.2,0.3,0.2,0.6c0,0.2-0.1,0.4-0.2,0.6S8.3,139.5,8.1,139.5z M8.1,144.1c-0.2,0-0.4-0.1-0.6-0.2
			s-0.2-0.3-0.2-0.6c0-0.2,0.1-0.4,0.2-0.6s0.4-0.2,0.6-0.2c0.2,0,0.4,0.1,0.6,0.2s0.2,0.3,0.2,0.6c0,0.2-0.1,0.4-0.2,0.6
			S8.3,144.1,8.1,144.1z"/>
		<path class="st1" d="M12.8,144.1c-0.9,0-1.6-0.4-2-1.1S10,141.3,10,140c0-1.5,0.3-2.6,0.8-3.4s1.2-1.1,2.2-1.1
			c1.8,0,2.8,1.4,2.8,4.3c0,1.4-0.3,2.5-0.8,3.3S13.7,144.1,12.8,144.1z M12.9,136.5c-1,0-1.5,1.1-1.5,3.4c0,2.1,0.5,3.2,1.5,3.2
			c1,0,1.5-1.1,1.5-3.2C14.4,137.6,13.9,136.5,12.9,136.5z"/>
		<path class="st1" d="M19.5,144.1c-0.9,0-1.6-0.4-2-1.1s-0.7-1.7-0.7-3.1c0-1.5,0.3-2.6,0.8-3.4s1.2-1.1,2.2-1.1
			c1.8,0,2.8,1.4,2.8,4.3c0,1.4-0.3,2.5-0.8,3.3S20.4,144.1,19.5,144.1z M19.6,136.5c-1,0-1.5,1.1-1.5,3.4c0,2.1,0.5,3.2,1.5,3.2
			c1,0,1.5-1.1,1.5-3.2C21,137.6,20.6,136.5,19.6,136.5z"/>
		<path class="st1" d="M28.6,141v3h-1.4v-8.4h2.5c1,0,1.7,0.2,2.2,0.7s0.8,1.1,0.8,1.9s-0.3,1.5-0.8,2s-1.3,0.8-2.2,0.8H28.6z
			 M28.6,136.7v3.1h0.9c0.6,0,1.1-0.1,1.4-0.4s0.5-0.7,0.5-1.2c0-1-0.6-1.5-1.7-1.5H28.6z"/>
		<path class="st1" d="M43.3,144h-1.4v-5.4c0-0.4,0-1,0.1-1.6h0c-0.1,0.4-0.2,0.6-0.2,0.8l-2.5,6.3h-1l-2.5-6.2
			c-0.1-0.2-0.1-0.5-0.2-0.8h0c0,0.3,0,0.9,0,1.6v5.4h-1.3v-8.4h2l2.2,5.6c0.2,0.4,0.3,0.8,0.3,1h0c0.1-0.4,0.3-0.8,0.4-1l2.2-5.6
			h1.9V144z"/>
	</g>
</g>
<g>
	<g class="st0">
	</g>
</g>
<g class="st0">
	<g class="st0">
		<path class="st1" d="M5.6,156.7c0,0.4-0.1,0.7-0.2,1s-0.3,0.6-0.6,0.8s-0.6,0.4-0.9,0.5s-0.8,0.2-1.2,0.2c-0.8,0-1.4-0.2-1.9-0.5
			v-1c0.6,0.4,1.2,0.7,1.9,0.7c0.3,0,0.6,0,0.8-0.1s0.4-0.2,0.6-0.3s0.3-0.3,0.4-0.5s0.1-0.4,0.1-0.7c0-1.1-0.8-1.6-2.3-1.6H1.6
			v-0.8h0.7c1.4,0,2.1-0.5,2.1-1.5c0-1-0.5-1.4-1.6-1.4c-0.6,0-1.2,0.2-1.7,0.6V151c0.5-0.3,1.2-0.5,1.9-0.5c0.4,0,0.7,0,1,0.1
			s0.5,0.2,0.7,0.4s0.4,0.4,0.5,0.6s0.2,0.5,0.2,0.8c0,1.1-0.6,1.8-1.7,2.1v0c0.3,0,0.5,0.1,0.8,0.2s0.5,0.2,0.6,0.4
			s0.3,0.4,0.4,0.6S5.6,156.4,5.6,156.7z"/>
		<path class="st1" d="M12.5,154.8c0,0.7-0.1,1.3-0.2,1.9s-0.3,1-0.6,1.4s-0.5,0.7-0.9,0.8s-0.7,0.3-1.2,0.3c-0.4,0-0.8-0.1-1.1-0.3
			s-0.6-0.5-0.8-0.8s-0.4-0.8-0.5-1.3S7,155.7,7,155c0-0.7,0.1-1.4,0.2-1.9s0.3-1,0.5-1.4s0.5-0.7,0.9-0.9s0.8-0.3,1.2-0.3
			C11.6,150.5,12.5,151.9,12.5,154.8z M11.5,154.9c0-2.4-0.6-3.6-1.7-3.6c-1.2,0-1.8,1.2-1.8,3.7c0,2.3,0.6,3.4,1.8,3.4
			C10.9,158.4,11.5,157.2,11.5,154.9z"/>
		<path class="st1" d="M25.7,159h-1v-3.4c0-0.7-0.1-1.1-0.3-1.4s-0.5-0.4-1-0.4c-0.4,0-0.8,0.2-1,0.6s-0.4,0.8-0.4,1.3v3.4h-1v-3.6
			c0-1.2-0.5-1.8-1.4-1.8c-0.4,0-0.8,0.2-1,0.5s-0.4,0.8-0.4,1.4v3.4h-1v-6h1v0.9h0c0.4-0.7,1-1.1,1.9-1.1c0.4,0,0.8,0.1,1.1,0.3
			s0.5,0.5,0.6,0.9c0.4-0.8,1.1-1.2,2-1.2c1.3,0,2,0.8,2,2.4V159z"/>
		<path class="st1" d="M28,151.5c-0.2,0-0.3-0.1-0.4-0.2s-0.2-0.3-0.2-0.4s0.1-0.3,0.2-0.4s0.3-0.2,0.4-0.2c0.2,0,0.3,0.1,0.4,0.2
			s0.2,0.3,0.2,0.4c0,0.2-0.1,0.3-0.2,0.4S28.2,151.5,28,151.5z M28.5,159h-1v-6h1V159z"/>
		<path class="st1" d="M35.4,159h-1v-3.4c0-1.3-0.5-1.9-1.4-1.9c-0.5,0-0.9,0.2-1.2,0.5s-0.5,0.8-0.5,1.4v3.4h-1v-6h1v1h0
			c0.5-0.8,1.1-1.1,2-1.1c0.7,0,1.2,0.2,1.5,0.6s0.5,1,0.5,1.8V159z"/>
	</g>
</g>
<g class="st0">
	<g class="st0">
		<path class="st1" d="M71.1,10h-1.4V4.6c0-0.4,0-1,0.1-1.6h0c-0.1,0.4-0.2,0.6-0.2,0.8L67,10h-1l-2.5-6.2c-0.1-0.2-0.1-0.5-0.2-0.8
			h0c0,0.3,0,0.9,0,1.6V10H62V1.6h2l2.2,5.6c0.2,0.4,0.3,0.8,0.3,1h0c0.1-0.4,0.3-0.8,0.4-1l2.2-5.6h1.9V10z"/>
		<path class="st1" d="M75.6,10.1c-0.9,0-1.7-0.3-2.2-0.8S72.6,8,72.6,7.1c0-1,0.3-1.8,0.9-2.4s1.4-0.8,2.3-0.8
			c0.9,0,1.7,0.3,2.2,0.8S78.8,6,78.8,7c0,1-0.3,1.7-0.8,2.3S76.6,10.1,75.6,10.1z M75.7,4.9c-0.5,0-1,0.2-1.3,0.6S74,6.4,74,7
			c0,0.6,0.2,1.1,0.5,1.5s0.7,0.5,1.3,0.5c0.5,0,0.9-0.2,1.2-0.5s0.4-0.9,0.4-1.5c0-0.7-0.1-1.2-0.4-1.5S76.2,4.9,75.7,4.9z"/>
		<path class="st1" d="M85.5,10h-1.4V6.6c0-1.1-0.4-1.7-1.2-1.7c-0.4,0-0.8,0.2-1,0.5s-0.4,0.7-0.4,1.2V10h-1.4V4h1.4v1h0
			c0.4-0.8,1.1-1.1,1.9-1.1c0.7,0,1.2,0.2,1.5,0.6s0.5,1,0.5,1.8V10z"/>
		<path class="st1" d="M90.3,9.9c-0.3,0.1-0.6,0.2-1,0.2c-1.2,0-1.7-0.6-1.7-1.7V5.1h-1V4h1V2.6l1.4-0.4V4h1.4v1.1h-1.4v3
			c0,0.4,0.1,0.6,0.2,0.8s0.3,0.2,0.6,0.2c0.2,0,0.4-0.1,0.6-0.2V9.9z"/>
		<path class="st1" d="M96.8,10h-1.4V6.7c0-1.2-0.4-1.8-1.2-1.8c-0.4,0-0.7,0.2-1,0.5s-0.4,0.8-0.4,1.3V10h-1.4V1.1h1.4V5h0
			c0.5-0.8,1.1-1.1,1.9-1.1c1.3,0,2,0.8,2,2.4V10z"/>
		<path class="st1" d="M99.8,10h-1.4V1.1h1.4V10z"/>
		<path class="st1" d="M106.8,4l-2.7,7c-0.6,1.2-1.4,1.9-2.4,1.9c-0.3,0-0.5,0-0.7-0.1v-1.1c0.2,0.1,0.4,0.1,0.6,0.1
			c0.5,0,0.9-0.2,1.1-0.8l0.4-1l-2.4-6h1.5l1.4,4.4c0,0.1,0.1,0.2,0.1,0.4h0c0-0.1,0.1-0.2,0.1-0.4l1.5-4.4H106.8z"/>
		<path class="st1" d="M118.1,10h-1.5l-0.8-2.1h-3.3l-0.7,2.1h-1.5l3.1-8.4h1.6L118.1,10z M115.4,6.7l-1.2-3.4
			c0-0.1-0.1-0.3-0.1-0.5h0c0,0.2-0.1,0.4-0.1,0.5l-1.2,3.4H115.4z"/>
		<path class="st1" d="M120.4,10h-1.4V1.1h1.4V10z"/>
		<path class="st1" d="M123.6,10h-1.4V1.1h1.4V10z"/>
		<path class="st1" d="M128.5,7.2h-3.2v-1h3.2V7.2z"/>
		<path class="st1" d="M137,10h-1.4V6.4h-4V10h-1.4V1.6h1.4v3.5h4V1.6h1.4V10z"/>
		<path class="st1" d="M143.6,10h-1.3V9.1h0c-0.4,0.7-1,1.1-1.8,1.1c-0.6,0-1.1-0.2-1.4-0.5s-0.5-0.7-0.5-1.3c0-1.1,0.7-1.8,2-2
			l1.8-0.3c0-0.9-0.4-1.3-1.2-1.3c-0.7,0-1.4,0.2-1.9,0.7V4.4c0.6-0.4,1.4-0.6,2.2-0.6c1.5,0,2.3,0.7,2.3,2.2V10z M142.3,7.1
			L141,7.2c-0.4,0.1-0.7,0.1-0.9,0.3s-0.3,0.4-0.3,0.7c0,0.3,0.1,0.5,0.3,0.6s0.4,0.2,0.7,0.2c0.4,0,0.8-0.1,1-0.4s0.4-0.7,0.4-1.1
			V7.1z"/>
		<path class="st1" d="M150.6,10h-1.4V6.6c0-1.1-0.4-1.7-1.2-1.7c-0.4,0-0.8,0.2-1,0.5s-0.4,0.7-0.4,1.2V10h-1.4V4h1.4v1h0
			c0.4-0.8,1.1-1.1,1.9-1.1c0.7,0,1.2,0.2,1.5,0.6s0.5,1,0.5,1.8V10z"/>
		<path class="st1" d="M157.7,10h-1.4V9h0c-0.4,0.8-1.1,1.2-2,1.2c-0.7,0-1.3-0.3-1.8-0.8s-0.7-1.3-0.7-2.2c0-1,0.2-1.8,0.7-2.4
			s1.1-0.9,2-0.9c0.8,0,1.4,0.3,1.8,1h0V1.1h1.4V10z M156.3,7.3V6.5c0-0.4-0.1-0.8-0.4-1.1s-0.6-0.4-1.1-0.4c-0.5,0-0.9,0.2-1.2,0.6
			s-0.4,0.9-0.4,1.6c0,0.6,0.1,1.1,0.4,1.4s0.7,0.5,1.1,0.5c0.5,0,0.8-0.2,1.1-0.5S156.3,7.8,156.3,7.3z"/>
		<path class="st1" d="M159.1,9.8V8.6c0.5,0.4,1.1,0.6,1.7,0.6c0.8,0,1.2-0.2,1.2-0.7c0-0.1,0-0.3-0.1-0.3s-0.2-0.2-0.3-0.3
			s-0.3-0.1-0.4-0.2s-0.3-0.1-0.5-0.2c-0.2-0.1-0.5-0.2-0.7-0.3s-0.4-0.2-0.5-0.4s-0.2-0.3-0.3-0.5s-0.1-0.4-0.1-0.6
			c0-0.3,0.1-0.5,0.2-0.8s0.3-0.4,0.6-0.6s0.5-0.3,0.8-0.3s0.6-0.1,0.9-0.1c0.6,0,1.1,0.1,1.5,0.3v1.2c-0.4-0.3-0.9-0.4-1.5-0.4
			c-0.2,0-0.3,0-0.5,0.1s-0.3,0.1-0.4,0.1s-0.2,0.1-0.2,0.2s-0.1,0.2-0.1,0.3c0,0.1,0,0.2,0.1,0.3s0.1,0.2,0.2,0.2s0.2,0.1,0.4,0.2
			s0.3,0.1,0.5,0.2c0.3,0.1,0.5,0.2,0.7,0.3s0.4,0.2,0.5,0.4s0.3,0.3,0.3,0.5s0.1,0.4,0.1,0.6c0,0.3-0.1,0.6-0.2,0.8
			s-0.3,0.4-0.6,0.6s-0.5,0.3-0.8,0.3s-0.6,0.1-1,0.1C160.1,10.1,159.6,10,159.1,9.8z"/>
	</g>
</g>
<g>
	<g class="st0">
	</g>
</g>
<g class="st0">
	<g class="st0">
		<path class="st1" d="M67.8,24.7c-0.6,0.3-1.4,0.5-2.3,0.5c-1.2,0-2.2-0.4-2.9-1.2s-1.1-1.8-1.1-3c0-1.3,0.4-2.4,1.2-3.3
			s1.8-1.2,3.1-1.2c0.8,0,1.5,0.1,2,0.3v1c-0.6-0.3-1.3-0.5-2-0.5c-1,0-1.7,0.3-2.3,1s-0.9,1.5-0.9,2.6c0,1,0.3,1.8,0.8,2.4
			s1.3,0.9,2.2,0.9c0.8,0,1.6-0.2,2.2-0.6V24.7z"/>
		<path class="st1" d="M69.9,17.5c-0.2,0-0.3-0.1-0.4-0.2s-0.2-0.3-0.2-0.4s0.1-0.3,0.2-0.4s0.3-0.2,0.4-0.2c0.2,0,0.3,0.1,0.4,0.2
			s0.2,0.3,0.2,0.4c0,0.2-0.1,0.3-0.2,0.4S70.1,17.5,69.9,17.5z M70.4,25h-1v-6h1V25z"/>
		<path class="st1" d="M75.1,25c-0.2,0.1-0.5,0.2-0.9,0.2c-1.1,0-1.6-0.6-1.6-1.8v-3.6h-1V19h1v-1.5l1-0.3V19h1.5v0.8h-1.5v3.4
			c0,0.4,0.1,0.7,0.2,0.9s0.4,0.3,0.7,0.3c0.2,0,0.5-0.1,0.6-0.2V25z"/>
		<path class="st1" d="M81.2,19l-2.8,7c-0.5,1.2-1.2,1.9-2.1,1.9c-0.2,0-0.5,0-0.6-0.1v-0.9c0.2,0.1,0.4,0.1,0.6,0.1
			c0.5,0,0.8-0.3,1.1-0.9l0.5-1.1l-2.3-6h1.1l1.6,4.6c0,0.1,0.1,0.2,0.1,0.5h0c0-0.1,0.1-0.2,0.1-0.4l1.7-4.6H81.2z"/>
		<path class="st1" d="M91.3,24.7c-0.6,0.3-1.4,0.5-2.3,0.5c-1.2,0-2.2-0.4-2.9-1.2s-1.1-1.8-1.1-3c0-1.3,0.4-2.4,1.2-3.3
			s1.8-1.2,3.1-1.2c0.8,0,1.5,0.1,2,0.3v1c-0.6-0.3-1.3-0.5-2-0.5c-1,0-1.7,0.3-2.3,1s-0.9,1.5-0.9,2.6c0,1,0.3,1.8,0.8,2.4
			s1.3,0.9,2.2,0.9c0.8,0,1.6-0.2,2.2-0.6V24.7z"/>
		<path class="st1" d="M97.7,22.3h-4.2c0,0.7,0.2,1.2,0.5,1.5s0.8,0.5,1.4,0.5c0.7,0,1.3-0.2,1.9-0.7v0.9c-0.5,0.4-1.2,0.6-2.1,0.6
			c-0.8,0-1.5-0.3-2-0.8s-0.7-1.3-0.7-2.3c0-0.9,0.3-1.7,0.8-2.3s1.2-0.9,2-0.9s1.4,0.3,1.8,0.8s0.6,1.2,0.6,2.1V22.3z M96.8,21.5
			c0-0.6-0.1-1-0.4-1.3s-0.6-0.5-1.1-0.5c-0.5,0-0.8,0.2-1.2,0.5s-0.5,0.7-0.6,1.3H96.8z"/>
		<path class="st1" d="M104.2,25h-1v-3.4c0-1.3-0.5-1.9-1.4-1.9c-0.5,0-0.9,0.2-1.2,0.5s-0.5,0.8-0.5,1.4V25h-1v-6h1v1h0
			c0.5-0.8,1.1-1.1,2-1.1c0.7,0,1.2,0.2,1.5,0.6s0.5,1,0.5,1.8V25z"/>
		<path class="st1" d="M108.8,25c-0.2,0.1-0.5,0.2-0.9,0.2c-1.1,0-1.6-0.6-1.6-1.8v-3.6h-1V19h1v-1.5l1-0.3V19h1.5v0.8h-1.5v3.4
			c0,0.4,0.1,0.7,0.2,0.9s0.4,0.3,0.7,0.3c0.2,0,0.5-0.1,0.6-0.2V25z"/>
		<path class="st1" d="M114.8,22.3h-4.2c0,0.7,0.2,1.2,0.5,1.5s0.8,0.5,1.4,0.5c0.7,0,1.3-0.2,1.9-0.7v0.9c-0.5,0.4-1.2,0.6-2.1,0.6
			c-0.8,0-1.5-0.3-2-0.8s-0.7-1.3-0.7-2.3c0-0.9,0.3-1.7,0.8-2.3s1.2-0.9,2-0.9s1.4,0.3,1.8,0.8s0.6,1.2,0.6,2.1V22.3z M113.8,21.5
			c0-0.6-0.1-1-0.4-1.3s-0.6-0.5-1.1-0.5c-0.5,0-0.8,0.2-1.2,0.5s-0.5,0.7-0.6,1.3H113.8z"/>
		<path class="st1" d="M119.4,20c-0.2-0.1-0.4-0.2-0.7-0.2c-0.4,0-0.8,0.2-1,0.6s-0.4,0.9-0.4,1.6V25h-1v-6h1v1.2h0
			c0.1-0.4,0.3-0.8,0.6-1s0.6-0.4,0.9-0.4c0.2,0,0.4,0,0.6,0.1V20z"/>
		<path class="st1" d="M127.5,16.6l-4,9.8h-0.9l4-9.8H127.5z"/>
		<path class="st1" d="M136.7,22.4c0,0.4-0.1,0.8-0.2,1.1s-0.3,0.6-0.6,0.9s-0.5,0.4-0.8,0.6s-0.7,0.2-1.1,0.2
			c-0.4,0-0.8-0.1-1.1-0.3s-0.6-0.4-0.8-0.8s-0.4-0.7-0.5-1.2s-0.2-1-0.2-1.6c0-0.7,0.1-1.4,0.2-2s0.4-1.1,0.7-1.5s0.7-0.8,1.1-1
			s0.9-0.3,1.4-0.3c0.6,0,1,0.1,1.4,0.2v0.9c-0.4-0.2-0.9-0.3-1.4-0.3c-0.4,0-0.7,0.1-1,0.3s-0.6,0.4-0.8,0.7s-0.4,0.7-0.5,1.1
			s-0.2,0.9-0.2,1.4h0c0.4-0.7,1-1,1.9-1c0.4,0,0.7,0.1,1,0.2s0.5,0.3,0.8,0.5s0.4,0.5,0.5,0.8S136.7,22,136.7,22.4z M135.7,22.5
			c0-0.3,0-0.6-0.1-0.8s-0.2-0.4-0.3-0.6s-0.3-0.3-0.5-0.4s-0.4-0.1-0.7-0.1c-0.2,0-0.5,0-0.7,0.1s-0.4,0.2-0.5,0.4
			s-0.3,0.3-0.3,0.5s-0.1,0.4-0.1,0.7c0,0.3,0,0.6,0.1,0.8s0.2,0.5,0.3,0.7s0.3,0.3,0.5,0.4s0.4,0.2,0.7,0.2c0.2,0,0.5,0,0.7-0.1
			s0.4-0.2,0.5-0.4s0.2-0.4,0.3-0.6S135.7,22.8,135.7,22.5z"/>
		<path class="st1" d="M143.1,20.8c0,0.7-0.1,1.3-0.2,1.9s-0.3,1-0.6,1.4s-0.5,0.7-0.9,0.8s-0.7,0.3-1.2,0.3c-0.4,0-0.8-0.1-1.1-0.3
			s-0.6-0.5-0.8-0.8s-0.4-0.8-0.5-1.3s-0.2-1.1-0.2-1.8c0-0.7,0.1-1.4,0.2-1.9s0.3-1,0.5-1.4s0.5-0.7,0.9-0.9s0.8-0.3,1.2-0.3
			C142.2,16.5,143.1,17.9,143.1,20.8z M142.1,20.9c0-2.4-0.6-3.6-1.7-3.6c-1.2,0-1.8,1.2-1.8,3.7c0,2.3,0.6,3.4,1.8,3.4
			C141.6,24.4,142.1,23.2,142.1,20.9z"/>
		<path class="st1" d="M149.6,20.8c0,0.7-0.1,1.3-0.2,1.9s-0.3,1-0.6,1.4s-0.5,0.7-0.9,0.8s-0.7,0.3-1.2,0.3c-0.4,0-0.8-0.1-1.1-0.3
			s-0.6-0.5-0.8-0.8s-0.4-0.8-0.5-1.3s-0.2-1.1-0.2-1.8c0-0.7,0.1-1.4,0.2-1.9s0.3-1,0.5-1.4s0.5-0.7,0.9-0.9s0.8-0.3,1.2-0.3
			C148.7,16.5,149.6,17.9,149.6,20.8z M148.6,20.9c0-2.4-0.6-3.6-1.7-3.6c-1.2,0-1.8,1.2-1.8,3.7c0,2.3,0.6,3.4,1.8,3.4
			C148,24.4,148.6,23.2,148.6,20.9z"/>
		<path class="st1" d="M156.1,22.4c0,0.4-0.1,0.8-0.2,1.1s-0.3,0.6-0.6,0.9s-0.5,0.4-0.8,0.6s-0.7,0.2-1.1,0.2
			c-0.4,0-0.8-0.1-1.1-0.3s-0.6-0.4-0.8-0.8s-0.4-0.7-0.5-1.2s-0.2-1-0.2-1.6c0-0.7,0.1-1.4,0.2-2s0.4-1.1,0.7-1.5s0.7-0.8,1.1-1
			s0.9-0.3,1.4-0.3c0.6,0,1,0.1,1.4,0.2v0.9c-0.4-0.2-0.9-0.3-1.4-0.3c-0.4,0-0.7,0.1-1,0.3s-0.6,0.4-0.8,0.7s-0.4,0.7-0.5,1.1
			s-0.2,0.9-0.2,1.4h0c0.4-0.7,1-1,1.9-1c0.4,0,0.7,0.1,1,0.2s0.5,0.3,0.8,0.5s0.4,0.5,0.5,0.8S156.1,22,156.1,22.4z M155.1,22.5
			c0-0.3,0-0.6-0.1-0.8s-0.2-0.4-0.3-0.6s-0.3-0.3-0.5-0.4s-0.4-0.1-0.7-0.1c-0.2,0-0.5,0-0.7,0.1s-0.4,0.2-0.5,0.4
			s-0.3,0.3-0.3,0.5s-0.1,0.4-0.1,0.7c0,0.3,0,0.6,0.1,0.8s0.2,0.5,0.3,0.7s0.3,0.3,0.5,0.4s0.4,0.2,0.7,0.2c0.2,0,0.5,0,0.7-0.1
			s0.4-0.2,0.5-0.4s0.2-0.4,0.3-0.6S155.1,22.8,155.1,22.5z"/>
	</g>
</g>
<g class="st0">
	<g class="st0">
		<path class="st1" d="M0.7,9.7V8.4c0.5,0.4,1.2,0.7,1.9,0.7c0.6,0,1-0.1,1.3-0.4s0.5-0.6,0.5-1c0-1-0.7-1.4-2.2-1.4H1.6V5.1h0.6
			c1.3,0,1.9-0.4,1.9-1.3c0-0.8-0.5-1.2-1.5-1.2C2.1,2.5,1.5,2.7,1,3.1V1.9c0.6-0.3,1.2-0.5,2-0.5c0.7,0,1.3,0.2,1.8,0.6
			s0.7,0.9,0.7,1.4c0,1.1-0.6,1.8-1.7,2.1v0c0.6,0.1,1.1,0.3,1.4,0.6s0.5,0.8,0.5,1.4C5.8,8.4,5.5,9,5,9.4s-1.3,0.7-2.2,0.7
			C1.9,10.1,1.2,10,0.7,9.7z"/>
		<path class="st1" d="M8.1,5.5c-0.2,0-0.4-0.1-0.6-0.2S7.3,4.9,7.3,4.7c0-0.2,0.1-0.4,0.2-0.6s0.4-0.2,0.6-0.2
			c0.2,0,0.4,0.1,0.6,0.2S9,4.5,9,4.7c0,0.2-0.1,0.4-0.2,0.6S8.3,5.5,8.1,5.5z M8.1,10.1c-0.2,0-0.4-0.1-0.6-0.2S7.3,9.6,7.3,9.3
			c0-0.2,0.1-0.4,0.2-0.6s0.4-0.2,0.6-0.2c0.2,0,0.4,0.1,0.6,0.2S9,9.1,9,9.3c0,0.2-0.1,0.4-0.2,0.6S8.3,10.1,8.1,10.1z"/>
		<path class="st1" d="M12.8,10.1c-0.9,0-1.6-0.4-2-1.1S10,7.3,10,6c0-1.5,0.3-2.6,0.8-3.4S12,1.5,13,1.5c1.8,0,2.8,1.4,2.8,4.3
			c0,1.4-0.3,2.5-0.8,3.3S13.7,10.1,12.8,10.1z M12.9,2.5c-1,0-1.5,1.1-1.5,3.4c0,2.1,0.5,3.2,1.5,3.2c1,0,1.5-1.1,1.5-3.2
			C14.4,3.6,13.9,2.5,12.9,2.5z"/>
		<path class="st1" d="M19.5,10.1c-0.9,0-1.6-0.4-2-1.1S16.7,7.3,16.7,6c0-1.5,0.3-2.6,0.8-3.4s1.2-1.1,2.2-1.1
			c1.8,0,2.8,1.4,2.8,4.3c0,1.4-0.3,2.5-0.8,3.3S20.4,10.1,19.5,10.1z M19.6,2.5c-1,0-1.5,1.1-1.5,3.4c0,2.1,0.5,3.2,1.5,3.2
			c1,0,1.5-1.1,1.5-3.2C21,3.6,20.6,2.5,19.6,2.5z"/>
		<path class="st1" d="M28.6,7v3h-1.4V1.6h2.5c1,0,1.7,0.2,2.2,0.7s0.8,1.1,0.8,1.9s-0.3,1.5-0.8,2S30.7,7,29.7,7H28.6z M28.6,2.7
			v3.1h0.9c0.6,0,1.1-0.1,1.4-0.4s0.5-0.7,0.5-1.2c0-1-0.6-1.5-1.7-1.5H28.6z"/>
		<path class="st1" d="M43.3,10h-1.4V4.6c0-0.4,0-1,0.1-1.6h0c-0.1,0.4-0.2,0.6-0.2,0.8L39.2,10h-1l-2.5-6.2
			c-0.1-0.2-0.1-0.5-0.2-0.8h0c0,0.3,0,0.9,0,1.6V10h-1.3V1.6h2l2.2,5.6c0.2,0.4,0.3,0.8,0.3,1h0c0.1-0.4,0.3-0.8,0.4-1l2.2-5.6h1.9
			V10z"/>
	</g>
</g>
<g>
	<g class="st0">
	</g>
</g>
<g class="st0">
	<g class="st0">
		<path class="st1" d="M5.6,22.7c0,0.4-0.1,0.7-0.2,1S5,24.3,4.8,24.5S4.2,24.9,3.8,25s-0.8,0.2-1.2,0.2c-0.8,0-1.4-0.2-1.9-0.5v-1
			c0.6,0.4,1.2,0.7,1.9,0.7c0.3,0,0.6,0,0.8-0.1s0.4-0.2,0.6-0.3s0.3-0.3,0.4-0.5s0.1-0.4,0.1-0.7c0-1.1-0.8-1.6-2.3-1.6H1.6v-0.8
			h0.7c1.4,0,2.1-0.5,2.1-1.5c0-1-0.5-1.4-1.6-1.4c-0.6,0-1.2,0.2-1.7,0.6V17c0.5-0.3,1.2-0.5,1.9-0.5c0.4,0,0.7,0,1,0.1
			s0.5,0.2,0.7,0.4s0.4,0.4,0.5,0.6s0.2,0.5,0.2,0.8c0,1.1-0.6,1.8-1.7,2.1v0c0.3,0,0.5,0.1,0.8,0.2s0.5,0.2,0.6,0.4
			s0.3,0.4,0.4,0.6S5.6,22.4,5.6,22.7z"/>
		<path class="st1" d="M12.5,20.8c0,0.7-0.1,1.3-0.2,1.9s-0.3,1-0.6,1.4s-0.5,0.7-0.9,0.8s-0.7,0.3-1.2,0.3c-0.4,0-0.8-0.1-1.1-0.3
			s-0.6-0.5-0.8-0.8s-0.4-0.8-0.5-1.3S7,21.7,7,21c0-0.7,0.1-1.4,0.2-1.9s0.3-1,0.5-1.4s0.5-0.7,0.9-0.9s0.8-0.3,1.2-0.3
			C11.6,16.5,12.5,17.9,12.5,20.8z M11.5,20.9c0-2.4-0.6-3.6-1.7-3.6C8.6,17.3,8,18.5,8,21c0,2.3,0.6,3.4,1.8,3.4
			C10.9,24.4,11.5,23.2,11.5,20.9z"/>
		<path class="st1" d="M25.7,25h-1v-3.4c0-0.7-0.1-1.1-0.3-1.4s-0.5-0.4-1-0.4c-0.4,0-0.8,0.2-1,0.6S22,21.1,22,21.6V25h-1v-3.6
			c0-1.2-0.5-1.8-1.4-1.8c-0.4,0-0.8,0.2-1,0.5s-0.4,0.8-0.4,1.4V25h-1v-6h1V20h0c0.4-0.7,1-1.1,1.9-1.1c0.4,0,0.8,0.1,1.1,0.3
			s0.5,0.5,0.6,0.9c0.4-0.8,1.1-1.2,2-1.2c1.3,0,2,0.8,2,2.4V25z"/>
		<path class="st1" d="M28,17.5c-0.2,0-0.3-0.1-0.4-0.2s-0.2-0.3-0.2-0.4s0.1-0.3,0.2-0.4s0.3-0.2,0.4-0.2c0.2,0,0.3,0.1,0.4,0.2
			s0.2,0.3,0.2,0.4c0,0.2-0.1,0.3-0.2,0.4S28.2,17.5,28,17.5z M28.5,25h-1v-6h1V25z"/>
		<path class="st1" d="M35.4,25h-1v-3.4c0-1.3-0.5-1.9-1.4-1.9c-0.5,0-0.9,0.2-1.2,0.5s-0.5,0.8-0.5,1.4V25h-1v-6h1v1h0
			c0.5-0.8,1.1-1.1,2-1.1c0.7,0,1.2,0.2,1.5,0.6s0.5,1,0.5,1.8V25z"/>
	</g>
</g>
<g id="Rectangle-5" class="st2">
	<rect y="45" class="st3" width="172" height="1"/>
</g>
<g id="Rectangle-5_1_" class="st2">
	<rect y="112" class="st3" width="172" height="1"/>
</g>
<g class="st0">
	<path class="st4" d="M5.4,68.6V74h1.2v1.1H5.4V77H4.1v-1.8H0.3V74c0.3-0.4,0.7-0.8,1.1-1.3s0.7-0.9,1-1.4S3,70.4,3.3,70
		s0.5-0.9,0.7-1.4H5.4z M4.1,74v-3.5c-0.4,0.8-0.8,1.4-1.3,2S2,73.6,1.7,74H4.1z"/>
	<path class="st4" d="M8.4,72.5c-0.2,0-0.4-0.1-0.6-0.2s-0.2-0.3-0.2-0.6c0-0.2,0.1-0.4,0.2-0.6s0.4-0.2,0.6-0.2
		c0.2,0,0.4,0.1,0.6,0.2s0.2,0.3,0.2,0.6c0,0.2-0.1,0.4-0.2,0.6S8.6,72.5,8.4,72.5z M8.4,77.1c-0.2,0-0.4-0.1-0.6-0.2
		s-0.2-0.3-0.2-0.6c0-0.2,0.1-0.4,0.2-0.6s0.4-0.2,0.6-0.2c0.2,0,0.4,0.1,0.6,0.2s0.2,0.3,0.2,0.6c0,0.2-0.1,0.4-0.2,0.6
		S8.6,77.1,8.4,77.1z"/>
	<path class="st4" d="M13,77.1c-0.9,0-1.6-0.4-2-1.1s-0.7-1.7-0.7-3.1c0-1.5,0.3-2.6,0.8-3.4s1.2-1.1,2.2-1.1c1.8,0,2.8,1.4,2.8,4.3
		c0,1.4-0.3,2.5-0.8,3.3S14,77.1,13,77.1z M13.2,69.5c-1,0-1.5,1.1-1.5,3.4c0,2.1,0.5,3.2,1.5,3.2c1,0,1.5-1.1,1.5-3.2
		C14.6,70.6,14.1,69.5,13.2,69.5z"/>
	<path class="st4" d="M19.7,77.1c-0.9,0-1.6-0.4-2-1.1s-0.7-1.7-0.7-3.1c0-1.5,0.3-2.6,0.8-3.4s1.2-1.1,2.2-1.1
		c1.8,0,2.8,1.4,2.8,4.3c0,1.4-0.3,2.5-0.8,3.3S20.6,77.1,19.7,77.1z M19.8,69.5c-1,0-1.5,1.1-1.5,3.4c0,2.1,0.5,3.2,1.5,3.2
		c1,0,1.5-1.1,1.5-3.2C21.3,70.6,20.8,69.5,19.8,69.5z"/>
	<path class="st4" d="M28.9,74v3h-1.4v-8.4H30c1,0,1.7,0.2,2.2,0.7s0.8,1.1,0.8,1.9s-0.3,1.5-0.8,2S30.9,74,30,74H28.9z M28.9,69.7
		v3.1h0.9c0.6,0,1.1-0.1,1.4-0.4s0.5-0.7,0.5-1.2c0-1-0.6-1.5-1.7-1.5H28.9z"/>
	<path class="st4" d="M43.5,77h-1.4v-5.4c0-0.4,0-1,0.1-1.6h0c-0.1,0.4-0.2,0.6-0.2,0.8L39.4,77h-1L36,70.8
		c-0.1-0.2-0.1-0.5-0.2-0.8h0c0,0.3,0,0.9,0,1.6V77h-1.3v-8.4h2l2.2,5.6c0.2,0.4,0.3,0.8,0.3,1h0c0.1-0.4,0.3-0.8,0.4-1l2.2-5.6h1.9
		V77z"/>
</g>
<g class="st0">
</g>
<g class="st0">
	<path class="st4" d="M4.3,92h-1v-7.3C3.2,84.9,3.1,84.9,3,85s-0.3,0.2-0.5,0.3s-0.4,0.2-0.6,0.3s-0.4,0.1-0.6,0.2v-1
		c0.2-0.1,0.4-0.1,0.7-0.2s0.5-0.2,0.7-0.3s0.4-0.3,0.6-0.4s0.4-0.3,0.5-0.4h0.4V92z"/>
	<path class="st4" d="M15.7,92h-1v-3.5c0-1.2-0.5-1.9-1.4-1.9c-0.5,0-0.9,0.2-1.2,0.5s-0.5,0.8-0.5,1.4V92h-1v-8.9h1V87h0
		c0.5-0.8,1.1-1.1,2-1.1c1.4,0,2,0.8,2,2.4V92z"/>
	<path class="st4" d="M20.7,87c-0.2-0.1-0.4-0.2-0.7-0.2c-0.4,0-0.8,0.2-1,0.6s-0.4,0.9-0.4,1.6V92h-1v-6h1v1.2h0
		c0.1-0.4,0.3-0.8,0.6-1s0.6-0.4,0.9-0.4c0.2,0,0.4,0,0.6,0.1V87z"/>
</g>
<g class="st0">
	<path class="st4" d="M68.9,85h-1.5l-0.8-2.1h-3.3L62.6,85h-1.5l3.1-8.4h1.6L68.9,85z M66.3,81.7l-1.2-3.4c0-0.1-0.1-0.3-0.1-0.5h0
		c0,0.2-0.1,0.4-0.1,0.5l-1.2,3.4H66.3z"/>
	<path class="st4" d="M74.9,79l-2.3,6h-1.5l-2.2-6h1.5l1.3,4.2c0.1,0.3,0.2,0.6,0.2,0.8h0c0-0.3,0.1-0.6,0.2-0.8l1.4-4.2H74.9z"/>
	<path class="st4" d="M80.2,85h-1.3v-0.9h0c-0.4,0.7-1,1.1-1.8,1.1c-0.6,0-1.1-0.2-1.4-0.5s-0.5-0.7-0.5-1.3c0-1.1,0.7-1.8,2-2
		l1.8-0.3c0-0.9-0.4-1.3-1.2-1.3c-0.7,0-1.4,0.2-1.9,0.7v-1.2c0.6-0.4,1.4-0.6,2.2-0.6c1.5,0,2.3,0.7,2.3,2.2V85z M78.9,82.1
		l-1.3,0.2c-0.4,0.1-0.7,0.1-0.9,0.3s-0.3,0.4-0.3,0.7c0,0.3,0.1,0.5,0.3,0.6s0.4,0.2,0.7,0.2c0.4,0,0.8-0.1,1-0.4s0.4-0.7,0.4-1.1
		V82.1z"/>
	<path class="st4" d="M82.5,77.7c-0.2,0-0.4-0.1-0.6-0.2s-0.2-0.3-0.2-0.6s0.1-0.4,0.2-0.6s0.3-0.2,0.6-0.2c0.2,0,0.4,0.1,0.6,0.2
		s0.2,0.3,0.2,0.6c0,0.2-0.1,0.4-0.2,0.5S82.8,77.7,82.5,77.7z M83.2,85h-1.4v-6h1.4V85z"/>
	<path class="st4" d="M86.3,85H85v-8.9h1.4V85z"/>
	<path class="st4" d="M92.7,85h-1.3v-0.9h0c-0.4,0.7-1,1.1-1.8,1.1c-0.6,0-1.1-0.2-1.4-0.5s-0.5-0.7-0.5-1.3c0-1.1,0.7-1.8,2-2
		l1.8-0.3c0-0.9-0.4-1.3-1.2-1.3c-0.7,0-1.4,0.2-1.9,0.7v-1.2c0.6-0.4,1.4-0.6,2.2-0.6c1.5,0,2.3,0.7,2.3,2.2V85z M91.4,82.1
		l-1.3,0.2c-0.4,0.1-0.7,0.1-0.9,0.3S89,82.9,89,83.2c0,0.3,0.1,0.5,0.3,0.6s0.4,0.2,0.7,0.2c0.4,0,0.8-0.1,1-0.4s0.4-0.7,0.4-1.1
		V82.1z"/>
	<path class="st4" d="M95.8,84.1L95.8,84.1l0,0.9h-1.4v-8.9h1.4v3.9h0c0.5-0.8,1.1-1.2,2-1.2c0.8,0,1.4,0.3,1.8,0.8s0.6,1.3,0.6,2.2
		c0,1-0.2,1.8-0.7,2.4s-1.1,0.9-2,0.9C96.7,85.1,96.2,84.8,95.8,84.1z M95.7,81.7v0.7c0,0.4,0.1,0.8,0.4,1.1s0.6,0.5,1.1,0.5
		c0.5,0,0.9-0.2,1.2-0.6s0.4-0.9,0.4-1.6c0-0.6-0.1-1.1-0.4-1.4s-0.6-0.5-1.1-0.5c-0.5,0-0.9,0.2-1.2,0.5S95.7,81.2,95.7,81.7z"/>
	<path class="st4" d="M103,85h-1.4v-8.9h1.4V85z"/>
	<path class="st4" d="M109.8,82.4h-4.1c0,0.6,0.2,1,0.5,1.3s0.8,0.5,1.3,0.5c0.6,0,1.2-0.2,1.8-0.6v1.1c-0.5,0.3-1.3,0.5-2.2,0.5
		c-0.9,0-1.6-0.3-2.1-0.8s-0.8-1.3-0.8-2.3c0-0.9,0.3-1.7,0.8-2.3s1.2-0.9,2.1-0.9s1.5,0.3,1.9,0.8s0.7,1.3,0.7,2.2V82.4z
		 M108.5,81.4c0-0.5-0.1-0.9-0.3-1.1s-0.5-0.4-0.9-0.4c-0.4,0-0.7,0.1-1,0.4s-0.4,0.7-0.5,1.1H108.5z"/>
	<path class="st4" d="M117.6,84.9c-0.3,0.1-0.6,0.2-1,0.2c-1.2,0-1.7-0.6-1.7-1.7v-3.4h-1V79h1v-1.4l1.4-0.4V79h1.4v1.1h-1.4v3
		c0,0.4,0.1,0.6,0.2,0.8s0.3,0.2,0.6,0.2c0.2,0,0.4-0.1,0.6-0.2V84.9z"/>
	<path class="st4" d="M119.4,77.7c-0.2,0-0.4-0.1-0.6-0.2s-0.2-0.3-0.2-0.6s0.1-0.4,0.2-0.6s0.3-0.2,0.6-0.2c0.2,0,0.4,0.1,0.6,0.2
		s0.2,0.3,0.2,0.6c0,0.2-0.1,0.4-0.2,0.5S119.7,77.7,119.4,77.7z M120.1,85h-1.4v-6h1.4V85z"/>
	<path class="st4" d="M130.8,85h-1.4v-3.3c0-0.6-0.1-1.1-0.3-1.4s-0.5-0.4-0.9-0.4c-0.4,0-0.7,0.2-0.9,0.5s-0.4,0.8-0.4,1.3V85h-1.4
		v-3.4c0-1.1-0.4-1.7-1.2-1.7c-0.4,0-0.7,0.2-0.9,0.5s-0.4,0.8-0.4,1.3V85h-1.4v-6h1.4v0.9h0c0.4-0.7,1.1-1.1,1.9-1.1
		c0.4,0,0.8,0.1,1.1,0.3s0.5,0.5,0.6,0.9c0.4-0.8,1.1-1.2,2-1.2c1.3,0,2,0.8,2,2.4V85z"/>
	<path class="st4" d="M137.6,82.4h-4.1c0,0.6,0.2,1,0.5,1.3s0.8,0.5,1.3,0.5c0.6,0,1.2-0.2,1.8-0.6v1.1c-0.5,0.3-1.3,0.5-2.2,0.5
		c-0.9,0-1.6-0.3-2.1-0.8s-0.8-1.3-0.8-2.3c0-0.9,0.3-1.7,0.8-2.3s1.2-0.9,2.1-0.9s1.5,0.3,1.9,0.8s0.7,1.3,0.7,2.2V82.4z
		 M136.3,81.4c0-0.5-0.1-0.9-0.3-1.1s-0.5-0.4-0.9-0.4c-0.4,0-0.7,0.1-1,0.4s-0.4,0.7-0.5,1.1H136.3z"/>
	<path class="st4" d="M141.8,84.8v-1.3c0.5,0.4,1.1,0.6,1.7,0.6c0.8,0,1.2-0.2,1.2-0.7c0-0.1,0-0.3-0.1-0.3s-0.2-0.2-0.3-0.3
		s-0.3-0.1-0.4-0.2s-0.3-0.1-0.5-0.2c-0.2-0.1-0.5-0.2-0.7-0.3s-0.4-0.2-0.5-0.4s-0.2-0.3-0.3-0.5s-0.1-0.4-0.1-0.6
		c0-0.3,0.1-0.5,0.2-0.8s0.3-0.4,0.6-0.6s0.5-0.3,0.8-0.3s0.6-0.1,0.9-0.1c0.6,0,1.1,0.1,1.5,0.3v1.2c-0.4-0.3-0.9-0.4-1.5-0.4
		c-0.2,0-0.3,0-0.5,0.1s-0.3,0.1-0.4,0.1s-0.2,0.1-0.2,0.2s-0.1,0.2-0.1,0.3c0,0.1,0,0.2,0.1,0.3s0.1,0.2,0.2,0.2s0.2,0.1,0.4,0.2
		s0.3,0.1,0.5,0.2c0.3,0.1,0.5,0.2,0.7,0.3s0.4,0.2,0.5,0.4s0.3,0.3,0.3,0.5s0.1,0.4,0.1,0.6c0,0.3-0.1,0.6-0.2,0.8
		s-0.3,0.4-0.6,0.6s-0.5,0.3-0.8,0.3s-0.6,0.1-1,0.1C142.9,85.1,142.3,85,141.8,84.8z"/>
	<path class="st4" d="M148.7,85h-1.4v-8.9h1.4V85z"/>
	<path class="st4" d="M153.2,85.1c-0.9,0-1.7-0.3-2.2-0.8s-0.8-1.3-0.8-2.2c0-1,0.3-1.8,0.9-2.4s1.4-0.8,2.3-0.8
		c0.9,0,1.7,0.3,2.2,0.8s0.8,1.3,0.8,2.3c0,1-0.3,1.7-0.8,2.3S154.1,85.1,153.2,85.1z M153.2,79.9c-0.5,0-1,0.2-1.3,0.6
		s-0.5,0.9-0.5,1.5c0,0.6,0.2,1.1,0.5,1.5s0.7,0.5,1.3,0.5c0.5,0,0.9-0.2,1.2-0.5s0.4-0.9,0.4-1.5c0-0.7-0.1-1.2-0.4-1.5
		S153.8,79.9,153.2,79.9z"/>
	<path class="st4" d="M160.8,84.9c-0.3,0.1-0.6,0.2-1,0.2c-1.2,0-1.7-0.6-1.7-1.7v-3.4h-1V79h1v-1.4l1.4-0.4V79h1.4v1.1h-1.4v3
		c0,0.4,0.1,0.6,0.2,0.8s0.3,0.2,0.6,0.2c0.2,0,0.4-0.1,0.6-0.2V84.9z"/>
</g>
</svg>
