<?xml version="1.0" encoding="utf-8"?>
<!-- Generator: Adobe Illustrator 22.0.1, SVG Export Plug-In . SVG Version: 6.00 Build 0)  -->
<svg version="1.1" id="Layer_1" xmlns="http://www.w3.org/2000/svg" xmlns:xlink="http://www.w3.org/1999/xlink" x="0px" y="0px"
	 width="172px" height="158px" viewBox="0 0 172 158" style="enable-background:new 0 0 172 158;" xml:space="preserve">
<style type="text/css">
	.st0{enable-background:new    ;}
	.st1{fill:#252424;}
	.st2{fill:#6264A7;}
	.st3{opacity:0.75;enable-background:new    ;}
	.st4{fill:#D9D8D7;}
</style>
<title>Group 4</title>
<desc>Created with Sketch.</desc>
<g class="st0">
	<g class="st0">
		<path class="st1" d="M68.5,6.6c0,2.4-1.1,3.5-3.4,3.5c-2.1,0-3.2-1.1-3.2-3.4V1.6h1.4v4.9c0,1.6,0.6,2.5,1.9,2.5
			c1.2,0,1.9-0.8,1.9-2.4V1.6h1.4V6.6z"/>
		<path class="st1" d="M69.9,9.8V8.6c0.5,0.4,1.1,0.6,1.7,0.6c0.8,0,1.2-0.2,1.2-0.7c0-0.1,0-0.3-0.1-0.3s-0.2-0.2-0.3-0.3
			S72.2,7.7,72,7.6s-0.3-0.1-0.5-0.2c-0.2-0.1-0.5-0.2-0.7-0.3s-0.4-0.2-0.5-0.4s-0.2-0.3-0.3-0.5S70,5.9,70,5.6
			c0-0.3,0.1-0.5,0.2-0.8s0.3-0.4,0.6-0.6S71.2,4,71.5,4s0.6-0.1,0.9-0.1c0.6,0,1.1,0.1,1.5,0.3v1.2C73.5,5,73,4.9,72.4,4.9
			c-0.2,0-0.3,0-0.5,0.1S71.7,5,71.6,5.1s-0.2,0.1-0.2,0.2s-0.1,0.2-0.1,0.3c0,0.1,0,0.2,0.1,0.3s0.1,0.2,0.2,0.2s0.2,0.1,0.4,0.2
			s0.3,0.1,0.5,0.2c0.3,0.1,0.5,0.2,0.7,0.3s0.4,0.2,0.5,0.4s0.3,0.3,0.3,0.5s0.1,0.4,0.1,0.6c0,0.3-0.1,0.6-0.2,0.8
			s-0.3,0.4-0.6,0.6S72.9,10,72.6,10s-0.6,0.1-1,0.1C71,10.1,70.4,10,69.9,9.8z"/>
		<path class="st1" d="M80.1,10h-1.3V9.1h0c-0.4,0.7-1,1.1-1.8,1.1c-0.6,0-1.1-0.2-1.4-0.5s-0.5-0.7-0.5-1.3c0-1.1,0.7-1.8,2-2
			l1.8-0.3c0-0.9-0.4-1.3-1.2-1.3c-0.7,0-1.4,0.2-1.9,0.7V4.4C76.3,4,77,3.9,77.8,3.9c1.5,0,2.3,0.7,2.3,2.2V10z M78.8,7.1l-1.3,0.2
			c-0.4,0.1-0.7,0.1-0.9,0.3s-0.3,0.4-0.3,0.7c0,0.3,0.1,0.5,0.3,0.6s0.4,0.2,0.7,0.2c0.4,0,0.8-0.1,1-0.4s0.4-0.7,0.4-1.1V7.1z"/>
		<path class="st1" d="M83.1,9.1L83.1,9.1l0,0.9h-1.4V1.1h1.4v3.9h0c0.5-0.8,1.1-1.2,2-1.2c0.8,0,1.4,0.3,1.8,0.8s0.6,1.3,0.6,2.2
			c0,1-0.2,1.8-0.7,2.4s-1.1,0.9-2,0.9C84.1,10.1,83.5,9.8,83.1,9.1z M83.1,6.7v0.7c0,0.4,0.1,0.8,0.4,1.1s0.6,0.5,1.1,0.5
			c0.5,0,0.9-0.2,1.2-0.6s0.4-0.9,0.4-1.6c0-0.6-0.1-1.1-0.4-1.4s-0.6-0.5-1.1-0.5c-0.5,0-0.9,0.2-1.2,0.5S83.1,6.2,83.1,6.7z"/>
		<path class="st1" d="M89.7,2.7c-0.2,0-0.4-0.1-0.6-0.2S88.9,2.2,88.9,2s0.1-0.4,0.2-0.6s0.3-0.2,0.6-0.2c0.2,0,0.4,0.1,0.6,0.2
			s0.2,0.3,0.2,0.6c0,0.2-0.1,0.4-0.2,0.5S89.9,2.7,89.7,2.7z M90.3,10H89V4h1.4V10z"/>
		<path class="st1" d="M93.5,10h-1.4V1.1h1.4V10z"/>
		<path class="st1" d="M95.9,2.7c-0.2,0-0.4-0.1-0.6-0.2S95.1,2.2,95.1,2s0.1-0.4,0.2-0.6s0.3-0.2,0.6-0.2c0.2,0,0.4,0.1,0.6,0.2
			s0.2,0.3,0.2,0.6c0,0.2-0.1,0.4-0.2,0.5S96.2,2.7,95.9,2.7z M96.6,10h-1.4V4h1.4V10z"/>
		<path class="st1" d="M101.6,9.9c-0.3,0.1-0.6,0.2-1,0.2c-1.2,0-1.7-0.6-1.7-1.7V5.1h-1V4h1V2.6l1.4-0.4V4h1.4v1.1h-1.4v3
			c0,0.4,0.1,0.6,0.2,0.8s0.3,0.2,0.6,0.2c0.2,0,0.4-0.1,0.6-0.2V9.9z"/>
		<path class="st1" d="M107.9,4l-2.7,7c-0.6,1.2-1.4,1.9-2.4,1.9c-0.3,0-0.5,0-0.7-0.1v-1.1c0.2,0.1,0.4,0.1,0.6,0.1
			c0.5,0,0.9-0.2,1.1-0.8l0.4-1l-2.4-6h1.5l1.4,4.4c0,0.1,0.1,0.2,0.1,0.4h0c0-0.1,0.1-0.2,0.1-0.4l1.5-4.4H107.9z"/>
		<path class="st1" d="M117.7,2.8h-2.4V10h-1.4V2.8h-2.4V1.6h6.2V2.8z"/>
		<path class="st1" d="M122.7,7.4h-4.1c0,0.6,0.2,1,0.5,1.3s0.8,0.5,1.3,0.5c0.6,0,1.2-0.2,1.8-0.6v1.1c-0.5,0.3-1.3,0.5-2.2,0.5
			c-0.9,0-1.6-0.3-2.1-0.8S117.2,8,117.2,7c0-0.9,0.3-1.7,0.8-2.3s1.2-0.9,2.1-0.9s1.5,0.3,1.9,0.8s0.7,1.3,0.7,2.2V7.4z M121.4,6.4
			c0-0.5-0.1-0.9-0.3-1.1s-0.5-0.4-0.9-0.4c-0.4,0-0.7,0.1-1,0.4s-0.4,0.7-0.5,1.1H121.4z"/>
		<path class="st1" d="M123.6,9.8V8.6c0.5,0.4,1.1,0.6,1.7,0.6c0.8,0,1.2-0.2,1.2-0.7c0-0.1,0-0.3-0.1-0.3s-0.2-0.2-0.3-0.3
			s-0.3-0.1-0.4-0.2s-0.3-0.1-0.5-0.2c-0.2-0.1-0.5-0.2-0.7-0.3s-0.4-0.2-0.5-0.4s-0.2-0.3-0.3-0.5s-0.1-0.4-0.1-0.6
			c0-0.3,0.1-0.5,0.2-0.8s0.3-0.4,0.6-0.6s0.5-0.3,0.8-0.3s0.6-0.1,0.9-0.1c0.6,0,1.1,0.1,1.5,0.3v1.2c-0.4-0.3-0.9-0.4-1.5-0.4
			c-0.2,0-0.3,0-0.5,0.1s-0.3,0.1-0.4,0.1s-0.2,0.1-0.2,0.2s-0.1,0.2-0.1,0.3c0,0.1,0,0.2,0.1,0.3s0.1,0.2,0.2,0.2s0.2,0.1,0.4,0.2
			s0.3,0.1,0.5,0.2c0.3,0.1,0.5,0.2,0.7,0.3s0.4,0.2,0.5,0.4s0.3,0.3,0.3,0.5s0.1,0.4,0.1,0.6c0,0.3-0.1,0.6-0.2,0.8
			s-0.3,0.4-0.6,0.6s-0.5,0.3-0.8,0.3s-0.6,0.1-1,0.1C124.6,10.1,124.1,10,123.6,9.8z"/>
		<path class="st1" d="M132.3,9.9c-0.3,0.1-0.6,0.2-1,0.2c-1.2,0-1.7-0.6-1.7-1.7V5.1h-1V4h1V2.6l1.4-0.4V4h1.4v1.1h-1.4v3
			c0,0.4,0.1,0.6,0.2,0.8s0.3,0.2,0.6,0.2c0.2,0,0.4-0.1,0.6-0.2V9.9z"/>
		<path class="st1" d="M134.2,2.7c-0.2,0-0.4-0.1-0.6-0.2s-0.2-0.3-0.2-0.6s0.1-0.4,0.2-0.6s0.3-0.2,0.6-0.2c0.2,0,0.4,0.1,0.6,0.2
			S135,1.8,135,2c0,0.2-0.1,0.4-0.2,0.5S134.4,2.7,134.2,2.7z M134.8,10h-1.4V4h1.4V10z"/>
		<path class="st1" d="M141.9,10h-1.4V6.6c0-1.1-0.4-1.7-1.2-1.7c-0.4,0-0.8,0.2-1,0.5S138,6.1,138,6.6V10h-1.4V4h1.4v1h0
			c0.4-0.8,1.1-1.1,1.9-1.1c0.7,0,1.2,0.2,1.5,0.6s0.5,1,0.5,1.8V10z"/>
		<path class="st1" d="M149.1,9.5c0,2.2-1.1,3.3-3.3,3.3c-0.8,0-1.5-0.1-2-0.4v-1.2c0.7,0.4,1.3,0.6,1.9,0.6c1.4,0,2.1-0.7,2.1-2.1
			V9h0c-0.4,0.8-1.1,1.1-2,1.1c-0.7,0-1.3-0.3-1.8-0.8s-0.7-1.2-0.7-2.1c0-1,0.2-1.8,0.7-2.4s1.1-0.9,2-0.9c0.8,0,1.4,0.3,1.8,1h0V4
			h1.4V9.5z M147.7,7.3V6.5c0-0.4-0.1-0.8-0.4-1.1s-0.6-0.4-1-0.4c-0.5,0-0.9,0.2-1.2,0.6s-0.4,0.9-0.4,1.6c0,0.6,0.1,1.1,0.4,1.4
			s0.6,0.5,1.1,0.5c0.5,0,0.8-0.2,1.1-0.5S147.7,7.8,147.7,7.3z"/>
	</g>
</g>
<g>
	<g class="st0">
	</g>
</g>
<g class="st0">
	<g class="st0">
		<path class="st1" d="M67.8,24.7c-0.6,0.3-1.4,0.5-2.3,0.5c-1.2,0-2.2-0.4-2.9-1.2s-1.1-1.8-1.1-3c0-1.3,0.4-2.4,1.2-3.3
			s1.8-1.2,3.1-1.2c0.8,0,1.5,0.1,2,0.3v1c-0.6-0.3-1.3-0.5-2-0.5c-1,0-1.7,0.3-2.3,1s-0.9,1.5-0.9,2.6c0,1,0.3,1.8,0.8,2.4
			s1.3,0.9,2.2,0.9c0.8,0,1.6-0.2,2.2-0.6V24.7z"/>
		<path class="st1" d="M69.9,17.5c-0.2,0-0.3-0.1-0.4-0.2s-0.2-0.3-0.2-0.4s0.1-0.3,0.2-0.4s0.3-0.2,0.4-0.2c0.2,0,0.3,0.1,0.4,0.2
			s0.2,0.3,0.2,0.4c0,0.2-0.1,0.3-0.2,0.4S70.1,17.5,69.9,17.5z M70.4,25h-1v-6h1V25z"/>
		<path class="st1" d="M75.1,25c-0.2,0.1-0.5,0.2-0.9,0.2c-1.1,0-1.6-0.6-1.6-1.8v-3.6h-1V19h1v-1.5l1-0.3V19h1.5v0.8h-1.5v3.4
			c0,0.4,0.1,0.7,0.2,0.9s0.4,0.3,0.7,0.3c0.2,0,0.5-0.1,0.6-0.2V25z"/>
		<path class="st1" d="M81.2,19l-2.8,7c-0.5,1.2-1.2,1.9-2.1,1.9c-0.2,0-0.5,0-0.6-0.1v-0.9c0.2,0.1,0.4,0.1,0.6,0.1
			c0.5,0,0.8-0.3,1.1-0.9l0.5-1.1l-2.3-6h1.1l1.6,4.6c0,0.1,0.1,0.2,0.1,0.5h0c0-0.1,0.1-0.2,0.1-0.4l1.7-4.6H81.2z"/>
		<path class="st1" d="M91.3,24.7c-0.6,0.3-1.4,0.5-2.3,0.5c-1.2,0-2.2-0.4-2.9-1.2s-1.1-1.8-1.1-3c0-1.3,0.4-2.4,1.2-3.3
			s1.8-1.2,3.1-1.2c0.8,0,1.5,0.1,2,0.3v1c-0.6-0.3-1.3-0.5-2-0.5c-1,0-1.7,0.3-2.3,1s-0.9,1.5-0.9,2.6c0,1,0.3,1.8,0.8,2.4
			s1.3,0.9,2.2,0.9c0.8,0,1.6-0.2,2.2-0.6V24.7z"/>
		<path class="st1" d="M97.7,22.3h-4.2c0,0.7,0.2,1.2,0.5,1.5s0.8,0.5,1.4,0.5c0.7,0,1.3-0.2,1.9-0.7v0.9c-0.5,0.4-1.2,0.6-2.1,0.6
			c-0.8,0-1.5-0.3-2-0.8s-0.7-1.3-0.7-2.3c0-0.9,0.3-1.7,0.8-2.3s1.2-0.9,2-0.9s1.4,0.3,1.8,0.8s0.6,1.2,0.6,2.1V22.3z M96.8,21.5
			c0-0.6-0.1-1-0.4-1.3s-0.6-0.5-1.1-0.5c-0.5,0-0.8,0.2-1.2,0.5s-0.5,0.7-0.6,1.3H96.8z"/>
		<path class="st1" d="M104.2,25h-1v-3.4c0-1.3-0.5-1.9-1.4-1.9c-0.5,0-0.9,0.2-1.2,0.5s-0.5,0.8-0.5,1.4V25h-1v-6h1v1h0
			c0.5-0.8,1.1-1.1,2-1.1c0.7,0,1.2,0.2,1.5,0.6s0.5,1,0.5,1.8V25z"/>
		<path class="st1" d="M108.8,25c-0.2,0.1-0.5,0.2-0.9,0.2c-1.1,0-1.6-0.6-1.6-1.8v-3.6h-1V19h1v-1.5l1-0.3V19h1.5v0.8h-1.5v3.4
			c0,0.4,0.1,0.7,0.2,0.9s0.4,0.3,0.7,0.3c0.2,0,0.5-0.1,0.6-0.2V25z"/>
		<path class="st1" d="M114.8,22.3h-4.2c0,0.7,0.2,1.2,0.5,1.5s0.8,0.5,1.4,0.5c0.7,0,1.3-0.2,1.9-0.7v0.9c-0.5,0.4-1.2,0.6-2.1,0.6
			c-0.8,0-1.5-0.3-2-0.8s-0.7-1.3-0.7-2.3c0-0.9,0.3-1.7,0.8-2.3s1.2-0.9,2-0.9s1.4,0.3,1.8,0.8s0.6,1.2,0.6,2.1V22.3z M113.8,21.5
			c0-0.6-0.1-1-0.4-1.3s-0.6-0.5-1.1-0.5c-0.5,0-0.8,0.2-1.2,0.5s-0.5,0.7-0.6,1.3H113.8z"/>
		<path class="st1" d="M119.4,20c-0.2-0.1-0.4-0.2-0.7-0.2c-0.4,0-0.8,0.2-1,0.6s-0.4,0.9-0.4,1.6V25h-1v-6h1v1.2h0
			c0.1-0.4,0.3-0.8,0.6-1s0.6-0.4,0.9-0.4c0.2,0,0.4,0,0.6,0.1V20z"/>
		<path class="st1" d="M127.5,16.6l-4,9.8h-0.9l4-9.8H127.5z"/>
		<path class="st1" d="M131.2,22.7c0-0.2,0-0.4,0.1-0.7s0.2-0.4,0.3-0.6s0.3-0.4,0.5-0.5s0.4-0.3,0.7-0.4c-0.4-0.2-0.7-0.5-0.9-0.8
			s-0.3-0.7-0.3-1.1c0-0.3,0.1-0.6,0.2-0.9s0.3-0.5,0.5-0.7s0.5-0.3,0.8-0.4s0.6-0.2,0.9-0.2c0.3,0,0.7,0.1,0.9,0.2s0.5,0.3,0.8,0.5
			s0.4,0.4,0.5,0.7s0.2,0.5,0.2,0.8c0,0.4-0.1,0.7-0.3,1.1s-0.5,0.6-0.9,0.8c0.2,0.1,0.5,0.2,0.7,0.4s0.4,0.3,0.5,0.5
			s0.2,0.4,0.3,0.6s0.1,0.4,0.1,0.7c0,0.4-0.1,0.7-0.2,1s-0.3,0.6-0.6,0.8s-0.5,0.4-0.9,0.5s-0.7,0.2-1.1,0.2
			c-0.4,0-0.8-0.1-1.1-0.2s-0.6-0.3-0.9-0.5s-0.4-0.5-0.6-0.8S131.2,23.1,131.2,22.7z M132.2,22.6c0,0.3,0,0.5,0.1,0.7
			s0.2,0.4,0.3,0.5s0.3,0.3,0.5,0.3s0.4,0.1,0.7,0.1c0.2,0,0.5,0,0.7-0.1s0.4-0.2,0.5-0.3s0.3-0.3,0.4-0.5s0.1-0.4,0.1-0.7
			c0-0.2,0-0.5-0.1-0.7s-0.2-0.4-0.3-0.5s-0.3-0.3-0.5-0.4s-0.4-0.1-0.7-0.1c-0.2,0-0.5,0-0.7,0.1s-0.4,0.2-0.5,0.4
			s-0.3,0.3-0.4,0.5S132.2,22.4,132.2,22.6z M132.5,18.7c0,0.2,0,0.4,0.1,0.6s0.2,0.3,0.3,0.4s0.3,0.2,0.4,0.3s0.3,0.1,0.5,0.1
			s0.4,0,0.5-0.1s0.3-0.2,0.4-0.3s0.2-0.3,0.3-0.4s0.1-0.4,0.1-0.5c0-0.2,0-0.4-0.1-0.6s-0.2-0.3-0.3-0.4s-0.3-0.2-0.4-0.3
			s-0.4-0.1-0.5-0.1c-0.2,0-0.4,0-0.6,0.1s-0.3,0.2-0.4,0.3s-0.2,0.3-0.3,0.4S132.5,18.5,132.5,18.7z"/>
		<path class="st1" d="M143.1,20.8c0,0.7-0.1,1.3-0.2,1.9s-0.3,1-0.6,1.4s-0.5,0.7-0.9,0.8s-0.7,0.3-1.2,0.3c-0.4,0-0.8-0.1-1.1-0.3
			s-0.6-0.5-0.8-0.8s-0.4-0.8-0.5-1.3s-0.2-1.1-0.2-1.8c0-0.7,0.1-1.4,0.2-1.9s0.3-1,0.5-1.4s0.5-0.7,0.9-0.9s0.8-0.3,1.2-0.3
			C142.2,16.5,143.1,17.9,143.1,20.8z M142.1,20.9c0-2.4-0.6-3.6-1.7-3.6c-1.2,0-1.8,1.2-1.8,3.7c0,2.3,0.6,3.4,1.8,3.4
			C141.6,24.4,142.1,23.2,142.1,20.9z"/>
		<path class="st1" d="M149.6,20.8c0,0.7-0.1,1.3-0.2,1.9s-0.3,1-0.6,1.4s-0.5,0.7-0.9,0.8s-0.7,0.3-1.2,0.3c-0.4,0-0.8-0.1-1.1-0.3
			s-0.6-0.5-0.8-0.8s-0.4-0.8-0.5-1.3s-0.2-1.1-0.2-1.8c0-0.7,0.1-1.4,0.2-1.9s0.3-1,0.5-1.4s0.5-0.7,0.9-0.9s0.8-0.3,1.2-0.3
			C148.7,16.5,149.6,17.9,149.6,20.8z M148.6,20.9c0-2.4-0.6-3.6-1.7-3.6c-1.2,0-1.8,1.2-1.8,3.7c0,2.3,0.6,3.4,1.8,3.4
			C148,24.4,148.6,23.2,148.6,20.9z"/>
		<path class="st1" d="M150.6,22.7c0-0.2,0-0.4,0.1-0.7s0.2-0.4,0.3-0.6s0.3-0.4,0.5-0.5s0.4-0.3,0.7-0.4c-0.4-0.2-0.7-0.5-0.9-0.8
			S151,19,151,18.6c0-0.3,0.1-0.6,0.2-0.9s0.3-0.5,0.5-0.7s0.5-0.3,0.8-0.4s0.6-0.2,0.9-0.2c0.3,0,0.7,0.1,0.9,0.2s0.5,0.3,0.8,0.5
			s0.4,0.4,0.5,0.7s0.2,0.5,0.2,0.8c0,0.4-0.1,0.7-0.3,1.1s-0.5,0.6-0.9,0.8c0.2,0.1,0.5,0.2,0.7,0.4s0.4,0.3,0.5,0.5
			s0.2,0.4,0.3,0.6s0.1,0.4,0.1,0.7c0,0.4-0.1,0.7-0.2,1s-0.3,0.6-0.6,0.8s-0.5,0.4-0.9,0.5s-0.7,0.2-1.1,0.2
			c-0.4,0-0.8-0.1-1.1-0.2s-0.6-0.3-0.9-0.5s-0.4-0.5-0.6-0.8S150.6,23.1,150.6,22.7z M151.7,22.6c0,0.3,0,0.5,0.1,0.7
			s0.2,0.4,0.3,0.5s0.3,0.3,0.5,0.3s0.4,0.1,0.7,0.1c0.2,0,0.5,0,0.7-0.1s0.4-0.2,0.5-0.3s0.3-0.3,0.4-0.5s0.1-0.4,0.1-0.7
			c0-0.2,0-0.5-0.1-0.7s-0.2-0.4-0.3-0.5s-0.3-0.3-0.5-0.4s-0.4-0.1-0.7-0.1c-0.2,0-0.5,0-0.7,0.1s-0.4,0.2-0.5,0.4
			s-0.3,0.3-0.4,0.5S151.7,22.4,151.7,22.6z M152,18.7c0,0.2,0,0.4,0.1,0.6s0.2,0.3,0.3,0.4s0.3,0.2,0.4,0.3s0.3,0.1,0.5,0.1
			s0.4,0,0.5-0.1s0.3-0.2,0.4-0.3s0.2-0.3,0.3-0.4s0.1-0.4,0.1-0.5c0-0.2,0-0.4-0.1-0.6s-0.2-0.3-0.3-0.4s-0.3-0.2-0.4-0.3
			s-0.4-0.1-0.5-0.1c-0.2,0-0.4,0-0.6,0.1s-0.3,0.2-0.4,0.3s-0.2,0.3-0.3,0.4S152,18.5,152,18.7z"/>
	</g>
</g>
<g>
	<g class="st0">
	</g>
</g>
<g>
	<g class="st0">
	</g>
</g>
<g class="st0">
	<g class="st0">
		<path class="st1" d="M71.1,143h-1.4v-5.4c0-0.4,0-1,0.1-1.6h0c-0.1,0.4-0.2,0.6-0.2,0.8L67,143h-1l-2.5-6.2
			c-0.1-0.2-0.1-0.5-0.2-0.8h0c0,0.3,0,0.9,0,1.6v5.4H62v-8.4h2l2.2,5.6c0.2,0.4,0.3,0.8,0.3,1h0c0.1-0.4,0.3-0.8,0.4-1l2.2-5.6h1.9
			V143z"/>
		<path class="st1" d="M75.6,143.1c-0.9,0-1.7-0.3-2.2-0.8s-0.8-1.3-0.8-2.2c0-1,0.3-1.8,0.9-2.4s1.4-0.8,2.3-0.8
			c0.9,0,1.7,0.3,2.2,0.8s0.8,1.3,0.8,2.3c0,1-0.3,1.7-0.8,2.3S76.6,143.1,75.6,143.1z M75.7,137.9c-0.5,0-1,0.2-1.3,0.6
			S74,139.3,74,140c0,0.6,0.2,1.1,0.5,1.5s0.7,0.5,1.3,0.5c0.5,0,0.9-0.2,1.2-0.5s0.4-0.9,0.4-1.5c0-0.7-0.1-1.2-0.4-1.5
			S76.2,137.9,75.7,137.9z"/>
		<path class="st1" d="M85.5,143h-1.4v-3.4c0-1.1-0.4-1.7-1.2-1.7c-0.4,0-0.8,0.2-1,0.5s-0.4,0.7-0.4,1.2v3.4h-1.4v-6h1.4v1h0
			c0.4-0.8,1.1-1.1,1.9-1.1c0.7,0,1.2,0.2,1.5,0.6s0.5,1,0.5,1.8V143z"/>
		<path class="st1" d="M90.3,142.9c-0.3,0.1-0.6,0.2-1,0.2c-1.2,0-1.7-0.6-1.7-1.7V138h-1V137h1v-1.4l1.4-0.4v1.8h1.4v1.1h-1.4v3
			c0,0.4,0.1,0.6,0.2,0.8s0.3,0.2,0.6,0.2c0.2,0,0.4-0.1,0.6-0.2V142.9z"/>
		<path class="st1" d="M96.8,143h-1.4v-3.3c0-1.2-0.4-1.8-1.2-1.8c-0.4,0-0.7,0.2-1,0.5s-0.4,0.8-0.4,1.3v3.2h-1.4v-8.9h1.4v3.9h0
			c0.5-0.8,1.1-1.1,1.9-1.1c1.3,0,2,0.8,2,2.4V143z"/>
		<path class="st1" d="M99.8,143h-1.4v-8.9h1.4V143z"/>
		<path class="st1" d="M106.8,137l-2.7,7c-0.6,1.2-1.4,1.9-2.4,1.9c-0.3,0-0.5,0-0.7-0.1v-1.1c0.2,0.1,0.4,0.1,0.6,0.1
			c0.5,0,0.9-0.2,1.1-0.8l0.4-1l-2.4-6h1.5l1.4,4.4c0,0.1,0.1,0.2,0.1,0.4h0c0-0.1,0.1-0.2,0.1-0.4l1.5-4.4H106.8z"/>
		<path class="st1" d="M118.1,143h-1.5l-0.8-2.1h-3.3l-0.7,2.1h-1.5l3.1-8.4h1.6L118.1,143z M115.4,139.7l-1.2-3.4
			c0-0.1-0.1-0.3-0.1-0.5h0c0,0.2-0.1,0.4-0.1,0.5l-1.2,3.4H115.4z"/>
		<path class="st1" d="M120.4,143h-1.4v-8.9h1.4V143z"/>
		<path class="st1" d="M123.6,143h-1.4v-8.9h1.4V143z"/>
		<path class="st1" d="M128.5,140.2h-3.2v-1h3.2V140.2z"/>
		<path class="st1" d="M137,143h-1.4v-3.6h-4v3.6h-1.4v-8.4h1.4v3.5h4v-3.5h1.4V143z"/>
		<path class="st1" d="M143.6,143h-1.3V142h0c-0.4,0.7-1,1.1-1.8,1.1c-0.6,0-1.1-0.2-1.4-0.5s-0.5-0.7-0.5-1.3c0-1.1,0.7-1.8,2-2
			l1.8-0.3c0-0.9-0.4-1.3-1.2-1.3c-0.7,0-1.4,0.2-1.9,0.7v-1.2c0.6-0.4,1.4-0.6,2.2-0.6c1.5,0,2.3,0.7,2.3,2.2V143z M142.3,140
			l-1.3,0.2c-0.4,0.1-0.7,0.1-0.9,0.3s-0.3,0.4-0.3,0.7c0,0.3,0.1,0.5,0.3,0.6s0.4,0.2,0.7,0.2c0.4,0,0.8-0.1,1-0.4s0.4-0.7,0.4-1.1
			V140z"/>
		<path class="st1" d="M150.6,143h-1.4v-3.4c0-1.1-0.4-1.7-1.2-1.7c-0.4,0-0.8,0.2-1,0.5s-0.4,0.7-0.4,1.2v3.4h-1.4v-6h1.4v1h0
			c0.4-0.8,1.1-1.1,1.9-1.1c0.7,0,1.2,0.2,1.5,0.6s0.5,1,0.5,1.8V143z"/>
		<path class="st1" d="M157.7,143h-1.4v-1h0c-0.4,0.8-1.1,1.2-2,1.2c-0.7,0-1.3-0.3-1.8-0.8s-0.7-1.3-0.7-2.2c0-1,0.2-1.8,0.7-2.4
			s1.1-0.9,2-0.9c0.8,0,1.4,0.3,1.8,1h0v-3.7h1.4V143z M156.3,140.2v-0.8c0-0.4-0.1-0.8-0.4-1.1s-0.6-0.4-1.1-0.4
			c-0.5,0-0.9,0.2-1.2,0.6s-0.4,0.9-0.4,1.6c0,0.6,0.1,1.1,0.4,1.4s0.7,0.5,1.1,0.5c0.5,0,0.8-0.2,1.1-0.5S156.3,140.7,156.3,140.2z
			"/>
		<path class="st1" d="M159.1,142.8v-1.3c0.5,0.4,1.1,0.6,1.7,0.6c0.8,0,1.2-0.2,1.2-0.7c0-0.1,0-0.3-0.1-0.3s-0.2-0.2-0.3-0.3
			s-0.3-0.1-0.4-0.2s-0.3-0.1-0.5-0.2c-0.2-0.1-0.5-0.2-0.7-0.3s-0.4-0.2-0.5-0.4s-0.2-0.3-0.3-0.5s-0.1-0.4-0.1-0.6
			c0-0.3,0.1-0.5,0.2-0.8s0.3-0.4,0.6-0.6s0.5-0.3,0.8-0.3s0.6-0.1,0.9-0.1c0.6,0,1.1,0.1,1.5,0.3v1.2c-0.4-0.3-0.9-0.4-1.5-0.4
			c-0.2,0-0.3,0-0.5,0.1s-0.3,0.1-0.4,0.1s-0.2,0.1-0.2,0.2s-0.1,0.2-0.1,0.3c0,0.1,0,0.2,0.1,0.3s0.1,0.2,0.2,0.2s0.2,0.1,0.4,0.2
			s0.3,0.1,0.5,0.2c0.3,0.1,0.5,0.2,0.7,0.3s0.4,0.2,0.5,0.4s0.3,0.3,0.3,0.5s0.1,0.4,0.1,0.6c0,0.3-0.1,0.6-0.2,0.8
			s-0.3,0.4-0.6,0.6s-0.5,0.3-0.8,0.3s-0.6,0.1-1,0.1C160.1,143.1,159.6,143,159.1,142.8z"/>
	</g>
</g>
<g>
	<g class="st0">
	</g>
</g>
<g class="st0">
	<g class="st0">
		<path class="st1" d="M67.8,157.6c-0.6,0.3-1.4,0.5-2.3,0.5c-1.2,0-2.2-0.4-2.9-1.2s-1.1-1.8-1.1-3c0-1.3,0.4-2.4,1.2-3.3
			s1.8-1.2,3.1-1.2c0.8,0,1.5,0.1,2,0.3v1c-0.6-0.3-1.3-0.5-2-0.5c-1,0-1.7,0.3-2.3,1s-0.9,1.5-0.9,2.6c0,1,0.3,1.8,0.8,2.4
			s1.3,0.9,2.2,0.9c0.8,0,1.6-0.2,2.2-0.6V157.6z"/>
		<path class="st1" d="M69.9,150.5c-0.2,0-0.3-0.1-0.4-0.2s-0.2-0.3-0.2-0.4s0.1-0.3,0.2-0.4s0.3-0.2,0.4-0.2c0.2,0,0.3,0.1,0.4,0.2
			s0.2,0.3,0.2,0.4c0,0.2-0.1,0.3-0.2,0.4S70.1,150.5,69.9,150.5z M70.4,158h-1v-6h1V158z"/>
		<path class="st1" d="M75.1,157.9c-0.2,0.1-0.5,0.2-0.9,0.2c-1.1,0-1.6-0.6-1.6-1.8v-3.6h-1V152h1v-1.5l1-0.3v1.8h1.5v0.8h-1.5v3.4
			c0,0.4,0.1,0.7,0.2,0.9s0.4,0.3,0.7,0.3c0.2,0,0.5-0.1,0.6-0.2V157.9z"/>
		<path class="st1" d="M81.2,152l-2.8,7c-0.5,1.2-1.2,1.9-2.1,1.9c-0.2,0-0.5,0-0.6-0.1v-0.9c0.2,0.1,0.4,0.1,0.6,0.1
			c0.5,0,0.8-0.3,1.1-0.9l0.5-1.1l-2.3-6h1.1l1.6,4.6c0,0.1,0.1,0.2,0.1,0.5h0c0-0.1,0.1-0.2,0.1-0.4l1.7-4.6H81.2z"/>
		<path class="st1" d="M91.3,157.6c-0.6,0.3-1.4,0.5-2.3,0.5c-1.2,0-2.2-0.4-2.9-1.2s-1.1-1.8-1.1-3c0-1.3,0.4-2.4,1.2-3.3
			s1.8-1.2,3.1-1.2c0.8,0,1.5,0.1,2,0.3v1c-0.6-0.3-1.3-0.5-2-0.5c-1,0-1.7,0.3-2.3,1s-0.9,1.5-0.9,2.6c0,1,0.3,1.8,0.8,2.4
			s1.3,0.9,2.2,0.9c0.8,0,1.6-0.2,2.2-0.6V157.6z"/>
		<path class="st1" d="M97.7,155.2h-4.2c0,0.7,0.2,1.2,0.5,1.5s0.8,0.5,1.4,0.5c0.7,0,1.3-0.2,1.9-0.7v0.9c-0.5,0.4-1.2,0.6-2.1,0.6
			c-0.8,0-1.5-0.3-2-0.8s-0.7-1.3-0.7-2.3c0-0.9,0.3-1.7,0.8-2.3s1.2-0.9,2-0.9s1.4,0.3,1.8,0.8s0.6,1.2,0.6,2.1V155.2z M96.8,154.4
			c0-0.6-0.1-1-0.4-1.3s-0.6-0.5-1.1-0.5c-0.5,0-0.8,0.2-1.2,0.5s-0.5,0.7-0.6,1.3H96.8z"/>
		<path class="st1" d="M104.2,158h-1v-3.4c0-1.3-0.5-1.9-1.4-1.9c-0.5,0-0.9,0.2-1.2,0.5s-0.5,0.8-0.5,1.4v3.4h-1v-6h1v1h0
			c0.5-0.8,1.1-1.1,2-1.1c0.7,0,1.2,0.2,1.5,0.6s0.5,1,0.5,1.8V158z"/>
		<path class="st1" d="M108.8,157.9c-0.2,0.1-0.5,0.2-0.9,0.2c-1.1,0-1.6-0.6-1.6-1.8v-3.6h-1V152h1v-1.5l1-0.3v1.8h1.5v0.8h-1.5
			v3.4c0,0.4,0.1,0.7,0.2,0.9s0.4,0.3,0.7,0.3c0.2,0,0.5-0.1,0.6-0.2V157.9z"/>
		<path class="st1" d="M114.8,155.2h-4.2c0,0.7,0.2,1.2,0.5,1.5s0.8,0.5,1.4,0.5c0.7,0,1.3-0.2,1.9-0.7v0.9
			c-0.5,0.4-1.2,0.6-2.1,0.6c-0.8,0-1.5-0.3-2-0.8s-0.7-1.3-0.7-2.3c0-0.9,0.3-1.7,0.8-2.3s1.2-0.9,2-0.9s1.4,0.3,1.8,0.8
			s0.6,1.2,0.6,2.1V155.2z M113.8,154.4c0-0.6-0.1-1-0.4-1.3s-0.6-0.5-1.1-0.5c-0.5,0-0.8,0.2-1.2,0.5s-0.5,0.7-0.6,1.3H113.8z"/>
		<path class="st1" d="M119.4,153c-0.2-0.1-0.4-0.2-0.7-0.2c-0.4,0-0.8,0.2-1,0.6s-0.4,0.9-0.4,1.6v3.1h-1v-6h1v1.2h0
			c0.1-0.4,0.3-0.8,0.6-1s0.6-0.4,0.9-0.4c0.2,0,0.4,0,0.6,0.1V153z"/>
		<path class="st1" d="M127.5,149.6l-4,9.8h-0.9l4-9.8H127.5z"/>
		<path class="st1" d="M136.7,155.3c0,0.4-0.1,0.8-0.2,1.1s-0.3,0.6-0.6,0.9s-0.5,0.4-0.8,0.6s-0.7,0.2-1.1,0.2
			c-0.4,0-0.8-0.1-1.1-0.3s-0.6-0.4-0.8-0.8s-0.4-0.7-0.5-1.2s-0.2-1-0.2-1.6c0-0.7,0.1-1.4,0.2-2s0.4-1.1,0.7-1.5s0.7-0.8,1.1-1
			s0.9-0.3,1.4-0.3c0.6,0,1,0.1,1.4,0.2v0.9c-0.4-0.2-0.9-0.3-1.4-0.3c-0.4,0-0.7,0.1-1,0.3s-0.6,0.4-0.8,0.7s-0.4,0.7-0.5,1.1
			s-0.2,0.9-0.2,1.4h0c0.4-0.7,1-1,1.9-1c0.4,0,0.7,0.1,1,0.2s0.5,0.3,0.8,0.5s0.4,0.5,0.5,0.8S136.7,154.9,136.7,155.3z
			 M135.7,155.5c0-0.3,0-0.6-0.1-0.8s-0.2-0.4-0.3-0.6s-0.3-0.3-0.5-0.4s-0.4-0.1-0.7-0.1c-0.2,0-0.5,0-0.7,0.1s-0.4,0.2-0.5,0.4
			s-0.3,0.3-0.3,0.5s-0.1,0.4-0.1,0.7c0,0.3,0,0.6,0.1,0.8s0.2,0.5,0.3,0.7s0.3,0.3,0.5,0.4s0.4,0.2,0.7,0.2c0.2,0,0.5,0,0.7-0.1
			s0.4-0.2,0.5-0.4s0.2-0.4,0.3-0.6S135.7,155.7,135.7,155.5z"/>
		<path class="st1" d="M143.1,153.8c0,0.7-0.1,1.3-0.2,1.9s-0.3,1-0.6,1.4s-0.5,0.7-0.9,0.8s-0.7,0.3-1.2,0.3
			c-0.4,0-0.8-0.1-1.1-0.3s-0.6-0.5-0.8-0.8s-0.4-0.8-0.5-1.3s-0.2-1.1-0.2-1.8c0-0.7,0.1-1.4,0.2-1.9s0.3-1,0.5-1.4
			s0.5-0.7,0.9-0.9s0.8-0.3,1.2-0.3C142.2,149.5,143.1,150.9,143.1,153.8z M142.1,153.9c0-2.4-0.6-3.6-1.7-3.6
			c-1.2,0-1.8,1.2-1.8,3.7c0,2.3,0.6,3.4,1.8,3.4C141.6,157.3,142.1,156.2,142.1,153.9z"/>
		<path class="st1" d="M149.6,153.8c0,0.7-0.1,1.3-0.2,1.9s-0.3,1-0.6,1.4s-0.5,0.7-0.9,0.8s-0.7,0.3-1.2,0.3
			c-0.4,0-0.8-0.1-1.1-0.3s-0.6-0.5-0.8-0.8s-0.4-0.8-0.5-1.3s-0.2-1.1-0.2-1.8c0-0.7,0.1-1.4,0.2-1.9s0.3-1,0.5-1.4
			s0.5-0.7,0.9-0.9s0.8-0.3,1.2-0.3C148.7,149.5,149.6,150.9,149.6,153.8z M148.6,153.9c0-2.4-0.6-3.6-1.7-3.6
			c-1.2,0-1.8,1.2-1.8,3.7c0,2.3,0.6,3.4,1.8,3.4C148,157.3,148.6,156.2,148.6,153.9z"/>
		<path class="st1" d="M156.1,155.3c0,0.4-0.1,0.8-0.2,1.1s-0.3,0.6-0.6,0.9s-0.5,0.4-0.8,0.6s-0.7,0.2-1.1,0.2
			c-0.4,0-0.8-0.1-1.1-0.3s-0.6-0.4-0.8-0.8s-0.4-0.7-0.5-1.2s-0.2-1-0.2-1.6c0-0.7,0.1-1.4,0.2-2s0.4-1.1,0.7-1.5s0.7-0.8,1.1-1
			s0.9-0.3,1.4-0.3c0.6,0,1,0.1,1.4,0.2v0.9c-0.4-0.2-0.9-0.3-1.4-0.3c-0.4,0-0.7,0.1-1,0.3s-0.6,0.4-0.8,0.7s-0.4,0.7-0.5,1.1
			s-0.2,0.9-0.2,1.4h0c0.4-0.7,1-1,1.9-1c0.4,0,0.7,0.1,1,0.2s0.5,0.3,0.8,0.5s0.4,0.5,0.5,0.8S156.1,154.9,156.1,155.3z
			 M155.1,155.5c0-0.3,0-0.6-0.1-0.8s-0.2-0.4-0.3-0.6s-0.3-0.3-0.5-0.4s-0.4-0.1-0.7-0.1c-0.2,0-0.5,0-0.7,0.1s-0.4,0.2-0.5,0.4
			s-0.3,0.3-0.3,0.5s-0.1,0.4-0.1,0.7c0,0.3,0,0.6,0.1,0.8s0.2,0.5,0.3,0.7s0.3,0.3,0.5,0.4s0.4,0.2,0.7,0.2c0.2,0,0.5,0,0.7-0.1
			s0.4-0.2,0.5-0.4s0.2-0.4,0.3-0.6S155.1,155.7,155.1,155.5z"/>
	</g>
</g>
<g class="st0">
	<g class="st0">
		<path class="st1" d="M0.7,142.6v-1.3c0.5,0.4,1.2,0.7,1.9,0.7c0.6,0,1-0.1,1.3-0.4s0.5-0.6,0.5-1c0-1-0.7-1.4-2.2-1.4H1.6v-1.1
			h0.6c1.3,0,1.9-0.4,1.9-1.3c0-0.8-0.5-1.2-1.5-1.2c-0.6,0-1.1,0.2-1.6,0.6v-1.2c0.6-0.3,1.2-0.5,2-0.5c0.7,0,1.3,0.2,1.8,0.6
			s0.7,0.9,0.7,1.4c0,1.1-0.6,1.8-1.7,2.1v0c0.6,0.1,1.1,0.3,1.4,0.6s0.5,0.8,0.5,1.4c0,0.8-0.3,1.4-0.8,1.8s-1.3,0.7-2.2,0.7
			C1.9,143.1,1.2,142.9,0.7,142.6z"/>
		<path class="st1" d="M8.1,138.5c-0.2,0-0.4-0.1-0.6-0.2s-0.2-0.3-0.2-0.6c0-0.2,0.1-0.4,0.2-0.6s0.4-0.2,0.6-0.2
			c0.2,0,0.4,0.1,0.6,0.2s0.2,0.3,0.2,0.6c0,0.2-0.1,0.4-0.2,0.6S8.3,138.5,8.1,138.5z M8.1,143.1c-0.2,0-0.4-0.1-0.6-0.2
			s-0.2-0.3-0.2-0.6c0-0.2,0.1-0.4,0.2-0.6s0.4-0.2,0.6-0.2c0.2,0,0.4,0.1,0.6,0.2s0.2,0.3,0.2,0.6c0,0.2-0.1,0.4-0.2,0.6
			S8.3,143.1,8.1,143.1z"/>
		<path class="st1" d="M12.8,143.1c-0.9,0-1.6-0.4-2-1.1s-0.7-1.7-0.7-3.1c0-1.5,0.3-2.6,0.8-3.4s1.2-1.1,2.2-1.1
			c1.8,0,2.8,1.4,2.8,4.3c0,1.4-0.3,2.5-0.8,3.3S13.7,143.1,12.8,143.1z M12.9,135.5c-1,0-1.5,1.1-1.5,3.4c0,2.1,0.5,3.2,1.5,3.2
			c1,0,1.5-1.1,1.5-3.2C14.4,136.6,13.9,135.5,12.9,135.5z"/>
		<path class="st1" d="M19.5,143.1c-0.9,0-1.6-0.4-2-1.1s-0.7-1.7-0.7-3.1c0-1.5,0.3-2.6,0.8-3.4s1.2-1.1,2.2-1.1
			c1.8,0,2.8,1.4,2.8,4.3c0,1.4-0.3,2.5-0.8,3.3S20.4,143.1,19.5,143.1z M19.6,135.5c-1,0-1.5,1.1-1.5,3.4c0,2.1,0.5,3.2,1.5,3.2
			c1,0,1.5-1.1,1.5-3.2C21,136.6,20.6,135.5,19.6,135.5z"/>
		<path class="st1" d="M28.6,139.9v3h-1.4v-8.4h2.5c1,0,1.7,0.2,2.2,0.7s0.8,1.1,0.8,1.9s-0.3,1.5-0.8,2s-1.3,0.8-2.2,0.8H28.6z
			 M28.6,135.7v3.1h0.9c0.6,0,1.1-0.1,1.4-0.4s0.5-0.7,0.5-1.2c0-1-0.6-1.5-1.7-1.5H28.6z"/>
		<path class="st1" d="M43.3,143h-1.4v-5.4c0-0.4,0-1,0.1-1.6h0c-0.1,0.4-0.2,0.6-0.2,0.8l-2.5,6.3h-1l-2.5-6.2
			c-0.1-0.2-0.1-0.5-0.2-0.8h0c0,0.3,0,0.9,0,1.6v5.4h-1.3v-8.4h2l2.2,5.6c0.2,0.4,0.3,0.8,0.3,1h0c0.1-0.4,0.3-0.8,0.4-1l2.2-5.6
			h1.9V143z"/>
	</g>
</g>
<g>
	<g class="st0">
	</g>
</g>
<g class="st0">
	<g class="st0">
		<path class="st1" d="M5.6,155.6c0,0.4-0.1,0.7-0.2,1s-0.3,0.6-0.6,0.8s-0.6,0.4-0.9,0.5s-0.8,0.2-1.2,0.2c-0.8,0-1.4-0.2-1.9-0.5
			v-1c0.6,0.4,1.2,0.7,1.9,0.7c0.3,0,0.6,0,0.8-0.1s0.4-0.2,0.6-0.3s0.3-0.3,0.4-0.5s0.1-0.4,0.1-0.7c0-1.1-0.8-1.6-2.3-1.6H1.6
			v-0.8h0.7c1.4,0,2.1-0.5,2.1-1.5c0-1-0.5-1.4-1.6-1.4c-0.6,0-1.2,0.2-1.7,0.6v-0.9c0.5-0.3,1.2-0.5,1.9-0.5c0.4,0,0.7,0,1,0.1
			s0.5,0.2,0.7,0.4s0.4,0.4,0.5,0.6s0.2,0.5,0.2,0.8c0,1.1-0.6,1.8-1.7,2.1v0c0.3,0,0.5,0.1,0.8,0.2s0.5,0.2,0.6,0.4
			s0.3,0.4,0.4,0.6S5.6,155.3,5.6,155.6z"/>
		<path class="st1" d="M12.5,153.8c0,0.7-0.1,1.3-0.2,1.9s-0.3,1-0.6,1.4s-0.5,0.7-0.9,0.8s-0.7,0.3-1.2,0.3c-0.4,0-0.8-0.1-1.1-0.3
			s-0.6-0.5-0.8-0.8s-0.4-0.8-0.5-1.3S7,154.6,7,154c0-0.7,0.1-1.4,0.2-1.9s0.3-1,0.5-1.4s0.5-0.7,0.9-0.9s0.8-0.3,1.2-0.3
			C11.6,149.5,12.5,150.9,12.5,153.8z M11.5,153.9c0-2.4-0.6-3.6-1.7-3.6c-1.2,0-1.8,1.2-1.8,3.7c0,2.3,0.6,3.4,1.8,3.4
			C10.9,157.3,11.5,156.2,11.5,153.9z"/>
		<path class="st1" d="M25.7,158h-1v-3.4c0-0.7-0.1-1.1-0.3-1.4s-0.5-0.4-1-0.4c-0.4,0-0.8,0.2-1,0.6s-0.4,0.8-0.4,1.3v3.4h-1v-3.6
			c0-1.2-0.5-1.8-1.4-1.8c-0.4,0-0.8,0.2-1,0.5s-0.4,0.8-0.4,1.4v3.4h-1v-6h1v0.9h0c0.4-0.7,1-1.1,1.9-1.1c0.4,0,0.8,0.1,1.1,0.3
			s0.5,0.5,0.6,0.9c0.4-0.8,1.1-1.2,2-1.2c1.3,0,2,0.8,2,2.4V158z"/>
		<path class="st1" d="M28,150.5c-0.2,0-0.3-0.1-0.4-0.2s-0.2-0.3-0.2-0.4s0.1-0.3,0.2-0.4s0.3-0.2,0.4-0.2c0.2,0,0.3,0.1,0.4,0.2
			s0.2,0.3,0.2,0.4c0,0.2-0.1,0.3-0.2,0.4S28.2,150.5,28,150.5z M28.5,158h-1v-6h1V158z"/>
		<path class="st1" d="M35.4,158h-1v-3.4c0-1.3-0.5-1.9-1.4-1.9c-0.5,0-0.9,0.2-1.2,0.5s-0.5,0.8-0.5,1.4v3.4h-1v-6h1v1h0
			c0.5-0.8,1.1-1.1,2-1.1c0.7,0,1.2,0.2,1.5,0.6s0.5,1,0.5,1.8V158z"/>
	</g>
</g>
<g class="st0">
	<path class="st2" d="M5.8,77H0.6v-0.7c0-0.3,0-0.5,0.1-0.7s0.2-0.5,0.3-0.7s0.3-0.4,0.4-0.6S1.8,74,2,73.8s0.4-0.3,0.6-0.5
		s0.4-0.3,0.6-0.5c0.2-0.2,0.3-0.3,0.5-0.4S3.9,72.1,4,72s0.2-0.3,0.2-0.5s0.1-0.4,0.1-0.6c0-0.2,0-0.4-0.1-0.6S4.1,70,4,69.9
		s-0.3-0.2-0.4-0.3S3.2,69.6,3,69.6c-0.3,0-0.7,0.1-1,0.2s-0.7,0.4-1,0.7v-1.3c0.2-0.1,0.3-0.2,0.5-0.3s0.4-0.2,0.5-0.2
		s0.4-0.1,0.6-0.1s0.4,0,0.7,0c0.4,0,0.7,0,1,0.1S4.8,68.9,5,69s0.4,0.4,0.5,0.7s0.2,0.6,0.2,1c0,0.3,0,0.6-0.1,0.9
		s-0.2,0.5-0.4,0.8s-0.3,0.5-0.6,0.7s-0.5,0.4-0.7,0.7c-0.2,0.2-0.5,0.4-0.7,0.5s-0.4,0.3-0.6,0.5s-0.3,0.3-0.4,0.5
		s-0.2,0.3-0.2,0.5v0h3.8V77z"/>
	<path class="st2" d="M8.1,72.5c-0.2,0-0.4-0.1-0.6-0.2s-0.2-0.3-0.2-0.6c0-0.2,0.1-0.4,0.2-0.6s0.4-0.2,0.6-0.2
		c0.2,0,0.4,0.1,0.6,0.2S9,71.5,9,71.7c0,0.2-0.1,0.4-0.2,0.6S8.3,72.5,8.1,72.5z M8.1,77.1c-0.2,0-0.4-0.1-0.6-0.2
		s-0.2-0.3-0.2-0.6c0-0.2,0.1-0.4,0.2-0.6s0.4-0.2,0.6-0.2c0.2,0,0.4,0.1,0.6,0.2S9,76.1,9,76.3c0,0.2-0.1,0.4-0.2,0.6
		S8.3,77.1,8.1,77.1z"/>
	<path class="st2" d="M12.8,77.1c-0.9,0-1.6-0.4-2-1.1S10,74.3,10,73c0-1.5,0.3-2.6,0.8-3.4s1.2-1.1,2.2-1.1c1.8,0,2.8,1.4,2.8,4.3
		c0,1.4-0.3,2.5-0.8,3.3S13.7,77.1,12.8,77.1z M12.9,69.5c-1,0-1.5,1.1-1.5,3.4c0,2.1,0.5,3.2,1.5,3.2c1,0,1.5-1.1,1.5-3.2
		C14.4,70.6,13.9,69.5,12.9,69.5z"/>
	<path class="st2" d="M19.5,77.1c-0.9,0-1.6-0.4-2-1.1s-0.7-1.7-0.7-3.1c0-1.5,0.3-2.6,0.8-3.4s1.2-1.1,2.2-1.1
		c1.8,0,2.8,1.4,2.8,4.3c0,1.4-0.3,2.5-0.8,3.3S20.4,77.1,19.5,77.1z M19.6,69.5c-1,0-1.5,1.1-1.5,3.4c0,2.1,0.5,3.2,1.5,3.2
		c1,0,1.5-1.1,1.5-3.2C21,70.6,20.6,69.5,19.6,69.5z"/>
	<path class="st2" d="M28.6,74v3h-1.4v-8.4h2.5c1,0,1.7,0.2,2.2,0.7s0.8,1.1,0.8,1.9s-0.3,1.5-0.8,2S30.7,74,29.7,74H28.6z
		 M28.6,69.7v3.1h0.9c0.6,0,1.1-0.1,1.4-0.4s0.5-0.7,0.5-1.2c0-1-0.6-1.5-1.7-1.5H28.6z"/>
	<path class="st2" d="M43.3,77h-1.4v-5.4c0-0.4,0-1,0.1-1.6h0c-0.1,0.4-0.2,0.6-0.2,0.8L39.2,77h-1l-2.5-6.2
		c-0.1-0.2-0.1-0.5-0.2-0.8h0c0,0.3,0,0.9,0,1.6V77h-1.3v-8.4h2l2.2,5.6c0.2,0.4,0.3,0.8,0.3,1h0c0.1-0.4,0.3-0.8,0.4-1l2.2-5.6h1.9
		V77z"/>
</g>
<g class="st0">
</g>
<g class="st0">
	<path class="st2" d="M4.3,92h-1v-7.3C3.2,84.9,3.1,84.9,3,85s-0.3,0.2-0.5,0.3s-0.4,0.2-0.6,0.3s-0.4,0.1-0.6,0.2v-1
		c0.2-0.1,0.4-0.1,0.7-0.2s0.5-0.2,0.7-0.3s0.4-0.3,0.6-0.4s0.4-0.3,0.5-0.4h0.4V92z"/>
	<path class="st2" d="M15.7,92h-1v-3.5c0-1.2-0.5-1.9-1.4-1.9c-0.5,0-0.9,0.2-1.2,0.5s-0.5,0.8-0.5,1.4V92h-1v-8.9h1V87h0
		c0.5-0.8,1.1-1.1,2-1.1c1.4,0,2,0.8,2,2.4V92z"/>
	<path class="st2" d="M20.7,87c-0.2-0.1-0.4-0.2-0.7-0.2c-0.4,0-0.8,0.2-1,0.6s-0.4,0.9-0.4,1.6V92h-1v-6h1v1.2h0
		c0.1-0.4,0.3-0.8,0.6-1s0.6-0.4,0.9-0.4c0.2,0,0.4,0,0.6,0.1V87z"/>
</g>
<g class="st0">
	<path class="st2" d="M68.9,85h-1.5l-0.8-2.1h-3.3L62.6,85h-1.5l3.1-8.4h1.6L68.9,85z M66.3,81.7l-1.2-3.4c0-0.1-0.1-0.3-0.1-0.5h0
		c0,0.2-0.1,0.4-0.1,0.5l-1.2,3.4H66.3z"/>
	<path class="st2" d="M74.9,79l-2.3,6h-1.5l-2.2-6h1.5l1.3,4.2c0.1,0.3,0.2,0.6,0.2,0.8h0c0-0.3,0.1-0.6,0.2-0.8l1.4-4.2H74.9z"/>
	<path class="st2" d="M80.2,85h-1.3v-0.9h0c-0.4,0.7-1,1.1-1.8,1.1c-0.6,0-1.1-0.2-1.4-0.5s-0.5-0.7-0.5-1.3c0-1.1,0.7-1.8,2-2
		l1.8-0.3c0-0.9-0.4-1.3-1.2-1.3c-0.7,0-1.4,0.2-1.9,0.7v-1.2c0.6-0.4,1.4-0.6,2.2-0.6c1.5,0,2.3,0.7,2.3,2.2V85z M78.9,82.1
		l-1.3,0.2c-0.4,0.1-0.7,0.1-0.9,0.3s-0.3,0.4-0.3,0.7c0,0.3,0.1,0.5,0.3,0.6s0.4,0.2,0.7,0.2c0.4,0,0.8-0.1,1-0.4s0.4-0.7,0.4-1.1
		V82.1z"/>
	<path class="st2" d="M82.5,77.7c-0.2,0-0.4-0.1-0.6-0.2s-0.2-0.3-0.2-0.6s0.1-0.4,0.2-0.6s0.3-0.2,0.6-0.2c0.2,0,0.4,0.1,0.6,0.2
		s0.2,0.3,0.2,0.6c0,0.2-0.1,0.4-0.2,0.5S82.8,77.7,82.5,77.7z M83.2,85h-1.4v-6h1.4V85z"/>
	<path class="st2" d="M86.3,85H85v-8.9h1.4V85z"/>
	<path class="st2" d="M92.7,85h-1.3v-0.9h0c-0.4,0.7-1,1.1-1.8,1.1c-0.6,0-1.1-0.2-1.4-0.5s-0.5-0.7-0.5-1.3c0-1.1,0.7-1.8,2-2
		l1.8-0.3c0-0.9-0.4-1.3-1.2-1.3c-0.7,0-1.4,0.2-1.9,0.7v-1.2c0.6-0.4,1.4-0.6,2.2-0.6c1.5,0,2.3,0.7,2.3,2.2V85z M91.4,82.1
		l-1.3,0.2c-0.4,0.1-0.7,0.1-0.9,0.3S89,82.9,89,83.2c0,0.3,0.1,0.5,0.3,0.6s0.4,0.2,0.7,0.2c0.4,0,0.8-0.1,1-0.4s0.4-0.7,0.4-1.1
		V82.1z"/>
	<path class="st2" d="M95.8,84.1L95.8,84.1l0,0.9h-1.4v-8.9h1.4v3.9h0c0.5-0.8,1.1-1.2,2-1.2c0.8,0,1.4,0.3,1.8,0.8s0.6,1.3,0.6,2.2
		c0,1-0.2,1.8-0.7,2.4s-1.1,0.9-2,0.9C96.7,85.1,96.2,84.8,95.8,84.1z M95.7,81.7v0.7c0,0.4,0.1,0.8,0.4,1.1s0.6,0.5,1.1,0.5
		c0.5,0,0.9-0.2,1.2-0.6s0.4-0.9,0.4-1.6c0-0.6-0.1-1.1-0.4-1.4s-0.6-0.5-1.1-0.5c-0.5,0-0.9,0.2-1.2,0.5S95.7,81.2,95.7,81.7z"/>
	<path class="st2" d="M103,85h-1.4v-8.9h1.4V85z"/>
	<path class="st2" d="M109.8,82.4h-4.1c0,0.6,0.2,1,0.5,1.3s0.8,0.5,1.3,0.5c0.6,0,1.2-0.2,1.8-0.6v1.1c-0.5,0.3-1.3,0.5-2.2,0.5
		c-0.9,0-1.6-0.3-2.1-0.8s-0.8-1.3-0.8-2.3c0-0.9,0.3-1.7,0.8-2.3s1.2-0.9,2.1-0.9s1.5,0.3,1.9,0.8s0.7,1.3,0.7,2.2V82.4z
		 M108.5,81.4c0-0.5-0.1-0.9-0.3-1.1s-0.5-0.4-0.9-0.4c-0.4,0-0.7,0.1-1,0.4s-0.4,0.7-0.5,1.1H108.5z"/>
	<path class="st2" d="M117.6,84.9c-0.3,0.1-0.6,0.2-1,0.2c-1.2,0-1.7-0.6-1.7-1.7v-3.4h-1V79h1v-1.4l1.4-0.4V79h1.4v1.1h-1.4v3
		c0,0.4,0.1,0.6,0.2,0.8s0.3,0.2,0.6,0.2c0.2,0,0.4-0.1,0.6-0.2V84.9z"/>
	<path class="st2" d="M119.4,77.7c-0.2,0-0.4-0.1-0.6-0.2s-0.2-0.3-0.2-0.6s0.1-0.4,0.2-0.6s0.3-0.2,0.6-0.2c0.2,0,0.4,0.1,0.6,0.2
		s0.2,0.3,0.2,0.6c0,0.2-0.1,0.4-0.2,0.5S119.7,77.7,119.4,77.7z M120.1,85h-1.4v-6h1.4V85z"/>
	<path class="st2" d="M130.8,85h-1.4v-3.3c0-0.6-0.1-1.1-0.3-1.4s-0.5-0.4-0.9-0.4c-0.4,0-0.7,0.2-0.9,0.5s-0.4,0.8-0.4,1.3V85h-1.4
		v-3.4c0-1.1-0.4-1.7-1.2-1.7c-0.4,0-0.7,0.2-0.9,0.5s-0.4,0.8-0.4,1.3V85h-1.4v-6h1.4v0.9h0c0.4-0.7,1.1-1.1,1.9-1.1
		c0.4,0,0.8,0.1,1.1,0.3s0.5,0.5,0.6,0.9c0.4-0.8,1.1-1.2,2-1.2c1.3,0,2,0.8,2,2.4V85z"/>
	<path class="st2" d="M137.6,82.4h-4.1c0,0.6,0.2,1,0.5,1.3s0.8,0.5,1.3,0.5c0.6,0,1.2-0.2,1.8-0.6v1.1c-0.5,0.3-1.3,0.5-2.2,0.5
		c-0.9,0-1.6-0.3-2.1-0.8s-0.8-1.3-0.8-2.3c0-0.9,0.3-1.7,0.8-2.3s1.2-0.9,2.1-0.9s1.5,0.3,1.9,0.8s0.7,1.3,0.7,2.2V82.4z
		 M136.3,81.4c0-0.5-0.1-0.9-0.3-1.1s-0.5-0.4-0.9-0.4c-0.4,0-0.7,0.1-1,0.4s-0.4,0.7-0.5,1.1H136.3z"/>
	<path class="st2" d="M141.8,84.8v-1.3c0.5,0.4,1.1,0.6,1.7,0.6c0.8,0,1.2-0.2,1.2-0.7c0-0.1,0-0.3-0.1-0.3s-0.2-0.2-0.3-0.3
		s-0.3-0.1-0.4-0.2s-0.3-0.1-0.5-0.2c-0.2-0.1-0.5-0.2-0.7-0.3s-0.4-0.2-0.5-0.4s-0.2-0.3-0.3-0.5s-0.1-0.4-0.1-0.6
		c0-0.3,0.1-0.5,0.2-0.8s0.3-0.4,0.6-0.6s0.5-0.3,0.8-0.3s0.6-0.1,0.9-0.1c0.6,0,1.1,0.1,1.5,0.3v1.2c-0.4-0.3-0.9-0.4-1.5-0.4
		c-0.2,0-0.3,0-0.5,0.1s-0.3,0.1-0.4,0.1s-0.2,0.1-0.2,0.2s-0.1,0.2-0.1,0.3c0,0.1,0,0.2,0.1,0.3s0.1,0.2,0.2,0.2s0.2,0.1,0.4,0.2
		s0.3,0.1,0.5,0.2c0.3,0.1,0.5,0.2,0.7,0.3s0.4,0.2,0.5,0.4s0.3,0.3,0.3,0.5s0.1,0.4,0.1,0.6c0,0.3-0.1,0.6-0.2,0.8
		s-0.3,0.4-0.6,0.6s-0.5,0.3-0.8,0.3s-0.6,0.1-1,0.1C142.9,85.1,142.3,85,141.8,84.8z"/>
	<path class="st2" d="M148.7,85h-1.4v-8.9h1.4V85z"/>
	<path class="st2" d="M153.2,85.1c-0.9,0-1.7-0.3-2.2-0.8s-0.8-1.3-0.8-2.2c0-1,0.3-1.8,0.9-2.4s1.4-0.8,2.3-0.8
		c0.9,0,1.7,0.3,2.2,0.8s0.8,1.3,0.8,2.3c0,1-0.3,1.7-0.8,2.3S154.1,85.1,153.2,85.1z M153.2,79.9c-0.5,0-1,0.2-1.3,0.6
		s-0.5,0.9-0.5,1.5c0,0.6,0.2,1.1,0.5,1.5s0.7,0.5,1.3,0.5c0.5,0,0.9-0.2,1.2-0.5s0.4-0.9,0.4-1.5c0-0.7-0.1-1.2-0.4-1.5
		S153.8,79.9,153.2,79.9z"/>
	<path class="st2" d="M160.8,84.9c-0.3,0.1-0.6,0.2-1,0.2c-1.2,0-1.7-0.6-1.7-1.7v-3.4h-1V79h1v-1.4l1.4-0.4V79h1.4v1.1h-1.4v3
		c0,0.4,0.1,0.6,0.2,0.8s0.3,0.2,0.6,0.2c0.2,0,0.4-0.1,0.6-0.2V84.9z"/>
</g>
<g class="st0">
	<g class="st0">
		<path class="st1" d="M3.6,1.4V10H2.2V3.1C2,3.2,1.7,3.4,1.5,3.5s-0.6,0.2-1,0.3V2.7c0.2-0.1,0.4-0.2,0.7-0.2s0.4-0.2,0.6-0.3
			S2.2,2,2.4,1.8S2.8,1.6,3,1.4H3.6z"/>
		<path class="st1" d="M6.3,5.5C6,5.5,5.8,5.4,5.7,5.3S5.4,4.9,5.4,4.7c0-0.2,0.1-0.4,0.2-0.6S6,3.9,6.3,3.9c0.2,0,0.4,0.1,0.6,0.2
			s0.2,0.3,0.2,0.6c0,0.2-0.1,0.4-0.2,0.6S6.5,5.5,6.3,5.5z M6.3,10.1c-0.2,0-0.4-0.1-0.6-0.2S5.4,9.6,5.4,9.3
			c0-0.2,0.1-0.4,0.2-0.6S6,8.5,6.3,8.5c0.2,0,0.4,0.1,0.6,0.2s0.2,0.3,0.2,0.6c0,0.2-0.1,0.4-0.2,0.6S6.5,10.1,6.3,10.1z"/>
		<path class="st1" d="M11,10.1c-0.9,0-1.6-0.4-2-1.1S8.2,7.3,8.2,6c0-1.5,0.3-2.6,0.8-3.4s1.2-1.1,2.2-1.1c1.8,0,2.8,1.4,2.8,4.3
			c0,1.4-0.3,2.5-0.8,3.3S11.9,10.1,11,10.1z M11.1,2.5c-1,0-1.5,1.1-1.5,3.4c0,2.1,0.5,3.2,1.5,3.2c1,0,1.5-1.1,1.5-3.2
			C12.5,3.6,12.1,2.5,11.1,2.5z"/>
		<path class="st1" d="M17.6,10.1c-0.9,0-1.6-0.4-2-1.1S14.8,7.3,14.8,6c0-1.5,0.3-2.6,0.8-3.4s1.2-1.1,2.2-1.1
			c1.8,0,2.8,1.4,2.8,4.3c0,1.4-0.3,2.5-0.8,3.3S18.6,10.1,17.6,10.1z M17.8,2.5c-1,0-1.5,1.1-1.5,3.4c0,2.1,0.5,3.2,1.5,3.2
			c1,0,1.5-1.1,1.5-3.2C19.2,3.6,18.7,2.5,17.8,2.5z"/>
		<path class="st1" d="M26.8,7v3h-1.4V1.6h2.5c1,0,1.7,0.2,2.2,0.7S31,3.4,31,4.2s-0.3,1.5-0.8,2S28.8,7,27.9,7H26.8z M26.8,2.7v3.1
			h0.9c0.6,0,1.1-0.1,1.4-0.4s0.5-0.7,0.5-1.2c0-1-0.6-1.5-1.7-1.5H26.8z"/>
		<path class="st1" d="M41.4,10H40V4.6c0-0.4,0-1,0.1-1.6h0c-0.1,0.4-0.2,0.6-0.2,0.8L37.4,10h-1l-2.5-6.2c-0.1-0.2-0.1-0.5-0.2-0.8
			h0c0,0.3,0,0.9,0,1.6V10h-1.3V1.6h2l2.2,5.6c0.2,0.4,0.3,0.8,0.3,1h0c0.1-0.4,0.3-0.8,0.4-1l2.2-5.6h1.9V10z"/>
	</g>
</g>
<g>
	<g class="st0">
	</g>
</g>
<g class="st0">
	<g class="st0">
		<path class="st1" d="M4.3,25h-1v-7.3C3.2,17.9,3.1,17.9,3,18s-0.3,0.2-0.5,0.3s-0.4,0.2-0.6,0.3s-0.4,0.1-0.6,0.2v-1
			c0.2-0.1,0.4-0.1,0.7-0.2s0.5-0.2,0.7-0.3s0.4-0.3,0.6-0.4s0.4-0.3,0.5-0.4h0.4V25z"/>
		<path class="st1" d="M15.7,25h-1v-3.5c0-1.2-0.5-1.9-1.4-1.9c-0.5,0-0.9,0.2-1.2,0.5s-0.5,0.8-0.5,1.4V25h-1v-8.9h1V20h0
			c0.5-0.8,1.1-1.1,2-1.1c1.4,0,2,0.8,2,2.4V25z"/>
		<path class="st1" d="M20.7,20c-0.2-0.1-0.4-0.2-0.7-0.2c-0.4,0-0.8,0.2-1,0.6s-0.4,0.9-0.4,1.6V25h-1v-6h1v1.2h0
			c0.1-0.4,0.3-0.8,0.6-1s0.6-0.4,0.9-0.4c0.2,0,0.4,0,0.6,0.1V20z"/>
	</g>
</g>
<g id="Rectangle-5" class="st3">
	<rect y="45" class="st4" width="172" height="1"/>
</g>
<g id="Rectangle-5_1_" class="st3">
	<rect y="112" class="st4" width="172" height="1"/>
</g>
</svg>
