<?xml version="1.0" encoding="utf-8"?>
<!-- Generator: Adobe Illustrator 22.0.1, SVG Export Plug-In . SVG Version: 6.00 Build 0)  -->
<svg version="1.1" id="Layer_1" xmlns="http://www.w3.org/2000/svg" xmlns:xlink="http://www.w3.org/1999/xlink" x="0px" y="0px"
	 width="172px" height="161px" viewBox="0 0 172 161" style="enable-background:new 0 0 172 161;" xml:space="preserve">
<style type="text/css">
	.st0{enable-background:new    ;}
	.st1{fill:#6264A7;}
	.st2{fill:#252424;}
	.st3{opacity:0.75;enable-background:new    ;}
	.st4{fill:#D9D8D7;}
</style>
<g class="st0">
	<path class="st1" d="M5.8,77H0.6v-0.7c0-0.3,0-0.5,0.1-0.7s0.2-0.5,0.3-0.7s0.3-0.4,0.4-0.6S1.8,74,2,73.8s0.4-0.3,0.6-0.5
		s0.4-0.3,0.6-0.5c0.2-0.2,0.3-0.3,0.5-0.4S3.9,72.1,4,72s0.2-0.3,0.2-0.5s0.1-0.4,0.1-0.6c0-0.2,0-0.4-0.1-0.6S4.1,70,4,69.9
		s-0.3-0.2-0.4-0.3S3.2,69.6,3,69.6c-0.3,0-0.7,0.1-1,0.2s-0.7,0.4-1,0.7v-1.3c0.2-0.1,0.3-0.2,0.5-0.3s0.4-0.2,0.5-0.2
		s0.4-0.1,0.6-0.1s0.4,0,0.7,0c0.4,0,0.7,0,1,0.1S4.8,68.9,5,69s0.4,0.4,0.5,0.7s0.2,0.6,0.2,1c0,0.3,0,0.6-0.1,0.9
		s-0.2,0.5-0.4,0.8s-0.3,0.5-0.6,0.7s-0.5,0.4-0.7,0.7c-0.2,0.2-0.5,0.4-0.7,0.5s-0.4,0.3-0.6,0.5s-0.3,0.3-0.4,0.5
		s-0.2,0.3-0.2,0.5v0h3.8V77z"/>
	<path class="st1" d="M8.1,72.5c-0.2,0-0.4-0.1-0.6-0.2s-0.2-0.3-0.2-0.6c0-0.2,0.1-0.4,0.2-0.6s0.4-0.2,0.6-0.2
		c0.2,0,0.4,0.1,0.6,0.2S9,71.5,9,71.7c0,0.2-0.1,0.4-0.2,0.6S8.3,72.5,8.1,72.5z M8.1,77.1c-0.2,0-0.4-0.1-0.6-0.2
		s-0.2-0.3-0.2-0.6c0-0.2,0.1-0.4,0.2-0.6s0.4-0.2,0.6-0.2c0.2,0,0.4,0.1,0.6,0.2S9,76.1,9,76.3c0,0.2-0.1,0.4-0.2,0.6
		S8.3,77.1,8.1,77.1z"/>
	<path class="st1" d="M12.8,77.1c-0.9,0-1.6-0.4-2-1.1S10,74.3,10,73c0-1.5,0.3-2.6,0.8-3.4s1.2-1.1,2.2-1.1c1.8,0,2.8,1.4,2.8,4.3
		c0,1.4-0.3,2.5-0.8,3.3S13.7,77.1,12.8,77.1z M12.9,69.5c-1,0-1.5,1.1-1.5,3.4c0,2.1,0.5,3.2,1.5,3.2c1,0,1.5-1.1,1.5-3.2
		C14.4,70.6,13.9,69.5,12.9,69.5z"/>
	<path class="st1" d="M19.5,77.1c-0.9,0-1.6-0.4-2-1.1s-0.7-1.7-0.7-3.1c0-1.5,0.3-2.6,0.8-3.4s1.2-1.1,2.2-1.1
		c1.8,0,2.8,1.4,2.8,4.3c0,1.4-0.3,2.5-0.8,3.3S20.4,77.1,19.5,77.1z M19.6,69.5c-1,0-1.5,1.1-1.5,3.4c0,2.1,0.5,3.2,1.5,3.2
		c1,0,1.5-1.1,1.5-3.2C21,70.6,20.6,69.5,19.6,69.5z"/>
	<path class="st1" d="M28.6,74v3h-1.4v-8.4h2.5c1,0,1.7,0.2,2.2,0.7s0.8,1.1,0.8,1.9s-0.3,1.5-0.8,2S30.7,74,29.7,74H28.6z
		 M28.6,69.7v3.1h0.9c0.6,0,1.1-0.1,1.4-0.4s0.5-0.7,0.5-1.2c0-1-0.6-1.5-1.7-1.5H28.6z"/>
	<path class="st1" d="M43.3,77h-1.4v-5.4c0-0.4,0-1,0.1-1.6h0c-0.1,0.4-0.2,0.6-0.2,0.8L39.2,77h-1l-2.5-6.2
		c-0.1-0.2-0.1-0.5-0.2-0.8h0c0,0.3,0,0.9,0,1.6V77h-1.3v-8.4h2l2.2,5.6c0.2,0.4,0.3,0.8,0.3,1h0c0.1-0.4,0.3-0.8,0.4-1l2.2-5.6h1.9
		V77z"/>
</g>
<g class="st0">
</g>
<g class="st0">
	<path class="st1" d="M4.3,92h-1v-7.3C3.2,84.9,3.1,84.9,3,85s-0.3,0.2-0.5,0.3s-0.4,0.2-0.6,0.3s-0.4,0.1-0.6,0.2v-1
		c0.2-0.1,0.4-0.1,0.7-0.2s0.5-0.2,0.7-0.3s0.4-0.3,0.6-0.4s0.4-0.3,0.5-0.4h0.4V92z"/>
	<path class="st1" d="M15.7,92h-1v-3.5c0-1.2-0.5-1.9-1.4-1.9c-0.5,0-0.9,0.2-1.2,0.5s-0.5,0.8-0.5,1.4V92h-1v-8.9h1V87h0
		c0.5-0.8,1.1-1.1,2-1.1c1.4,0,2,0.8,2,2.4V92z"/>
	<path class="st1" d="M20.7,87c-0.2-0.1-0.4-0.2-0.7-0.2c-0.4,0-0.8,0.2-1,0.6s-0.4,0.9-0.4,1.6V92h-1v-6h1v1.2h0
		c0.1-0.4,0.3-0.8,0.6-1s0.6-0.4,0.9-0.4c0.2,0,0.4,0,0.6,0.1V87z"/>
</g>
<g class="st0">
	<path class="st1" d="M68.9,85h-1.5l-0.8-2.1h-3.3L62.6,85h-1.5l3.1-8.4h1.6L68.9,85z M66.3,81.7l-1.2-3.4c0-0.1-0.1-0.3-0.1-0.5h0
		c0,0.2-0.1,0.4-0.1,0.5l-1.2,3.4H66.3z"/>
	<path class="st1" d="M74.9,79l-2.3,6h-1.5l-2.2-6h1.5l1.3,4.2c0.1,0.3,0.2,0.6,0.2,0.8h0c0-0.3,0.1-0.6,0.2-0.8l1.4-4.2H74.9z"/>
	<path class="st1" d="M80.2,85h-1.3v-0.9h0c-0.4,0.7-1,1.1-1.8,1.1c-0.6,0-1.1-0.2-1.4-0.5s-0.5-0.7-0.5-1.3c0-1.1,0.7-1.8,2-2
		l1.8-0.3c0-0.9-0.4-1.3-1.2-1.3c-0.7,0-1.4,0.2-1.9,0.7v-1.2c0.6-0.4,1.4-0.6,2.2-0.6c1.5,0,2.3,0.7,2.3,2.2V85z M78.9,82.1
		l-1.3,0.2c-0.4,0.1-0.7,0.1-0.9,0.3s-0.3,0.4-0.3,0.7c0,0.3,0.1,0.5,0.3,0.6s0.4,0.2,0.7,0.2c0.4,0,0.8-0.1,1-0.4s0.4-0.7,0.4-1.1
		V82.1z"/>
	<path class="st1" d="M82.5,77.7c-0.2,0-0.4-0.1-0.6-0.2s-0.2-0.3-0.2-0.6s0.1-0.4,0.2-0.6s0.3-0.2,0.6-0.2c0.2,0,0.4,0.1,0.6,0.2
		s0.2,0.3,0.2,0.6c0,0.2-0.1,0.4-0.2,0.5S82.8,77.7,82.5,77.7z M83.2,85h-1.4v-6h1.4V85z"/>
	<path class="st1" d="M86.3,85H85v-8.9h1.4V85z"/>
	<path class="st1" d="M92.7,85h-1.3v-0.9h0c-0.4,0.7-1,1.1-1.8,1.1c-0.6,0-1.1-0.2-1.4-0.5s-0.5-0.7-0.5-1.3c0-1.1,0.7-1.8,2-2
		l1.8-0.3c0-0.9-0.4-1.3-1.2-1.3c-0.7,0-1.4,0.2-1.9,0.7v-1.2c0.6-0.4,1.4-0.6,2.2-0.6c1.5,0,2.3,0.7,2.3,2.2V85z M91.4,82.1
		l-1.3,0.2c-0.4,0.1-0.7,0.1-0.9,0.3S89,82.9,89,83.2c0,0.3,0.1,0.5,0.3,0.6s0.4,0.2,0.7,0.2c0.4,0,0.8-0.1,1-0.4s0.4-0.7,0.4-1.1
		V82.1z"/>
	<path class="st1" d="M95.8,84.1L95.8,84.1l0,0.9h-1.4v-8.9h1.4v3.9h0c0.5-0.8,1.1-1.2,2-1.2c0.8,0,1.4,0.3,1.8,0.8s0.6,1.3,0.6,2.2
		c0,1-0.2,1.8-0.7,2.4s-1.1,0.9-2,0.9C96.7,85.1,96.2,84.8,95.8,84.1z M95.7,81.7v0.7c0,0.4,0.1,0.8,0.4,1.1s0.6,0.5,1.1,0.5
		c0.5,0,0.9-0.2,1.2-0.6s0.4-0.9,0.4-1.6c0-0.6-0.1-1.1-0.4-1.4s-0.6-0.5-1.1-0.5c-0.5,0-0.9,0.2-1.2,0.5S95.7,81.2,95.7,81.7z"/>
	<path class="st1" d="M103,85h-1.4v-8.9h1.4V85z"/>
	<path class="st1" d="M109.8,82.4h-4.1c0,0.6,0.2,1,0.5,1.3s0.8,0.5,1.3,0.5c0.6,0,1.2-0.2,1.8-0.6v1.1c-0.5,0.3-1.3,0.5-2.2,0.5
		c-0.9,0-1.6-0.3-2.1-0.8s-0.8-1.3-0.8-2.3c0-0.9,0.3-1.7,0.8-2.3s1.2-0.9,2.1-0.9s1.5,0.3,1.9,0.8s0.7,1.3,0.7,2.2V82.4z
		 M108.5,81.4c0-0.5-0.1-0.9-0.3-1.1s-0.5-0.4-0.9-0.4c-0.4,0-0.7,0.1-1,0.4s-0.4,0.7-0.5,1.1H108.5z"/>
	<path class="st1" d="M117.6,84.9c-0.3,0.1-0.6,0.2-1,0.2c-1.2,0-1.7-0.6-1.7-1.7v-3.4h-1V79h1v-1.4l1.4-0.4V79h1.4v1.1h-1.4v3
		c0,0.4,0.1,0.6,0.2,0.8s0.3,0.2,0.6,0.2c0.2,0,0.4-0.1,0.6-0.2V84.9z"/>
	<path class="st1" d="M119.4,77.7c-0.2,0-0.4-0.1-0.6-0.2s-0.2-0.3-0.2-0.6s0.1-0.4,0.2-0.6s0.3-0.2,0.6-0.2c0.2,0,0.4,0.1,0.6,0.2
		s0.2,0.3,0.2,0.6c0,0.2-0.1,0.4-0.2,0.5S119.7,77.7,119.4,77.7z M120.1,85h-1.4v-6h1.4V85z"/>
	<path class="st1" d="M130.8,85h-1.4v-3.3c0-0.6-0.1-1.1-0.3-1.4s-0.5-0.4-0.9-0.4c-0.4,0-0.7,0.2-0.9,0.5s-0.4,0.8-0.4,1.3V85h-1.4
		v-3.4c0-1.1-0.4-1.7-1.2-1.7c-0.4,0-0.7,0.2-0.9,0.5s-0.4,0.8-0.4,1.3V85h-1.4v-6h1.4v0.9h0c0.4-0.7,1.1-1.1,1.9-1.1
		c0.4,0,0.8,0.1,1.1,0.3s0.5,0.5,0.6,0.9c0.4-0.8,1.1-1.2,2-1.2c1.3,0,2,0.8,2,2.4V85z"/>
	<path class="st1" d="M137.6,82.4h-4.1c0,0.6,0.2,1,0.5,1.3s0.8,0.5,1.3,0.5c0.6,0,1.2-0.2,1.8-0.6v1.1c-0.5,0.3-1.3,0.5-2.2,0.5
		c-0.9,0-1.6-0.3-2.1-0.8s-0.8-1.3-0.8-2.3c0-0.9,0.3-1.7,0.8-2.3s1.2-0.9,2.1-0.9s1.5,0.3,1.9,0.8s0.7,1.3,0.7,2.2V82.4z
		 M136.3,81.4c0-0.5-0.1-0.9-0.3-1.1s-0.5-0.4-0.9-0.4c-0.4,0-0.7,0.1-1,0.4s-0.4,0.7-0.5,1.1H136.3z"/>
	<path class="st1" d="M141.8,84.8v-1.3c0.5,0.4,1.1,0.6,1.7,0.6c0.8,0,1.2-0.2,1.2-0.7c0-0.1,0-0.3-0.1-0.3s-0.2-0.2-0.3-0.3
		s-0.3-0.1-0.4-0.2s-0.3-0.1-0.5-0.2c-0.2-0.1-0.5-0.2-0.7-0.3s-0.4-0.2-0.5-0.4s-0.2-0.3-0.3-0.5s-0.1-0.4-0.1-0.6
		c0-0.3,0.1-0.5,0.2-0.8s0.3-0.4,0.6-0.6s0.5-0.3,0.8-0.3s0.6-0.1,0.9-0.1c0.6,0,1.1,0.1,1.5,0.3v1.2c-0.4-0.3-0.9-0.4-1.5-0.4
		c-0.2,0-0.3,0-0.5,0.1s-0.3,0.1-0.4,0.1s-0.2,0.1-0.2,0.2s-0.1,0.2-0.1,0.3c0,0.1,0,0.2,0.1,0.3s0.1,0.2,0.2,0.2s0.2,0.1,0.4,0.2
		s0.3,0.1,0.5,0.2c0.3,0.1,0.5,0.2,0.7,0.3s0.4,0.2,0.5,0.4s0.3,0.3,0.3,0.5s0.1,0.4,0.1,0.6c0,0.3-0.1,0.6-0.2,0.8
		s-0.3,0.4-0.6,0.6s-0.5,0.3-0.8,0.3s-0.6,0.1-1,0.1C142.9,85.1,142.3,85,141.8,84.8z"/>
	<path class="st1" d="M148.7,85h-1.4v-8.9h1.4V85z"/>
	<path class="st1" d="M153.2,85.1c-0.9,0-1.7-0.3-2.2-0.8s-0.8-1.3-0.8-2.2c0-1,0.3-1.8,0.9-2.4s1.4-0.8,2.3-0.8
		c0.9,0,1.7,0.3,2.2,0.8s0.8,1.3,0.8,2.3c0,1-0.3,1.7-0.8,2.3S154.1,85.1,153.2,85.1z M153.2,79.9c-0.5,0-1,0.2-1.3,0.6
		s-0.5,0.9-0.5,1.5c0,0.6,0.2,1.1,0.5,1.5s0.7,0.5,1.3,0.5c0.5,0,0.9-0.2,1.2-0.5s0.4-0.9,0.4-1.5c0-0.7-0.1-1.2-0.4-1.5
		S153.8,79.9,153.2,79.9z"/>
	<path class="st1" d="M160.8,84.9c-0.3,0.1-0.6,0.2-1,0.2c-1.2,0-1.7-0.6-1.7-1.7v-3.4h-1V79h1v-1.4l1.4-0.4V79h1.4v1.1h-1.4v3
		c0,0.4,0.1,0.6,0.2,0.8s0.3,0.2,0.6,0.2c0.2,0,0.4-0.1,0.6-0.2V84.9z"/>
</g>
<g class="st0">
	<g class="st0">
		<path class="st2" d="M3.6,1.4V10H2.2V3.1C2,3.2,1.7,3.4,1.5,3.5s-0.6,0.2-1,0.3V2.7c0.2-0.1,0.4-0.2,0.7-0.2s0.4-0.2,0.6-0.3
			S2.2,2,2.4,1.8S2.8,1.6,3,1.4H3.6z"/>
		<path class="st2" d="M6.3,5.5C6,5.5,5.8,5.4,5.7,5.3S5.4,4.9,5.4,4.7c0-0.2,0.1-0.4,0.2-0.6S6,3.9,6.3,3.9c0.2,0,0.4,0.1,0.6,0.2
			s0.2,0.3,0.2,0.6c0,0.2-0.1,0.4-0.2,0.6S6.5,5.5,6.3,5.5z M6.3,10.1c-0.2,0-0.4-0.1-0.6-0.2S5.4,9.6,5.4,9.3
			c0-0.2,0.1-0.4,0.2-0.6S6,8.5,6.3,8.5c0.2,0,0.4,0.1,0.6,0.2s0.2,0.3,0.2,0.6c0,0.2-0.1,0.4-0.2,0.6S6.5,10.1,6.3,10.1z"/>
		<path class="st2" d="M11,10.1c-0.9,0-1.6-0.4-2-1.1S8.2,7.3,8.2,6c0-1.5,0.3-2.6,0.8-3.4s1.2-1.1,2.2-1.1c1.8,0,2.8,1.4,2.8,4.3
			c0,1.4-0.3,2.5-0.8,3.3S11.9,10.1,11,10.1z M11.1,2.5c-1,0-1.5,1.1-1.5,3.4c0,2.1,0.5,3.2,1.5,3.2c1,0,1.5-1.1,1.5-3.2
			C12.5,3.6,12.1,2.5,11.1,2.5z"/>
		<path class="st2" d="M17.6,10.1c-0.9,0-1.6-0.4-2-1.1S14.8,7.3,14.8,6c0-1.5,0.3-2.6,0.8-3.4s1.2-1.1,2.2-1.1
			c1.8,0,2.8,1.4,2.8,4.3c0,1.4-0.3,2.5-0.8,3.3S18.6,10.1,17.6,10.1z M17.8,2.5c-1,0-1.5,1.1-1.5,3.4c0,2.1,0.5,3.2,1.5,3.2
			c1,0,1.5-1.1,1.5-3.2C19.2,3.6,18.7,2.5,17.8,2.5z"/>
		<path class="st2" d="M26.8,7v3h-1.4V1.6h2.5c1,0,1.7,0.2,2.2,0.7S31,3.4,31,4.2s-0.3,1.5-0.8,2S28.8,7,27.9,7H26.8z M26.8,2.7v3.1
			h0.9c0.6,0,1.1-0.1,1.4-0.4s0.5-0.7,0.5-1.2c0-1-0.6-1.5-1.7-1.5H26.8z"/>
		<path class="st2" d="M41.4,10H40V4.6c0-0.4,0-1,0.1-1.6h0c-0.1,0.4-0.2,0.6-0.2,0.8L37.4,10h-1l-2.5-6.2c-0.1-0.2-0.1-0.5-0.2-0.8
			h0c0,0.3,0,0.9,0,1.6V10h-1.3V1.6h2l2.2,5.6c0.2,0.4,0.3,0.8,0.3,1h0c0.1-0.4,0.3-0.8,0.4-1l2.2-5.6h1.9V10z"/>
	</g>
</g>
<g>
	<g class="st0">
	</g>
</g>
<g class="st0">
	<g class="st0">
		<path class="st2" d="M5.6,22.7c0,0.4-0.1,0.7-0.2,1S5,24.3,4.8,24.5S4.2,24.9,3.8,25s-0.8,0.2-1.2,0.2c-0.8,0-1.4-0.2-1.9-0.5v-1
			c0.6,0.4,1.2,0.7,1.9,0.7c0.3,0,0.6,0,0.8-0.1s0.4-0.2,0.6-0.3s0.3-0.3,0.4-0.5s0.1-0.4,0.1-0.7c0-1.1-0.8-1.6-2.3-1.6H1.6v-0.8
			h0.7c1.4,0,2.1-0.5,2.1-1.5c0-1-0.5-1.4-1.6-1.4c-0.6,0-1.2,0.2-1.7,0.6V17c0.5-0.3,1.2-0.5,1.9-0.5c0.4,0,0.7,0,1,0.1
			s0.5,0.2,0.7,0.4s0.4,0.4,0.5,0.6s0.2,0.5,0.2,0.8c0,1.1-0.6,1.8-1.7,2.1v0c0.3,0,0.5,0.1,0.8,0.2s0.5,0.2,0.6,0.4
			s0.3,0.4,0.4,0.6S5.6,22.4,5.6,22.7z"/>
		<path class="st2" d="M12.5,20.8c0,0.7-0.1,1.3-0.2,1.9s-0.3,1-0.6,1.4s-0.5,0.7-0.9,0.8s-0.7,0.3-1.2,0.3c-0.4,0-0.8-0.1-1.1-0.3
			s-0.6-0.5-0.8-0.8s-0.4-0.8-0.5-1.3S7,21.7,7,21c0-0.7,0.1-1.4,0.2-1.9s0.3-1,0.5-1.4s0.5-0.7,0.9-0.9s0.8-0.3,1.2-0.3
			C11.6,16.5,12.5,17.9,12.5,20.8z M11.5,20.9c0-2.4-0.6-3.6-1.7-3.6C8.6,17.3,8,18.5,8,21c0,2.3,0.6,3.4,1.8,3.4
			C10.9,24.4,11.5,23.2,11.5,20.9z"/>
		<path class="st2" d="M25.7,25h-1v-3.4c0-0.7-0.1-1.1-0.3-1.4s-0.5-0.4-1-0.4c-0.4,0-0.8,0.2-1,0.6S22,21.1,22,21.6V25h-1v-3.6
			c0-1.2-0.5-1.8-1.4-1.8c-0.4,0-0.8,0.2-1,0.5s-0.4,0.8-0.4,1.4V25h-1v-6h1V20h0c0.4-0.7,1-1.1,1.9-1.1c0.4,0,0.8,0.1,1.1,0.3
			s0.5,0.5,0.6,0.9c0.4-0.8,1.1-1.2,2-1.2c1.3,0,2,0.8,2,2.4V25z"/>
		<path class="st2" d="M28,17.5c-0.2,0-0.3-0.1-0.4-0.2s-0.2-0.3-0.2-0.4s0.1-0.3,0.2-0.4s0.3-0.2,0.4-0.2c0.2,0,0.3,0.1,0.4,0.2
			s0.2,0.3,0.2,0.4c0,0.2-0.1,0.3-0.2,0.4S28.2,17.5,28,17.5z M28.5,25h-1v-6h1V25z"/>
		<path class="st2" d="M35.4,25h-1v-3.4c0-1.3-0.5-1.9-1.4-1.9c-0.5,0-0.9,0.2-1.2,0.5s-0.5,0.8-0.5,1.4V25h-1v-6h1v1h0
			c0.5-0.8,1.1-1.1,2-1.1c0.7,0,1.2,0.2,1.5,0.6s0.5,1,0.5,1.8V25z"/>
	</g>
</g>
<g class="st0">
	<g class="st0">
		<path class="st2" d="M71.1,10h-1.4V4.6c0-0.4,0-1,0.1-1.6h0c-0.1,0.4-0.2,0.6-0.2,0.8L67,10h-1l-2.5-6.2c-0.1-0.2-0.1-0.5-0.2-0.8
			h0c0,0.3,0,0.9,0,1.6V10H62V1.6h2l2.2,5.6c0.2,0.4,0.3,0.8,0.3,1h0c0.1-0.4,0.3-0.8,0.4-1l2.2-5.6h1.9V10z"/>
		<path class="st2" d="M73.7,2.7c-0.2,0-0.4-0.1-0.6-0.2S72.9,2.2,72.9,2s0.1-0.4,0.2-0.6s0.3-0.2,0.6-0.2c0.2,0,0.4,0.1,0.6,0.2
			s0.2,0.3,0.2,0.6c0,0.2-0.1,0.4-0.2,0.5S73.9,2.7,73.7,2.7z M74.3,10H73V4h1.4V10z"/>
		<path class="st2" d="M80.4,9.7c-0.5,0.3-1,0.4-1.7,0.4c-0.9,0-1.6-0.3-2.2-0.8S75.7,8,75.7,7.1c0-1,0.3-1.8,0.9-2.4S78,3.9,79,3.9
			c0.5,0,1,0.1,1.4,0.3v1.3c-0.4-0.3-0.9-0.5-1.3-0.5c-0.6,0-1,0.2-1.4,0.6s-0.6,0.9-0.6,1.5c0,0.6,0.2,1.1,0.5,1.5s0.8,0.5,1.4,0.5
			c0.5,0,0.9-0.2,1.4-0.5V9.7z"/>
		<path class="st2" d="M85.2,5.3c-0.2-0.1-0.4-0.2-0.7-0.2c-0.4,0-0.7,0.2-1,0.5s-0.4,0.9-0.4,1.5V10h-1.4V4h1.4v1.2h0
			c0.1-0.4,0.3-0.8,0.6-1s0.6-0.4,0.9-0.4c0.2,0,0.4,0,0.6,0.1V5.3z"/>
		<path class="st2" d="M88.8,10.1c-0.9,0-1.7-0.3-2.2-0.8S85.7,8,85.7,7.1c0-1,0.3-1.8,0.9-2.4s1.4-0.8,2.3-0.8
			c0.9,0,1.7,0.3,2.2,0.8S91.9,6,91.9,7c0,1-0.3,1.7-0.8,2.3S89.7,10.1,88.8,10.1z M88.8,4.9c-0.5,0-1,0.2-1.3,0.6S87.1,6.4,87.1,7
			c0,0.6,0.2,1.1,0.5,1.5s0.7,0.5,1.3,0.5c0.5,0,0.9-0.2,1.2-0.5s0.4-0.9,0.4-1.5c0-0.7-0.1-1.2-0.4-1.5S89.3,4.9,88.8,4.9z"/>
		<path class="st2" d="M92.9,9.8V8.6c0.5,0.4,1.1,0.6,1.7,0.6c0.8,0,1.2-0.2,1.2-0.7c0-0.1,0-0.3-0.1-0.3s-0.2-0.2-0.3-0.3
			S95.1,7.7,95,7.6s-0.3-0.1-0.5-0.2c-0.2-0.1-0.5-0.2-0.7-0.3s-0.4-0.2-0.5-0.4S93.1,6.4,93,6.2s-0.1-0.4-0.1-0.6
			c0-0.3,0.1-0.5,0.2-0.8s0.3-0.4,0.6-0.6S94.1,4,94.4,4s0.6-0.1,0.9-0.1c0.6,0,1.1,0.1,1.5,0.3v1.2c-0.4-0.3-0.9-0.4-1.5-0.4
			c-0.2,0-0.3,0-0.5,0.1S94.6,5,94.6,5.1s-0.2,0.1-0.2,0.2s-0.1,0.2-0.1,0.3c0,0.1,0,0.2,0.1,0.3s0.1,0.2,0.2,0.2s0.2,0.1,0.4,0.2
			s0.3,0.1,0.5,0.2c0.3,0.1,0.5,0.2,0.7,0.3s0.4,0.2,0.5,0.4s0.3,0.3,0.3,0.5s0.1,0.4,0.1,0.6c0,0.3-0.1,0.6-0.2,0.8
			s-0.3,0.4-0.6,0.6S95.9,10,95.6,10s-0.6,0.1-1,0.1C93.9,10.1,93.4,10,92.9,9.8z"/>
		<path class="st2" d="M101.1,10.1c-0.9,0-1.7-0.3-2.2-0.8S98,8,98,7.1c0-1,0.3-1.8,0.9-2.4s1.4-0.8,2.3-0.8c0.9,0,1.7,0.3,2.2,0.8
			s0.8,1.3,0.8,2.3c0,1-0.3,1.7-0.8,2.3S102,10.1,101.1,10.1z M101.2,4.9c-0.5,0-1,0.2-1.3,0.6S99.4,6.4,99.4,7
			c0,0.6,0.2,1.1,0.5,1.5s0.7,0.5,1.3,0.5c0.5,0,0.9-0.2,1.2-0.5s0.4-0.9,0.4-1.5c0-0.7-0.1-1.2-0.4-1.5S101.7,4.9,101.2,4.9z"/>
		<path class="st2" d="M108.8,2.2c-0.2-0.1-0.4-0.2-0.6-0.2c-0.7,0-1,0.4-1,1.1V4h1.4v1.1h-1.4V10h-1.4V5.1h-1V4h1V3
			c0-0.6,0.2-1.1,0.6-1.5S107.4,1,108,1c0.3,0,0.6,0,0.8,0.1V2.2z"/>
		<path class="st2" d="M112.9,9.9c-0.3,0.1-0.6,0.2-1,0.2c-1.2,0-1.7-0.6-1.7-1.7V5.1h-1V4h1V2.6l1.4-0.4V4h1.4v1.1h-1.4v3
			c0,0.4,0.1,0.6,0.2,0.8s0.3,0.2,0.6,0.2c0.2,0,0.4-0.1,0.6-0.2V9.9z"/>
		<path class="st2" d="M117.2,9.7V8.4c0.5,0.4,1.2,0.7,1.9,0.7c0.6,0,1-0.1,1.3-0.4s0.5-0.6,0.5-1c0-1-0.7-1.4-2.2-1.4h-0.7V5.1h0.6
			c1.3,0,1.9-0.4,1.9-1.3c0-0.8-0.5-1.2-1.5-1.2c-0.6,0-1.1,0.2-1.6,0.6V1.9c0.6-0.3,1.2-0.5,2-0.5c0.7,0,1.3,0.2,1.8,0.6
			s0.7,0.9,0.7,1.4c0,1.1-0.6,1.8-1.7,2.1v0c0.6,0.1,1.1,0.3,1.4,0.6s0.5,0.8,0.5,1.4c0,0.8-0.3,1.4-0.8,1.8s-1.3,0.7-2.2,0.7
			C118.4,10.1,117.7,10,117.2,9.7z"/>
		<path class="st2" d="M129.4,7.3c0,0.4-0.1,0.8-0.2,1.2s-0.3,0.6-0.6,0.9s-0.5,0.4-0.9,0.6s-0.7,0.2-1.1,0.2
			c-0.4,0-0.8-0.1-1.2-0.2s-0.7-0.4-0.9-0.7S124.1,8.4,124,8s-0.2-1-0.2-1.7c0-0.8,0.1-1.5,0.3-2.1s0.4-1.1,0.8-1.5s0.7-0.7,1.1-0.9
			s0.9-0.3,1.4-0.3c0.3,0,0.6,0,0.9,0.1s0.5,0.1,0.6,0.2v1.2c-0.2-0.1-0.4-0.2-0.6-0.3s-0.5-0.1-0.8-0.1c-0.3,0-0.6,0.1-0.9,0.2
			s-0.5,0.3-0.7,0.6s-0.4,0.6-0.5,0.9s-0.2,0.8-0.2,1.3h0c0.2-0.3,0.4-0.5,0.7-0.7s0.7-0.2,1.1-0.2c0.4,0,0.7,0.1,1,0.2
			s0.5,0.3,0.8,0.5s0.4,0.5,0.5,0.8S129.4,6.9,129.4,7.3z M128,7.4c0-0.2,0-0.5-0.1-0.7s-0.1-0.4-0.3-0.5s-0.3-0.3-0.4-0.3
			s-0.4-0.1-0.6-0.1s-0.4,0-0.6,0.1s-0.3,0.2-0.4,0.3s-0.2,0.3-0.3,0.5s-0.1,0.4-0.1,0.5c0,0.2,0,0.4,0.1,0.6s0.1,0.4,0.3,0.6
			s0.3,0.3,0.4,0.4s0.4,0.2,0.6,0.2c0.2,0,0.4,0,0.6-0.1s0.3-0.2,0.4-0.3s0.2-0.3,0.3-0.5S128,7.6,128,7.4z"/>
		<path class="st2" d="M130.8,9.8V8.5c0.6,0.4,1.1,0.6,1.7,0.6c0.6,0,1-0.1,1.4-0.4s0.5-0.7,0.5-1.2c0-0.5-0.2-0.8-0.5-1.1
			s-0.9-0.4-1.5-0.4c-0.2,0-0.7,0-1.4,0.1l0.3-4.4h4.1v1.2h-3l-0.1,2.1c0.3,0,0.5,0,0.7,0c0.9,0,1.6,0.2,2.1,0.7s0.7,1.1,0.7,1.9
			c0,0.8-0.3,1.5-0.8,2s-1.3,0.8-2.3,0.8C131.8,10.2,131.2,10,130.8,9.8z"/>
		<path class="st2" d="M149.9,10h-1.4V4.6c0-0.4,0-1,0.1-1.6h0c-0.1,0.4-0.2,0.6-0.2,0.8l-2.5,6.3h-1l-2.5-6.2
			c-0.1-0.2-0.1-0.5-0.2-0.8h0c0,0.3,0,0.9,0,1.6V10h-1.3V1.6h2l2.2,5.6c0.2,0.4,0.3,0.8,0.3,1h0c0.1-0.4,0.3-0.8,0.4-1l2.2-5.6h1.9
			V10z"/>
		<path class="st2" d="M156.4,10h-1.3V9.1h0c-0.4,0.7-1,1.1-1.8,1.1c-0.6,0-1.1-0.2-1.4-0.5s-0.5-0.7-0.5-1.3c0-1.1,0.7-1.8,2-2
			l1.8-0.3c0-0.9-0.4-1.3-1.2-1.3c-0.7,0-1.4,0.2-1.9,0.7V4.4c0.6-0.4,1.4-0.6,2.2-0.6c1.5,0,2.3,0.7,2.3,2.2V10z M155.1,7.1
			l-1.3,0.2c-0.4,0.1-0.7,0.1-0.9,0.3s-0.3,0.4-0.3,0.7c0,0.3,0.1,0.5,0.3,0.6s0.4,0.2,0.7,0.2c0.4,0,0.8-0.1,1-0.4s0.4-0.7,0.4-1.1
			V7.1z"/>
		<path class="st2" d="M161.5,5.3c-0.2-0.1-0.4-0.2-0.7-0.2c-0.4,0-0.7,0.2-1,0.5s-0.4,0.9-0.4,1.5V10h-1.4V4h1.4v1.2h0
			c0.1-0.4,0.3-0.8,0.6-1s0.6-0.4,0.9-0.4c0.2,0,0.4,0,0.6,0.1V5.3z"/>
		<path class="st2" d="M162.1,10.1c-0.2,0-0.4-0.1-0.6-0.2s-0.2-0.3-0.2-0.6c0-0.2,0.1-0.4,0.2-0.6s0.4-0.2,0.6-0.2
			c0.2,0,0.4,0.1,0.6,0.2s0.2,0.3,0.2,0.6c0,0.2-0.1,0.4-0.2,0.6S162.3,10.1,162.1,10.1z"/>
		<path class="st2" d="M165,10.1c-0.2,0-0.4-0.1-0.6-0.2s-0.2-0.3-0.2-0.6c0-0.2,0.1-0.4,0.2-0.6s0.4-0.2,0.6-0.2
			c0.2,0,0.4,0.1,0.6,0.2s0.2,0.3,0.2,0.6c0,0.2-0.1,0.4-0.2,0.6S165.2,10.1,165,10.1z"/>
		<path class="st2" d="M167.9,10.1c-0.2,0-0.4-0.1-0.6-0.2S167,9.6,167,9.3c0-0.2,0.1-0.4,0.2-0.6s0.4-0.2,0.6-0.2
			c0.2,0,0.4,0.1,0.6,0.2s0.2,0.3,0.2,0.6c0,0.2-0.1,0.4-0.2,0.6S168.1,10.1,167.9,10.1z"/>
	</g>
</g>
<g>
	<g class="st0">
	</g>
</g>
<g class="st0">
	<g class="st0">
		<path class="st2" d="M65.3,25h-1v-7.3c-0.1,0.1-0.2,0.2-0.3,0.3s-0.3,0.2-0.5,0.3s-0.4,0.2-0.6,0.3s-0.4,0.1-0.6,0.2v-1
			c0.2-0.1,0.4-0.1,0.7-0.2s0.5-0.2,0.7-0.3s0.4-0.3,0.6-0.4s0.4-0.3,0.5-0.4h0.4V25z"/>
		<path class="st2" d="M72.2,16.6l-4,9.8h-0.9l4-9.8H72.2z"/>
		<path class="st2" d="M76.7,18.8c0-0.3,0-0.5-0.1-0.7s-0.2-0.4-0.3-0.5s-0.3-0.2-0.5-0.3s-0.4-0.1-0.6-0.1c-0.2,0-0.4,0-0.6,0.1
			s-0.4,0.1-0.5,0.2s-0.3,0.2-0.5,0.3s-0.3,0.3-0.4,0.4v-1c0.3-0.3,0.6-0.5,0.9-0.6s0.7-0.2,1.2-0.2c0.3,0,0.7,0,1,0.1
			s0.5,0.2,0.8,0.4s0.4,0.4,0.5,0.7s0.2,0.6,0.2,1c0,0.3,0,0.6-0.1,0.9s-0.2,0.5-0.3,0.8s-0.3,0.5-0.6,0.7s-0.5,0.4-0.8,0.7
			c-0.4,0.3-0.7,0.5-1,0.7s-0.5,0.4-0.6,0.6s-0.3,0.3-0.3,0.5s-0.1,0.4-0.1,0.6H78V25h-5.2v-0.4c0-0.4,0-0.7,0.1-0.9
			s0.2-0.5,0.4-0.8s0.4-0.5,0.7-0.7s0.6-0.5,1.1-0.8c0.3-0.2,0.6-0.4,0.8-0.6s0.4-0.4,0.5-0.6s0.2-0.4,0.3-0.6S76.7,19.1,76.7,18.8z
			"/>
		<path class="st2" d="M84.6,20.8c0,0.7-0.1,1.3-0.2,1.9s-0.3,1-0.6,1.4s-0.5,0.7-0.9,0.8s-0.7,0.3-1.2,0.3c-0.4,0-0.8-0.1-1.1-0.3
			s-0.6-0.5-0.8-0.8s-0.4-0.8-0.5-1.3s-0.2-1.1-0.2-1.8c0-0.7,0.1-1.4,0.2-1.9s0.3-1,0.5-1.4s0.5-0.7,0.9-0.9s0.8-0.3,1.2-0.3
			C83.7,16.5,84.6,17.9,84.6,20.8z M83.6,20.9c0-2.4-0.6-3.6-1.7-3.6c-1.2,0-1.8,1.2-1.8,3.7c0,2.3,0.6,3.4,1.8,3.4
			C83,24.4,83.6,23.2,83.6,20.9z"/>
		<path class="st2" d="M89.3,25h-1v-7.3c-0.1,0.1-0.2,0.2-0.3,0.3s-0.3,0.2-0.5,0.3s-0.4,0.2-0.6,0.3s-0.4,0.1-0.6,0.2v-1
			c0.2-0.1,0.4-0.1,0.7-0.2s0.5-0.2,0.7-0.3s0.4-0.3,0.6-0.4s0.4-0.3,0.5-0.4h0.4V25z"/>
		<path class="st2" d="M97.2,22.7c0,0.4-0.1,0.7-0.2,1s-0.3,0.6-0.6,0.8s-0.6,0.4-0.9,0.5s-0.8,0.2-1.2,0.2c-0.8,0-1.4-0.2-1.9-0.5
			v-1c0.6,0.4,1.2,0.7,1.9,0.7c0.3,0,0.6,0,0.8-0.1s0.4-0.2,0.6-0.3s0.3-0.3,0.4-0.5s0.1-0.4,0.1-0.7c0-1.1-0.8-1.6-2.3-1.6h-0.7
			v-0.8h0.7c1.4,0,2.1-0.5,2.1-1.5c0-1-0.5-1.4-1.6-1.4c-0.6,0-1.2,0.2-1.7,0.6V17c0.5-0.3,1.2-0.5,1.9-0.5c0.4,0,0.7,0,1,0.1
			s0.5,0.2,0.7,0.4s0.4,0.4,0.5,0.6s0.2,0.5,0.2,0.8c0,1.1-0.6,1.8-1.7,2.1v0c0.3,0,0.5,0.1,0.8,0.2s0.5,0.2,0.6,0.4
			s0.3,0.4,0.4,0.6S97.2,22.4,97.2,22.7z"/>
	</g>
</g>
<g id="Rectangle-5" class="st3">
	<rect y="45" class="st4" width="172" height="1"/>
</g>
<g id="Rectangle-5_1_" class="st3">
	<rect y="112" class="st4" width="172" height="1"/>
</g>
<g class="st0">
	<g class="st0">
		<path class="st2" d="M64.6,135.4v8.6h-1.4v-6.9c-0.2,0.2-0.5,0.3-0.8,0.4s-0.6,0.2-1,0.3v-1.2c0.2-0.1,0.4-0.2,0.7-0.2
			s0.4-0.2,0.6-0.3s0.4-0.2,0.6-0.3s0.4-0.3,0.6-0.4H64.6z"/>
		<path class="st2" d="M67.3,139.5c-0.2,0-0.4-0.1-0.6-0.2s-0.2-0.3-0.2-0.6c0-0.2,0.1-0.4,0.2-0.6s0.4-0.2,0.6-0.2
			c0.2,0,0.4,0.1,0.6,0.2s0.2,0.3,0.2,0.6c0,0.2-0.1,0.4-0.2,0.6S67.5,139.5,67.3,139.5z M67.3,144.1c-0.2,0-0.4-0.1-0.6-0.2
			s-0.2-0.3-0.2-0.6c0-0.2,0.1-0.4,0.2-0.6s0.4-0.2,0.6-0.2c0.2,0,0.4,0.1,0.6,0.2s0.2,0.3,0.2,0.6c0,0.2-0.1,0.4-0.2,0.6
			S67.5,144.1,67.3,144.1z"/>
		<path class="st2" d="M72.3,135.4v8.6H71v-6.9c-0.2,0.2-0.5,0.3-0.8,0.4s-0.6,0.2-1,0.3v-1.2c0.2-0.1,0.4-0.2,0.7-0.2
			s0.4-0.2,0.6-0.3s0.4-0.2,0.6-0.3s0.4-0.3,0.6-0.4H72.3z"/>
		<path class="st2" d="M84.2,144h-1.8l-2.9-3.8c-0.1-0.1-0.2-0.2-0.2-0.3h0v4.1h-1.4v-8.4h1.4v3.9h0c0-0.1,0.1-0.2,0.2-0.3l2.8-3.7
			H84l-3.3,4L84.2,144z"/>
		<path class="st2" d="M85.8,136.7c-0.2,0-0.4-0.1-0.6-0.2s-0.2-0.3-0.2-0.6s0.1-0.4,0.2-0.6s0.3-0.2,0.6-0.2c0.2,0,0.4,0.1,0.6,0.2
			s0.2,0.3,0.2,0.6c0,0.2-0.1,0.4-0.2,0.5S86,136.7,85.8,136.7z M86.4,144h-1.4v-6h1.4V144z"/>
		<path class="st2" d="M91.7,139.3c-0.2-0.1-0.4-0.2-0.7-0.2c-0.4,0-0.7,0.2-1,0.5s-0.4,0.9-0.4,1.5v2.9h-1.4v-6h1.4v1.2h0
			c0.1-0.4,0.3-0.8,0.6-1s0.6-0.4,0.9-0.4c0.2,0,0.4,0,0.6,0.1V139.3z"/>
		<path class="st2" d="M98.1,144h-1.7l-2.3-2.9h0v2.9h-1.4v-8.9H94v5.6h0l2.2-2.7h1.6l-2.5,2.9L98.1,144z"/>
		<path class="st2" d="M103.1,135.6l-4.1,9.8h-1.2l4-9.8H103.1z"/>
		<path class="st2" d="M110.5,144h-1.6l-1.3-2.2c-0.1-0.2-0.2-0.4-0.4-0.5s-0.2-0.3-0.4-0.4s-0.2-0.2-0.4-0.2s-0.3-0.1-0.5-0.1h-0.6
			v3.4h-1.4v-8.4h2.8c0.4,0,0.8,0,1.1,0.1s0.6,0.2,0.9,0.4s0.4,0.4,0.6,0.7s0.2,0.6,0.2,1c0,0.3,0,0.6-0.1,0.8s-0.2,0.5-0.4,0.7
			s-0.4,0.4-0.6,0.5s-0.5,0.2-0.8,0.3v0c0.2,0.1,0.3,0.2,0.4,0.3s0.2,0.2,0.3,0.3s0.2,0.2,0.3,0.4s0.2,0.3,0.3,0.5L110.5,144z
			 M105.4,136.7v2.7h1.2c0.2,0,0.4,0,0.6-0.1s0.3-0.2,0.5-0.3s0.2-0.3,0.3-0.5s0.1-0.4,0.1-0.6c0-0.4-0.1-0.7-0.4-0.9
			s-0.6-0.3-1.1-0.3H105.4z"/>
		<path class="st2" d="M116,144h-1.3v-0.9h0c-0.4,0.7-1,1.1-1.8,1.1c-0.6,0-1.1-0.2-1.4-0.5s-0.5-0.7-0.5-1.3c0-1.1,0.7-1.8,2-2
			l1.8-0.3c0-0.9-0.4-1.3-1.2-1.3c-0.7,0-1.4,0.2-1.9,0.7v-1.2c0.6-0.4,1.4-0.6,2.2-0.6c1.5,0,2.3,0.7,2.3,2.2V144z M114.7,141.1
			l-1.3,0.2c-0.4,0.1-0.7,0.1-0.9,0.3s-0.3,0.4-0.3,0.7c0,0.3,0.1,0.5,0.3,0.6s0.4,0.2,0.7,0.2c0.4,0,0.8-0.1,1-0.4s0.4-0.7,0.4-1.1
			V141.1z"/>
		<path class="st2" d="M119,143.7c0,1-0.2,1.7-0.6,2.3s-1,0.8-1.8,0.8c-0.3,0-0.6-0.1-0.8-0.2v-1.2c0.3,0.2,0.5,0.3,0.7,0.3
			c0.8,0,1.1-0.7,1.1-2V138h1.4V143.7z M118.3,136.7c-0.2,0-0.4-0.1-0.6-0.2s-0.2-0.3-0.2-0.6s0.1-0.4,0.2-0.6s0.3-0.2,0.6-0.2
			c0.2,0,0.4,0.1,0.6,0.2s0.2,0.3,0.2,0.6c0,0.2-0.1,0.4-0.2,0.5S118.6,136.7,118.3,136.7z"/>
		<path class="st2" d="M125.9,141.4h-4.1c0,0.6,0.2,1,0.5,1.3s0.8,0.5,1.3,0.5c0.6,0,1.2-0.2,1.8-0.6v1.1c-0.5,0.3-1.3,0.5-2.2,0.5
			c-0.9,0-1.6-0.3-2.1-0.8s-0.8-1.3-0.8-2.3c0-0.9,0.3-1.7,0.8-2.3s1.2-0.9,2.1-0.9s1.5,0.3,1.9,0.8s0.7,1.3,0.7,2.2V141.4z
			 M124.5,140.4c0-0.5-0.1-0.9-0.3-1.1s-0.5-0.4-0.9-0.4c-0.4,0-0.7,0.1-1,0.4s-0.4,0.7-0.5,1.1H124.5z"/>
		<path class="st2" d="M126.8,143.8v-1.3c0.5,0.4,1.1,0.6,1.7,0.6c0.8,0,1.2-0.2,1.2-0.7c0-0.1,0-0.3-0.1-0.3s-0.2-0.2-0.3-0.3
			s-0.3-0.1-0.4-0.2s-0.3-0.1-0.5-0.2c-0.2-0.1-0.5-0.2-0.7-0.3s-0.4-0.2-0.5-0.4s-0.2-0.3-0.3-0.5s-0.1-0.4-0.1-0.6
			c0-0.3,0.1-0.5,0.2-0.8s0.3-0.4,0.6-0.6s0.5-0.3,0.8-0.3s0.6-0.1,0.9-0.1c0.6,0,1.1,0.1,1.5,0.3v1.2c-0.4-0.3-0.9-0.4-1.5-0.4
			c-0.2,0-0.3,0-0.5,0.1s-0.3,0.1-0.4,0.1s-0.2,0.1-0.2,0.2s-0.1,0.2-0.1,0.3c0,0.1,0,0.2,0.1,0.3s0.1,0.2,0.2,0.2s0.2,0.1,0.4,0.2
			s0.3,0.1,0.5,0.2c0.3,0.1,0.5,0.2,0.7,0.3s0.4,0.2,0.5,0.4s0.3,0.3,0.3,0.5s0.1,0.4,0.1,0.6c0,0.3-0.1,0.6-0.2,0.8
			s-0.3,0.4-0.6,0.6s-0.5,0.3-0.8,0.3s-0.6,0.1-1,0.1C127.8,144.1,127.3,144,126.8,143.8z"/>
		<path class="st2" d="M137.7,144h-1.4v-3.3c0-1.2-0.4-1.8-1.2-1.8c-0.4,0-0.7,0.2-1,0.5s-0.4,0.8-0.4,1.3v3.2h-1.4v-8.9h1.4v3.9h0
			c0.5-0.8,1.1-1.1,1.9-1.1c1.3,0,2,0.8,2,2.4V144z"/>
	</g>
</g>
<g>
	<g class="st0">
	</g>
</g>
<g class="st0">
	<g class="st0">
		<path class="st2" d="M66.6,156.7c0,0.4-0.1,0.7-0.2,1s-0.3,0.6-0.6,0.8s-0.6,0.4-0.9,0.5s-0.8,0.2-1.2,0.2c-0.8,0-1.4-0.2-1.9-0.5
			v-1c0.6,0.4,1.2,0.7,1.9,0.7c0.3,0,0.6,0,0.8-0.1s0.4-0.2,0.6-0.3s0.3-0.3,0.4-0.5s0.1-0.4,0.1-0.7c0-1.1-0.8-1.6-2.3-1.6h-0.7
			v-0.8h0.7c1.4,0,2.1-0.5,2.1-1.5c0-1-0.5-1.4-1.6-1.4c-0.6,0-1.2,0.2-1.7,0.6V151c0.5-0.3,1.2-0.5,1.9-0.5c0.4,0,0.7,0,1,0.1
			s0.5,0.2,0.7,0.4s0.4,0.4,0.5,0.6s0.2,0.5,0.2,0.8c0,1.1-0.6,1.8-1.7,2.1v0c0.3,0,0.5,0.1,0.8,0.2s0.5,0.2,0.6,0.4
			s0.3,0.4,0.4,0.6S66.6,156.4,66.6,156.7z"/>
		<path class="st2" d="M73.5,156.4c0,0.4-0.1,0.8-0.2,1.1s-0.3,0.6-0.6,0.9s-0.5,0.4-0.8,0.6s-0.7,0.2-1.1,0.2
			c-0.4,0-0.8-0.1-1.1-0.3s-0.6-0.4-0.8-0.8s-0.4-0.7-0.5-1.2s-0.2-1-0.2-1.6c0-0.7,0.1-1.4,0.2-2s0.4-1.1,0.7-1.5s0.7-0.8,1.1-1
			s0.9-0.3,1.4-0.3c0.6,0,1,0.1,1.4,0.2v0.9c-0.4-0.2-0.9-0.3-1.4-0.3c-0.4,0-0.7,0.1-1,0.3s-0.6,0.4-0.8,0.7s-0.4,0.7-0.5,1.1
			s-0.2,0.9-0.2,1.4h0c0.4-0.7,1-1,1.9-1c0.4,0,0.7,0.1,1,0.2s0.5,0.3,0.8,0.5s0.4,0.5,0.5,0.8S73.5,156,73.5,156.4z M72.5,156.5
			c0-0.3,0-0.6-0.1-0.8s-0.2-0.4-0.3-0.6s-0.3-0.3-0.5-0.4s-0.4-0.1-0.7-0.1c-0.2,0-0.5,0-0.7,0.1s-0.4,0.2-0.5,0.4
			s-0.3,0.3-0.3,0.5s-0.1,0.4-0.1,0.7c0,0.3,0,0.6,0.1,0.8s0.2,0.5,0.3,0.7s0.3,0.3,0.5,0.4s0.4,0.2,0.7,0.2c0.2,0,0.5,0,0.7-0.1
			s0.4-0.2,0.5-0.4s0.2-0.4,0.3-0.6S72.5,156.8,72.5,156.5z"/>
		<path class="st2" d="M78.7,150.6l-4,9.8h-0.9l4-9.8H78.7z"/>
		<path class="st2" d="M84.3,156.5c0,0.4-0.1,0.8-0.2,1.1s-0.3,0.6-0.6,0.9s-0.6,0.4-0.9,0.6s-0.8,0.2-1.2,0.2
			c-0.8,0-1.4-0.1-1.7-0.4v-1c0.6,0.4,1.2,0.6,1.8,0.6c0.3,0,0.6,0,0.8-0.1s0.5-0.2,0.6-0.4s0.3-0.4,0.4-0.6s0.1-0.5,0.1-0.7
			c0-0.5-0.2-1-0.6-1.3s-0.9-0.5-1.6-0.5c-0.1,0-0.2,0-0.4,0s-0.2,0-0.4,0s-0.2,0-0.4,0s-0.2,0-0.3,0l0.3-4.2h3.9v0.9h-3.1l-0.2,2.5
			c0.1,0,0.3,0,0.4,0s0.3,0,0.4,0c0.4,0,0.8,0.1,1.2,0.2s0.6,0.3,0.9,0.5s0.4,0.5,0.6,0.8S84.3,156.1,84.3,156.5z"/>
		<path class="st2" d="M91.1,156.4c0,0.4-0.1,0.8-0.2,1.1s-0.3,0.6-0.6,0.9s-0.5,0.4-0.8,0.6s-0.7,0.2-1.1,0.2
			c-0.4,0-0.8-0.1-1.1-0.3s-0.6-0.4-0.8-0.8s-0.4-0.7-0.5-1.2s-0.2-1-0.2-1.6c0-0.7,0.1-1.4,0.2-2s0.4-1.1,0.7-1.5s0.7-0.8,1.1-1
			s0.9-0.3,1.4-0.3c0.6,0,1,0.1,1.4,0.2v0.9c-0.4-0.2-0.9-0.3-1.4-0.3c-0.4,0-0.7,0.1-1,0.3s-0.6,0.4-0.8,0.7s-0.4,0.7-0.5,1.1
			s-0.2,0.9-0.2,1.4h0c0.4-0.7,1-1,1.9-1c0.4,0,0.7,0.1,1,0.2s0.5,0.3,0.8,0.5s0.4,0.5,0.5,0.8S91.1,156,91.1,156.4z M90.1,156.5
			c0-0.3,0-0.6-0.1-0.8s-0.2-0.4-0.3-0.6s-0.3-0.3-0.5-0.4s-0.4-0.1-0.7-0.1c-0.2,0-0.5,0-0.7,0.1s-0.4,0.2-0.5,0.4
			s-0.3,0.3-0.3,0.5s-0.1,0.4-0.1,0.7c0,0.3,0,0.6,0.1,0.8s0.2,0.5,0.3,0.7s0.3,0.3,0.5,0.4s0.4,0.2,0.7,0.2c0.2,0,0.5,0,0.7-0.1
			s0.4-0.2,0.5-0.4s0.2-0.4,0.3-0.6S90.1,156.8,90.1,156.5z"/>
		<path class="st2" d="M96.5,150.6v5.5h1.1v0.9h-1.1v2h-0.9v-2h-3.9v-0.8c0.4-0.4,0.7-0.9,1.1-1.3s0.7-0.9,1.1-1.4s0.7-1,0.9-1.5
			s0.5-0.9,0.7-1.4H96.5z M92.7,156.2h2.9v-4.1c-0.3,0.5-0.6,1-0.8,1.4s-0.5,0.8-0.7,1.1s-0.5,0.6-0.7,0.9S92.9,155.9,92.7,156.2z"
			/>
		<path class="st2" d="M104,154.8c0,0.7-0.1,1.3-0.2,1.9s-0.3,1-0.6,1.4s-0.5,0.7-0.9,0.8s-0.7,0.3-1.2,0.3c-0.4,0-0.8-0.1-1.1-0.3
			s-0.6-0.5-0.8-0.8s-0.4-0.8-0.5-1.3s-0.2-1.1-0.2-1.8c0-0.7,0.1-1.4,0.2-1.9s0.3-1,0.5-1.4s0.5-0.7,0.9-0.9s0.8-0.3,1.2-0.3
			C103.1,150.5,104,151.9,104,154.8z M103,154.9c0-2.4-0.6-3.6-1.7-3.6c-1.2,0-1.8,1.2-1.8,3.7c0,2.3,0.6,3.4,1.8,3.4
			C102.4,158.4,103,157.2,103,154.9z"/>
	</g>
</g>
<g class="st0">
	<g class="st0">
		<path class="st2" d="M0.7,143.7v-1.3c0.5,0.4,1.2,0.7,1.9,0.7c0.6,0,1-0.1,1.3-0.4s0.5-0.6,0.5-1c0-1-0.7-1.4-2.2-1.4H1.6v-1.1
			h0.6c1.3,0,1.9-0.4,1.9-1.3c0-0.8-0.5-1.2-1.5-1.2c-0.6,0-1.1,0.2-1.6,0.6v-1.2c0.6-0.3,1.2-0.5,2-0.5c0.7,0,1.3,0.2,1.8,0.6
			s0.7,0.9,0.7,1.4c0,1.1-0.6,1.8-1.7,2.1v0c0.6,0.1,1.1,0.3,1.4,0.6s0.5,0.8,0.5,1.4c0,0.8-0.3,1.4-0.8,1.8s-1.3,0.7-2.2,0.7
			C1.9,144.1,1.2,144,0.7,143.7z"/>
		<path class="st2" d="M8.1,139.5c-0.2,0-0.4-0.1-0.6-0.2s-0.2-0.3-0.2-0.6c0-0.2,0.1-0.4,0.2-0.6s0.4-0.2,0.6-0.2
			c0.2,0,0.4,0.1,0.6,0.2s0.2,0.3,0.2,0.6c0,0.2-0.1,0.4-0.2,0.6S8.3,139.5,8.1,139.5z M8.1,144.1c-0.2,0-0.4-0.1-0.6-0.2
			s-0.2-0.3-0.2-0.6c0-0.2,0.1-0.4,0.2-0.6s0.4-0.2,0.6-0.2c0.2,0,0.4,0.1,0.6,0.2s0.2,0.3,0.2,0.6c0,0.2-0.1,0.4-0.2,0.6
			S8.3,144.1,8.1,144.1z"/>
		<path class="st2" d="M12.8,144.1c-0.9,0-1.6-0.4-2-1.1S10,141.3,10,140c0-1.5,0.3-2.6,0.8-3.4s1.2-1.1,2.2-1.1
			c1.8,0,2.8,1.4,2.8,4.3c0,1.4-0.3,2.5-0.8,3.3S13.7,144.1,12.8,144.1z M12.9,136.5c-1,0-1.5,1.1-1.5,3.4c0,2.1,0.5,3.2,1.5,3.2
			c1,0,1.5-1.1,1.5-3.2C14.4,137.6,13.9,136.5,12.9,136.5z"/>
		<path class="st2" d="M19.5,144.1c-0.9,0-1.6-0.4-2-1.1s-0.7-1.7-0.7-3.1c0-1.5,0.3-2.6,0.8-3.4s1.2-1.1,2.2-1.1
			c1.8,0,2.8,1.4,2.8,4.3c0,1.4-0.3,2.5-0.8,3.3S20.4,144.1,19.5,144.1z M19.6,136.5c-1,0-1.5,1.1-1.5,3.4c0,2.1,0.5,3.2,1.5,3.2
			c1,0,1.5-1.1,1.5-3.2C21,137.6,20.6,136.5,19.6,136.5z"/>
		<path class="st2" d="M28.6,141v3h-1.4v-8.4h2.5c1,0,1.7,0.2,2.2,0.7s0.8,1.1,0.8,1.9s-0.3,1.5-0.8,2s-1.3,0.8-2.2,0.8H28.6z
			 M28.6,136.7v3.1h0.9c0.6,0,1.1-0.1,1.4-0.4s0.5-0.7,0.5-1.2c0-1-0.6-1.5-1.7-1.5H28.6z"/>
		<path class="st2" d="M43.3,144h-1.4v-5.4c0-0.4,0-1,0.1-1.6h0c-0.1,0.4-0.2,0.6-0.2,0.8l-2.5,6.3h-1l-2.5-6.2
			c-0.1-0.2-0.1-0.5-0.2-0.8h0c0,0.3,0,0.9,0,1.6v5.4h-1.3v-8.4h2l2.2,5.6c0.2,0.4,0.3,0.8,0.3,1h0c0.1-0.4,0.3-0.8,0.4-1l2.2-5.6
			h1.9V144z"/>
	</g>
</g>
<g>
	<g class="st0">
	</g>
</g>
<g class="st0">
	<g class="st0">
		<path class="st2" d="M4.3,159h-1v-7.3c-0.1,0.1-0.2,0.2-0.3,0.3s-0.3,0.2-0.5,0.3s-0.4,0.2-0.6,0.3s-0.4,0.1-0.6,0.2v-1
			c0.2-0.1,0.4-0.1,0.7-0.2s0.5-0.2,0.7-0.3s0.4-0.3,0.6-0.4s0.4-0.3,0.5-0.4h0.4V159z"/>
		<path class="st2" d="M15.7,159h-1v-3.5c0-1.2-0.5-1.9-1.4-1.9c-0.5,0-0.9,0.2-1.2,0.5s-0.5,0.8-0.5,1.4v3.4h-1v-8.9h1v3.9h0
			c0.5-0.8,1.1-1.1,2-1.1c1.4,0,2,0.8,2,2.4V159z"/>
		<path class="st2" d="M20.7,154c-0.2-0.1-0.4-0.2-0.7-0.2c-0.4,0-0.8,0.2-1,0.6s-0.4,0.9-0.4,1.6v3.1h-1v-6h1v1.2h0
			c0.1-0.4,0.3-0.8,0.6-1s0.6-0.4,0.9-0.4c0.2,0,0.4,0,0.6,0.1V154z"/>
	</g>
</g>
</svg>
