<svg id="Layer_1" data-name="Layer 1" xmlns="http://www.w3.org/2000/svg" viewBox="0 0 20 16.25"><title>teamsIcon</title><path d="M2.5,1.25a2.38,2.38,0,0,1,1,.2A2.73,2.73,0,0,1,4.26,2a2.73,2.73,0,0,1,.54.81,2.36,2.36,0,0,1,0,1.9,2.73,2.73,0,0,1-.54.81,2.73,2.73,0,0,1-.81.54,2.36,2.36,0,0,1-1.9,0,2.73,2.73,0,0,1-.81-.54A2.73,2.73,0,0,1,.2,4.7a2.36,2.36,0,0,1,0-1.9A2.73,2.73,0,0,1,.74,2a2.73,2.73,0,0,1,.81-.54,2.38,2.38,0,0,1,1-.2ZM5,13.83H3.75a6.41,6.41,0,0,1-1.31-.14,4,4,0,0,1-1.17-.42,2.43,2.43,0,0,1-.93-.83A2.1,2.1,0,0,1,0,11.23V7.5H5Zm8.75-.17a2.1,2.1,0,0,1-.34,1.21,2.37,2.37,0,0,1-.92.82,4.22,4.22,0,0,1-1.18.42,6.41,6.41,0,0,1-1.31.14,6.29,6.29,0,0,1-1.29-.14,4.57,4.57,0,0,1-1.18-.43,2.43,2.43,0,0,1-.94-.82,2.09,2.09,0,0,1-.34-1.2V6.25h7.5ZM10,0A2.38,2.38,0,0,1,11,.2a2.73,2.73,0,0,1,.81.54,2.73,2.73,0,0,1,.54.81,2.36,2.36,0,0,1,0,1.9,2.73,2.73,0,0,1-.54.81A2.73,2.73,0,0,1,11,4.8a2.36,2.36,0,0,1-1.9,0,2.73,2.73,0,0,1-.81-.54,2.73,2.73,0,0,1-.54-.81,2.36,2.36,0,0,1,0-1.9A2.73,2.73,0,0,1,8.24.74,2.73,2.73,0,0,1,9.05.2,2.38,2.38,0,0,1,10,0Zm7.5,1.25a2.38,2.38,0,0,1,.95.2,2.73,2.73,0,0,1,.81.54,2.73,2.73,0,0,1,.54.81,2.36,2.36,0,0,1,0,1.9,2.73,2.73,0,0,1-.54.81,2.73,2.73,0,0,1-.81.54,2.36,2.36,0,0,1-1.9,0,2.73,2.73,0,0,1-.81-.54,2.73,2.73,0,0,1-.54-.81,2.36,2.36,0,0,1,0-1.9A2.73,2.73,0,0,1,15.74,2a2.73,2.73,0,0,1,.81-.54,2.38,2.38,0,0,1,.95-.2Zm2.5,10a2.1,2.1,0,0,1-.34,1.21,2.47,2.47,0,0,1-.92.83,4.22,4.22,0,0,1-1.18.42,6.41,6.41,0,0,1-1.31.14H15V7.5h5Z" style="fill:#fff;opacity:0.8999999761581421"/></svg>