<svg id="Layer_1" data-name="Layer 1" xmlns="http://www.w3.org/2000/svg" viewBox="0 0 16 10"><title>videoIcon_small</title><path d="M9.5,0a1.39,1.39,0,0,1,.57.12,1.42,1.42,0,0,1,.48.33,1.42,1.42,0,0,1,.33.48A1.39,1.39,0,0,1,11,1.5v7a1.39,1.39,0,0,1-.12.57,1.42,1.42,0,0,1-.33.48,1.58,1.58,0,0,1-.48.33A1.39,1.39,0,0,1,9.5,10H1.82A1.39,1.39,0,0,1,.55,9.15,5.1,5.1,0,0,1,.07,7.33,15.31,15.31,0,0,1,0,5.65V4.35A15.39,15.39,0,0,1,.07,2.66,5.29,5.29,0,0,1,.55.84,1.4,1.4,0,0,1,1.82,0Zm6,1a.47.47,0,0,1,.35.15A.47.47,0,0,1,16,1.5v7a.51.51,0,0,1-.5.5.46.46,0,0,1-.34-.14L12.62,6.45a2.18,2.18,0,0,1-.46-.66,2,2,0,0,1,0-1.58,2.18,2.18,0,0,1,.46-.66l2.54-2.41A.46.46,0,0,1,15.5,1Z" style="fill:#fff"/><rect x="-1423" y="-65" width="1600" height="900" style="fill:none"/></svg>