<?xml version="1.0" encoding="iso-8859-1"?>
<!-- Generator: Adobe Illustrator 18.1.0, SVG Export Plug-In . SVG Version: 6.00 Build 0)  -->
<!DOCTYPE svg PUBLIC "-//W3C//DTD SVG 1.1//EN" "http://www.w3.org/Graphics/SVG/1.1/DTD/svg11.dtd">
<svg version="1.1" id="Layer_1" xmlns="http://www.w3.org/2000/svg" xmlns:xlink="http://www.w3.org/1999/xlink" x="0px" y="0px"
	 viewBox="0 0 340 170.5" style="enable-background:new 0 0 340 170.5;" xml:space="preserve">
<style type="text/css">
	.st0{fill:#F4F4F4;}
	.st1{fill:#F26522;}
	.st2{fill:#8DC63F;}
	.st3{fill:#00AEEF;}
	.st4{fill:#FFC20E;}
	.st5{fill:#FFFFFF;}
	.st6{fill:#00AFF0;}
	.st7{fill:#3176BB;}
	.st8{fill:#999999;}
	.st9{fill:#CCCBCB;}
	.st10{fill:#676767;}
	.st11{fill:#CCCCCC;}
	.st12{fill:#0078D7;}
	.st13{fill:#E3008C;}
	.st14{fill-rule:evenodd;clip-rule:evenodd;fill:#00BCF2;}
	.st15{fill-rule:evenodd;clip-rule:evenodd;fill:#002050;}
	.st16{fill-rule:evenodd;clip-rule:evenodd;fill:#00188F;}
	.st17{fill-rule:evenodd;clip-rule:evenodd;fill:#00B294;}
	.st18{fill-rule:evenodd;clip-rule:evenodd;fill:#004B50;}
	.st19{fill-rule:evenodd;clip-rule:evenodd;fill:#BAD80A;}
	.st20{fill-rule:evenodd;clip-rule:evenodd;fill:#004B1C;}
	.st21{fill-rule:evenodd;clip-rule:evenodd;fill:#B4A0FF;}
	.st22{fill-rule:evenodd;clip-rule:evenodd;fill:#FFF100;}
	.st23{fill-rule:evenodd;clip-rule:evenodd;fill:#A80000;}
	.st24{fill-rule:evenodd;clip-rule:evenodd;fill:#5C005C;}
	.st25{fill-rule:evenodd;clip-rule:evenodd;fill:#32145A;}
	.st26{fill-rule:evenodd;clip-rule:evenodd;fill:#FF8C00;}
	.st27{fill-rule:evenodd;clip-rule:evenodd;fill:#E3008C;}
	.st28{fill-rule:evenodd;clip-rule:evenodd;fill:#0078D7;}
	.st29{opacity:0.2;fill-rule:evenodd;clip-rule:evenodd;fill:#231F20;}
	.st30{opacity:7.000000e-002;fill-rule:evenodd;clip-rule:evenodd;fill:#231F20;}
	.st31{opacity:0.1;fill-rule:evenodd;clip-rule:evenodd;fill:#231F20;}
	.st32{opacity:0.3;fill-rule:evenodd;clip-rule:evenodd;fill:#231F20;}
	.st33{opacity:0.6;fill-rule:evenodd;clip-rule:evenodd;fill:#FFFFFF;}
	.st34{opacity:0.1;fill-rule:evenodd;clip-rule:evenodd;fill:#FFFFFF;}
	.st35{opacity:0.8;fill-rule:evenodd;clip-rule:evenodd;fill:#FFFFFF;}
	.st36{opacity:0.9;fill-rule:evenodd;clip-rule:evenodd;fill:#FFFFFF;}
	.st37{fill-rule:evenodd;clip-rule:evenodd;fill:#008272;}
	.st38{opacity:0.4;fill-rule:evenodd;clip-rule:evenodd;fill:#231F20;}
	.st39{fill-rule:evenodd;clip-rule:evenodd;fill:#FFFFFF;}
	.st40{fill-rule:evenodd;clip-rule:evenodd;fill:#231F20;}
	.st41{opacity:0.6;fill-rule:evenodd;clip-rule:evenodd;fill:#231F20;}
	.st42{opacity:0.4;}
	.st43{fill:#231F20;}
</style>
<g>
	<path class="st0" d="M0,0v170.5h340.5v-1H340V1V0H0z M339,127h-40.5V85.5H339V127z M128.5,85.5H170V127h-41.5V85.5z M127.5,127H86
		V85.5h41.5V127z M171,85.5h41.5V127H171V85.5z M213.5,85.5H255V127h-41.5V85.5z M256,85.5h41.5V127H256V85.5z M339,84.5h-40.5V43
		H339V84.5z M297.5,84.5H256V43h41.5V84.5z M255,84.5h-41.5V43H255V84.5z M212.5,84.5H171V43h41.5V84.5z M170,84.5h-41.5V43H170
		V84.5z M127.5,84.5H86V43h41.5V84.5z M85,84.5H43.5V43H85V84.5z M42.5,84.5H1V43h41.5V84.5z M1,85.5h41.5V127H1V85.5z M43.5,85.5
		H85V127H43.5V85.5z M85,128v41.5H43.5V128H85z M86,128h41.5v41.5H86V128z M128.5,128H170v41.5h-41.5V128z M171,128h41.5v41.5H171
		V128z M213.5,128H255v41.5h-41.5V128z M256,128h41.5v41.5H256V128z M298.5,128H339v41.5h-40.5V128z M339,1v41h-40.5V1H339z
		 M297.5,1v41H256V1H297.5z M255,1v41h-41.5V1H255z M212.5,1v41H171V1H212.5z M170,1v41h-41.5V1H170z M127.5,1v41H86V1H127.5z M85,1
		v41H43.5V1H85z M42.5,1v41H1V1H42.5z M1,128h41.5v41.5H1V128z"/>
	<g class="st42">
		<path class="st43" d="M73.7,84.5l-4.5-12.2h-17l-4.5,12.2h-3l14.8-39.2h2.6l14.6,39.2H73.7z M61.7,51.7c-0.2-0.5-0.4-1.1-0.5-1.6
			c-0.1-0.5-0.3-0.9-0.4-1.4h-0.1c-0.3,1.2-0.6,2.2-0.9,2.9l-6.6,18.2h15.1L61.7,51.7z"/>
		<path class="st43" d="M105.5,84.5h-2.4L97,63.4c-0.2-0.6-0.3-1.4-0.4-2.4h-0.1c0,0.4-0.2,1.2-0.5,2.3l-6.8,21.2h-2.4l-8.4-28h2.8
			l6.5,22.3c0.2,0.6,0.3,1.4,0.4,2.4h0.2c0-0.5,0.2-1.3,0.5-2.4l7.1-22.3h1.7l6.3,22.3c0.1,0.5,0.3,1.3,0.4,2.4h0.2
			c0-0.5,0.2-1.3,0.5-2.4l6.6-22.3h2.6L105.5,84.5z"/>
		<path class="st43" d="M143.4,84.5H141l-6.1-21.1c-0.2-0.6-0.3-1.4-0.4-2.4h-0.1c0,0.4-0.2,1.2-0.5,2.3L127,84.5h-2.4l-8.4-28h2.8
			l6.5,22.3c0.2,0.6,0.3,1.4,0.4,2.4h0.2c0-0.5,0.2-1.3,0.5-2.4l7.1-22.3h1.7l6.3,22.3c0.1,0.5,0.3,1.3,0.4,2.4h0.2
			c0-0.5,0.2-1.3,0.5-2.4l6.6-22.3h2.6L143.4,84.5z"/>
		<path class="st43" d="M171.4,83.3v-3c0.9,0.8,2.1,1.5,3.4,1.9c1.3,0.5,2.5,0.7,3.5,0.7c4.4,0,6.6-1.8,6.6-5.4
			c0-1.2-0.5-2.3-1.4-3.2c-1-0.9-2.5-1.8-4.7-2.7c-2.7-1.2-4.6-2.4-5.6-3.6c-1.1-1.2-1.6-2.8-1.6-4.6c0-2.3,0.9-4.1,2.6-5.5
			c1.7-1.4,3.9-2.1,6.4-2.1c2.4,0,4.5,0.5,6.2,1.5v2.8c-2.1-1.3-4.2-2-6.5-2c-1.8,0-3.3,0.5-4.5,1.4c-1.1,1-1.7,2.2-1.7,3.7
			c0,1.3,0.4,2.4,1.1,3.2s2.3,1.8,4.7,2.9c2.9,1.3,4.9,2.5,6,3.7s1.6,2.6,1.6,4.5c0,2.2-0.8,4.1-2.5,5.5s-4,2.2-6.9,2.2
			C175.5,85.2,173.2,84.6,171.4,83.3z"/>
		<path class="st43" d="M213.7,84.5V68.2c0-6.7-2.4-10.1-7.3-10.1c-2.7,0-4.9,1-6.6,3c-1.7,2-2.6,4.4-2.6,7.3v16.1h-2.5v-28h2.5v5.1
			h0.1c2-3.8,5.2-5.8,9.6-5.8c3,0,5.3,1,6.9,3c1.6,2,2.4,4.9,2.4,8.6v17H213.7z"/>
		<path class="st43" d="M241.3,84.5v-5.6h-0.1c-0.9,1.9-2.2,3.4-3.9,4.6c-1.7,1.1-3.6,1.7-5.7,1.7c-2.7,0-4.8-0.7-6.3-2.2
			c-1.5-1.5-2.3-3.4-2.3-5.7c0-4.9,3.2-7.8,9.7-8.9l8.6-1.3c0-6-2.3-9-6.8-9c-3.1,0-6.1,1.2-9,3.7v-3c1-0.8,2.4-1.5,4.2-2.1
			s3.4-0.9,5-0.9c2.9,0,5.1,0.9,6.7,2.7c1.6,1.8,2.4,4.4,2.4,7.8v18.2H241.3z M233.6,70.6c-2.9,0.4-5,1.1-6.2,2
			c-1.2,0.9-1.8,2.5-1.8,4.6c0,1.7,0.6,3,1.7,4.1c1.1,1.1,2.6,1.6,4.6,1.6c2.7,0,4.9-1,6.7-3c1.8-2,2.7-4.6,2.7-7.7v-2.7L233.6,70.6
			z"/>
		<path class="st43" d="M254.9,79.5h-0.1v17.9h-2.5V56.5h2.5v5.8h0.1c1-2.1,2.4-3.7,4.3-4.8c1.9-1.1,3.9-1.7,6.2-1.7
			c3.6,0,6.3,1.2,8.3,3.7s3,5.8,3,10c0,4.7-1.1,8.5-3.4,11.4c-2.3,2.9-5.3,4.3-9.1,4.3C260,85.2,256.9,83.3,254.9,79.5z M254.8,69.1
			v3.5c0,2.8,0.9,5.2,2.7,7.2c1.8,2,4.1,3,7,3c2.9,0,5.2-1.2,7-3.7c1.8-2.5,2.7-5.7,2.7-9.7c0-3.5-0.8-6.3-2.5-8.3s-3.8-3.1-6.6-3.1
			c-3.3,0-5.8,1.1-7.6,3.3C255.7,63.6,254.8,66.2,254.8,69.1z"/>
		<path class="st43" d="M52.1,126.7c-0.8,0.4-1.5,0.5-2.1,0.5c-2.4,0-3.5-1.4-3.5-4.3v-10.8h-2.9v-1.3h2.9v-4.2
			c0.2-0.1,0.5-0.2,0.7-0.3c0.3-0.1,0.5-0.2,0.7-0.2v4.6h4.2v1.3h-4.2v10.6c0,1.1,0.2,1.9,0.5,2.4c0.3,0.5,0.9,0.7,1.8,0.7
			c0.6,0,1.2-0.2,1.9-0.6V126.7z"/>
		<path class="st43" d="M61.7,127.3c-2.3,0-4.2-0.8-5.5-2.3s-2-3.5-2-6c0-2.7,0.7-4.7,2.1-6.2s3.3-2.3,5.6-2.3
			c2.3,0,4.1,0.7,5.4,2.2c1.3,1.5,2,3.6,2,6.2c0,2.5-0.7,4.5-2,6C65.8,126.6,64,127.3,61.7,127.3z M61.8,111.9
			c-1.9,0-3.4,0.6-4.5,1.9c-1.1,1.3-1.7,3-1.7,5.3c0,2.1,0.5,3.8,1.6,5s2.6,1.9,4.5,1.9c1.9,0,3.4-0.6,4.5-1.9c1-1.3,1.6-3,1.6-5.2
			c0-2.3-0.5-4-1.6-5.3C65.1,112.5,63.7,111.9,61.8,111.9z"/>
		<path class="st43" d="M88.3,126.7c-0.8,0.4-1.5,0.5-2.1,0.5c-2.4,0-3.5-1.4-3.5-4.3v-10.8h-2.9v-1.3h2.9v-4.2
			c0.2-0.1,0.5-0.2,0.7-0.3c0.3-0.1,0.5-0.2,0.7-0.2v4.6h4.2v1.3h-4.2v10.6c0,1.1,0.2,1.9,0.5,2.4c0.3,0.5,0.9,0.7,1.8,0.7
			c0.6,0,1.2-0.2,1.9-0.6V126.7z"/>
		<path class="st43" d="M102.3,126.9v-9.6c0-1.9-0.3-3.3-1-4.2s-1.8-1.3-3.2-1.3c-1.4,0-2.6,0.5-3.6,1.6c-1,1.1-1.6,2.6-1.6,4.6v8.9
			h-1.4v-23.7h1.4v10.6h0.1c1.3-2.2,3.1-3.3,5.5-3.3c1.7,0,3,0.6,4,1.7s1.4,2.7,1.4,4.8v9.9H102.3z"/>
		<path class="st43" d="M108.9,119c0,2.2,0.5,3.9,1.5,5.2s2.4,1.9,4.2,1.9c1.8,0,3.5-0.7,5.3-2v1.5c-1.7,1.2-3.5,1.8-5.5,1.8
			c-2.1,0-3.7-0.7-5-2.2c-1.3-1.5-1.9-3.6-1.9-6.3c0-2.3,0.7-4.3,2-5.9s3.1-2.4,5.2-2.4c2,0,3.5,0.7,4.6,2.1s1.6,3.3,1.6,5.7v0.6
			H108.9z M119.3,117.7c-0.1-1.8-0.5-3.3-1.3-4.3c-0.8-1-2-1.5-3.4-1.5c-1.5,0-2.7,0.5-3.7,1.5s-1.6,2.4-1.8,4.3H119.3z"/>
		<path class="st43" d="M146.3,125.8c0,3-0.7,5.2-2,6.6c-1.3,1.4-3.4,2.1-6.1,2.1c-1.5,0-3.1-0.4-4.8-1.2v-1.5
			c1.7,0.9,3.3,1.4,4.8,1.4c4.4,0,6.6-2.3,6.6-7v-2.1h-0.1c-1.3,2.2-3.2,3.3-5.8,3.3c-2,0-3.6-0.7-4.8-2.1c-1.2-1.4-1.9-3.4-1.9-6
			s0.7-4.6,2-6.3s3.1-2.4,5.3-2.4c2.4,0,4.1,1,5.1,2.9h0.1v-2.5h1.4V125.8z M144.9,117.1c0-1.4-0.5-2.6-1.4-3.7s-2.2-1.5-3.7-1.5
			c-1.8,0-3.2,0.7-4.3,2c-1.1,1.3-1.6,3.1-1.6,5.3c0,2.2,0.5,3.9,1.5,5.1s2.3,1.8,3.9,1.8c1.7,0,3.1-0.6,4.1-1.7
			c1-1.1,1.5-2.5,1.5-4.1V117.1z"/>
		<path class="st43" d="M159,112.4c-0.5-0.3-1-0.5-1.7-0.5c-1.3,0-2.3,0.7-3.2,2c-0.9,1.3-1.3,3.2-1.3,5.5v7.5h-1.4v-16h1.4v3.5h0.1
			c0.4-1.2,0.9-2.2,1.7-2.8c0.8-0.7,1.7-1,2.8-1c0.6,0,1.1,0.1,1.6,0.3V112.4z"/>
		<path class="st43" d="M162.7,106.9c-0.3,0-0.6-0.1-0.8-0.3c-0.2-0.2-0.4-0.5-0.4-0.9c0-0.3,0.1-0.6,0.4-0.8
			c0.2-0.2,0.5-0.3,0.8-0.3c0.3,0,0.6,0.1,0.9,0.3c0.2,0.2,0.4,0.5,0.4,0.8c0,0.3-0.1,0.6-0.4,0.9
			C163.3,106.8,163,106.9,162.7,106.9z M162,126.9v-16h1.4v16H162z"/>
		<path class="st43" d="M179.9,126.9V124h-0.1c-0.5,1-1.3,1.8-2.3,2.4c-1,0.6-2.2,0.9-3.5,0.9c-2,0-3.6-0.7-4.8-2.2
			c-1.2-1.4-1.9-3.4-1.9-6c0-2.6,0.7-4.7,2-6.3s3.1-2.4,5.3-2.4c2.4,0,4.1,1,5.1,3h0.1v-10.3h1.4v23.7H179.9z M179.9,117.2
			c0-1.5-0.5-2.8-1.4-3.8c-0.9-1-2.2-1.6-3.8-1.6c-1.7,0-3.1,0.6-4.2,1.9s-1.6,3.1-1.6,5.3c0,2.2,0.5,3.9,1.5,5.1s2.3,1.8,3.8,1.8
			c1.8,0,3.2-0.6,4.2-1.7s1.5-2.5,1.5-4.1V117.2z"/>
	</g>
</g>
</svg>
