<?xml version="1.0" encoding="iso-8859-1"?>
<!-- Generator: Adobe Illustrator 18.1.0, SVG Export Plug-In . SVG Version: 6.00 Build 0)  -->
<!DOCTYPE svg PUBLIC "-//W3C//DTD SVG 1.1//EN" "http://www.w3.org/Graphics/SVG/1.1/DTD/svg11.dtd">
<svg version="1.1" id="Layer_1" xmlns="http://www.w3.org/2000/svg" xmlns:xlink="http://www.w3.org/1999/xlink" x="0px" y="0px"
	 viewBox="0 0 52 52" style="enable-background:new 0 0 52 52;" xml:space="preserve">
<style type="text/css">
	.st0{fill:#F4F4F4;}
	.st1{fill:#F26522;}
	.st2{fill:#8DC63F;}
	.st3{fill:#00AEEF;}
	.st4{fill:#FFC20E;}
	.st5{fill:#FFFFFF;}
	.st6{fill:#00AFF0;}
	.st7{fill:#3176BB;}
	.st8{fill:#999999;}
	.st9{fill:#CCCBCB;}
	.st10{fill:#676767;}
	.st11{fill:#CCCCCC;}
	.st12{fill:#0078D7;}
	.st13{fill:#E3008C;}
</style>
<path class="st13" d="M52,52V0H0h0v52h0H52z M37.1,2.5v9.9h-9.9V2.5H37.1z M12.4,24.8H2.5v-9.9h9.9V24.8z M14.9,14.9h9.9v9.9h-9.9
	V14.9z M12.4,27.2v9.9H2.5v-9.9H12.4z M14.9,27.2h9.9v9.9h-9.9V27.2z M27.2,27.2h9.9v9.9h-9.9V27.2z M27.2,24.8v-9.9h9.9v9.9H27.2z
	 M24.8,2.5v9.9h-9.9V2.5H24.8z M12.4,2.5v9.9H2.5V2.5H12.4z M2.5,49.5v-9.9h9.9v9.9H2.5z M14.9,49.5v-9.9h9.9v9.9H14.9z M27.2,49.5
	v-9.9h9.9v9.9H27.2z M49.5,49.5h-9.9v-9.9h9.9V49.5z M49.5,37.1h-9.9v-9.9h9.9V37.1z M49.5,24.8h-9.9v-9.9h9.9V24.8z M49.5,12.4
	h-9.9V2.5h9.9V12.4z"/>
</svg>
