<?xml version="1.0" encoding="iso-8859-1"?>
<!-- Generator: Adobe Illustrator 18.1.0, SVG Export Plug-In . SVG Version: 6.00 Build 0)  -->
<!DOCTYPE svg PUBLIC "-//W3C//DTD SVG 1.1//EN" "http://www.w3.org/Graphics/SVG/1.1/DTD/svg11.dtd">
<svg version="1.1" id="Layer_1" xmlns="http://www.w3.org/2000/svg" xmlns:xlink="http://www.w3.org/1999/xlink" x="0px" y="0px"
	 viewBox="0 0 130 190.7" style="enable-background:new 0 0 130 190.7;" xml:space="preserve">
<style type="text/css">
	.st0{fill:#F4F4F4;}
	.st1{fill:#F26522;}
	.st2{fill:#8DC63F;}
	.st3{fill:#00AEEF;}
	.st4{fill:#FFC20E;}
	.st5{fill:#FFFFFF;}
	.st6{fill:#00AFF0;}
	.st7{fill:#3176BB;}
	.st8{fill:#999999;}
	.st9{fill:#CCCBCB;}
	.st10{fill:#676767;}
	.st11{fill:#CCCCCC;}
	.st12{fill:#0078D7;}
	.st13{fill:#E3008C;}
	.st14{fill-rule:evenodd;clip-rule:evenodd;fill:#00BCF2;}
	.st15{fill-rule:evenodd;clip-rule:evenodd;fill:#002050;}
	.st16{fill-rule:evenodd;clip-rule:evenodd;fill:#00188F;}
	.st17{fill-rule:evenodd;clip-rule:evenodd;fill:#00B294;}
	.st18{fill-rule:evenodd;clip-rule:evenodd;fill:#004B50;}
	.st19{fill-rule:evenodd;clip-rule:evenodd;fill:#BAD80A;}
	.st20{fill-rule:evenodd;clip-rule:evenodd;fill:#004B1C;}
	.st21{fill-rule:evenodd;clip-rule:evenodd;fill:#B4A0FF;}
	.st22{fill-rule:evenodd;clip-rule:evenodd;fill:#FFF100;}
	.st23{fill-rule:evenodd;clip-rule:evenodd;fill:#A80000;}
	.st24{fill-rule:evenodd;clip-rule:evenodd;fill:#5C005C;}
	.st25{fill-rule:evenodd;clip-rule:evenodd;fill:#32145A;}
	.st26{fill-rule:evenodd;clip-rule:evenodd;fill:#FF8C00;}
	.st27{fill-rule:evenodd;clip-rule:evenodd;fill:#E3008C;}
	.st28{fill-rule:evenodd;clip-rule:evenodd;fill:#0078D7;}
	.st29{opacity:0.2;fill-rule:evenodd;clip-rule:evenodd;fill:#231F20;}
	.st30{opacity:7.000000e-002;fill-rule:evenodd;clip-rule:evenodd;fill:#231F20;}
	.st31{opacity:0.1;fill-rule:evenodd;clip-rule:evenodd;fill:#231F20;}
	.st32{opacity:0.3;fill-rule:evenodd;clip-rule:evenodd;fill:#231F20;}
	.st33{opacity:0.6;fill-rule:evenodd;clip-rule:evenodd;fill:#FFFFFF;}
	.st34{opacity:0.1;fill-rule:evenodd;clip-rule:evenodd;fill:#FFFFFF;}
	.st35{opacity:0.8;fill-rule:evenodd;clip-rule:evenodd;fill:#FFFFFF;}
	.st36{opacity:0.9;fill-rule:evenodd;clip-rule:evenodd;fill:#FFFFFF;}
	.st37{fill-rule:evenodd;clip-rule:evenodd;fill:#008272;}
	.st38{opacity:0.4;fill-rule:evenodd;clip-rule:evenodd;fill:#231F20;}
	.st39{fill-rule:evenodd;clip-rule:evenodd;fill:#FFFFFF;}
	.st40{fill-rule:evenodd;clip-rule:evenodd;fill:#231F20;}
	.st41{opacity:0.6;fill-rule:evenodd;clip-rule:evenodd;fill:#231F20;}
	.st42{opacity:0.4;}
	.st43{fill:#231F20;}
	.st44{fill:#373537;}
	.st45{fill:#49494B;}
</style>
<g>
	<path class="st44" d="M50,0.1l-0.4,0.4L50.1,1l0.4-0.4c0.1-0.1,0.1-0.3,0-0.5C50.4,0,50.2,0,50,0.1"/>
	<path class="st44" d="M49.2,1.8l0.3-0.3L49.1,1l-0.3,0.3h-9.1v9.5h9.5V1.8z M40.4,10.2V2h7.7l-7,7v0.5h0.5l7-7v7.7H40.4z"/>
	<path class="st44" d="M0,9.2h10.9V1.7H0V9.2z M9.4,2.4L5.4,5l-4-2.7H9.4z M0.7,2.7l4.8,3.2l4.8-3.2v5.8H0.7V2.7z"/>
	<path class="st43" d="M88.6,0c-0.9,0-1.7,0.8-1.7,1.7c0,0.3,0.1,0.7,0.3,0.9l-7.8,7.7v0.5h0.5l7.7-7.8c0.3,0.2,0.6,0.3,0.9,0.3
		c0.9,0,1.7-0.8,1.7-1.7C90.3,0.8,89.5,0,88.6,0 M88.6,2.7c-0.6,0-1-0.5-1-1c0-0.6,0.5-1,1-1s1,0.5,1,1C89.6,2.3,89.2,2.7,88.6,2.7"
		/>
	<path class="st44" d="M122.2,3.4c0-1.3,1.1-2.4,2.4-2.4c1.3,0,2.4,1.1,2.4,2.4c0,1.3-1.1,2.4-2.4,2.4c0.5,0,1,0.1,1.5,0.3
		c0.9-0.5,1.5-1.5,1.5-2.7c0-1.7-1.4-3.1-3.1-3.1c-1.7,0-3.1,1.4-3.1,3.1c0,1.1,0.6,2.1,1.5,2.7c0.5-0.2,1-0.3,1.5-0.3
		C123.2,5.8,122.2,4.7,122.2,3.4"/>
	<path class="st43" d="M124.6,6.5c2.1,0,3.7,1.7,3.7,3.7h0.7c0-1.9-1.2-3.5-2.9-4.2c-0.5-0.2-1-0.3-1.5-0.3c-0.5,0-1,0.1-1.5,0.3
		c-1.7,0.6-2.9,2.2-2.9,4.2h0.7C120.8,8.2,122.5,6.5,124.6,6.5"/>
</g>
<g>
	<path class="st44" d="M43.9,60.5h-4.2v2v0.3V70h10.9v-7v-0.5v-1.4h-6L43.9,60.5z M49.9,69.4h-9.5v-6.1h9.5V69.4z M49.9,62.6h-9.5
		v-1.4h3.3l0.7,0.7h5.6V62.6z"/>
	<rect x="6.1" y="61.9" class="st45" width="4.8" height="0.7"/>
	<polygon class="st45" points="2,64.6 2.7,64.6 2.7,62.6 4.8,62.6 4.8,61.9 2.7,61.9 2.7,59.8 2,59.8 2,61.9 0,61.9 0,62.6 2,62.6 	
		"/>
	<polygon class="st45" points="7.1,70.3 8.5,68.8 10,70.3 10.4,69.8 9,68.3 10.4,66.9 10,66.4 8.5,67.9 7.1,66.4 6.6,66.9 8,68.3 
		6.6,69.8 	"/>
	<rect x="0" y="68" class="st45" width="4.8" height="0.7"/>
	<path class="st45" d="M8.9,63.9c0-0.2-0.2-0.3-0.3-0.3c-0.2,0-0.3,0.2-0.3,0.3c0,0.2,0.2,0.3,0.3,0.3C8.7,64.3,8.9,64.1,8.9,63.9"
		/>
	<path class="st45" d="M8.2,60.5c0,0.2,0.2,0.3,0.3,0.3c0.2,0,0.3-0.2,0.3-0.3c0-0.2-0.2-0.3-0.3-0.3C8.3,60.2,8.2,60.3,8.2,60.5"/>
	<path class="st44" d="M84.9,59.8c-3,0-5.4,2.4-5.4,5.4v1v3.4c0,0.6,0.5,1,1,1h1.7v-5.4h-1.7c-0.1,0-0.2,0-0.3,0.1v-0.1
		c0-2.6,2.1-4.8,4.8-4.8c2.6,0,4.8,2.1,4.8,4.8v0.1c-0.1,0-0.2-0.1-0.3-0.1h-1.7v5.4h1.7c0.6,0,1-0.5,1-1v-3.1v-0.3v-1
		C90.3,62.3,87.9,59.8,84.9,59.8 M80.4,66h1V70h-1c-0.2,0-0.3-0.2-0.3-0.3v-3.4C80.1,66.1,80.2,66,80.4,66 M89.6,69.7
		c0,0.2-0.2,0.3-0.3,0.3h-1V66h1c0.2,0,0.3,0.2,0.3,0.3v0.3V69.7z"/>
	<path class="st44" d="M129,63.9c0.4-0.3,0.6-0.8,0.6-1.3c0-0.9-0.8-1.7-1.7-1.7c-0.9,0-1.7,0.8-1.7,1.7c0,0.5,0.3,1,0.6,1.3
		c-0.3,0.2-0.5,0.4-0.6,0.6c-0.4-0.6-1-0.9-1.7-0.9c-0.7,0-1.3,0.4-1.7,0.9c-0.2-0.2-0.4-0.5-0.6-0.6c0.4-0.3,0.6-0.8,0.6-1.3
		c0-0.9-0.8-1.7-1.7-1.7c-0.9,0-1.7,0.8-1.7,1.7c0,0.5,0.3,1,0.6,1.3c-0.6,0.4-1,1-1,1.7h0.7c0-0.8,0.6-1.4,1.4-1.4
		c0.8,0,1.4,0.6,1.4,1.4c0,0.7,0.3,1.3,0.8,1.6c-0.9,0.4-1.5,1.4-1.5,2.4h0.7c0-1.1,0.9-2,2-2s2,0.9,2,2h0.7c0-1.1-0.6-2-1.5-2.4
		c0.5-0.4,0.8-1,0.8-1.6c0-0.8,0.6-1.4,1.4-1.4c0.8,0,1.4,0.6,1.4,1.4h0.7C130,64.9,129.6,64.2,129,63.9 M120.1,62.6
		c0-0.6,0.5-1,1-1c0.6,0,1,0.5,1,1c0,0.6-0.5,1-1,1C120.6,63.6,120.1,63.1,120.1,62.6 M124.6,67c-0.8,0-1.4-0.6-1.4-1.4
		c0-0.8,0.6-1.4,1.4-1.4c0.8,0,1.4,0.6,1.4,1.4C125.9,66.4,125.3,67,124.6,67 M126.9,62.6c0-0.6,0.5-1,1-1c0.6,0,1,0.5,1,1
		c0,0.6-0.5,1-1,1C127.4,63.6,126.9,63.1,126.9,62.6"/>
</g>
<g>
	<path class="st44" d="M44.3,30.4h-4.6v2.4v7.2h10.9v-7v-0.2v-1.7H45L44.3,30.4z M49.9,32.8v0.2v6.3h-9.5v-6.5v-1.7H44l0.7,0.7h5.2
		V32.8z"/>
	<path class="st44" d="M9.2,29.7H1.7v10.9h7.5V29.7z M8.5,39.9H2.4v-9.5h6.1V39.9z"/>
	<rect x="3.1" y="34.5" class="st44" width="0.7" height="0.7"/>
	<rect x="5.1" y="34.5" class="st44" width="0.7" height="0.7"/>
	<rect x="7.2" y="34.5" class="st44" width="0.7" height="0.7"/>
	<rect x="3.1" y="36.5" class="st44" width="0.7" height="0.7"/>
	<rect x="5.1" y="36.5" class="st44" width="0.7" height="0.7"/>
	<rect x="7.2" y="36.5" class="st44" width="0.7" height="0.7"/>
	<rect x="3.1" y="38.6" class="st44" width="0.7" height="0.7"/>
	<rect x="5.1" y="38.6" class="st44" width="0.7" height="0.7"/>
	<rect x="7.2" y="38.6" class="st44" width="0.7" height="0.7"/>
	<path class="st44" d="M7.8,31.1H3.1v2h4.8V31.1z M7.2,32.4H3.7v-0.7h3.4V32.4z"/>
	<path class="st44" d="M83.5,37l1.9,1.9c0.8-0.8,1-1.8,0.8-2.8l2.3-2.3c0.6,0,1.2-0.2,1.7-0.7l-3.4-3.4c-0.5,0.5-0.7,1.1-0.7,1.7
		l-2.3,2.3c-0.2,0-0.4-0.1-0.6-0.1c-0.8,0-1.6,0.3-2.2,0.9l1.9,1.9l-3.6,3.6v0.5h0.5L83.5,37z M83.3,34.3c0.2,0,0.3,0,0.5,0l0.4,0.1
		l0.3-0.3l2.3-2.3l0.2-0.2l0-0.3c0-0.2,0-0.4,0.1-0.6l2.2,2.2c-0.2,0.1-0.4,0.1-0.6,0.1l-0.3,0l-0.2,0.2l-2.3,2.3l-0.3,0.3l0.1,0.4
		c0.1,0.6,0,1.1-0.2,1.6l-3.2-3.2C82.5,34.4,82.9,34.3,83.3,34.3"/>
	<path class="st43" d="M122.5,38.2c1.1,0,2,0.9,2,2h0.7c0-1.1-0.6-2-1.5-2.4c0.5-0.4,0.8-1,0.8-1.6c0-1.1,0.9-2,2-2c1.1,0,2,0.9,2,2
		h0.7c0-1.1-0.6-2-1.5-2.4c0.5-0.4,0.8-1,0.8-1.6c0-1.1-0.9-2-2-2c-1.1,0-2,0.9-2,2c0,0.7,0.3,1.3,0.8,1.6c-0.5,0.3-1,0.7-1.2,1.2
		c-0.4-0.5-1-0.8-1.6-0.8c-1.1,0-2,0.9-2,2c0,0.7,0.3,1.3,0.8,1.6c-0.9,0.4-1.5,1.4-1.5,2.4h0.7C120.5,39.1,121.4,38.2,122.5,38.2
		 M125.2,32.1c0-0.8,0.6-1.4,1.4-1.4c0.8,0,1.4,0.6,1.4,1.4c0,0.8-0.6,1.4-1.4,1.4C125.8,33.5,125.2,32.8,125.2,32.1 M121.1,36.2
		c0-0.8,0.6-1.4,1.4-1.4c0.8,0,1.4,0.6,1.4,1.4c0,0.8-0.6,1.4-1.4,1.4C121.8,37.5,121.1,36.9,121.1,36.2"/>
</g>
<g>
	<path class="st43" d="M40.7,130.3h8.9v-10.9h-8.9V130.3z M41.4,128.3h7.5v1.4h-7.5V128.3z M48.9,127.6h-7.5v-7.5h7.5V127.6z"/>
	<path class="st44" d="M10.6,119.8H0.3V130h10.2V119.8z M9.9,129.3H1v-7.5h8.9V129.3z M9.9,121.1H1v-0.7h8.9V121.1z"/>
	<rect x="5.1" y="123.2" class="st44" width="0.7" height="0.7"/>
	<rect x="7.8" y="123.2" class="st44" width="0.7" height="0.7"/>
	<rect x="2.4" y="125.2" class="st44" width="0.7" height="0.7"/>
	<rect x="5.1" y="125.2" class="st44" width="0.7" height="0.7"/>
	<rect x="7.8" y="125.2" class="st44" width="0.7" height="0.7"/>
	<rect x="2.4" y="127.3" class="st44" width="0.7" height="0.7"/>
	<rect x="5.1" y="127.3" class="st44" width="0.7" height="0.7"/>
	<path class="st44" d="M79.4,129.3h10.9v-8.9H79.4V129.3z M80.1,121.1h0.7v0.7h0.7v-0.7h6.8v0.7h0.7v-0.7h0.7v7.5h-9.5V121.1z"/>
	<rect x="80.8" y="122.5" class="st44" width="0.7" height="0.7"/>
	<rect x="80.8" y="123.9" class="st44" width="0.7" height="0.7"/>
	<rect x="80.8" y="125.2" class="st44" width="0.7" height="0.7"/>
	<rect x="80.8" y="126.6" class="st44" width="0.7" height="0.7"/>
	<rect x="80.8" y="127.9" class="st44" width="0.7" height="0.7"/>
	<rect x="88.3" y="122.5" class="st44" width="0.7" height="0.7"/>
	<rect x="88.3" y="123.9" class="st44" width="0.7" height="0.7"/>
	<rect x="88.3" y="125.2" class="st44" width="0.7" height="0.7"/>
	<rect x="88.3" y="126.6" class="st44" width="0.7" height="0.7"/>
	<rect x="88.3" y="127.9" class="st44" width="0.7" height="0.7"/>
	<path class="st44" d="M129,122.5c0.2-0.3,0.3-0.7,0.3-1.1c0-1.1-0.9-2-2-2c-1.1,0-2,0.9-2,2c0,0.2,0,0.5,0.1,0.7h-0.5
		c0-0.1,0-0.2,0-0.3c0-1.1-0.9-2-2-2c-1.1,0-2,0.9-2,2c0,0.1,0,0.1,0,0.2c-1,0.4-1.7,1.4-1.7,2.5c0,0.4,0.3,0.8,0.7,1v3.1
		c0,0.4,0.3,0.8,0.7,1v0.7h0.7V129h-0.3c-0.2,0-0.3-0.2-0.3-0.3v-3.1c0.4-0.1,0.7-0.5,0.7-1c0-0.4,0.3-0.7,0.7-0.7h1h1.4
		c0.2,0,0.3,0.2,0.3,0.3v6.1h0.7v-6.1c0-0.5-0.4-0.9-0.9-1c0.1-0.1,0.2-0.2,0.3-0.4h1.1c0.4,0.4,0.9,0.7,1.5,0.7
		c0.4,0,0.8-0.1,1.1-0.3h0.2c0.4,0,0.7,0.3,0.7,0.7v4.8c0,0.2-0.2,0.3-0.3,0.3h-0.3v1.4h0.7v-0.7c0.4-0.1,0.7-0.5,0.7-1v-4.8
		C130,123.2,129.6,122.7,129,122.5 M120.5,124.5c0,0.2-0.2,0.3-0.3,0.3s-0.3-0.2-0.3-0.3c0-0.8,0.5-1.5,1.2-1.9
		c0.1,0.2,0.2,0.4,0.4,0.6C120.9,123.4,120.5,123.9,120.5,124.5 M121.5,121.8c0-0.8,0.6-1.4,1.4-1.4c0.8,0,1.4,0.6,1.4,1.4
		c0,0.8-0.6,1.4-1.4,1.4C122.1,123.2,121.5,122.6,121.5,121.8 M127.3,122.8c-0.8,0-1.4-0.6-1.4-1.4c0-0.8,0.6-1.4,1.4-1.4
		c0.8,0,1.4,0.6,1.4,1.4C128.6,122.2,128,122.8,127.3,122.8"/>
	<rect x="122.5" y="129.6" class="st44" width="0.7" height="0.7"/>
	<rect x="126.6" y="129.6" class="st44" width="0.7" height="0.7"/>
</g>
<g>
	<path class="st43" d="M42.2,91.5l-2.4,2.4l0.5,0.5l0.1-0.1v4.6h7.4L47.6,99l0.5,0.5l2.4-2.4L50,96.6l-0.1,0.1V92h-7.4l0.1-0.1
		L42.2,91.5z M49.2,92.7v4.6l-0.8,0.8h-7.4v-4.6l0.8-0.8H49.2z"/>
	<path class="st44" d="M0,97.5h1.4v2.7l2.7-2.7h6.8v-6.8H0V97.5z M0.7,91.4h9.5v5.4H4.1H3.8L3.6,97L2,98.6v-1.1v-0.7H1.4H0.7V91.4z"
		/>
	<path class="st44" d="M82.8,97.3c-0.4-0.3-0.8-0.5-1.4-0.5c-1.1,0-2,0.9-2,2c0,1.1,0.9,2,2,2c1.1,0,2-0.9,2-2v-8.2h6.1V96
		c-0.4-0.3-0.8-0.5-1.4-0.5c-1.1,0-2,0.9-2,2s0.9,2,2,2c1.1,0,2-0.9,2-2V90h-7.5V97.3z M88.3,98.9c-0.8,0-1.4-0.6-1.4-1.4
		c0-0.8,0.6-1.4,1.4-1.4c0.8,0,1.4,0.6,1.4,1.4C89.6,98.2,89,98.9,88.3,98.9 M81.4,100.2c-0.8,0-1.4-0.6-1.4-1.4
		c0-0.8,0.6-1.4,1.4-1.4c0.8,0,1.4,0.6,1.4,1.4C82.8,99.6,82.2,100.2,81.4,100.2"/>
	<path class="st44" d="M129.7,100.6V90.3h-10.2v10.2h2v-0.3c0-1.7,1.4-3.1,3.1-3.1c1.7,0,3.1,1.4,3.1,3.1v0.3H129.7z M126,96.7
		c0.8-0.5,1.3-1.3,1.3-2.3c0-1.5-1.2-2.7-2.7-2.7s-2.7,1.2-2.7,2.7c0,1,0.5,1.8,1.3,2.3c-1.3,0.5-2.2,1.7-2.3,3.1h-0.7V91h8.9v8.9
		h-0.7C128.2,98.5,127.2,97.3,126,96.7 M124.6,96.5c-1.1,0-2-0.9-2-2c0-1.1,0.9-2,2-2s2,0.9,2,2C126.6,95.6,125.7,96.5,124.6,96.5"
		/>
</g>
<g>
	<path class="st44" d="M45.5,154.8v-1.4c0.8-0.2,1.4-0.8,1.4-1.7c0-0.9-0.8-1.7-1.7-1.7c-0.9,0-1.7,0.8-1.7,1.7
		c0,0.8,0.6,1.5,1.4,1.7v1.4h-3.1l-2,6.1h10.9l-2-6.1H45.5z M44.1,151.8c0-0.6,0.5-1,1-1c0.6,0,1,0.5,1,1s-0.5,1-1,1
		C44.6,152.8,44.1,152.3,44.1,151.8 M40.6,160.3l1.6-4.8h2.6v2.4c0,0.2,0.2,0.3,0.3,0.3s0.3-0.2,0.3-0.3v-2.4h2.6l1.6,4.8H40.6z"/>
	<path class="st44" d="M6.8,151.4H4.1l-0.7,0.7H0v7.5h10.9v-7.5H7.5L6.8,151.4z M10.2,158.9H0.7v-6.1h3l0.7-0.7h2.1l0.7,0.7h3V158.9
		z"/>
	<path class="st44" d="M5.4,153.5c-1.3,0-2.4,1.1-2.4,2.4c0,1.3,1.1,2.4,2.4,2.4c1.3,0,2.4-1.1,2.4-2.4
		C7.8,154.5,6.8,153.5,5.4,153.5 M5.4,157.6c-0.9,0-1.7-0.8-1.7-1.7s0.8-1.7,1.7-1.7c0.9,0,1.7,0.8,1.7,1.7S6.4,157.6,5.4,157.6"/>
	<path class="st44" d="M1.7,153.5c-0.2,0-0.3,0.2-0.3,0.3c0,0.2,0.2,0.3,0.3,0.3c0.2,0,0.3-0.2,0.3-0.3C2,153.6,1.9,153.5,1.7,153.5
		"/>
	<path class="st44" d="M86.2,150.7v-0.7h-2.7v0.7h-2.7h-0.7v0.7h0.7v9.5h8.2v-9.5h0.7v-0.7h-0.7H86.2z M88.3,160.3h-6.8v-8.9h6.8
		V160.3z"/>
	<rect x="129.3" y="150.1" class="st44" width="0.7" height="10.9"/>
	<rect x="127.3" y="151.4" class="st44" width="0.7" height="8.2"/>
	<rect x="125.2" y="152.8" class="st44" width="0.7" height="5.4"/>
	<path class="st44" d="M123.2,159.6h0.7v-8.2h-0.7l-2.4,2.4h-1.7v3.4h1.7L123.2,159.6z M119.8,154.5h1h0.3l0.2-0.2l1.9-1.9v6.2
		l-1.9-1.9l-0.2-0.2h-0.3h-1V154.5z"/>
</g>
<g>
	<path class="st44" d="M48.9,179.8c-0.8,0-1.5,0.6-1.7,1.4h-5.5v-1.4h-0.3c-0.9,0-1.7,0.8-1.7,1.7v7.5c0,0.9,0.8,1.7,1.7,1.7h7.8
		v-7.5c0.8-0.2,1.4-0.8,1.4-1.7C50.6,180.6,49.8,179.8,48.9,179.8 M40.4,181.5c0-0.4,0.3-0.8,0.7-1v6.8c-0.3,0.1-0.5,0.2-0.7,0.3
		V181.5z M41.4,190c-0.6,0-1-0.5-1-1c0-0.6,0.5-1,1-1h0.3v-6.1h5.5c0,0.2,0.1,0.4,0.2,0.6l-2.6,2.6c-0.1,0.1-0.1,0.3,0,0.5
		c0.1,0.1,0.2,0.1,0.2,0.1s0.2,0,0.2-0.1l2.6-2.6c0.2,0.1,0.4,0.2,0.6,0.2v6.8H41.4z M48.9,182.5c-0.6,0-1-0.5-1-1s0.5-1,1-1
		c0.6,0,1,0.5,1,1S49.5,182.5,48.9,182.5"/>
	<path class="st43" d="M0.1,185.4l0.5,0.5l0.4-0.4v5.3h3.4v-4.1h2v4.1h3.4v-5.3l0.4,0.4l0.5-0.5L5.4,180L0.1,185.4z M9.2,190h-2
		v-4.1H3.7v4.1h-2v-5.3l3.7-3.7l3.7,3.7V190z"/>
	<path class="st44" d="M86.2,180.5v-0.7h-2.7v0.7h-2.7h-0.7v0.7h0.7v9.5h8.2v-9.5h0.7v-0.7h-0.7H86.2z M88.3,190h-6.8v-8.9h6.8V190z
		"/>
	<rect x="82.5" y="181.8" class="st44" width="0.7" height="7.5"/>
	<rect x="84.5" y="181.8" class="st44" width="0.7" height="7.5"/>
	<rect x="86.6" y="181.8" class="st44" width="0.7" height="7.5"/>
	<path class="st44" d="M120.8,183.2h-1.7v4.1h1.7l3.1,3.1h0.7v-10.2h-0.7L120.8,183.2z M123.9,189.4l-2.6-2.6l-0.2-0.2h-0.3h-1v-2.7
		h1h0.3l0.2-0.2l2.6-2.6V189.4z"/>
	<path class="st44" d="M125.9,181.8l-0.5,0.5c1.6,1.6,1.6,4.3,0,6l0.5,0.5C127.7,186.8,127.7,183.7,125.9,181.8"/>
	<path class="st44" d="M126.9,180.9l-0.5,0.5c2.1,2.2,2.1,5.7,0,7.9l0.5,0.5C129.2,187.2,129.2,183.3,126.9,180.9"/>
	<path class="st44" d="M127.4,180.4c2.6,2.7,2.6,7.1,0,9.7l0.5,0.5c2.8-2.9,2.8-7.7,0-10.7L127.4,180.4z"/>
</g>
</svg>
