<?xml version="1.0" encoding="iso-8859-1"?>
<!-- Generator: Adobe Illustrator 18.1.0, SVG Export Plug-In . SVG Version: 6.00 Build 0)  -->
<!DOCTYPE svg PUBLIC "-//W3C//DTD SVG 1.1//EN" "http://www.w3.org/Graphics/SVG/1.1/DTD/svg11.dtd">
<svg version="1.1" id="Layer_1" xmlns="http://www.w3.org/2000/svg" xmlns:xlink="http://www.w3.org/1999/xlink" x="0px" y="0px"
	 viewBox="0 0 192.8 50.4" style="enable-background:new 0 0 192.8 50.4;" xml:space="preserve">
<style type="text/css">
	.st0{fill:#F4F4F4;}
	.st1{fill:#F26522;}
	.st2{fill:#8DC63F;}
	.st3{fill:#00AEEF;}
	.st4{fill:#FFC20E;}
	.st5{fill:#FFFFFF;}
	.st6{fill:#00AFF0;}
	.st7{fill:#3176BB;}
	.st8{fill:#999999;}
	.st9{fill:#CCCBCB;}
	.st10{fill:#676767;}
	.st11{fill:#CCCCCC;}
	.st12{fill:#0078D7;}
	.st13{fill:#E3008C;}
	.st14{fill-rule:evenodd;clip-rule:evenodd;fill:#00BCF2;}
	.st15{fill-rule:evenodd;clip-rule:evenodd;fill:#002050;}
	.st16{fill-rule:evenodd;clip-rule:evenodd;fill:#00188F;}
	.st17{fill-rule:evenodd;clip-rule:evenodd;fill:#00B294;}
	.st18{fill-rule:evenodd;clip-rule:evenodd;fill:#004B50;}
	.st19{fill-rule:evenodd;clip-rule:evenodd;fill:#BAD80A;}
	.st20{fill-rule:evenodd;clip-rule:evenodd;fill:#004B1C;}
	.st21{fill-rule:evenodd;clip-rule:evenodd;fill:#B4A0FF;}
	.st22{fill-rule:evenodd;clip-rule:evenodd;fill:#FFF100;}
	.st23{fill-rule:evenodd;clip-rule:evenodd;fill:#A80000;}
	.st24{fill-rule:evenodd;clip-rule:evenodd;fill:#5C005C;}
	.st25{fill-rule:evenodd;clip-rule:evenodd;fill:#32145A;}
	.st26{fill-rule:evenodd;clip-rule:evenodd;fill:#FF8C00;}
	.st27{fill-rule:evenodd;clip-rule:evenodd;fill:#E3008C;}
	.st28{fill-rule:evenodd;clip-rule:evenodd;fill:#0078D7;}
	.st29{opacity:0.2;fill-rule:evenodd;clip-rule:evenodd;fill:#231F20;}
	.st30{opacity:7.000000e-002;fill-rule:evenodd;clip-rule:evenodd;fill:#231F20;}
	.st31{opacity:0.1;fill-rule:evenodd;clip-rule:evenodd;fill:#231F20;}
	.st32{opacity:0.3;fill-rule:evenodd;clip-rule:evenodd;fill:#231F20;}
	.st33{opacity:0.6;fill-rule:evenodd;clip-rule:evenodd;fill:#FFFFFF;}
	.st34{opacity:0.1;fill-rule:evenodd;clip-rule:evenodd;fill:#FFFFFF;}
	.st35{opacity:0.8;fill-rule:evenodd;clip-rule:evenodd;fill:#FFFFFF;}
	.st36{opacity:0.9;fill-rule:evenodd;clip-rule:evenodd;fill:#FFFFFF;}
	.st37{fill-rule:evenodd;clip-rule:evenodd;fill:#008272;}
	.st38{opacity:0.4;fill-rule:evenodd;clip-rule:evenodd;fill:#231F20;}
	.st39{fill-rule:evenodd;clip-rule:evenodd;fill:#FFFFFF;}
	.st40{fill-rule:evenodd;clip-rule:evenodd;fill:#231F20;}
	.st41{opacity:0.6;fill-rule:evenodd;clip-rule:evenodd;fill:#231F20;}
</style>
<g>
	<path d="M0,36.6v-2.9c2.7,1.7,5.4,2.5,8.1,2.5c2.9,0,5.1-0.6,6.6-1.8c1.5-1.2,2.3-2.9,2.3-5.1c0-1.9-0.5-3.4-1.5-4.6
		c-1-1.1-3.2-2.7-6.6-4.6c-3.8-2.2-6.2-4-7.2-5.5c-1-1.5-1.5-3.2-1.5-5.1c0-2.6,1-4.9,3.1-6.7C5.3,0.9,8.1,0,11.5,0
		c2.2,0,4.4,0.4,6.7,1.1v2.7c-2.2-1-4.5-1.5-7-1.5c-2.5,0-4.5,0.6-6,1.9C3.6,5.5,2.9,7.2,2.9,9.2c0,1.9,0.5,3.4,1.5,4.6
		c1,1.1,3.2,2.7,6.6,4.6c3.5,2,5.8,3.7,7,5.3c1.2,1.5,1.7,3.3,1.7,5.3c0,2.9-1,5.2-3,7c-2,1.8-4.8,2.7-8.4,2.7
		c-1.3,0-2.8-0.2-4.4-0.6C2.2,37.6,0.9,37.1,0,36.6z"/>
	<path d="M27.7,24.7c0,3.7,0.8,6.5,2.5,8.6c1.7,2.1,4,3.1,7,3.1c3,0,5.9-1.1,8.7-3.3v2.5c-2.8,2-5.8,2.9-9.2,2.9
		c-3.4,0-6.2-1.2-8.3-3.7c-2.1-2.5-3.2-5.9-3.2-10.4c0-3.9,1.1-7.2,3.3-9.8c2.2-2.7,5.1-4,8.6-4c3.3,0,5.9,1.2,7.6,3.5
		c1.8,2.3,2.7,5.5,2.7,9.5v1.1H27.7z M44.9,22.5c-0.1-3.1-0.8-5.5-2.2-7.2c-1.4-1.7-3.3-2.5-5.7-2.5c-2.5,0-4.6,0.8-6.2,2.5
		c-1.6,1.7-2.6,4.1-3,7.2H44.9z"/>
	<path d="M75.3,35.9c0,5-1.1,8.7-3.3,11c-2.2,2.3-5.6,3.5-10.2,3.5c-2.6,0-5.2-0.7-7.9-2v-2.5c2.8,1.6,5.5,2.3,8,2.3
		c7.3,0,11-3.9,11-11.6v-3.5h-0.1c-2.1,3.6-5.3,5.4-9.6,5.4c-3.3,0-6-1.2-8-3.6c-2.1-2.4-3.1-5.7-3.1-9.9c0-4.2,1.1-7.7,3.4-10.4
		c2.2-2.7,5.2-4,8.8-4c3.9,0,6.8,1.6,8.5,4.9h0.1v-4.2h2.4V35.9z M72.9,21.5c0-2.4-0.8-4.4-2.4-6.1c-1.6-1.7-3.7-2.6-6.2-2.6
		c-2.9,0-5.3,1.1-7.1,3.3c-1.8,2.2-2.7,5.1-2.7,8.7c0,3.6,0.8,6.5,2.5,8.5c1.6,2,3.8,3,6.5,3c2.9,0,5.1-0.9,6.8-2.8
		c1.7-1.9,2.5-4.1,2.5-6.8V21.5z"/>
	<path d="M94.5,38.6c-3.9,0-7-1.3-9.2-3.8c-2.3-2.6-3.4-5.9-3.4-10c0-4.4,1.2-7.9,3.5-10.4c2.4-2.5,5.5-3.7,9.3-3.7
		c3.8,0,6.8,1.2,9,3.7c2.2,2.5,3.3,5.9,3.3,10.3c0,4.1-1.1,7.5-3.4,10.1C101.5,37.3,98.4,38.6,94.5,38.6z M94.7,12.8
		c-3.1,0-5.6,1.1-7.5,3.2c-1.9,2.1-2.8,5.1-2.8,8.8c0,3.5,0.9,6.3,2.7,8.4c1.8,2.1,4.3,3.2,7.5,3.2c3.2,0,5.7-1,7.4-3.1
		c1.7-2.1,2.6-5,2.6-8.7c0-3.8-0.9-6.7-2.6-8.7C100.3,13.8,97.9,12.8,94.7,12.8z"/>
	<path d="M114.3,24.7c0,3.7,0.8,6.5,2.5,8.6c1.7,2.1,4,3.1,7,3.1c3,0,5.9-1.1,8.7-3.3v2.5c-2.8,2-5.8,2.9-9.2,2.9
		c-3.4,0-6.2-1.2-8.3-3.7c-2.1-2.5-3.2-5.9-3.2-10.4c0-3.9,1.1-7.2,3.3-9.8c2.2-2.7,5.1-4,8.6-4c3.3,0,5.9,1.2,7.6,3.5
		c1.8,2.3,2.7,5.5,2.7,9.5v1.1H114.3z M131.5,22.5c-0.1-3.1-0.8-5.5-2.2-7.2c-1.4-1.7-3.3-2.5-5.7-2.5c-2.5,0-4.6,0.8-6.2,2.5
		s-2.6,4.1-3,7.2H131.5z"/>
	<path d="M181.1,23c0,10.4-4.4,15.5-13.3,15.5c-8.4,0-12.6-5-12.6-15v-23h2.5v22.6c0,8.7,3.5,13,10.6,13c6.8,0,10.2-4.2,10.2-12.6
		v-23h2.5V23z"/>
	<path d="M190.2,37.9V0.6h2.6v37.3H190.2z"/>
</g>
</svg>
