<?xml version="1.0" encoding="iso-8859-1"?>
<!-- Generator: Adobe Illustrator 18.1.0, SVG Export Plug-In . SVG Version: 6.00 Build 0)  -->
<!DOCTYPE svg PUBLIC "-//W3C//DTD SVG 1.1//EN" "http://www.w3.org/Graphics/SVG/1.1/DTD/svg11.dtd">
<svg version="1.1" id="Layer_1" xmlns="http://www.w3.org/2000/svg" xmlns:xlink="http://www.w3.org/1999/xlink" x="0px" y="0px"
	 viewBox="0 0 255 170" style="enable-background:new 0 0 255 170;" xml:space="preserve">
<style type="text/css">
	.st0{fill:#F4F4F4;}
	.st1{fill:#F26522;}
	.st2{fill:#8DC63F;}
	.st3{fill:#00AEEF;}
	.st4{fill:#FFC20E;}
	.st5{fill:#FFFFFF;}
	.st6{fill:#00AFF0;}
	.st7{fill:#3176BB;}
	.st8{fill:#999999;}
	.st9{fill:#CCCBCB;}
	.st10{fill:#676767;}
	.st11{fill:#CCCCCC;}
	.st12{fill:#0078D7;}
	.st13{fill:#E3008C;}
	.st14{fill-rule:evenodd;clip-rule:evenodd;fill:#00BCF2;}
	.st15{fill-rule:evenodd;clip-rule:evenodd;fill:#002050;}
	.st16{fill-rule:evenodd;clip-rule:evenodd;fill:#00188F;}
	.st17{fill-rule:evenodd;clip-rule:evenodd;fill:#00B294;}
	.st18{fill-rule:evenodd;clip-rule:evenodd;fill:#004B50;}
	.st19{fill-rule:evenodd;clip-rule:evenodd;fill:#BAD80A;}
	.st20{fill-rule:evenodd;clip-rule:evenodd;fill:#004B1C;}
	.st21{fill-rule:evenodd;clip-rule:evenodd;fill:#B4A0FF;}
	.st22{fill-rule:evenodd;clip-rule:evenodd;fill:#FFF100;}
	.st23{fill-rule:evenodd;clip-rule:evenodd;fill:#A80000;}
	.st24{fill-rule:evenodd;clip-rule:evenodd;fill:#5C005C;}
	.st25{fill-rule:evenodd;clip-rule:evenodd;fill:#32145A;}
	.st26{fill-rule:evenodd;clip-rule:evenodd;fill:#FF8C00;}
	.st27{fill-rule:evenodd;clip-rule:evenodd;fill:#E3008C;}
	.st28{fill-rule:evenodd;clip-rule:evenodd;fill:#0078D7;}
	.st29{opacity:0.2;fill-rule:evenodd;clip-rule:evenodd;fill:#231F20;}
	.st30{opacity:7.000000e-002;fill-rule:evenodd;clip-rule:evenodd;fill:#231F20;}
	.st31{opacity:0.1;fill-rule:evenodd;clip-rule:evenodd;fill:#231F20;}
	.st32{opacity:0.3;fill-rule:evenodd;clip-rule:evenodd;fill:#231F20;}
	.st33{opacity:0.6;fill-rule:evenodd;clip-rule:evenodd;fill:#FFFFFF;}
	.st34{opacity:0.1;fill-rule:evenodd;clip-rule:evenodd;fill:#FFFFFF;}
	.st35{opacity:0.8;fill-rule:evenodd;clip-rule:evenodd;fill:#FFFFFF;}
	.st36{opacity:0.9;fill-rule:evenodd;clip-rule:evenodd;fill:#FFFFFF;}
	.st37{fill-rule:evenodd;clip-rule:evenodd;fill:#008272;}
	.st38{opacity:0.4;fill-rule:evenodd;clip-rule:evenodd;fill:#231F20;}
	.st39{fill-rule:evenodd;clip-rule:evenodd;fill:#FFFFFF;}
	.st40{fill-rule:evenodd;clip-rule:evenodd;fill:#231F20;}
	.st41{opacity:0.6;fill-rule:evenodd;clip-rule:evenodd;fill:#231F20;}
</style>
<g>
	<rect x="127.5" y="42.5" class="st28" width="42.5" height="42.5"/>
	<rect x="85" y="0" class="st28" width="42.5" height="42.5"/>
	<rect x="127.5" y="0" class="st28" width="42.5" height="42.5"/>
	<rect x="170" y="0" class="st28" width="42.5" height="42.5"/>
	<rect x="212.5" y="0" class="st28" width="42.5" height="42.5"/>
	<g>
		<rect x="170" y="0" class="st29" width="42.5" height="42.5"/>
		<rect x="85" y="0" class="st30" width="42.5" height="42.5"/>
		<rect x="127.5" y="0" class="st31" width="42.5" height="42.5"/>
		<rect x="212.5" y="0" class="st32" width="42.5" height="42.5"/>
	</g>
	<rect x="0" y="0" class="st28" width="85" height="85"/>
	<g>
		<path class="st5" d="M10.8,21.4V10.9h2.9c0.4,0,0.8,0.1,1.2,0.2c0.3,0.1,0.6,0.3,0.9,0.5c0.2,0.2,0.4,0.5,0.6,0.8s0.2,0.6,0.2,1
			c0,0.3,0,0.6-0.1,0.8s-0.2,0.5-0.4,0.7c-0.2,0.2-0.3,0.4-0.6,0.6c-0.2,0.2-0.5,0.3-0.8,0.4v0c0.4,0,0.7,0.1,1,0.3s0.5,0.3,0.7,0.5
			s0.4,0.5,0.5,0.8c0.1,0.3,0.2,0.6,0.2,1c0,0.4-0.1,0.9-0.2,1.2c-0.2,0.4-0.4,0.7-0.7,1c-0.3,0.3-0.6,0.5-1,0.6s-0.8,0.2-1.3,0.2
			H10.8z M11.8,11.8v3.7h1.4c0.4,0,0.7,0,1-0.1s0.5-0.2,0.7-0.4s0.4-0.4,0.5-0.6c0.1-0.2,0.2-0.5,0.2-0.8c0-1.1-0.7-1.7-2.1-1.7
			H11.8z M11.8,16.4v4.1h1.8c0.8,0,1.4-0.2,1.8-0.5c0.4-0.4,0.6-0.9,0.6-1.5c0-1.3-0.9-2-2.7-2H11.8z"/>
		<path class="st5" d="M19,21.4V10.3h0.9v11.1H19z"/>
		<path class="st5" d="M27.1,21.4v-1.3h0c-0.5,1-1.3,1.5-2.4,1.5c-1.8,0-2.7-1.1-2.7-3.3v-4.4H23v4.2c0,0.9,0.2,1.6,0.5,2
			c0.3,0.4,0.8,0.6,1.5,0.6c0.3,0,0.6-0.1,0.9-0.2c0.3-0.1,0.5-0.3,0.7-0.5c0.2-0.2,0.3-0.5,0.5-0.8s0.2-0.7,0.2-1.1v-4.3h0.9v7.5
			H27.1z"/>
		<path class="st5" d="M30.9,17.9c0,0.5,0.1,0.9,0.2,1.2s0.3,0.7,0.5,0.9s0.5,0.4,0.8,0.6c0.3,0.1,0.7,0.2,1.1,0.2
			c0.8,0,1.6-0.3,2.4-0.9v0.9c-0.7,0.5-1.6,0.8-2.6,0.8c-0.5,0-1-0.1-1.4-0.3s-0.8-0.4-1-0.8c-0.3-0.3-0.5-0.7-0.7-1.2
			s-0.2-1-0.2-1.7c0-0.6,0.1-1.1,0.3-1.6s0.4-0.9,0.7-1.2c0.3-0.3,0.7-0.6,1.1-0.8c0.4-0.2,0.9-0.3,1.4-0.3c0.5,0,0.9,0.1,1.3,0.3
			c0.4,0.2,0.7,0.4,0.9,0.7c0.3,0.3,0.4,0.7,0.6,1.1s0.2,1,0.2,1.5v0.5H30.9z M35.3,17c0-0.8-0.2-1.4-0.6-1.8s-0.9-0.6-1.5-0.6
			c-0.3,0-0.6,0.1-0.9,0.2c-0.3,0.1-0.5,0.3-0.7,0.5c-0.2,0.2-0.4,0.5-0.5,0.8c-0.1,0.3-0.2,0.6-0.3,1H35.3z"/>
	</g>
	<rect x="85" y="42.5" class="st28" width="42.5" height="42.5"/>
	<rect x="127.5" y="42.5" class="st33" width="42.5" height="42.5"/>
	<rect x="170" y="42.5" class="st28" width="42.5" height="42.5"/>
	<rect x="212.5" y="42.5" class="st28" width="42.5" height="42.5"/>
	<rect x="85" y="42.5" class="st34" width="42.5" height="42.5"/>
	<rect x="170" y="42.5" class="st35" width="42.5" height="42.5"/>
	<rect x="212.5" y="42.5" class="st36" width="42.5" height="42.5"/>
	<rect x="85" y="85" class="st37" width="42.5" height="42.5"/>
	<rect x="127.5" y="85" class="st37" width="42.5" height="42.5"/>
	<rect x="170" y="85" class="st37" width="42.5" height="42.5"/>
	<rect x="212.5" y="85" class="st37" width="42.5" height="42.5"/>
	<rect x="0" y="85" class="st37" width="85" height="42.5"/>
	<rect x="85" y="127.5" class="st38" width="42.5" height="42.5"/>
	<rect x="127.5" y="127.5" class="st29" width="42.5" height="42.5"/>
	<rect x="170" y="127.5" class="st31" width="42.5" height="42.5"/>
	<rect x="212.5" y="127.5" class="st39" width="42.5" height="42.5"/>
	<rect x="0" y="127.5" class="st40" width="42.5" height="42.5"/>
	<rect x="42.5" y="127.5" class="st41" width="42.5" height="42.5"/>
	<g>
		<path class="st5" d="M13.8,96.8v9.6h-1v-9.6h-3v-0.9h7v0.9H13.8z"/>
		<path class="st5" d="M18.8,102.9c0,0.5,0.1,0.9,0.2,1.2s0.3,0.7,0.5,0.9s0.5,0.4,0.8,0.6c0.3,0.1,0.7,0.2,1.1,0.2
			c0.8,0,1.6-0.3,2.4-0.9v0.9c-0.7,0.5-1.6,0.8-2.6,0.8c-0.5,0-1-0.1-1.4-0.3s-0.8-0.4-1-0.8c-0.3-0.3-0.5-0.7-0.7-1.2
			s-0.2-1-0.2-1.7c0-0.6,0.1-1.1,0.3-1.6s0.4-0.9,0.7-1.2c0.3-0.3,0.7-0.6,1.1-0.8c0.4-0.2,0.9-0.3,1.4-0.3c0.5,0,0.9,0.1,1.3,0.3
			c0.4,0.2,0.7,0.4,0.9,0.7c0.3,0.3,0.4,0.7,0.6,1.1s0.2,1,0.2,1.5v0.5H18.8z M23.3,102c0-0.8-0.2-1.4-0.6-1.8s-0.9-0.6-1.5-0.6
			c-0.3,0-0.6,0.1-0.9,0.2c-0.3,0.1-0.5,0.3-0.7,0.5c-0.2,0.2-0.4,0.5-0.5,0.8c-0.1,0.3-0.2,0.6-0.3,1H23.3z"/>
		<path class="st5" d="M30.3,106.4v-1.3h0c-0.2,0.5-0.6,0.8-1,1.1c-0.4,0.3-0.9,0.4-1.4,0.4c-0.4,0-0.7-0.1-1-0.2s-0.5-0.2-0.7-0.4
			c-0.2-0.2-0.4-0.4-0.5-0.7c-0.1-0.3-0.2-0.6-0.2-0.9c0-0.7,0.2-1.2,0.6-1.6c0.4-0.4,1.1-0.7,1.9-0.8l2.3-0.3
			c0-1.4-0.6-2.2-1.7-2.2c-0.9,0-1.7,0.3-2.4,1v-1c0.2-0.1,0.3-0.2,0.5-0.3c0.2-0.1,0.4-0.2,0.6-0.2c0.2-0.1,0.4-0.1,0.7-0.2
			c0.2,0,0.5-0.1,0.7-0.1c0.8,0,1.5,0.2,1.9,0.7s0.6,1.2,0.6,2.1v4.9H30.3z M28.4,102.8c-0.3,0-0.6,0.1-0.9,0.2s-0.4,0.2-0.6,0.3
			c-0.2,0.1-0.3,0.3-0.3,0.5c-0.1,0.2-0.1,0.4-0.1,0.7c0,0.2,0,0.4,0.1,0.6c0.1,0.2,0.2,0.3,0.3,0.4c0.1,0.1,0.3,0.2,0.5,0.3
			s0.4,0.1,0.7,0.1c0.3,0,0.6-0.1,0.9-0.2s0.5-0.3,0.7-0.5c0.2-0.2,0.4-0.5,0.5-0.8s0.2-0.7,0.2-1v-0.7L28.4,102.8z"/>
		<path class="st5" d="M33.4,106.4V95.3h0.9v11.1H33.4z"/>
	</g>
	<g>
		<rect x="127.5" y="85" class="st33" width="42.5" height="42.5"/>
		<rect x="85" y="85" class="st34" width="42.5" height="42.5"/>
		<rect x="170" y="85" class="st35" width="42.5" height="42.5"/>
		<rect x="212.5" y="85" class="st36" width="42.5" height="42.5"/>
	</g>
</g>
</svg>
