<?xml version="1.0" encoding="iso-8859-1"?>
<!-- Generator: Adobe Illustrator 18.1.0, SVG Export Plug-In . SVG Version: 6.00 Build 0)  -->
<!DOCTYPE svg PUBLIC "-//W3C//DTD SVG 1.1//EN" "http://www.w3.org/Graphics/SVG/1.1/DTD/svg11.dtd">
<svg version="1.1" id="Layer_1" xmlns="http://www.w3.org/2000/svg" xmlns:xlink="http://www.w3.org/1999/xlink" x="0px" y="0px"
	 viewBox="0 0 100 44.1" style="enable-background:new 0 0 100 44.1;" xml:space="preserve">
<style type="text/css">
	.st0{fill:#F4F4F4;}
	.st1{fill:#F26522;}
	.st2{fill:#8DC63F;}
	.st3{fill:#00AEEF;}
	.st4{fill:#FFC20E;}
	.st5{fill:#FFFFFF;}
	.st6{fill:#00AFF0;}
</style>
<g>
	<path class="st5" d="M100,13.8c0-3-2.5-5.5-5.5-5.5c-1.6,0-3,0.7-4,1.7c-2.3-1.6-5.1-2.6-8.2-2.6c-3.1,0-5.9,1-8.3,2.6
		c-1.1-1-2.5-1.6-4-1.6c-1.1,0-2.2,0.3-3.1,0.9C64.8,5.5,60.7,2.9,56,2.9c-4.3,0-8.1,2.2-10.4,5.4c-1.9-1.9-4.5-3.2-7.5-3.2
		c-1.9,0-3.7,0.5-5.3,1.5c0-3.7-3-6.7-6.8-6.7c-3.7,0-6.8,3-6.8,6.8l0,0.3c-0.7-0.1-1.5-0.2-2.2-0.2c-2.2,0-4.3,0.5-6.2,1.3
		C9.9,7.6,8.7,7.3,7.4,7.3C3.3,7.3,0,10.6,0,14.8c0,2.2,0.9,4.1,2.4,5.5c0,0.4-0.1,0.9-0.1,1.4c0,8.1,6.6,14.7,14.8,14.7
		c3.2,0,6.1-1,8.5-2.7c2.2,3,5.7,4.9,9.6,4.9c0.1,0,0.2,0,0.3,0c1.1,3.2,4.2,5.5,7.8,5.5c3.6,0,6.8-2.4,7.8-5.7c1.3,2.4,3.7,4,6.6,4
		c3.6,0,6.6-2.5,7.3-5.9c0.5,0.1,1,0.1,1.6,0.1c2.9,0,5.6-1.1,7.6-2.9c2.3,1.6,5.1,2.5,8.1,2.5c7.9,0,14.4-6.4,14.4-14.4
		c0-1-0.1-1.9-0.3-2.9C98.5,18.1,100,16.1,100,13.8z"/>
	<polyline class="st6" points="91,12.6 91,12 93.7,12 93.7,12.6 92.8,12.6 92.8,15.3 92,15.3 92,12.6 91,12.6 	"/>
	<path class="st6" d="M94.1,12h1c0,0,0,0,0.8,2.3l0.7-2.3h1v3.3H97c0,0,0,0,0-2.3l-0.8,2.3h-0.6c0,0,0,0-0.8-2.3v2.3h-0.7V12z"/>
	<path class="st6" d="M92.5,20.2c0-4.3-3.4-8.6-9.5-8.6c-5.2,0-8.6,2.8-9.6,7.3c-0.9-4.9-4.2-7.3-8-7.3c-2.5,0-4.7,1.1-5.5,3.3h-0.1
		v-0.8c0-1.6-0.8-2.5-2.4-2.5c-1.1,0-1.8,0.4-2.1,1.2c-0.4-0.6-1.1-1.2-2.3-1.2c-1.4,0-2.2,1-2.5,2.3l-3.2,11.9h-0.1l-3.4-12.2
		c-0.3-1.2-1.3-2-2.7-2c-1,0-1.8,0.5-2.3,1.4c-0.4-0.8-1.3-1.4-2.2-1.4c-0.8,0-1.5,0.4-2,1l-5.8,6.5V7.1c0-1.7-1-2.6-2.6-2.6
		c-1.6,0-2.6,0.9-2.6,2.6v16.4c-0.8-2.5-3.8-3.5-6.3-4.1L15.2,19c-1.6-0.4-2.8-0.6-2.8-1.9c0-1.1,1.2-1.6,3-1.6
		c3.3,0,3.4,2.4,5.4,2.4c1.4,0,2.2-1.1,2.2-2.3c0-2.4-4-4-8-4c-3.6,0-7.9,1.6-7.9,5.9c0,3.5,2.4,4.8,5.4,5.5l3.1,0.7
		c1.9,0.5,3,0.7,3,2c0,1.1-1.2,1.9-3,1.9c-3.9,0-4.1-3.2-6.4-3.2c-1.5,0-2.1,1-2.1,2.2c0,2.6,3.9,4.7,8.7,4.7c3.4,0,6.9-1.5,7.8-4.6
		v1.9c0,1.7,1,2.6,2.6,2.6c1.6,0,2.6-0.9,2.6-2.6v-4l1.8-1.6l5,7c0.4,0.6,1.1,1.2,2.4,1.2c1.4,0,2.5-1.2,2.5-2.5
		c0-0.9-0.4-1.4-0.5-1.7l-5.5-7.3l3.9-4.1c0.2-0.2,0.3-0.3,0.4-0.5c0.1,0.4,0.3,0.8,0.4,1.3l5.5,15.5c-0.4,1.6-1.1,1.6-1.8,1.6h-0.5
		c-1.4,0-2.4,0.7-2.4,2.1c0,1.3,1,2.4,3.3,2.4c3.3,0,4.7-1.9,6-5.5l5.9-16.7v19.5c0,1.7,1,2.6,2.6,2.6c1.6,0,2.6-0.9,2.6-2.6v-7h0.1
		c1,1.7,2.8,2.7,5.2,2.7c4.5,0,7-3.1,7.8-7c0.9,3.7,3.8,7,9.8,7c3.2,0,8.2-1.5,8.2-4.6c0-1-0.9-2-2.2-2c-2.1,0-2.1,2.6-6.1,2.6
		c-3,0-4.8-2-4.8-4.8h11.8C92,22.4,92.5,22,92.5,20.2z M64.3,27.2c-3.2,0-4.2-3.1-4.2-5.8c0-3,1.1-5.7,4.2-5.7
		c2.8,0,4.2,2.6,4.2,5.7C68.4,23.8,67.6,27.2,64.3,27.2z M78.4,19.4c0.6-2.5,2.2-4.2,4.8-4.2c2.3,0,4.1,1.8,4.4,4.2H78.4z"/>
</g>
</svg>
