<?xml version="1.0" encoding="iso-8859-1"?>
<!-- Generator: Adobe Illustrator 18.1.0, SVG Export Plug-In . SVG Version: 6.00 Build 0)  -->
<!DOCTYPE svg PUBLIC "-//W3C//DTD SVG 1.1//EN" "http://www.w3.org/Graphics/SVG/1.1/DTD/svg11.dtd">
<svg version="1.1" id="Layer_1" xmlns="http://www.w3.org/2000/svg" xmlns:xlink="http://www.w3.org/1999/xlink" x="0px" y="0px"
	 viewBox="0 0 100 100" style="enable-background:new 0 0 100 100;" xml:space="preserve">
<path d="M0,100h100V0H0V100z M71.4,4.8v19h-19v-19H71.4z M47.6,52.4v19h-19v-19H47.6z M28.6,47.6v-19h19v19H28.6z M52.4,52.4h19v19
	h-19V52.4z M52.4,47.6v-19h19v19H52.4z M47.6,4.8v19h-19v-19H47.6z M4.8,4.8h19v19h-19V4.8z M4.8,28.6h19v19h-19V28.6z M4.8,52.4h19
	v19h-19V52.4z M4.8,95.2v-19h19v19H4.8z M28.6,95.2v-19h19v19H28.6z M52.4,95.2v-19h19v19H52.4z M95.2,95.2h-19v-19h19V95.2z
	 M95.2,71.4h-19v-19h19V71.4z M95.2,47.6h-19v-19h19V47.6z M95.2,23.8h-19v-19h19V23.8z"/>
</svg>
