<?xml version="1.0" encoding="iso-8859-1"?>
<!-- Generator: Adobe Illustrator 18.1.0, SVG Export Plug-In . SVG Version: 6.00 Build 0)  -->
<!DOCTYPE svg PUBLIC "-//W3C//DTD SVG 1.1//EN" "http://www.w3.org/Graphics/SVG/1.1/DTD/svg11.dtd">
<svg version="1.1" id="Layer_1" xmlns="http://www.w3.org/2000/svg" xmlns:xlink="http://www.w3.org/1999/xlink" x="0px" y="0px"
	 viewBox="0 0 100 100" style="enable-background:new 0 0 100 100;" xml:space="preserve">
<g>
	<path d="M99.9,59.5C98.7,40.2,83,24.8,63.6,23.9c-0.6,0-1.1-0.1-1.7-0.1c-0.5,0-1,0.1-1.5,0.1c-1.6,0.1-3.3,0.2-4.8,0.5l2.2,4.5
		c1.3-0.2,2.7-0.3,4.1-0.3c18.4,0,33.3,15,33.3,33.3s-15,33.3-33.3,33.3c-11.3,0-21.3-5.7-27.3-14.3c-1-1.5-2-3.1-2.8-4.8
		c-0.7-1.5-1.4-3.1-1.9-4.8c-0.9-3-1.4-6.2-1.4-9.5c0-13.6,8.2-25.3,19.9-30.5l20,40H35c0.6,1.7,1.3,3.3,2.2,4.8h39L50.8,25.5
		c-0.7,0.2-0.7,0.2,0,0L38.1,0v0L0,76.2h26.6c-0.3-0.8-0.3-0.8,0,0c0.7,1.7,1.5,3.2,2.3,4.8c6.6,11.4,18.9,19,32.9,19
		c20.2,0,36.8-15.9,38-35.8c0-0.8,0.1-1.5,0.1-2.3C100,61.1,99.9,60.3,99.9,59.5z M25.1,71.4H7.7l30.4-60.8l8.3,16.5
		c0.4-0.2,0.7-0.3,1.1-0.5c0,0-0.7,0.3-1.1,0.5c-13.3,6-22.5,19.3-22.5,34.7C23.8,65.2,24.3,68.4,25.1,71.4
		C25.2,71.9,25.2,71.9,25.1,71.4z"/>
</g>
</svg>
