<?xml version="1.0" encoding="iso-8859-1"?>
<!-- Generator: Adobe Illustrator 18.1.0, SVG Export Plug-In . SVG Version: 6.00 Build 0)  -->
<!DOCTYPE svg PUBLIC "-//W3C//DTD SVG 1.1//EN" "http://www.w3.org/Graphics/SVG/1.1/DTD/svg11.dtd">
<svg version="1.1" id="Layer_1" xmlns="http://www.w3.org/2000/svg" xmlns:xlink="http://www.w3.org/1999/xlink" x="0px" y="0px"
	 viewBox="0 0 100 100" style="enable-background:new 0 0 100 100;" xml:space="preserve">
<style type="text/css">
	.st0{fill:#F4F4F4;}
	.st1{fill:#F26522;}
	.st2{fill:#8DC63F;}
	.st3{fill:#00AEEF;}
	.st4{fill:#FFC20E;}
	.st5{fill:#FFFFFF;}
	.st6{fill:#00AFF0;}
</style>
<g>
	<path d="M14.3,100h71.4c7.9,0,14.3-6.4,14.3-14.3V71.4H0l0,14.3C0,93.6,6.4,100,14.3,100z M95.2,76.2v9.5c0,5.3-4.3,9.5-9.5,9.5
		H14.3c-5.3,0-9.5-4.3-9.5-9.5v-9.5H95.2z"/>
	<path d="M95.2,35.7v3.7V50c0,5.3-4.3,9.5-9.5,9.5s-9.5-4.3-9.5-9.5c0-2.9-0.9-5.6-2.4-7.9c-2.6-3.9-6.9-6.4-11.9-6.4
		s-9.3,2.5-11.9,6.4c-1.5,2.3-2.4,5-2.4,7.9c0,5.3-4.3,9.5-9.5,9.5s-9.5-4.3-9.5-9.5c0-2.9-0.9-5.6-2.4-7.9
		c-2.6-3.9-6.9-6.4-11.9-6.4C6.4,35.7,0,42.1,0,50v14.3h4.8v-3.7V50c0-5.3,4.3-9.5,9.5-9.5s9.5,4.3,9.5,9.5c0,2.9,0.9,5.6,2.4,7.9
		c2.6,3.9,6.9,6.4,11.9,6.4s9.3-2.5,11.9-6.4c1.5-2.3,2.4-5,2.4-7.9c0-5.3,4.3-9.5,9.5-9.5s9.5,4.3,9.5,9.5c0,2.9,0.9,5.6,2.4,7.9
		c2.6,3.9,6.9,6.4,11.9,6.4c7.9,0,14.3-6.4,14.3-14.3V35.7H95.2z"/>
	<path d="M85.7,0L14.3,0C6.4,0,0,6.4,0,14.3l0,14.3h100V14.3C100,6.4,93.6,0,85.7,0z M4.8,23.8v-9.5C4.8,9,9,4.8,14.3,4.8h71.4
		c5.3,0,9.5,4.3,9.5,9.5v9.5H4.8z"/>
</g>
</svg>
