<?xml version="1.0" encoding="iso-8859-1"?>
<!-- Generator: Adobe Illustrator 18.1.0, SVG Export Plug-In . SVG Version: 6.00 Build 0)  -->
<!DOCTYPE svg PUBLIC "-//W3C//DTD SVG 1.1//EN" "http://www.w3.org/Graphics/SVG/1.1/DTD/svg11.dtd">
<svg version="1.1" id="Layer_1" xmlns="http://www.w3.org/2000/svg" xmlns:xlink="http://www.w3.org/1999/xlink" x="0px" y="0px"
	 viewBox="0 0 100 100" style="enable-background:new 0 0 100 100;" xml:space="preserve">
<polygon points="76.2,0 76.2,4.8 91.9,4.8 50,46.6 8.1,4.8 23.8,4.8 23.8,0 0,0 0,23.8 4.8,23.8 4.8,8.1 46.6,50 4.8,91.9 4.8,76.2 
	0,76.2 0,100 23.8,100 23.8,95.2 8.1,95.2 50,53.4 91.9,95.2 76.2,95.2 76.2,100 100,100 100,76.2 95.2,76.2 95.2,91.9 53.4,50 
	95.2,8.1 95.2,23.8 100,23.8 100,0 "/>
</svg>
