<?xml version="1.0" encoding="iso-8859-1"?>
<!-- Generator: Adobe Illustrator 18.1.0, SVG Export Plug-In . SVG Version: 6.00 Build 0)  -->
<!DOCTYPE svg PUBLIC "-//W3C//DTD SVG 1.1//EN" "http://www.w3.org/Graphics/SVG/1.1/DTD/svg11.dtd">
<svg version="1.1" id="Layer_1" xmlns="http://www.w3.org/2000/svg" xmlns:xlink="http://www.w3.org/1999/xlink" x="0px" y="0px"
	 viewBox="0 0 100 100" style="enable-background:new 0 0 100 100;" xml:space="preserve">
<g>
	<rect x="0" y="95.2" width="4.8" height="4.8"/>
	<rect x="23.8" y="95.2" width="4.8" height="4.8"/>
	<rect x="47.6" y="95.2" width="4.8" height="4.8"/>
	<rect x="71.4" y="95.2" width="4.8" height="4.8"/>
	<rect x="95.2" y="95.2" width="4.8" height="4.8"/>
	<rect x="0" y="71.4" width="4.8" height="4.8"/>
	<rect x="23.8" y="71.4" width="4.8" height="4.8"/>
	<rect x="47.6" y="71.4" width="4.8" height="4.8"/>
	<rect x="71.4" y="71.4" width="4.8" height="4.8"/>
	<rect x="95.2" y="71.4" width="4.8" height="4.8"/>
	<rect x="0" y="47.6" width="4.8" height="4.8"/>
	<rect x="23.8" y="47.6" width="4.8" height="4.8"/>
	<rect x="47.6" y="47.6" width="4.8" height="4.8"/>
	<rect x="71.4" y="47.6" width="4.8" height="4.8"/>
	<rect x="95.2" y="47.6" width="4.8" height="4.8"/>
	<rect x="0" y="23.8" width="4.8" height="4.8"/>
	<rect x="23.8" y="23.8" width="4.8" height="4.8"/>
	<rect x="47.6" y="23.8" width="4.8" height="4.8"/>
	<rect x="71.4" y="23.8" width="4.8" height="4.8"/>
	<rect x="95.2" y="23.8" width="4.8" height="4.8"/>
	<rect x="0" width="4.8" height="4.8"/>
	<rect x="23.8" width="4.8" height="4.8"/>
	<rect x="47.6" width="4.8" height="4.8"/>
	<rect x="71.4" width="4.8" height="4.8"/>
	<rect x="95.2" width="4.8" height="4.8"/>
</g>
</svg>
