<?xml version="1.0" encoding="iso-8859-1"?>
<!-- Generator: Adobe Illustrator 19.1.0, SVG Export Plug-In . SVG Version: 6.00 Build 0)  -->
<!DOCTYPE svg PUBLIC "-//W3C//DTD SVG 1.1//EN" "http://www.w3.org/Graphics/SVG/1.1/DTD/svg11.dtd">
<svg version="1.1" id="Layer_1" xmlns="http://www.w3.org/2000/svg" xmlns:xlink="http://www.w3.org/1999/xlink" x="0px" y="0px"
	 width="100px" height="100px" viewBox="0 0 100 100" style="enable-background:new 0 0 100 100;" xml:space="preserve">
<style type="text/css">
	.st0{fill:#F4F4F4;}
	.st1{fill:#F26522;}
	.st2{fill:#8DC63F;}
	.st3{fill:#00AEEF;}
	.st4{fill:#FFC20E;}
	.st5{fill:#FFFFFF;}
	.st6{fill:#00AFF0;}
	.st7{fill:#3176BB;}
	.st8{fill:#999999;}
	.st9{fill:#CCCBCB;}
	.st10{fill:#676767;}
	.st11{fill:#CCCCCC;}
	.st12{fill:#0078D7;}
	.st13{fill:#E3008C;}
	.st14{fill-rule:evenodd;clip-rule:evenodd;fill:#00BCF2;}
	.st15{fill-rule:evenodd;clip-rule:evenodd;fill:#002050;}
	.st16{fill-rule:evenodd;clip-rule:evenodd;fill:#00188F;}
	.st17{fill-rule:evenodd;clip-rule:evenodd;fill:#00B294;}
	.st18{fill-rule:evenodd;clip-rule:evenodd;fill:#004B50;}
	.st19{fill-rule:evenodd;clip-rule:evenodd;fill:#BAD80A;}
	.st20{fill-rule:evenodd;clip-rule:evenodd;fill:#004B1C;}
	.st21{fill-rule:evenodd;clip-rule:evenodd;fill:#B4A0FF;}
	.st22{fill-rule:evenodd;clip-rule:evenodd;fill:#FFF100;}
	.st23{fill-rule:evenodd;clip-rule:evenodd;fill:#A80000;}
	.st24{fill-rule:evenodd;clip-rule:evenodd;fill:#5C005C;}
	.st25{fill-rule:evenodd;clip-rule:evenodd;fill:#32145A;}
	.st26{fill-rule:evenodd;clip-rule:evenodd;fill:#FF8C00;}
	.st27{fill-rule:evenodd;clip-rule:evenodd;fill:#E3008C;}
	.st28{fill-rule:evenodd;clip-rule:evenodd;fill:#0078D7;}
	.st29{opacity:0.2;fill-rule:evenodd;clip-rule:evenodd;fill:#231F20;}
	.st30{opacity:7.000000e-02;fill-rule:evenodd;clip-rule:evenodd;fill:#231F20;}
	.st31{opacity:0.1;fill-rule:evenodd;clip-rule:evenodd;fill:#231F20;}
	.st32{opacity:0.3;fill-rule:evenodd;clip-rule:evenodd;fill:#231F20;}
	.st33{opacity:0.6;fill-rule:evenodd;clip-rule:evenodd;fill:#FFFFFF;}
	.st34{opacity:0.1;fill-rule:evenodd;clip-rule:evenodd;fill:#FFFFFF;}
	.st35{opacity:0.8;fill-rule:evenodd;clip-rule:evenodd;fill:#FFFFFF;}
	.st36{opacity:0.9;fill-rule:evenodd;clip-rule:evenodd;fill:#FFFFFF;}
	.st37{fill-rule:evenodd;clip-rule:evenodd;fill:#008272;}
	.st38{opacity:0.4;fill-rule:evenodd;clip-rule:evenodd;fill:#231F20;}
	.st39{fill-rule:evenodd;clip-rule:evenodd;fill:#FFFFFF;}
	.st40{fill-rule:evenodd;clip-rule:evenodd;fill:#231F20;}
	.st41{opacity:0.6;fill-rule:evenodd;clip-rule:evenodd;fill:#231F20;}
	.st42{opacity:0.4;}
	.st43{fill:#231F20;}
	.st44{fill:#373537;}
	.st45{fill:#49494B;}
</style>
<g>
	<path d="M41.8,0C18.7,0,0,18.7,0,41.8c0,23.1,18.7,41.8,41.8,41.8c23.1,0,41.8-18.7,41.8-41.8C83.7,18.7,64.9,0,41.8,0z M41.8,62.9
		c-11.6,0-21-9.4-21-21c0-11.6,9.4-21,21-21c11.6,0,21,9.4,21,21C62.9,53.5,53.5,62.9,41.8,62.9z"/>
	<path class="st3" d="M83.7,2.6L81.1,0L0,81.1l2.6,2.6C25,105.6,61,105.4,83.2,83.2C105.4,61,105.6,25,83.7,2.6z M80.5,80.5
		c-20.7,20.7-54.2,20.8-75,0.3L80.8,5.5C101.3,26.3,101.2,59.8,80.5,80.5z"/>
</g>
</svg>
