<?xml version="1.0" encoding="iso-8859-1"?>
<!-- Generator: Adobe Illustrator 18.1.0, SVG Export Plug-In . SVG Version: 6.00 Build 0)  -->
<!DOCTYPE svg PUBLIC "-//W3C//DTD SVG 1.1//EN" "http://www.w3.org/Graphics/SVG/1.1/DTD/svg11.dtd">
<svg version="1.1" id="Layer_1" xmlns="http://www.w3.org/2000/svg" xmlns:xlink="http://www.w3.org/1999/xlink" x="0px" y="0px"
	 viewBox="0 0 100 100" style="enable-background:new 0 0 100 100;" xml:space="preserve">
<style type="text/css">
	.st0{fill:#F4F4F4;}
	.st1{fill:#F26522;}
	.st2{fill:#8DC63F;}
	.st3{fill:#00AEEF;}
	.st4{fill:#FFC20E;}
	.st5{fill:#FFFFFF;}
	.st6{fill:#00AFF0;}
</style>
<path d="M100,50c0,27.6-22.4,50-50,50S0,77.6,0,50h4.8c0,24.9,20.3,45.2,45.2,45.2S95.2,74.9,95.2,50H100z M14.3,4.8
	C9,4.8,4.8,9,4.8,14.3s4.3,9.5,9.5,9.5s9.5-4.3,9.5-9.5S19.5,4.8,14.3,4.8 M14.3,0c7.9,0,14.3,6.4,14.3,14.3s-6.4,14.3-14.3,14.3
	S0,22.2,0,14.3S6.4,0,14.3,0L14.3,0z M85.7,4.8c-5.3,0-9.5,4.3-9.5,9.5s4.3,9.5,9.5,9.5s9.5-4.3,9.5-9.5S91,4.8,85.7,4.8 M85.7,0
	C93.6,0,100,6.4,100,14.3s-6.4,14.3-14.3,14.3s-14.3-6.4-14.3-14.3S77.8,0,85.7,0L85.7,0z"/>
</svg>
