<?xml version="1.0" encoding="iso-8859-1"?>
<!-- Generator: Adobe Illustrator 18.1.0, SVG Export Plug-In . SVG Version: 6.00 Build 0)  -->
<!DOCTYPE svg PUBLIC "-//W3C//DTD SVG 1.1//EN" "http://www.w3.org/Graphics/SVG/1.1/DTD/svg11.dtd">
<svg version="1.1" id="Layer_1" xmlns="http://www.w3.org/2000/svg" xmlns:xlink="http://www.w3.org/1999/xlink" x="0px" y="0px"
	 viewBox="0 0 100 21.4" style="enable-background:new 0 0 100 21.4;" xml:space="preserve">
<style type="text/css">
	.st0{fill:#F4F4F4;}
	.st1{fill:#F26522;}
	.st2{fill:#8DC63F;}
	.st3{fill:#00AEEF;}
	.st4{fill:#FFC20E;}
	.st5{fill:#FFFFFF;}
	.st6{fill:#00AFF0;}
</style>
<g>
	<g>
		<path class="st0" d="M35.3,12.3L34.7,14h0c-0.1-0.4-0.3-1-0.6-1.7l-3.2-8h-3.1v12.8h2.1V9.2c0-0.5,0-1.1,0-1.7
			c0-0.3,0-0.6-0.1-0.8h0c0.1,0.5,0.2,0.8,0.3,1.1l3.8,9.3h1.4l3.8-9.4c0.1-0.2,0.2-0.6,0.3-1h0c0,0.9-0.1,1.8-0.1,2.3v8.1h2.2V4.3
			h-3L35.3,12.3z"/>
		<rect x="43.7" y="7.9" class="st0" width="2.2" height="9.2"/>
		<path class="st0" d="M44.8,4c-0.4,0-0.7,0.1-0.9,0.4c-0.3,0.2-0.4,0.5-0.4,0.9c0,0.4,0.1,0.6,0.4,0.9c0.3,0.2,0.6,0.4,0.9,0.4
			c0.4,0,0.7-0.1,0.9-0.4c0.3-0.2,0.4-0.5,0.4-0.9c0-0.3-0.1-0.6-0.4-0.9C45.5,4.1,45.1,4,44.8,4z"/>
		<path class="st0" d="M53.5,7.8c-0.4-0.1-0.8-0.1-1.2-0.1c-1,0-1.9,0.2-2.6,0.6c-0.8,0.4-1.3,1-1.7,1.8c-0.4,0.8-0.6,1.6-0.6,2.6
			c0,0.9,0.2,1.7,0.6,2.4c0.4,0.7,0.9,1.3,1.6,1.6c0.7,0.4,1.5,0.6,2.4,0.6c1,0,1.9-0.2,2.6-0.6l0,0v-2l-0.1,0.1
			c-0.3,0.2-0.7,0.4-1.1,0.5c-0.4,0.1-0.7,0.2-1,0.2c-0.8,0-1.5-0.3-2-0.8c-0.5-0.5-0.7-1.3-0.7-2.2c0-0.9,0.3-1.7,0.8-2.2
			c0.5-0.6,1.2-0.8,2-0.8c0.7,0,1.4,0.2,2.1,0.7l0.1,0.1V8.2l0,0C54.2,8,53.9,7.9,53.5,7.8z"/>
		<path class="st0" d="M60.6,7.7c-0.5,0-1,0.2-1.4,0.5c-0.4,0.3-0.6,0.7-0.8,1.2h0V7.9h-2.2v9.2h2.2v-4.7c0-0.8,0.2-1.5,0.5-1.9
			c0.4-0.5,0.8-0.7,1.4-0.7c0.2,0,0.4,0,0.6,0.1c0.2,0.1,0.4,0.1,0.5,0.2l0.1,0.1V7.9l0,0C61.2,7.8,60.9,7.7,60.6,7.7z"/>
		<path class="st0" d="M66.4,7.7c-1.5,0-2.7,0.4-3.6,1.3c-0.9,0.9-1.3,2.1-1.3,3.6c0,1.4,0.4,2.6,1.3,3.4c0.8,0.8,2,1.3,3.4,1.3
			c1.5,0,2.6-0.4,3.5-1.3c0.9-0.9,1.3-2.1,1.3-3.6c0-1.5-0.4-2.6-1.2-3.5C69,8.1,67.9,7.7,66.4,7.7z M68.1,14.7
			c-0.4,0.5-1,0.8-1.8,0.8c-0.8,0-1.4-0.3-1.9-0.8c-0.4-0.5-0.7-1.3-0.7-2.2c0-1,0.2-1.7,0.7-2.3c0.4-0.5,1.1-0.8,1.8-0.8
			c0.8,0,1.4,0.3,1.8,0.8c0.4,0.5,0.7,1.3,0.7,2.2C68.8,13.5,68.6,14.2,68.1,14.7z"/>
		<path class="st0" d="M75.8,11.7c-0.7-0.3-1.1-0.5-1.3-0.7c-0.2-0.2-0.3-0.4-0.3-0.7c0-0.3,0.1-0.5,0.3-0.7
			c0.2-0.2,0.5-0.3,0.9-0.3c0.4,0,0.7,0.1,1.1,0.2c0.4,0.1,0.7,0.3,1,0.4l0.1,0.1v-2l0,0c-0.2-0.1-0.6-0.2-1-0.3
			c-0.4-0.1-0.8-0.1-1.1-0.1c-1,0-1.9,0.3-2.5,0.8c-0.7,0.5-1,1.2-1,2c0,0.4,0.1,0.8,0.2,1.1c0.1,0.3,0.4,0.6,0.7,0.9
			c0.3,0.2,0.7,0.5,1.3,0.7c0.5,0.2,0.9,0.4,1.1,0.5c0.2,0.1,0.4,0.3,0.5,0.4c0.1,0.1,0.1,0.3,0.1,0.5c0,0.6-0.5,0.9-1.4,0.9
			c-0.4,0-0.8-0.1-1.2-0.2c-0.4-0.1-0.9-0.4-1.2-0.6L72,14.7v2.1l0,0c0.3,0.1,0.7,0.3,1.2,0.4c0.5,0.1,0.9,0.1,1.2,0.1
			c1.1,0,2-0.3,2.7-0.8c0.7-0.5,1-1.2,1-2.1c0-0.6-0.2-1.1-0.5-1.6C77.2,12.4,76.6,12,75.8,11.7z"/>
		<path class="st0" d="M83.9,7.7c-1.5,0-2.7,0.4-3.6,1.3c-0.9,0.9-1.3,2.1-1.3,3.6c0,1.4,0.4,2.6,1.3,3.4c0.8,0.8,2,1.3,3.4,1.3
			c1.5,0,2.6-0.4,3.5-1.3c0.9-0.9,1.3-2.1,1.3-3.6c0-1.5-0.4-2.6-1.2-3.5C86.5,8.1,85.4,7.7,83.9,7.7z M85.6,14.7
			c-0.4,0.5-1,0.8-1.8,0.8c-0.8,0-1.4-0.3-1.9-0.8c-0.4-0.5-0.7-1.3-0.7-2.2c0-1,0.2-1.7,0.7-2.3c0.4-0.5,1.1-0.8,1.8-0.8
			c0.8,0,1.4,0.3,1.8,0.8c0.4,0.5,0.7,1.3,0.7,2.2C86.3,13.5,86.1,14.2,85.6,14.7z"/>
		<path class="st0" d="M100,9.7V7.9h-2.2V5.2l-0.1,0l-2.1,0.6l0,0v2.1h-3.2V6.7c0-0.5,0.1-0.9,0.4-1.2c0.2-0.3,0.6-0.4,1-0.4
			c0.3,0,0.6,0.1,0.9,0.2l0.1,0V3.5l0,0c-0.3-0.1-0.7-0.2-1.2-0.2c-0.6,0-1.2,0.1-1.7,0.4c-0.5,0.3-0.9,0.7-1.2,1.2
			c-0.3,0.5-0.4,1.1-0.4,1.7v1.3h-1.5v1.8h1.5v7.4h2.2V9.7h3.2v4.7c0,1.9,0.9,2.9,2.7,2.9c0.3,0,0.6,0,0.9-0.1
			c0.3-0.1,0.5-0.1,0.7-0.2l0,0v-1.8l-0.1,0.1c-0.1,0.1-0.3,0.1-0.4,0.2c-0.2,0-0.3,0.1-0.4,0.1c-0.4,0-0.7-0.1-0.9-0.3
			c-0.2-0.2-0.3-0.6-0.3-1.2V9.7H100z"/>
	</g>
	<rect x="0" y="0" class="st1" width="10.1" height="10.1"/>
	<rect x="11.2" y="0" class="st2" width="10.1" height="10.1"/>
	<rect x="0" y="11.2" class="st3" width="10.1" height="10.1"/>
	<rect x="11.2" y="11.2" class="st4" width="10.1" height="10.1"/>
</g>
</svg>
