<?xml version="1.0" encoding="iso-8859-1"?>
<!-- Generator: Adobe Illustrator 18.1.0, SVG Export Plug-In . SVG Version: 6.00 Build 0)  -->
<!DOCTYPE svg PUBLIC "-//W3C//DTD SVG 1.1//EN" "http://www.w3.org/Graphics/SVG/1.1/DTD/svg11.dtd">
<svg version="1.1" id="Layer_1" xmlns="http://www.w3.org/2000/svg" xmlns:xlink="http://www.w3.org/1999/xlink" x="0px" y="0px"
	 viewBox="0 0 100 100" style="enable-background:new 0 0 100 100;" xml:space="preserve">
<style type="text/css">
	.st0{fill:#F4F4F4;}
	.st1{fill:#F26522;}
	.st2{fill:#8DC63F;}
	.st3{fill:#00AEEF;}
	.st4{fill:#FFC20E;}
	.st5{fill:#FFFFFF;}
	.st6{fill:#00AFF0;}
	.st7{fill:#3176BB;}
	.st8{fill:#999999;}
	.st9{fill:#CCCBCB;}
	.st10{fill:#676767;}
	.st11{fill:#CCCCCC;}
	.st12{fill:#0078D7;}
	.st13{fill:#E3008C;}
</style>
<path d="M83,37.6c0.2-1.4,0.3-2.8,0.3-4.3C83.3,14.9,68.4,0,50,0S16.7,14.9,16.7,33.3c0,1.5,0.1,2.9,0.3,4.3C6.8,43.4,0,54.2,0,66.7
	C0,85.1,14.9,100,33.3,100c6.1,0,11.8-1.7,16.7-4.5c4.9,2.8,10.6,4.5,16.7,4.5c18.4,0,33.3-14.9,33.3-33.3
	C100,54.2,93.2,43.4,83,37.6z M21.4,33.3C21.4,17.6,34.2,4.8,50,4.8s28.6,12.8,28.6,28.6c0,0.7-0.1,1.5-0.1,2.2
	c-3.7-1.4-7.6-2.2-11.8-2.2c-6.1,0-11.8,1.7-16.7,4.5c-4.9-2.8-10.6-4.5-16.7-4.5c-4.2,0-8.1,0.8-11.8,2.2
	C21.5,34.8,21.4,34.1,21.4,33.3z M61.9,66.7c0,9.5-4.7,18-11.9,23.2c-7.2-5.2-11.9-13.6-11.9-23.2c0-0.7,0.1-1.5,0.1-2.2
	c3.7,1.4,7.6,2.2,11.8,2.2s8.1-0.8,11.8-2.2C61.8,65.2,61.9,65.9,61.9,66.7z M50,61.9c-3.9,0-7.6-0.8-11-2.2
	c1.7-6.6,5.6-12.3,11-16.2c5.4,3.9,9.3,9.6,11,16.2C57.6,61.1,53.9,61.9,50,61.9z M34.7,57.4c-6.1-3.9-10.5-9.9-12.3-17.1
	c3.4-1.4,7.1-2.2,11-2.2c4.4,0,8.5,1,12.2,2.8C40.4,45.1,36.6,50.8,34.7,57.4z M54.4,40.9c3.7-1.8,7.8-2.8,12.2-2.8
	c3.9,0,7.6,0.8,11,2.2c-1.8,7.1-6.3,13.2-12.3,17.1C63.4,50.8,59.6,45.1,54.4,40.9z M33.3,95.2c-15.8,0-28.6-12.8-28.6-28.6
	c0-10.1,5.3-19,13.2-24.1c2.4,8.5,8.1,15.5,15.6,19.8c-0.2,1.4-0.3,2.8-0.3,4.3c0,10.4,4.8,19.7,12.2,25.8
	C41.8,94.2,37.7,95.2,33.3,95.2z M66.7,95.2c-4.4,0-8.5-1-12.2-2.8c7.5-6.1,12.2-15.4,12.2-25.8c0-1.5-0.1-2.9-0.3-4.3
	c7.5-4.2,13.2-11.3,15.6-19.8c7.9,5.1,13.2,14,13.2,24.1C95.2,82.4,82.4,95.2,66.7,95.2z"/>
</svg>
