<?xml version="1.0" encoding="iso-8859-1"?>
<!-- Generator: Adobe Illustrator 18.1.0, SVG Export Plug-In . SVG Version: 6.00 Build 0)  -->
<!DOCTYPE svg PUBLIC "-//W3C//DTD SVG 1.1//EN" "http://www.w3.org/Graphics/SVG/1.1/DTD/svg11.dtd">
<svg version="1.1" id="Layer_1" xmlns="http://www.w3.org/2000/svg" xmlns:xlink="http://www.w3.org/1999/xlink" x="0px" y="0px"
	 viewBox="0 0 100 32" style="enable-background:new 0 0 100 32;" xml:space="preserve">
<style type="text/css">
	.st0{fill:#F4F4F4;}
	.st1{fill:#F26522;}
	.st2{fill:#8DC63F;}
	.st3{fill:#00AEEF;}
	.st4{fill:#FFC20E;}
	.st5{fill:#FFFFFF;}
	.st6{fill:#00AFF0;}
</style>
<g>
	<g>
		<path class="st5" d="M44.9,26.1c-2.7,0-4.9-0.9-6.5-2.7c-1.6-1.8-2.4-4.1-2.4-6.9c0-3.1,0.8-5.5,2.5-7.3c1.7-1.8,3.9-2.7,6.8-2.7
			c2.6,0,4.7,0.9,6.4,2.7c1.6,1.8,2.4,4.1,2.4,6.9c0,3.1-0.8,5.6-2.5,7.4C49.8,25.2,47.6,26.1,44.9,26.1z M45,8.4
			c-2,0-3.6,0.7-4.9,2.2c-1.2,1.4-1.9,3.3-1.9,5.7c0,2.3,0.6,4.2,1.8,5.7c1.2,1.4,2.8,2.1,4.8,2.1c2.1,0,3.7-0.7,4.9-2
			c1.2-1.4,1.8-3.3,1.8-5.7c0-2.5-0.6-4.5-1.8-5.8C48.7,9.1,47.1,8.4,45,8.4z"/>
		<path class="st5" d="M69.4,7.2c0.5,0,1,0.1,1.4,0.4v-2c-0.4-0.2-0.9-0.2-1.6-0.2c-1.2,0-2.3,0.4-3.1,1.2c-0.8,0.8-1.2,2-1.2,3.4
			v2.2h-2.3h-0.1h-3.1v-2.1c0-1.9,0.8-2.9,2.3-2.9c0.5,0,1,0.1,1.4,0.4v-2c-0.4-0.2-0.9-0.2-1.6-0.2c-1.2,0-2.3,0.4-3.1,1.2
			s-1.2,2-1.2,3.4v2.2H55V14h2.3v11.7h2.2V14h3.1h0.1h2.3v11.7h2.2V14h3.2v-1.9h-3.2v-2.1C67.1,8.1,67.9,7.2,69.4,7.2z"/>
		<path class="st5" d="M73.4,8.7c-0.4,0-0.7-0.1-1-0.4C72.2,8,72,7.7,72,7.3c0-0.4,0.1-0.7,0.4-1c0.3-0.3,0.6-0.4,1-0.4
			c0.4,0,0.7,0.1,1,0.4c0.3,0.3,0.4,0.6,0.4,1c0,0.4-0.1,0.7-0.4,1C74.2,8.6,73.8,8.7,73.4,8.7z M74.5,25.7h-2.2V12.1h2.2V25.7z"/>
		<path class="st5" d="M86.7,25.1c-1,0.6-2.3,0.9-3.7,0.9c-1.9,0-3.5-0.6-4.7-1.9c-1.2-1.3-1.8-2.9-1.8-4.9c0-2.2,0.6-4,1.9-5.4
			c1.3-1.4,3-2,5.1-2c1.2,0,2.2,0.2,3.2,0.7v2.2c-1-0.7-2.1-1.1-3.2-1.1c-1.4,0-2.5,0.5-3.4,1.5c-0.9,1-1.3,2.3-1.3,3.9
			c0,1.6,0.4,2.9,1.3,3.8c0.8,0.9,2,1.4,3.4,1.4c1.2,0,2.3-0.4,3.3-1.2V25.1z"/>
		<path class="st5" d="M100,19.5h-9.6c0,1.5,0.4,2.7,1.2,3.5c0.8,0.8,1.9,1.2,3.2,1.2c1.5,0,2.9-0.5,4.2-1.5v2
			c-1.2,0.9-2.8,1.3-4.7,1.3c-1.9,0-3.4-0.6-4.5-1.9c-1.1-1.2-1.6-3-1.6-5.2c0-2.1,0.6-3.8,1.8-5.2c1.2-1.3,2.7-2,4.5-2
			c1.8,0,3.2,0.6,4.1,1.7c1,1.2,1.5,2.7,1.5,4.8V19.5z M97.8,17.6c0-1.3-0.3-2.2-0.9-2.9c-0.6-0.7-1.4-1-2.5-1c-1,0-1.9,0.4-2.6,1.1
			c-0.7,0.7-1.2,1.7-1.3,2.9H97.8z"/>
	</g>
	<polygon class="st5" points="17.2,0 0,6.6 0,25.8 0,25.8 6.2,23.3 6.2,8.1 17.3,5.6 17.3,28.1 0,25.8 17.2,32 26.7,28.9 26.7,3.2 	
		"/>
</g>
</svg>
